<?xml version="1.0" encoding="utf-8"?>
<!-- Generator: Adobe Illustrator 16.0.0, SVG Export Plug-In . SVG Version: 6.00 Build 0)  -->
<!DOCTYPE svg PUBLIC "-//W3C//DTD SVG 1.1//EN" "http://www.w3.org/Graphics/SVG/1.1/DTD/svg11.dtd">
<svg version="1.1" id="Layer_1" xmlns="http://www.w3.org/2000/svg" xmlns:xlink="http://www.w3.org/1999/xlink" x="0px" y="0px"
	 width="50px" height="50px" viewBox="0 0 50 50" enable-background="new 0 0 50 50" xml:space="preserve">
<g>
	<path fill="#FF9400" d="M25.006-0.5c-13.8,0-25.423,11.201-24.994,25c0.158,5.148,1.204,9.096,3.694,13.079l5.021-2.745
		C6.67,31.654,6.001,28.566,6.001,24.5c0-11.273,7.529-18.833,18.801-18.833c11.27,0,19.366,7.56,19.366,18.833
		c0,11.271-8.097,18.68-19.366,18.68c-5.117,0-9.053-0.898-12.634-4.013l-3.58,4.179c4.464,4.149,9.853,6.154,16.423,6.154
		C38.812,49.5,50,38.311,50,24.5C50,10.691,38.812-0.5,25.006-0.5L25.006-0.5z"/>
	<path fill="#FF9400" d="M8.726,43.468c-0.193-0.163-0.347-0.362-0.459-0.575L8.726,43.468z"/>
	<path fill="#FF9400" d="M3.7,37.568c-0.092-0.162-0.158-0.346-0.188-0.547L3.7,37.568z"/>
	<path fill="#FF9400" d="M22.552,15.089c0,1.332,1.082,2.414,2.413,2.414s2.413-1.083,2.413-2.414c0-1.332-1.081-2.414-2.413-2.414
		C23.634,12.671,22.552,13.752,22.552,15.089z"/>
	<path fill="#FF9400" d="M27.058,35.818c0,1.246-1.012,2.256-2.255,2.256l0,0c-1.245,0-2.255-1.01-2.255-2.256V21.943
		c0-1.245,1.01-2.255,2.255-2.255l0,0c1.244,0,2.255,1.01,2.255,2.255V35.818L27.058,35.818z"/>
</g>
</svg>
