<?xml version="1.0" encoding="utf-8"?>
<!-- Generator: Adobe Illustrator 16.0.0, SVG Export Plug-In . SVG Version: 6.00 Build 0)  -->
<!DOCTYPE svg PUBLIC "-//W3C//DTD SVG 1.1//EN" "http://www.w3.org/Graphics/SVG/1.1/DTD/svg11.dtd">
<svg version="1.1" id="Layer_1" xmlns="http://www.w3.org/2000/svg" xmlns:xlink="http://www.w3.org/1999/xlink" x="0px" y="0px"
	 width="160px" height="160px" viewBox="0 0 160 160" enable-background="new 0 0 160 160" xml:space="preserve">
<title>Split AC</title>
<desc>Created with Sketch.</desc>
<g id="Symbols">
	<g id="Split-AC">
		<g id="Page-1" transform="translate(0.000000, 6.000000)">
			<path id="Stroke-1" fill="#FFFFFF" d="M21.06,87.579h117.549c0.593,0,1.072-0.56,1.072-1.25c0-0.685-0.481-1.24-1.072-1.24H21.06
				c-0.595,0-1.077,0.558-1.077,1.24C19.984,87.021,20.464,87.579,21.06,87.579z"/>
			<path id="Stroke-11" fill="#FFFFFF" d="M137.05,85.706c0,6.774-4.817,12.333-10.698,12.333H33.314
				c-5.879,0-10.697-5.559-10.697-12.333V66.961c0-6.774,4.818-12.329,10.697-12.329h93.038c5.879,0,10.697,5.556,10.697,12.329
				L137.05,85.706L137.05,85.706z M141.5,85.706V66.961c0-9.611-6.814-17.461-15.148-17.461H33.314
				c-8.337,0-15.148,7.851-15.148,17.461v18.745c0,9.61,6.811,17.461,15.148,17.461h93.038
				C134.686,103.166,141.5,95.314,141.5,85.706z"/>
			<path id="Stroke-13" fill="#FFFFFF" d="M71.853,72.987h15.965c0.591,0,1.072-0.559,1.072-1.249c0-0.688-0.483-1.246-1.072-1.246
				H71.853c-0.593,0-1.074,0.558-1.074,1.246C70.779,72.427,71.259,72.987,71.853,72.987z"/>
		</g>
	</g>
</g>
</svg>
