<?xml version="1.0" encoding="utf-8"?>
<!-- Generator: Adobe Illustrator 16.0.0, SVG Export Plug-In . SVG Version: 6.00 Build 0)  -->
<!DOCTYPE svg PUBLIC "-//W3C//DTD SVG 1.1//EN" "http://www.w3.org/Graphics/SVG/1.1/DTD/svg11.dtd">
<svg version="1.1" id="Layer_1" xmlns="http://www.w3.org/2000/svg" xmlns:xlink="http://www.w3.org/1999/xlink" x="0px" y="0px"
	 width="160px" height="160px" viewBox="-69.616 -69 160 160" enable-background="new -69.616 -69 160 160" xml:space="preserve">
<title>Alarm</title>
<desc>Created with Sketch.</desc>
<g id="Symbols">
	<g id="Alarm">
		<g id="Group" transform="translate(2.000000, 2.000000)">
			<path id="Shape" fill="#FF9400" d="M41.17,50.48c0.747,1.17,0.252,2.578-0.989,3.285C39.687,54,39.439,54,38.944,54
				c-0.993,0-1.729-0.473-2.225-1.175l-7.18-12.659c-5.938,3.987-13.111,6.332-21.032,6.332c-7.918,0-15.095-2.345-21.033-6.332
				l-7.176,12.659C-20.198,53.527-20.939,54-21.928,54c-0.494,0-0.741,0-1.238-0.234c-1.236-0.707-1.73-2.115-0.989-3.285
				l7.671-13.59c-7.176-6.327-11.631-15.237-11.631-25.079c0-8.438,3.219-16.405,8.91-22.735c0.989-0.936,2.474-0.936,3.463-0.234
				c0.992,0.938,1.239,2.345,0.248,3.281c-4.949,5.391-7.671,12.422-7.671,19.688c0,16.402,14.105,29.764,31.675,29.764
				c17.567,0,31.425-13.361,31.425-29.764c0-16.405-14.101-30-31.425-30c-3.713,0-7.671,0.704-11.137,1.877
				c-1.236,0.468-2.722-0.234-3.216-1.407s0.247-2.579,1.486-3.046c4.205-1.406,8.413-2.111,12.867-2.111
				c20.043,0,36.375,15.469,36.375,34.687c0,9.842-4.455,18.986-11.629,25.079L41.17,50.48z"/>
			<path id="Shape_1_" fill="#FF9400" d="M47.112-7.172c-0.746,0-1.24-0.234-1.735-0.704L23.603-28.5
				c-0.988-0.936-0.988-2.342,0-3.28c2.725-2.579,6.186-3.985,10.146-3.985c7.18,0,15.095,5.392,18.309,12.423
				c2.478,5.859,1.488,11.484-2.967,15.703C48.349-7.406,47.85-7.172,47.112-7.172z M29.046-30.141l18.066,17.109
				c1.978-3.28,1.236-6.797,0.242-8.672c-2.472-5.391-8.41-9.61-13.606-9.61C32.018-31.313,30.282-30.843,29.046-30.141z"/>
			<path id="Shape_2_" fill="#FF9400" d="M-30.59-7.172c-0.742,0-1.236-0.234-1.73-0.704c-4.455-4.216-5.443-9.842-2.969-15.701
				C-32.073-30.609-24.402-36-16.979-36c3.71,0,7.177,1.407,10.146,3.985c0.494,0.468,0.741,0.938,0.741,1.641
				c0,0.704-0.247,1.172-0.741,1.64L-28.61-8.111C-29.352-7.406-29.846-7.172-30.59-7.172z M-16.979-31.313
				c-5.196,0-11.384,4.219-13.611,9.61c-0.742,1.875-1.73,5.392,0.247,8.672l18.066-17.109
				C-13.763-30.843-15.249-31.313-16.979-31.313z"/>
			<path id="Shape_3_" fill="#FF9400" d="M8.508,14.156H-5.845c-1.483,0-2.475-0.936-2.475-2.345s0.991-2.345,2.475-2.345H6.034
				v-20.39c0-1.406,0.989-2.342,2.475-2.342c1.483,0,2.474,0.936,2.474,2.342v22.735C10.982,13.221,9.991,14.156,8.508,14.156z"/>
		</g>
	</g>
</g>
</svg>
