<?xml version="1.0" encoding="utf-8"?>
<!-- Generator: Adobe Illustrator 16.0.0, SVG Export Plug-In . SVG Version: 6.00 Build 0)  -->
<!DOCTYPE svg PUBLIC "-//W3C//DTD SVG 1.1//EN" "http://www.w3.org/Graphics/SVG/1.1/DTD/svg11.dtd">
<svg version="1.1" id="Layer_1" xmlns="http://www.w3.org/2000/svg" xmlns:xlink="http://www.w3.org/1999/xlink" x="0px" y="0px"
	 width="160px" height="160px" viewBox="0 0 160 160" enable-background="new 0 0 160 160" xml:space="preserve">
<title>Chandelier</title>
<desc>Created with Sketch.</desc>
<g id="Symbols">
	<g id="Chandelier">
		<path id="Shape" fill="#A8A6A3" d="M121.512,60.632c-0.197-1.206-1.242-2.09-2.465-2.09h-14.283c-1.222,0-2.267,0.885-2.464,2.09
			l-3.457,20.943c-0.124,0.726,0,2.907,2.464,2.907h8.114V97.75c0,7.316-6.039,13.268-13.444,13.268
			c-7.428,0-13.451-5.949-13.451-13.268V84.482h8.101c1.377,0,2.494-0.994,2.494-2.504c0-0.265-3.511-21.347-3.511-21.347
			c-0.188-1.206-1.234-2.09-2.463-2.09h-4.621V39.55h3.742c1.377,0,2.494-1.118,2.494-2.5c0-1.381-1.117-2.499-2.494-2.499h-3.742
			v-3.399c-0.019-1.384-1.137-2.499-2.518-2.499c-1.382,0-2.497,1.115-2.497,2.499v3.399h-3.74c-1.384,0-2.5,1.118-2.5,2.499
			c0,1.382,1.116,2.5,2.5,2.5h3.739v18.992h-4.663c-1.221,0-2.267,0.885-2.461,2.09l-3.457,20.943c-0.124,0.726,0,2.907,2.463,2.907
			h8.118V97.75c0,7.316-6.045,13.268-13.451,13.268c-7.427,0-13.451-5.949-13.451-13.268V84.482h8.115c1.384,0,2.5-0.994,2.5-2.504
			c0-0.265-3.509-21.347-3.509-21.347c-0.194-1.206-1.239-2.09-2.463-2.09H40.952c-1.224,0-2.27,0.885-2.463,2.09L35.032,81.59
			c-0.125,0.729,0,2.907,2.463,2.907h8.118V97.77c0,10.08,8.275,18.267,18.447,18.267c5.315,0,10.081-2.251,13.451-5.815v5.939
			c0,1.382,1.115,2.494,2.497,2.494c1.381,0,2.5-1.112,2.5-2.494v-5.939c3.366,3.564,8.148,5.815,13.448,5.815
			c10.175,0,18.45-8.206,18.45-18.267V84.498h8.1c1.376,0,2.494-0.992,2.494-2.499C125.02,81.73,121.512,60.632,121.512,60.632z
			 M40.437,79.5l2.642-15.944h10.03l2.64,15.944H40.437z M72.353,79.5l2.639-15.944h10.031L87.664,79.5H72.353z M104.251,79.5
			l2.64-15.944h10.029l2.641,15.944H104.251z"/>
	</g>
</g>
</svg>
