<?xml version="1.0" encoding="utf-8"?>
<!-- Generator: Adobe Illustrator 21.0.0, SVG Export Plug-In . SVG Version: 6.00 Build 0)  -->
<svg version="1.1" id="Layer_1" xmlns="http://www.w3.org/2000/svg" xmlns:xlink="http://www.w3.org/1999/xlink" x="0px" y="0px"
	 width="160px" height="160px" viewBox="0 0 160 160" enable-background="new 0 0 160 160" xml:space="preserve">
<title>Cold Weather</title>
<desc>Created with Sketch.</desc>
<g id="Symbols">
	<g id="Cold-Weather">
		<path id="Shape" fill="#FF9400" d="M127.7,77.5h-14l8.6-8.6c0.9-0.9,0.9-2.4,0-3.3c-0.9-0.9-2.4-0.9-3.3,0l-11.9,11.9H85.6
			L97.1,66h10.1c1.3,0,2.3-1,2.3-2.3c0-1.3-1-2.3-2.3-2.3h-7.3c-0.1-0.3-0.3-0.6-0.5-0.9c-0.2-0.2-0.4-0.3-0.6-0.4v-7.3
			c0-1.3-1-2.3-2.3-2.3s-2.3,1-2.3,2.3v9.8L82.2,74.4V53.2l12.2-12.2c0.9-0.9,0.9-2.4,0-3.3c-0.9-0.9-2.4-0.9-3.3,0l-8.9,8.9V32.3
			c0-1.3-1-2.3-2.3-2.3s-2.3,1-2.3,2.3v14l-8.6-8.6c-0.9-0.9-2.4-0.9-3.3,0c-0.9,0.9-0.9,2.4,0,3.3l11.9,11.9v21.3L65.9,62.5v-9.8
			c0-1.3-1-2.3-2.3-2.3c-1.3,0-2.3,1-2.3,2.3v8.5h-8.7c-1.3,0-2.3,1-2.3,2.3c0,1.3,1,2.3,2.3,2.3h10.1l11.7,11.7H52.8L40.9,65.6
			c-0.9-0.9-2.4-0.9-3.3,0c-0.9,0.9-0.9,2.4,0,3.3l8.6,8.6H32.3c-1.3,0-2.3,1-2.3,2.3s1,2.3,2.3,2.3h14l-8.9,8.9
			c-0.9,0.9-0.9,2.4,0,3.3c0.5,0.5,1,0.7,1.6,0.7s1.2-0.2,1.6-0.7l12.2-12.2h21.4L62.5,94.1h-9.8c-1.3,0-2.3,1-2.3,2.3
			s1,2.3,2.3,2.3H60c0.1,0.2,0.2,0.4,0.4,0.6c0.2,0.2,0.4,0.4,0.7,0.5v7.6c0,1.3,1,2.3,2.3,2.3c1.3,0,2.3-1,2.3-2.3V97.3l11.7-11.7
			v21.6l-11.9,11.9c-0.9,0.9-0.9,2.4,0,3.3c0.5,0.5,1,0.7,1.6,0.7c0.6,0,1.2-0.2,1.6-0.7l8.6-8.6v13.9c0,1.3,1,2.3,2.3,2.3
			s2.3-1,2.3-2.3v-14l8.9,8.9c0.5,0.5,1,0.7,1.6,0.7c0.6,0,1.2-0.2,1.6-0.7c0.9-0.9,0.9-2.4,0-3.3l-12.2-12.2V85.4L94,97.1v10.1
			c0,1.3,1,2.3,2.3,2.3c1.3,0,2.3-1,2.3-2.3v-8.5h8.7c1.3,0,2.3-1,2.3-2.3c0-1.3-1-2.3-2.3-2.3h-9.8L85.6,82.2h21.1l12.2,12.2
			c0.5,0.5,1,0.7,1.6,0.7c0.6,0,1.2-0.2,1.6-0.7c0.9-0.9,0.9-2.4,0-3.3l-8.9-8.9h14.3c1.3,0,2.3-1,2.3-2.3S129,77.5,127.7,77.5z"/>
	</g>
</g>
</svg>
