<?xml version="1.0" encoding="utf-8"?>
<!-- Generator: Adobe Illustrator 16.0.0, SVG Export Plug-In . SVG Version: 6.00 Build 0)  -->
<!DOCTYPE svg PUBLIC "-//W3C//DTD SVG 1.1//EN" "http://www.w3.org/Graphics/SVG/1.1/DTD/svg11.dtd">
<svg version="1.1" id="Layer_1" xmlns="http://www.w3.org/2000/svg" xmlns:xlink="http://www.w3.org/1999/xlink" x="0px" y="0px"
	 width="160px" height="160px" viewBox="0 0 160 160" enable-background="new 0 0 160 160" xml:space="preserve">
<title>Curtians</title>
<desc>Created with Sketch.</desc>
<g id="Symbols">
	<g id="Curtians">
		<path id="Fill-1" fill="#A8A6A3" d="M41,40.377c0,1.066,0.79,1.928,1.69,1.928h2.85h2.194h1.116h7.271h0.568h0.562h6.537h0.381
			h0.559h0.557h5.586h18.938h5.584h0.558h0.56h0.385h6.537h0.557h0.562h7.284h1.109h2.197h4.196c0.922,0,1.663-0.825,1.663-1.928
			v-0.885c0-1.062-0.791-1.926-1.671-1.926h-76.66c-0.922,0-1.67,0.827-1.67,1.926L41,40.377L41,40.377z M54.741,69.477
			c-0.321,0-0.714,0-0.714,0l0,0H53.56h-3.152H49.83h-0.062h2.482h-5.36h-1.138h-2.187c-0.682,0-1.234,0.654-1.234,1.438v0.87
			c0,0.792,0.594,1.436,1.188,1.436l0,0h2.232h3.138h6.534l0,0c0.658,0,1.191-0.652,1.191-1.436v-0.87
			c0-0.793-0.595-1.438-1.282-1.438H54.741L54.741,69.477z M49.399,111.566h5.047v-37.17l-5.047-0.021V111.566z"/>
	</g>
</g>
<polygon fill="#A8A6A3" points="44.59,111.566 49.637,111.566 49.637,74.396 44.59,74.375 "/>
<polygon fill="#A8A6A3" points="49.398,68.066 54.445,68.066 54.445,43.896 49.398,43.875 "/>
<polygon fill="#A8A6A3" points="44.59,68.066 49.637,68.066 49.637,43.896 44.59,43.875 "/>
<path fill="#A8A6A3" d="M70.074,69.477c-0.321,0-0.714,0-0.714,0l0,0h-0.467h-3.152h-0.578h-0.062h2.482h-5.36h-1.138h-2.187
	c-0.682,0-1.234,0.654-1.234,1.438v0.87c0,0.792,0.594,1.436,1.188,1.436l0,0h2.232h3.138h6.534l0,0
	c0.658,0,1.191-0.652,1.191-1.436v-0.87c0-0.793-0.595-1.438-1.282-1.438H70.074L70.074,69.477z"/>
<polygon fill="#A8A6A3" points="64.732,111.566 69.778,111.566 69.778,74.396 64.732,74.375 "/>
<polygon fill="#A8A6A3" points="59.923,111.566 64.97,111.566 64.97,74.396 59.923,74.375 "/>
<polygon fill="#A8A6A3" points="64.731,68.066 69.778,68.066 69.778,43.896 64.731,43.875 "/>
<polygon fill="#A8A6A3" points="59.923,68.066 64.97,68.066 64.97,43.896 59.923,43.875 "/>
<path fill="#A8A6A3" d="M85.905,69.477c-0.321,0-0.714,0-0.714,0l0,0h-0.467h-3.152h-0.578h-0.062h2.482h-5.36h-1.138h-2.187
	c-0.682,0-1.234,0.654-1.234,1.438v0.87c0,0.792,0.594,1.436,1.188,1.436l0,0h2.232h3.138h6.534l0,0
	c0.658,0,1.191-0.652,1.191-1.436v-0.87c0-0.793-0.595-1.438-1.282-1.438H85.905L85.905,69.477z"/>
<polygon fill="#A8A6A3" points="80.562,111.566 85.609,111.566 85.609,74.396 80.562,74.375 "/>
<polygon fill="#A8A6A3" points="75.754,111.566 80.801,111.566 80.801,74.396 75.754,74.375 "/>
<polygon fill="#A8A6A3" points="80.562,68.066 85.609,68.066 85.609,43.896 80.562,43.875 "/>
<polygon fill="#A8A6A3" points="75.754,68.066 80.801,68.066 80.801,43.896 75.754,43.875 "/>
<path fill="#A8A6A3" d="M101.463,69.477c-0.321,0-0.714,0-0.714,0l0,0h-0.467H97.13h-0.578h-0.062h2.482h-5.36h-1.138h-2.187
	c-0.683,0-1.234,0.654-1.234,1.438v0.87c0,0.792,0.594,1.436,1.188,1.436l0,0h2.232h3.139h6.533l0,0
	c0.658,0,1.191-0.652,1.191-1.436v-0.87c0-0.793-0.595-1.438-1.282-1.438H101.463L101.463,69.477z"/>
<polygon fill="#A8A6A3" points="96.121,111.566 101.167,111.566 101.167,74.396 96.121,74.375 "/>
<polygon fill="#A8A6A3" points="91.312,111.566 96.358,111.566 96.358,74.396 91.312,74.375 "/>
<polygon fill="#A8A6A3" points="96.12,68.066 101.167,68.066 101.167,43.896 96.12,43.875 "/>
<polygon fill="#A8A6A3" points="91.312,68.066 96.358,68.066 96.358,43.896 91.312,43.875 "/>
<path fill="#A8A6A3" d="M117.741,69.477c-0.321,0-0.714,0-0.714,0l0,0h-0.467h-3.152h-0.578h-0.062h2.482h-5.359h-1.139h-2.188
	c-0.682,0-1.233,0.654-1.233,1.438v0.87c0,0.792,0.594,1.436,1.188,1.436l0,0h2.231h3.138h6.534l0,0
	c0.658,0,1.191-0.652,1.191-1.436v-0.87c0-0.793-0.595-1.438-1.282-1.438H117.741L117.741,69.477z"/>
<polygon fill="#A8A6A3" points="112.398,111.566 117.445,111.566 117.445,74.396 112.398,74.375 "/>
<polygon fill="#A8A6A3" points="107.59,111.566 112.637,111.566 112.637,74.396 107.59,74.375 "/>
<polygon fill="#A8A6A3" points="112.398,68.066 117.445,68.066 117.445,43.896 112.398,43.875 "/>
<polygon fill="#A8A6A3" points="107.59,68.066 112.637,68.066 112.637,43.896 107.59,43.875 "/>
</svg>
