<?xml version="1.0" encoding="utf-8"?>
<!-- Generator: Adobe Illustrator 16.0.0, SVG Export Plug-In . SVG Version: 6.00 Build 0)  -->
<!DOCTYPE svg PUBLIC "-//W3C//DTD SVG 1.1//EN" "http://www.w3.org/Graphics/SVG/1.1/DTD/svg11.dtd">
<svg version="1.1" id="Layer_1" xmlns="http://www.w3.org/2000/svg" xmlns:xlink="http://www.w3.org/1999/xlink" x="0px" y="0px"
	 width="160px" height="160px" viewBox="0 0 160 160" enable-background="new 0 0 160 160" xml:space="preserve">
<title>Curtians</title>
<desc>Created with Sketch.</desc>
<g id="Symbols">
	<g id="Curtians">
		<path id="Fill-1" fill="#A8A6A3" d="M40,40.377c0,1.066,0.79,1.928,1.69,1.928h2.85h2.194h1.116h7.271h0.568h0.562h6.537h0.381
			h0.559h0.557h5.586h18.938h5.584h0.557h0.56h0.384h6.537h0.557h0.562h7.284h1.11h2.197h4.196c0.922,0,1.663-0.825,1.663-1.928
			v-0.885c0-1.062-0.791-1.926-1.671-1.926h-76.66c-0.922,0-1.67,0.827-1.67,1.926L40,40.377L40,40.377z M112.123,88.477h-2.361
			h-0.514h-0.061h-0.573h-3.156h-0.466h-0.131h-0.59h-0.592c-0.707,0-1.283,0.654-1.283,1.438v0.87c0,0.792,0.598,1.435,1.192,1.435
			l0,0h8.53h1.137h2.234l0,0c0.658,0,1.188-0.652,1.188-1.435v-0.87c0-0.793-0.533-1.438-1.234-1.438h-2.188H112.123z
			 M109.577,87.229h2.546V43.708h-7.273h-0.058c0.501,8.583,1.505,18.087,2.397,25.478c0.264,2.249,0.535,4.419,0.795,6.427
			C108.634,80.674,109.229,84.818,109.577,87.229L109.577,87.229z M113.259,87.229h2.23V43.708h-2.23V87.229z M90.02,43.708
			c2.625,11.428,8.406,34.683,13.867,43.408c-0.849-3.062-2.305-8.52-3.785-15.28c-1.621-7.411-3.547-17.604-4.567-28.128H90.02z
			 M97.154,43.708h-0.486c1.594,16.228,5.379,32.077,7.53,40.17c0.354,1.345,0.659,2.466,0.905,3.353h3.324
			c-1.018-6.956-3.826-27.19-4.793-43.521L97.154,43.708L97.154,43.708z M103.59,117.566h2.098v-24.17h-2.098V117.566z
			 M110.104,117.566h2.021v-24.17h-2.021V117.566z M106.816,117.566h2.146v-24.17h-2.146V117.566z M113.259,117.566h2.23v-24.17
			h-2.23V117.566z M55.741,88.477c-0.321,0-0.714,0-0.714,0l0,0H54.56h-3.152H50.83h-0.062H50.25h-2.36h-1.138h-2.187
			c-0.682,0-1.234,0.654-1.234,1.438v0.87c0,0.792,0.594,1.435,1.188,1.435l0,0h2.232h1.138h8.534l0,0
			c0.658,0,1.191-0.652,1.191-1.435v-0.87c0-0.793-0.595-1.438-1.282-1.438H55.741L55.741,88.477z M59.932,71.835
			c-1.48,6.76-2.93,12.226-3.784,15.274c5.458-8.721,11.242-31.976,13.866-43.403h-5.509C63.798,50.97,62.444,60.37,59.932,71.835
			L59.932,71.835z M54.927,87.229c0.249-0.885,0.555-2.012,0.909-3.352c2.141-8.084,5.938-23.945,7.528-40.163h-0.485h-6.495
			c-0.504,8.648-1.521,18.216-2.412,25.653c-0.931,7.771-1.87,14.438-2.368,17.871h3.321v-0.01H54.927L54.927,87.229z
			 M44.541,87.229h2.232V43.708h-2.232V87.229z M47.904,43.708v43.521h2.545c0.35-2.422,0.948-6.613,1.612-11.752
			c1.177-9.135,2.563-21.267,3.183-31.769h-0.07L47.904,43.708L47.904,43.708z M51.058,117.566h2.149v-24.17h-2.149V117.566z
			 M54.348,117.566h2.098v-24.17h-2.098V117.566z M47.904,117.566h2.017v-24.17h-2.017V117.566z M44.541,117.561h2.232V93.396
			h-2.232V117.561z"/>
	</g>
</g>
</svg>
