<?xml version="1.0" encoding="utf-8"?>
<!-- Generator: Adobe Illustrator 16.0.0, SVG Export Plug-In . SVG Version: 6.00 Build 0)  -->
<!DOCTYPE svg PUBLIC "-//W3C//DTD SVG 1.1//EN" "http://www.w3.org/Graphics/SVG/1.1/DTD/svg11.dtd">
<svg version="1.1" id="Layer_1" xmlns="http://www.w3.org/2000/svg" xmlns:xlink="http://www.w3.org/1999/xlink" x="0px" y="0px"
	 width="160px" height="160px" viewBox="0 0 160 160" enable-background="new 0 0 160 160" xml:space="preserve">
<title>Chandelier</title>
<desc>Created with Sketch.</desc>
<g id="Symbols">
	<g id="Chandelier">
		<path id="Shape" fill="#FFFFFF" d="M121.562,53.2c-0.201-1.3-1.201-2.3-2.5-2.3h-14.201c-1.199,0-2.299,1-2.5,2.3l-3.5,23.3
			c-0.1,0.8,0,3.2,2.5,3.2h8.102v14.7c0,8.1-6,14.699-13.5,14.699c-7.4,0.101-13.4-6.5-13.4-14.601V79.7h8.101
			c1.399,0,2.5-1.101,2.5-2.8c0-0.3-3.5-23.7-3.5-23.7c-0.199-1.3-1.199-2.3-2.5-2.3h-4.601V29.8h3.701c1.398,0,2.5-1.2,2.5-2.8
			s-1.102-2.8-2.4-2.8h-3.801v-3.8c0-1.5-1.1-2.8-2.5-2.8s-2.5,1.2-2.5,2.8v3.8h-3.7c-1.4,0-2.5,1.2-2.5,2.8s1.1,2.8,2.5,2.8h3.7
			v21.1h-4.7c-1.2,0-2.3,1-2.5,2.3l-3.5,23.3c-0.1,0.8,0,3.2,2.5,3.2h8.2v14.7c0,8.199-6,14.8-13.4,14.8s-13.5-6.601-13.5-14.7V79.7
			h8.1c1.4,0,2.5-1.101,2.5-2.8c0-0.3-3.5-23.7-3.5-23.7c-0.2-1.3-1.2-2.3-2.5-2.3h-14.3c-1.2,0-2.3,1-2.5,2.3l-3.5,23.3
			c-0.1,0.8,0,3.2,2.5,3.2h8.1v14.7c0,11.199,8.3,20.3,18.4,20.3c5.3,0,10.1-2.5,13.5-6.5v6.601c0,1.5,1.1,2.799,2.5,2.799
			c1.4,0,2.5-1.199,2.5-2.799V108.2c3.398,4,8.199,6.5,13.5,6.5c10.199,0,18.398-9.101,18.398-20.3V79.7h8.201
			c1.399,0,2.5-1.101,2.5-2.8C125.062,76.7,121.562,53.2,121.562,53.2z M40.462,74.2l2.6-17.7h10l2.6,17.7H40.462z M72.362,74.2
			l2.7-17.7h10l2.699,17.7H72.362z M104.264,74.2l2.6-17.7h10l2.8,17.7H104.264z"/>
	</g>
</g>
<g>
	<g transform="translate(0.000000,511.000000) scale(0.100000,-0.100000)">
		<path fill="#FFFFFF" d="M1050.967,3770.556"/>
	</g>
</g>
<g>
	<g>
		<g>
			<path fill="#FFFFFF" d="M59.812,120.176c-0.506,0-14.378,10.848-14.647,11.441c-0.3,0.688-0.285,1.7,0.048,2.342
				c0.38,0.688,14.015,11.367,14.538,11.367c0.237,0,0.584-0.298,0.869-0.715l0.459-0.715V132.75v-11.145l-0.459-0.717
				C60.366,120.498,60.003,120.176,59.812,120.176z M58.39,132.75v7.149l-4.509-3.501c-2.483-1.947-4.508-3.574-4.508-3.648
				c0-0.073,2.025-1.701,4.508-3.647l4.509-3.501V132.75z"/>
			<path fill="#FFFFFF" d="M66.456,120.176c-0.301,0-0.632,0.224-0.87,0.617l-0.396,0.59v11.367v11.369l0.396,0.59
				c0.475,0.766,1.154,0.791,1.725,0.099l0.411-0.492V132.85v-11.467l-0.397-0.59C67.088,120.399,66.757,120.176,66.456,120.176z"/>
			<path fill="#FFFFFF" d="M72.357,120.769l-0.443,0.59l-0.016,10.948c-0.015,5.992,0,11.17,0.048,11.465
				c0.094,0.766,0.792,1.555,1.344,1.555c0.27,0,0.617-0.248,0.839-0.617l0.396-0.592V132.75v-11.367l-0.396-0.59
				C73.637,120.002,72.943,120.002,72.357,120.769z"/>
			<path fill="#FFFFFF" d="M79.095,120.89l-0.459,0.717l0.017,11.07c0,7.077,0.063,11.245,0.172,11.563
				c0.174,0.592,0.761,1.086,1.25,1.086c0.173,0,0.537-0.322,0.791-0.717l0.459-0.715V132.75v-11.145l-0.459-0.716
				C80.266,119.955,79.696,119.955,79.095,120.89z"/>
			<path fill="#FFFFFF" d="M85.834,120.793l-0.396,0.59v11.367v11.369l0.396,0.59c0.475,0.766,1.155,0.791,1.725,0.099l0.412-0.492
				V132.75v-11.564l-0.412-0.491C86.989,120.004,86.309,120.029,85.834,120.793z"/>
			<path fill="#FFFFFF" d="M92.604,120.769l-0.44,0.59l-0.017,10.948c-0.017,5.992,0,11.17,0.047,11.465
				c0.095,0.766,0.791,1.555,1.346,1.555c0.269,0,0.617-0.248,0.84-0.617l0.393-0.592V132.75v-11.367l-0.393-0.59
				C93.888,120.002,93.19,120.002,92.604,120.769z"/>
			<path fill="#FFFFFF" d="M107.823,125.897c-3.828-3.008-7.183-5.549-7.467-5.621c-0.429-0.126-0.586-0.023-0.996,0.59l-0.476,0.74
				l0.017,11.071c0,7.077,0.062,11.245,0.174,11.563c0.173,0.566,0.76,1.086,1.201,1.062c0.143,0,3.465-2.519,7.389-5.599
				c6.186-4.856,7.134-5.693,7.261-6.287C115.29,131.789,115.354,131.838,107.823,125.897z M106.082,136.399l-4.509,3.501v-7.15
				v-7.148l4.509,3.501c2.483,1.946,4.507,3.575,4.507,3.647C110.589,132.824,108.565,134.451,106.082,136.399z"/>
		</g>
	</g>
</g>
</svg>
