<?xml version="1.0" encoding="utf-8"?>
<!-- Generator: Adobe Illustrator 16.0.0, SVG Export Plug-In . SVG Version: 6.00 Build 0)  -->
<!DOCTYPE svg PUBLIC "-//W3C//DTD SVG 1.1//EN" "http://www.w3.org/Graphics/SVG/1.1/DTD/svg11.dtd">
<svg version="1.1" id="Layer_1" xmlns="http://www.w3.org/2000/svg" xmlns:xlink="http://www.w3.org/1999/xlink" x="0px" y="0px"
	 width="160px" height="160px" viewBox="0 0 160 160" enable-background="new 0 0 160 160" xml:space="preserve">
<title>Hanging lamp</title>
<desc>Created with Sketch.</desc>
<g id="Symbols">
	<g id="Hanging-lamp">
		<path id="Shape_3_" fill="#A8A6A3" d="M90.697,65.164v-8.859c0-4.271-3.254-7.879-7.682-9.033V23.827
			c0-1.471-1.354-2.66-3.021-2.66c-1.671,0-3.023,1.189-3.023,2.66v23.446c-4.43,1.155-7.675,4.767-7.675,9.033v8.859
			C49.28,69.453,35,85.297,35,103.645c0,0.705,0.315,1.381,0.884,1.883c0.568,0.494,1.337,0.777,2.139,0.777h21.325
			c3.896,6.832,11.821,11.195,20.601,11.195c8.809,0,16.713-4.348,20.598-11.195h21.432c1.67,0,3.021-1.188,3.021-2.66
			C125,85.293,110.715,69.453,90.697,65.164z M79.948,112.175c-5.385,0-10.331-2.221-13.5-5.87h26.997
			C90.281,109.954,85.35,112.175,79.948,112.175z M41.157,100.979c1.348-15.365,14.269-28.205,31.713-31.045
			c1.43-0.231,2.47-1.334,2.47-2.612V56.305c0-2.258,2.087-4.099,4.657-4.099c2.565,0,4.653,1.841,4.653,4.099v11.014
			c0,1.281,1.039,2.383,2.479,2.612c17.439,2.842,30.355,15.678,31.701,31.047H41.157L41.157,100.979z"/>
		<path id="Shape_4_" fill="#A8A6A3" d="M67.406,77.114c-3.688,1.607-7.052,3.712-9.994,6.258c-2.941,2.545-5.393,5.465-7.279,8.688
			c-0.765,1.301-0.186,2.904,1.3,3.58c0.442,0.198,0.917,0.299,1.385,0.299c1.096,0,2.15-0.522,2.689-1.443
			c1.593-2.717,3.658-5.182,6.143-7.327c2.484-2.151,5.322-3.929,8.434-5.28c1.497-0.652,2.114-2.244,1.371-3.562
			C70.716,77.007,68.903,76.465,67.406,77.114z"/>
	</g>
</g>
<g>
	<g transform="translate(0.000000,511.000000) scale(0.100000,-0.100000)">
		<path fill="#A8A6A3" d="M581.142,3780.126c2.388-2.783,88.174-45.879,91.455-45.879c1.494,0,3.677,1.191,5.469,2.881l2.886,2.891
			V3785v44.98l-2.886,2.891c-1.592,1.582-3.877,2.881-5.073,2.881c-3.188,0-90.459-43.779-92.153-46.182
			C578.95,3786.796,579.048,3782.714,581.142,3780.126z M635.679,3799.726l28.364,14.131V3785v-28.857l-28.364,14.131
			c-15.625,7.861-28.364,14.434-28.364,14.727S620.049,3791.865,635.679,3799.726z"/>
		<path fill="#A8A6A3" d="M709.316,3736.738c2.983-3.086,7.261-3.193,10.845-0.4l2.588,1.992v46.27v46.279l-2.49,2.383
			c-1.494,1.592-3.579,2.49-5.469,2.49c-1.895,0-3.984-0.898-5.474-2.49l-2.49-2.383V3785v-45.879L709.316,3736.738z"/>
		<path fill="#A8A6A3" d="M749.326,3740.517c0.596-3.076,4.976-6.27,8.457-6.27c1.694,0,3.882,0.996,5.278,2.49l2.485,2.393V3785
			v45.879l-2.485,2.383c-3.091,3.193-7.466,3.193-11.147,0.098l-2.788-2.383l-0.098-44.18
			C748.926,3762.607,749.023,3741.708,749.326,3740.517z"/>
		<path fill="#A8A6A3" d="M792.612,3738.632c1.094-2.393,4.775-4.385,7.861-4.385c1.094,0,3.389,1.299,4.976,2.891l2.891,2.881V3785
			v44.98l-2.891,2.891c-3.774,3.779-7.363,3.779-11.147,0l-2.886-2.891l0.103-44.688
			C791.518,3756.738,791.919,3739.921,792.612,3738.632z"/>
		<path fill="#A8A6A3" d="M836.699,3736.738c2.988-3.086,7.266-3.193,10.85-0.4l2.588,1.992V3785v46.68l-2.588,1.982
			c-3.584,2.783-7.861,2.686-10.85-0.4l-2.48-2.383V3785v-45.879L836.699,3736.738z"/>
		<path fill="#A8A6A3" d="M876.709,3740.517c0.596-3.076,4.98-6.27,8.467-6.27c1.689,0,3.877,0.996,5.273,2.49l2.48,2.393V3785
			v45.879l-2.48,2.383c-3.086,3.193-7.471,3.193-11.152,0.098l-2.783-2.383l-0.098-44.18
			C876.308,3762.607,876.406,3741.708,876.709,3740.517z"/>
		<path fill="#A8A6A3" d="M920,3738.632c1.094-2.295,4.775-4.385,7.559-4.287c0.898,0,21.797,10.156,46.484,22.598
			c38.906,19.6,44.883,22.979,45.674,25.371c2.295,6.572,2.686,6.367-44.678,30.352c-24.092,12.139-45.186,22.393-46.973,22.686
			c-2.695,0.508-3.691,0.098-6.27-2.383l-2.988-2.988l0.098-44.688C918.906,3756.738,919.297,3739.921,920,3738.632z
			 M964.082,3799.726c15.625-7.861,28.359-14.434,28.359-14.727s-12.734-6.865-28.359-14.727l-28.359-14.131V3785v28.857
			L964.082,3799.726z"/>
	</g>
</g>
</svg>
