<?xml version="1.0" encoding="utf-8"?>
<!-- Generator: Adobe Illustrator 16.0.0, SVG Export Plug-In . SVG Version: 6.00 Build 0)  -->
<!DOCTYPE svg PUBLIC "-//W3C//DTD SVG 1.1//EN" "http://www.w3.org/Graphics/SVG/1.1/DTD/svg11.dtd">
<svg version="1.1" id="Layer_1" xmlns="http://www.w3.org/2000/svg" xmlns:xlink="http://www.w3.org/1999/xlink" x="0px" y="0px"
	 width="50px" height="50px" viewBox="0 0 50 50" enable-background="new 0 0 50 50" xml:space="preserve">
<g>
	<g>
		<path fill="#FF9400" d="M49.378,11.997c-0.044-0.319-0.26-0.583-0.563-0.686c-0.305-0.103-0.637-0.024-0.867,0.206l-5.797,5.792
			l-8.467-1.475l-1.476-8.467l5.797-5.796c0.226-0.226,0.304-0.563,0.2-0.868c-0.103-0.304-0.367-0.524-0.686-0.568
			c-4.355-0.598-8.624,0.833-11.716,3.925c-3.631,3.631-4.816,8.786-3.577,13.426L3.519,36.197c-2.705,2.705-2.705,7.1-0.005,9.801
			c2.705,2.703,7.1,2.703,9.8,0l18.714-18.713c4.635,1.238,9.789,0.053,13.426-3.578C48.545,20.621,49.976,16.348,49.378,11.997z"/>
	</g>
</g>
</svg>
