<?xml version="1.0" encoding="utf-8"?>
<!-- Generator: Adobe Illustrator 16.0.0, SVG Export Plug-In . SVG Version: 6.00 Build 0)  -->
<!DOCTYPE svg PUBLIC "-//W3C//DTD SVG 1.1//EN" "http://www.w3.org/Graphics/SVG/1.1/DTD/svg11.dtd">
<svg version="1.1" id="Layer_1" xmlns="http://www.w3.org/2000/svg" xmlns:xlink="http://www.w3.org/1999/xlink" x="0px" y="0px"
	 width="160px" height="160px" viewBox="0 0 160 160" enable-background="new 0 0 160 160" xml:space="preserve">
<title>Chandelier</title>
<desc>Created with Sketch.</desc>
<g>
	<path fill="#A8A6A3" d="M52.059,43.946c-2.349-2.311-3.716-5.352-3.774-8.416c-0.052-2.725,0.944-5.244,2.815-7.085
		c1.865-1.834,4.422-2.826,7.202-2.769c3.276,0.059,6.531,1.547,8.915,4.079l11.078,11.759c3.01,3.191,4.627,7.356,4.54,11.717
		c-0.086,4.358-1.854,8.456-4.992,11.543l-1.417,1.393L52.434,44.299C52.3,44.182,52.176,44.061,52.059,43.946z M63.37,33.101
		c-1.587-1.561-1.786-1.843-3.824-1.88c-1.149-0.022-2.384,0.113-3.745,1.45c-1.357,1.339-1.369,2.231-1.354,3.369
		c0.044,2.116,0.881,2.953,2.629,4.545l18.036,18.133c3.59-4.825,3.074-9.122-0.708-14.216l-9.51-9.699
		C64.167,33.846,63.37,33.101,63.37,33.101z"/>
	<path fill="#A8A6A3" d="M74.516,75.699c3.83,3.766,10.054,3.773,13.893,0c3.839-3.779,3.839-9.892,0-13.666
		c-3.839-3.773-10.055-3.775-13.893,0C70.678,65.808,70.678,71.922,74.516,75.699L74.516,75.699z"/>
</g>
<path fill="#A8A6A3" d="M104.402,39.532c2.35-2.311,5.439-3.655,8.557-3.712c2.771-0.052,5.332,0.929,7.203,2.769
	c1.865,1.834,2.874,4.35,2.816,7.083c-0.062,3.222-1.574,6.424-4.148,8.768l-11.955,10.896c-3.246,2.96-7.479,4.551-11.914,4.466
	c-4.432-0.085-8.598-1.824-11.734-4.912l-1.418-1.391L104.044,39.9C104.163,39.769,104.286,39.646,104.402,39.532z M115.43,50.655
	c1.586-1.561,1.873-1.756,1.911-3.761c0.022-1.13-0.114-2.345-1.474-3.683c-1.36-1.335-2.27-1.347-3.426-1.333
	c-2.151,0.044-3.004,0.867-4.621,2.587l-18.438,17.74c4.905,3.531,9.274,3.023,14.454-0.695l9.862-9.354
	C114.672,51.44,115.43,50.655,115.43,50.655z"/>
<path fill="#A8A6A3" d="M110.8,92.402c2.349,2.312,3.718,5.352,3.775,8.416c0.051,2.725-0.944,5.242-2.815,7.084
	c-1.865,1.834-4.424,2.828-7.201,2.77c-3.276-0.059-6.531-1.547-8.916-4.079l-11.078-11.76c-3.01-3.19-4.625-7.354-4.54-11.717
	c0.086-4.358,1.854-8.455,4.993-11.542l1.416-1.393l23.993,21.869C110.559,92.167,110.684,92.288,110.8,92.402z M87.749,77.632
	c-3.59,4.825-3.073,9.122,0.708,14.216l9.509,9.698c0.728,0.957,1.522,1.702,1.522,1.702c1.589,1.561,1.787,1.843,3.824,1.881
	c1.149,0.021,2.386-0.113,3.746-1.451c1.356-1.339,1.371-2.229,1.354-3.367"/>
<path fill="#A8A6A3" d="M56.559,98.203c-2.35,2.311-5.442,3.654-8.558,3.712c-2.77,0.052-5.331-0.931-7.203-2.771
	c-1.864-1.834-2.873-4.35-2.815-7.082c0.06-3.224,1.573-6.424,4.148-8.77l11.956-10.896c3.245-2.959,7.478-4.551,11.912-4.464
	c4.431,0.084,8.597,1.823,11.736,4.912l1.415,1.393L56.916,97.836C56.798,97.967,56.675,98.088,56.559,98.203z M45.532,87.079
	c-1.588,1.562-1.874,1.756-1.912,3.762c-0.022,1.13,0.116,2.343,1.474,3.683c1.362,1.336,2.269,1.35,3.426,1.334
	c2.151-0.045,3.002-0.866,4.62-2.586l18.438-17.738c-4.904-3.531-9.275-3.023-14.454,0.695l-9.862,9.354
	C46.289,86.295,45.532,87.079,45.532,87.079z"/>
<g>
	<g>
		<g>
			<path fill="#A8A6A3" d="M61.274,115.666c-0.506,0-14.378,10.848-14.647,11.441c-0.3,0.688-0.285,1.7,0.048,2.342
				c0.38,0.688,14.015,11.367,14.538,11.367c0.237,0,0.584-0.298,0.869-0.715l0.459-0.715V128.24v-11.145l-0.459-0.717
				C61.828,115.988,61.465,115.666,61.274,115.666z M59.852,128.24v7.149l-4.509-3.501c-2.483-1.947-4.508-3.574-4.508-3.648
				c0-0.073,2.025-1.701,4.508-3.647l4.509-3.501V128.24z"/>
			<path fill="#A8A6A3" d="M67.918,115.666c-0.301,0-0.632,0.224-0.87,0.617l-0.396,0.59v11.367v11.369l0.396,0.59
				c0.475,0.766,1.154,0.791,1.725,0.099l0.411-0.492V128.34v-11.467l-0.397-0.59C68.55,115.89,68.219,115.666,67.918,115.666z"/>
			<path fill="#A8A6A3" d="M73.819,116.259l-0.443,0.59l-0.016,10.948c-0.015,5.992,0,11.17,0.048,11.465
				c0.094,0.766,0.792,1.555,1.344,1.555c0.27,0,0.617-0.248,0.839-0.617l0.396-0.592V128.24v-11.367l-0.396-0.59
				C75.099,115.492,74.405,115.492,73.819,116.259z"/>
			<path fill="#A8A6A3" d="M80.557,116.38l-0.459,0.717l0.017,11.07c0,7.077,0.063,11.245,0.172,11.563
				c0.174,0.592,0.761,1.086,1.25,1.086c0.173,0,0.537-0.322,0.791-0.717l0.459-0.715V128.24v-11.145l-0.459-0.716
				C81.728,115.445,81.158,115.445,80.557,116.38z"/>
			<path fill="#A8A6A3" d="M87.296,116.283l-0.396,0.59v11.367v11.369l0.396,0.59c0.475,0.766,1.155,0.791,1.725,0.099l0.412-0.492
				V128.24v-11.564l-0.412-0.491C88.451,115.494,87.771,115.52,87.296,116.283z"/>
			<path fill="#A8A6A3" d="M94.066,116.259l-0.44,0.59l-0.017,10.948c-0.017,5.992,0,11.17,0.047,11.465
				c0.095,0.766,0.791,1.555,1.346,1.555c0.269,0,0.617-0.248,0.84-0.617l0.393-0.592V128.24v-11.367l-0.393-0.59
				C95.35,115.492,94.652,115.492,94.066,116.259z"/>
			<path fill="#A8A6A3" d="M109.285,121.387c-3.828-3.008-7.183-5.549-7.467-5.621c-0.429-0.126-0.586-0.023-0.996,0.59l-0.476,0.74
				l0.017,11.071c0,7.077,0.062,11.245,0.174,11.563c0.173,0.566,0.76,1.086,1.201,1.062c0.143,0,3.465-2.519,7.389-5.599
				c6.186-4.856,7.134-5.693,7.261-6.287C116.752,127.279,116.816,127.328,109.285,121.387z M107.544,131.89l-4.509,3.501v-7.15
				v-7.148l4.509,3.501c2.483,1.946,4.507,3.575,4.507,3.647C112.051,128.314,110.027,129.941,107.544,131.89z"/>
		</g>
	</g>
</g>
</svg>
