<?xml version="1.0" encoding="utf-8"?>
<!-- Generator: Adobe Illustrator 16.0.0, SVG Export Plug-In . SVG Version: 6.00 Build 0)  -->
<!DOCTYPE svg PUBLIC "-//W3C//DTD SVG 1.1//EN" "http://www.w3.org/Graphics/SVG/1.1/DTD/svg11.dtd">
<svg version="1.1" id="Layer_1" xmlns="http://www.w3.org/2000/svg" xmlns:xlink="http://www.w3.org/1999/xlink" x="0px" y="0px"
	 width="160px" height="160px" viewBox="0 0 160 160" enable-background="new 0 0 160 160" xml:space="preserve">
<g>
	<path fill="#EEEEEE" d="M78.92,41.922C77.59,40.684,75.875,40,74.087,40c-1.568,0-3.119,0.557-4.369,1.582l-1.395,1.131
		c-0.245,0.198-0.539,0.306-0.833,0.306c-0.31,0-0.621-0.118-0.874-0.333L65.262,41.5c-1.102-0.96-2.49-1.491-3.926-1.491
		s-2.832,0.53-3.926,1.491l-1.355,1.186c-0.253,0.224-0.563,0.333-0.873,0.333c-0.293,0-0.58-0.099-0.832-0.306l-1.396-1.131
		C51.705,40.558,50.153,40,48.594,40c-1.787,0-3.509,0.684-4.833,1.922c-1.274,1.186-2.058,2.749-2.261,4.321V69.76
		c0,3.53,1.02,6.933,2.947,9.844c1.681,2.532,3.983,4.571,6.661,5.902l1.338,0.665c0.507,0.251,0.824,0.801,0.824,1.399v26.231
		c0,3.423,2.744,6.198,6.115,6.198h3.91c3.444,0,5.51-3.442,5.51-6.765V86.647c0-1.554,1.282-1.269,2.247-1.564
		c1.404-0.431,2.562-1.157,3.77-2.046c1.281-0.943,2.481-2.068,3.395-3.443c1.934-2.891,2.956-6.296,2.956-9.835l0.017-23.319
		C81.002,44.726,80.193,43.117,78.92,41.922z M76.487,68.735c0,5.471-3.143,10.429-8.008,12.629
		c-1.036,0.467-4.318,1.483-4.293,5.29v26.588c0,1.366-0.548,2.022-1.871,2.022h-1.958c-1.323,0-2.188-0.656-2.188-2.022V86.647
		c0.147-2.668-1.396-4.331-3.977-5.291c-4.783-1.771-7.998-6.845-7.998-12.63V46.377c0.604-0.916,2.081-1.634,3.387-1.634
		c1.306,0,3.477,1.104,4.082,2.021v18.279c0,0.891,0.669,1.662,1.502,1.662h1.502c0.833,0,1.502-0.771,1.502-1.662V46.764
		c0.604-0.916,1.861-2.021,3.167-2.021c1.306,0,2.245,1.104,2.849,2.021v18.279c0,0.891,0.669,1.662,1.503,1.662h1.5
		c0.842,0,1.502-0.771,1.502-1.662V46.764c0.605-0.916,3.095-2.021,4.401-2.021s2.783,0.718,3.388,1.634L76.487,68.735
		L76.487,68.735z"/>
	<path fill="#EEEEEE" d="M119.305,40h-5.878c-4.808,0-9.314,1.949-12.702,5.479c-3.34,3.485-5.176,8.111-5.176,13.007v26.63
		c0,2.411,0.833,4.754,2.344,6.596c1.23,1.499,3.249,2.73,4.874,3.241c1.238,0.397,3.469,0.011,3.469,2.086v17.857
		c0,4.222,2.847,5.103,5.233,5.103h3.918c3.371,0,6.113-2.785,6.113-6.198V42.103C121.5,40.944,120.513,40,119.305,40z
		 M116.814,112.775c0,1.366-0.114,2.122-1.438,2.122h-1.5c-1.324,0-3.105,0.439-3.014-1.662V94.956
		c-0.009-1.564-1.349-2.866-2.344-3.485c-1.069-0.664-2.235-0.827-3.388-1.248c-0.956-0.341-1.844-0.898-2.596-1.626
		c-1.43-1.393-2.294-3.414-2.294-5.525c0-0.007,0-22.537,0-22.537c0-4.257,1.659-8.327,4.678-11.461
		c2.579-2.677,5.837-4.338,8.514-4.338h2.181c0.669,0,1.209,0.547,1.209,1.23v66.811L116.814,112.775L116.814,112.775z"/>
</g>
</svg>
