<?xml version="1.0" encoding="utf-8"?>
<!-- Generator: Adobe Illustrator 16.0.0, SVG Export Plug-In . SVG Version: 6.00 Build 0)  -->
<!DOCTYPE svg PUBLIC "-//W3C//DTD SVG 1.1//EN" "http://www.w3.org/Graphics/SVG/1.1/DTD/svg11.dtd">
<svg version="1.1" id="Layer_1" xmlns="http://www.w3.org/2000/svg" xmlns:xlink="http://www.w3.org/1999/xlink" x="0px" y="0px"
	 width="99.695px" height="45.695px" viewBox="0 0 99.695 45.695" enable-background="new 0 0 99.695 45.695" xml:space="preserve">
<g>
	
		<rect x="0" y="0" opacity="0.2" fill="#A8A6A3" stroke="#000000" stroke-width="1.9452" stroke-miterlimit="10" enable-background="new    " width="99.695" height="45.695"/>
	<g>
		<path fill="#FFFFFF" d="M3.923,26.347V14.988h3.856c0.907,0,1.699,0.149,2.376,0.448c0.677,0.299,1.243,0.704,1.696,1.216
			c0.453,0.512,0.794,1.112,1.024,1.8s0.344,1.421,0.344,2.2c0,0.864-0.128,1.646-0.384,2.344c-0.256,0.699-0.622,1.296-1.096,1.792
			c-0.475,0.496-1.046,0.88-1.712,1.151c-0.667,0.272-1.416,0.408-2.248,0.408H3.923z M12.099,20.652c0-0.683-0.096-1.31-0.288-1.88
			c-0.192-0.57-0.472-1.064-0.84-1.48c-0.368-0.416-0.819-0.738-1.352-0.968c-0.534-0.229-1.147-0.344-1.84-0.344H5.043v9.375h2.736
			c0.704,0,1.326-0.119,1.864-0.359s0.989-0.57,1.352-0.992c0.362-0.421,0.637-0.917,0.824-1.488
			C12.005,21.946,12.099,21.324,12.099,20.652z"/>
		<path fill="#FFFFFF" d="M15.139,16.268v-1.6h1.088v1.6H15.139z M15.139,26.347v-8.335h1.088v8.335H15.139z"/>
		<path fill="#FFFFFF" d="M21.394,26.508c-0.65,0-1.285-0.106-1.904-0.32c-0.619-0.213-1.152-0.521-1.6-0.928l0.496-0.736
			c0.469,0.385,0.947,0.673,1.432,0.865c0.485,0.191,1.005,0.287,1.56,0.287c0.672,0,1.208-0.136,1.608-0.408
			c0.4-0.271,0.6-0.658,0.6-1.16c0-0.234-0.054-0.429-0.16-0.584c-0.107-0.154-0.264-0.29-0.472-0.407
			c-0.208-0.117-0.469-0.221-0.784-0.312c-0.315-0.09-0.68-0.184-1.096-0.28c-0.48-0.117-0.896-0.234-1.248-0.352
			c-0.352-0.118-0.643-0.25-0.872-0.4c-0.229-0.149-0.4-0.333-0.512-0.552c-0.112-0.219-0.168-0.493-0.168-0.824
			c0-0.416,0.083-0.784,0.248-1.104c0.165-0.32,0.389-0.584,0.672-0.792c0.282-0.208,0.613-0.365,0.992-0.472
			c0.379-0.106,0.781-0.16,1.208-0.16c0.64,0,1.222,0.104,1.744,0.312s0.944,0.483,1.264,0.824l-0.528,0.64
			c-0.31-0.32-0.686-0.56-1.128-0.72c-0.442-0.16-0.904-0.24-1.384-0.24c-0.288,0-0.555,0.03-0.8,0.088
			c-0.246,0.059-0.462,0.152-0.648,0.28s-0.333,0.291-0.44,0.488c-0.106,0.198-0.16,0.43-0.16,0.696
			c0,0.224,0.037,0.405,0.112,0.544s0.197,0.259,0.368,0.36c0.17,0.102,0.386,0.192,0.648,0.272c0.261,0.08,0.579,0.163,0.952,0.248
			c0.534,0.128,1.003,0.256,1.408,0.384c0.405,0.128,0.744,0.278,1.016,0.448c0.272,0.171,0.477,0.379,0.616,0.624
			s0.208,0.544,0.208,0.896c0,0.769-0.293,1.377-0.88,1.824C23.176,26.284,22.386,26.508,21.394,26.508z"/>
		<path fill="#FFFFFF" d="M28.514,26.508c-0.395,0-0.76-0.066-1.096-0.199c-0.336-0.134-0.63-0.318-0.88-0.553
			s-0.445-0.509-0.584-0.824c-0.139-0.314-0.208-0.652-0.208-1.016c0-0.362,0.085-0.698,0.256-1.008c0.17-0.309,0.41-0.576,0.72-0.8
			c0.31-0.224,0.677-0.397,1.104-0.52s0.896-0.184,1.408-0.184c0.426,0,0.858,0.037,1.296,0.112c0.437,0.075,0.827,0.182,1.168,0.32
			v-0.752c0-0.736-0.208-1.32-0.624-1.752s-0.992-0.648-1.728-0.648c-0.427,0-0.864,0.085-1.312,0.256
			c-0.448,0.171-0.901,0.416-1.36,0.736l-0.384-0.72c1.078-0.725,2.123-1.088,3.136-1.088c1.045,0,1.867,0.293,2.464,0.88
			c0.597,0.587,0.896,1.397,0.896,2.432v3.759c0,0.299,0.133,0.449,0.4,0.449v0.959c-0.181,0.033-0.32,0.049-0.416,0.049
			c-0.277,0-0.493-0.07-0.648-0.209c-0.155-0.138-0.237-0.33-0.248-0.575l-0.032-0.656c-0.384,0.501-0.867,0.886-1.448,1.151
			C29.813,26.375,29.186,26.508,28.514,26.508z M28.77,25.676c0.565,0,1.085-0.105,1.56-0.32c0.475-0.213,0.834-0.495,1.08-0.848
			c0.096-0.096,0.168-0.199,0.216-0.312c0.048-0.112,0.072-0.216,0.072-0.312v-1.361c-0.363-0.138-0.739-0.245-1.128-0.32
			c-0.39-0.074-0.787-0.112-1.192-0.112c-0.768,0-1.392,0.16-1.872,0.48c-0.48,0.32-0.72,0.741-0.72,1.264
			c0,0.256,0.051,0.496,0.152,0.721c0.101,0.224,0.24,0.418,0.416,0.584c0.176,0.165,0.386,0.295,0.632,0.392
			C28.232,25.628,28.493,25.676,28.77,25.676z"/>
		<path fill="#FFFFFF" d="M39.219,26.508c-0.661,0-1.267-0.165-1.816-0.496c-0.549-0.33-0.979-0.757-1.288-1.279v1.615h-0.976
			v-11.68h1.088v5.088c0.373-0.565,0.821-1.021,1.344-1.368s1.131-0.52,1.824-0.52c0.586,0,1.112,0.123,1.576,0.368
			c0.464,0.245,0.858,0.573,1.184,0.984s0.576,0.875,0.752,1.392s0.265,1.048,0.265,1.592c0,0.587-0.102,1.142-0.305,1.664
			c-0.202,0.522-0.479,0.979-0.832,1.368c-0.352,0.389-0.771,0.699-1.256,0.928C40.293,26.393,39.773,26.508,39.219,26.508z
			 M38.963,25.549c0.458,0,0.877-0.094,1.256-0.281c0.379-0.186,0.704-0.437,0.976-0.752c0.272-0.314,0.485-0.672,0.641-1.071
			c0.154-0.4,0.231-0.813,0.231-1.24c0-0.437-0.072-0.858-0.216-1.264c-0.145-0.405-0.347-0.765-0.608-1.08
			c-0.261-0.315-0.576-0.565-0.944-0.752c-0.368-0.186-0.771-0.28-1.208-0.28c-0.331,0-0.64,0.056-0.928,0.168
			s-0.555,0.264-0.8,0.456c-0.245,0.192-0.464,0.414-0.656,0.664s-0.352,0.515-0.48,0.792V23.5c0.042,0.288,0.157,0.558,0.344,0.809
			c0.187,0.25,0.411,0.467,0.672,0.647c0.261,0.182,0.544,0.325,0.848,0.433C38.395,25.495,38.685,25.549,38.963,25.549z"/>
		<path fill="#FFFFFF" d="M45.059,14.668h1.088v9.792c0,0.31,0.085,0.552,0.256,0.728c0.171,0.177,0.411,0.265,0.72,0.265
			c0.118,0,0.257-0.017,0.416-0.048c0.16-0.032,0.31-0.074,0.448-0.128l0.192,0.88c-0.203,0.086-0.451,0.154-0.744,0.208
			c-0.294,0.054-0.547,0.08-0.76,0.08c-0.502,0-0.896-0.142-1.185-0.425c-0.288-0.281-0.432-0.68-0.432-1.191V14.668z"/>
		<path fill="#FFFFFF" d="M52.963,26.508c-0.607,0-1.166-0.114-1.672-0.344c-0.508-0.229-0.947-0.544-1.321-0.943
			c-0.373-0.4-0.664-0.861-0.872-1.385c-0.208-0.522-0.312-1.083-0.312-1.68c0-0.586,0.104-1.139,0.312-1.656
			c0.208-0.517,0.496-0.97,0.864-1.36c0.368-0.389,0.809-0.699,1.321-0.928c0.512-0.229,1.066-0.344,1.664-0.344
			c0.607,0,1.164,0.115,1.672,0.344c0.506,0.229,0.941,0.542,1.303,0.936c0.363,0.395,0.646,0.848,0.85,1.36
			c0.201,0.512,0.303,1.056,0.303,1.632c0,0.085,0,0.171,0,0.256c0,0.085-0.006,0.144-0.016,0.176h-7.136
			c0.032,0.448,0.137,0.861,0.312,1.24c0.175,0.379,0.402,0.707,0.679,0.984s0.596,0.492,0.953,0.647s0.738,0.231,1.143,0.231
			c0.268,0,0.533-0.037,0.801-0.111c0.266-0.074,0.512-0.176,0.736-0.305c0.225-0.127,0.426-0.285,0.607-0.472
			s0.32-0.392,0.416-0.616l0.943,0.256c-0.127,0.311-0.309,0.59-0.543,0.84c-0.234,0.252-0.508,0.471-0.816,0.656
			c-0.309,0.188-0.65,0.331-1.023,0.432C53.758,26.457,53.367,26.508,52.963,26.508z M56.035,21.74
			c-0.033-0.448-0.137-0.856-0.312-1.224s-0.4-0.685-0.672-0.952c-0.271-0.266-0.588-0.474-0.943-0.624
			c-0.357-0.149-0.74-0.224-1.145-0.224c-0.406,0-0.789,0.075-1.152,0.224c-0.363,0.15-0.68,0.358-0.951,0.624
			c-0.273,0.267-0.492,0.587-0.657,0.96c-0.166,0.374-0.264,0.779-0.296,1.216H56.035z"/>
		<path fill="#FFFFFF" d="M67.635,26.427c-0.789,0-1.512-0.162-2.168-0.488c-0.656-0.324-1.219-0.756-1.689-1.295
			c-0.469-0.539-0.832-1.154-1.088-1.848c-0.256-0.693-0.383-1.403-0.383-2.128c0-0.757,0.135-1.482,0.408-2.176
			c0.271-0.693,0.646-1.307,1.127-1.84c0.48-0.534,1.045-0.958,1.697-1.272c0.65-0.315,1.354-0.472,2.111-0.472
			c0.789,0,1.512,0.168,2.168,0.504s1.217,0.776,1.68,1.32c0.465,0.544,0.824,1.16,1.08,1.848s0.385,1.39,0.385,2.104
			c0,0.757-0.137,1.483-0.408,2.176s-0.646,1.304-1.121,1.832s-1.037,0.949-1.688,1.264C69.095,26.271,68.39,26.427,67.635,26.427z
			 M63.426,20.668c0,0.619,0.102,1.214,0.305,1.784c0.203,0.571,0.49,1.077,0.863,1.521c0.373,0.442,0.816,0.795,1.328,1.056
			s1.082,0.392,1.713,0.392c0.639,0,1.221-0.139,1.744-0.416c0.521-0.277,0.965-0.64,1.328-1.088c0.361-0.447,0.643-0.955,0.84-1.52
			c0.197-0.565,0.295-1.141,0.295-1.728c0-0.618-0.104-1.213-0.311-1.784c-0.209-0.571-0.5-1.075-0.873-1.512
			c-0.373-0.437-0.816-0.787-1.328-1.048s-1.078-0.392-1.695-0.392c-0.641,0-1.223,0.136-1.744,0.408
			c-0.523,0.272-0.967,0.632-1.328,1.08c-0.363,0.448-0.643,0.955-0.84,1.52C63.525,19.506,63.426,20.081,63.426,20.668z"/>
		<path fill="#FFFFFF" d="M79.65,26.427c-0.789,0-1.512-0.162-2.168-0.488c-0.656-0.324-1.219-0.756-1.689-1.295
			c-0.469-0.539-0.832-1.154-1.088-1.848c-0.256-0.693-0.383-1.403-0.383-2.128c0-0.757,0.135-1.482,0.408-2.176
			c0.271-0.693,0.646-1.307,1.127-1.84c0.48-0.534,1.045-0.958,1.697-1.272c0.65-0.315,1.354-0.472,2.111-0.472
			c0.789,0,1.512,0.168,2.168,0.504s1.217,0.776,1.68,1.32c0.465,0.544,0.824,1.16,1.08,1.848s0.385,1.39,0.385,2.104
			c0,0.757-0.137,1.483-0.408,2.176s-0.646,1.304-1.121,1.832s-1.037,0.949-1.688,1.264C81.111,26.271,80.406,26.427,79.65,26.427z
			 M75.441,20.668c0,0.619,0.102,1.214,0.305,1.784c0.203,0.571,0.49,1.077,0.863,1.521c0.373,0.442,0.816,0.795,1.328,1.056
			s1.082,0.392,1.713,0.392c0.639,0,1.221-0.139,1.744-0.416c0.521-0.277,0.965-0.64,1.328-1.088c0.361-0.447,0.643-0.955,0.84-1.52
			c0.197-0.565,0.295-1.141,0.295-1.728c0-0.618-0.104-1.213-0.311-1.784c-0.209-0.571-0.5-1.075-0.873-1.512
			c-0.373-0.437-0.816-0.787-1.328-1.048s-1.078-0.392-1.695-0.392c-0.641,0-1.223,0.136-1.744,0.408
			c-0.523,0.272-0.967,0.632-1.328,1.08c-0.363,0.448-0.643,0.955-0.84,1.52C75.541,19.506,75.441,20.081,75.441,20.668z"/>
		<path fill="#FFFFFF" d="M96.049,14.988v11.359h-1.104v-5.312h-6.736v5.312H87.09V14.988h1.119v5.056h6.736v-5.056H96.049z"/>
	</g>
</g>
</svg>
