<?xml version="1.0" encoding="utf-8"?>
<!-- Generator: Adobe Illustrator 16.0.0, SVG Export Plug-In . SVG Version: 6.00 Build 0)  -->
<!DOCTYPE svg PUBLIC "-//W3C//DTD SVG 1.1//EN" "http://www.w3.org/Graphics/SVG/1.1/DTD/svg11.dtd">
<svg version="1.1" id="Layer_1" xmlns="http://www.w3.org/2000/svg" xmlns:xlink="http://www.w3.org/1999/xlink" x="0px" y="0px"
	 width="160px" height="160px" viewBox="0 0 160 160" enable-background="new 0 0 160 160" xml:space="preserve">
<title>Socket</title>
<desc>Created with Sketch.</desc>
<g id="Symbols">
	<g>
		<g id="Socket_12_">
			<g id="Group-2_12_" transform="translate(4.000000, 5.000000)">
				<path id="Fill-1_12_" fill="#A8A6A3" d="M52.132,94.762h51.731c4.822-7.963,7.847-16.484,8.994-25.332
					c0.957-7.414,0.613-15.103-1.026-22.851c-2.263-10.679-6.401-18.577-7.983-21.335H52.152C50.571,28,46.429,35.897,44.169,46.579
					c-1.642,7.748-1.983,15.437-1.025,22.851C44.289,78.277,47.312,86.799,52.132,94.762 M105.066,100h-54.13
					c-0.746,0-1.443-0.41-1.876-1.094c-5.671-9-9.201-18.699-10.496-28.842c-1.034-8.108-0.643-16.49,1.163-24.917
					c3.062-14.295,9.099-23.693,9.354-24.087c0.432-0.668,1.12-1.06,1.855-1.06h54.13c0.732,0,1.42,0.393,1.854,1.061
					c0.257,0.394,6.287,9.792,9.354,24.087c1.805,8.428,2.199,16.808,1.164,24.917c-1.297,10.144-4.828,19.844-10.494,28.844
					C106.51,99.592,105.812,100,105.066,100"/>
				<path id="Fill-4_12_" fill="#A8A6A3" d="M70.613,79.036c0,0-1.445-11.494,7.22-11.494c8.668,0,7.219,11.494,7.219,11.494H70.613
					z"/>
				<path id="Fill-6_12_" fill="#A8A6A3" d="M71.734,77.663H83.93c0.036-1.687-0.125-4.772-1.658-6.774
					c-1.01-1.32-2.465-1.966-4.437-1.966c-1.976,0-3.427,0.647-4.443,1.979C71.952,72.788,71.693,75.798,71.734,77.663
					 M85.055,80.415H70.615c-0.604,0-1.115-0.507-1.199-1.181c-0.033-0.256-0.757-6.332,2.146-10.143
					c1.482-1.941,3.592-2.923,6.274-2.923c2.682,0,4.791,0.979,6.275,2.923c2.896,3.812,2.178,9.887,2.146,10.143
					C86.166,79.908,85.662,80.415,85.055,80.415"/>
				<polygon id="Fill-8_12_" fill="#A8A6A3" points="63.031,58.514 68.085,58.514 68.085,42.094 63.031,42.094 				"/>
				<path id="Fill-10_12_" fill="#A8A6A3" d="M64.242,57.136h2.633V43.472h-2.633V57.136z M68.085,59.892h-5.056
					c-0.667,0-1.211-0.618-1.211-1.376V42.094c0-0.761,0.543-1.376,1.211-1.376h5.056c0.67,0,1.211,0.615,1.211,1.376v16.42
					C69.297,59.272,68.757,59.892,68.085,59.892L68.085,59.892z"/>
				<polygon id="Fill-11_12_" fill="#A8A6A3" points="87.585,58.514 92.635,58.514 92.635,42.094 87.585,42.094 				"/>
				<path id="Fill-12_12_" fill="#A8A6A3" d="M88.793,57.136h2.634V43.472h-2.634V57.136z M92.635,59.892h-5.05
					c-0.673,0-1.214-0.618-1.214-1.376V42.094c0-0.761,0.541-1.376,1.214-1.376h5.05c0.674,0,1.215,0.615,1.215,1.376v16.42
					C93.85,59.272,93.309,59.892,92.635,59.892L92.635,59.892z"/>
			</g>
		</g>
	</g>
</g>
<g>
	<g>
		<g>
			<path fill="#A8A6A3" d="M59.846,113.906c-0.506,0-14.378,10.848-14.647,11.442c-0.3,0.688-0.285,1.7,0.048,2.341
				c0.38,0.689,14.015,11.367,14.538,11.367c0.237,0,0.584-0.297,0.869-0.714l0.459-0.715V126.48v-11.144l-0.459-0.717
				C60.4,114.229,60.037,113.906,59.846,113.906z M58.424,126.48v7.15l-4.509-3.501c-2.483-1.948-4.508-3.574-4.508-3.649
				c0-0.073,2.025-1.701,4.508-3.647l4.509-3.501V126.48z"/>
			<path fill="#A8A6A3" d="M66.49,113.906c-0.301,0-0.632,0.224-0.87,0.617l-0.396,0.59v11.367v11.369l0.396,0.591
				c0.475,0.765,1.154,0.79,1.725,0.098l0.411-0.492V126.58v-11.467l-0.397-0.59C67.122,114.13,66.791,113.906,66.49,113.906z"/>
			<path fill="#A8A6A3" d="M72.391,114.499l-0.443,0.59l-0.016,10.948c-0.015,5.992,0,11.17,0.048,11.465
				c0.094,0.765,0.792,1.555,1.344,1.555c0.27,0,0.617-0.248,0.839-0.617l0.396-0.592V126.48v-11.367l-0.396-0.59
				C73.671,113.732,72.977,113.732,72.391,114.499z"/>
			<path fill="#A8A6A3" d="M79.129,114.62l-0.459,0.717l0.017,11.07c0,7.077,0.063,11.245,0.172,11.564
				c0.174,0.591,0.761,1.085,1.251,1.085c0.172,0,0.537-0.321,0.79-0.716l0.459-0.715V126.48v-11.144L80.9,114.62
				C80.3,113.685,79.731,113.685,79.129,114.62z"/>
			<path fill="#A8A6A3" d="M85.868,114.523l-0.395,0.59v11.367v11.369l0.395,0.591c0.475,0.765,1.155,0.79,1.725,0.098l0.412-0.492
				V126.48v-11.564l-0.412-0.491C87.023,113.734,86.343,113.76,85.868,114.523z"/>
			<path fill="#A8A6A3" d="M92.639,114.499l-0.441,0.59l-0.016,10.948c-0.017,5.992-0.001,11.17,0.047,11.465
				c0.094,0.765,0.791,1.555,1.345,1.555c0.269,0,0.617-0.248,0.84-0.617l0.393-0.592V126.48v-11.367l-0.393-0.59
				C93.922,113.732,93.225,113.732,92.639,114.499z"/>
			<path fill="#A8A6A3" d="M107.857,119.627c-3.828-3.008-7.182-5.549-7.466-5.621c-0.429-0.126-0.586-0.024-0.996,0.59l-0.476,0.74
				l0.016,11.071c0,7.077,0.062,11.245,0.174,11.564c0.173,0.566,0.76,1.085,1.202,1.061c0.142,0,3.465-2.518,7.388-5.599
				c6.186-4.856,7.134-5.693,7.261-6.286C115.324,125.52,115.388,125.569,107.857,119.627z M106.116,130.13l-4.508,3.501v-7.15
				v-7.149l4.508,3.501c2.483,1.947,4.507,3.575,4.507,3.648C110.623,126.555,108.6,128.182,106.116,130.13z"/>
		</g>
	</g>
</g>
</svg>
