<?xml version="1.0" encoding="utf-8"?>
<!-- Generator: Adobe Illustrator 16.0.0, SVG Export Plug-In . SVG Version: 6.00 Build 0)  -->
<!DOCTYPE svg PUBLIC "-//W3C//DTD SVG 1.1//EN" "http://www.w3.org/Graphics/SVG/1.1/DTD/svg11.dtd">
<svg version="1.1" id="Layer_1" xmlns="http://www.w3.org/2000/svg" xmlns:xlink="http://www.w3.org/1999/xlink" x="0px" y="0px"
	 width="160px" height="160px" viewBox="0 0 160 160" enable-background="new 0 0 160 160" xml:space="preserve">
<title>Table Lamp</title>
<desc>Created with Sketch.</desc>
<g id="Table-Lamp">
	<g>
		<g id="Group_12_" transform="translate(5.000000, 4.000000)">
			<path id="Shape_12_" fill="#FFFFFF" d="M77.279,61.324l-4.089-3.319v3.312L77.279,61.324z M73.19,95.527l4.102-3.317
				l-4.102-0.008V95.527z M77.244,92.359l4.137,3.318v-3.354L77.244,92.359z M81.383,58.154l-4.072,3.318l4.072-0.021V58.154z
				 M116.428,61.286c2.854-0.015,4.821-2.341,3.799-4.505l-19.205-40.653c-0.602-1.283-2.129-2.132-3.82-2.132H58.8
				c-1.695,0-3.219,0.85-3.822,2.132L35.775,56.781c-1.027,2.17,0.947,4.505,3.814,4.505l35.106,0.03v32.093H54.957
				c-2.263-0.015-3.975,1.116-3.975,2.957l-0.119-0.869c0,1.834,1.329,2.93,4.094,3.341h46.086c2.798,0.139,4.094-2.109,4.094-2.109
				l0,0c0-1.854-1.824-3.345-4.095-3.317H80.361V61.453L116.428,61.286z M96.95,95.495v1.231h4.093v-1.231H96.95z M54.957,96.729
				h4.093v-1.232h-4.093V96.729z M74.379,56.384l-31.398-0.223l16.764-36.333l35.89-0.239l16.527,36.571 M101.043,93.409H54.957
				v2.086l-0.009,3.319l22.329,0.033c2.263,0.006,4.104-1.484,2.14-3.002V58.324c1.966-1.816,0-2.26-1.849-2.149l-0.514-0.11
				c-2.25,0.01-3.867,0.265-2.361,2.089v37.521c-1.505,1.492-0.298,2.749,1.363,3.172c0.398,0.098,0.825,0.152,1.269,0.146
				l23.759-0.184l-0.041-3.316V93.409z"/>
			<rect id="Rectangle-path_12_" x="52.658" y="62.089" fill="#FFFFFF" width="5.069" height="20.638"/>
		</g>
	</g>
</g>
<g>
	<g>
		<g>
			<path fill="#FFFFFF" d="M61.846,111.906c-0.506,0-14.378,10.848-14.647,11.441c-0.3,0.688-0.285,1.7,0.048,2.342
				c0.38,0.688,14.015,11.367,14.538,11.367c0.237,0,0.584-0.298,0.869-0.715l0.459-0.715V124.48v-11.145l-0.459-0.717
				C62.4,112.229,62.037,111.906,61.846,111.906z M60.424,124.48v7.149l-4.509-3.501c-2.483-1.947-4.508-3.574-4.508-3.648
				c0-0.073,2.025-1.701,4.508-3.647l4.509-3.501V124.48z"/>
			<path fill="#FFFFFF" d="M68.49,111.906c-0.301,0-0.632,0.224-0.87,0.617l-0.396,0.59v11.367v11.369l0.396,0.59
				c0.475,0.766,1.154,0.791,1.725,0.099l0.411-0.492V124.58v-11.467l-0.397-0.59C69.122,112.13,68.791,111.906,68.49,111.906z"/>
			<path fill="#FFFFFF" d="M74.391,112.499l-0.443,0.59l-0.016,10.948c-0.015,5.992,0,11.17,0.048,11.465
				c0.094,0.766,0.792,1.555,1.344,1.555c0.27,0,0.617-0.248,0.839-0.617l0.396-0.592V124.48v-11.367l-0.396-0.59
				C75.671,111.732,74.977,111.732,74.391,112.499z"/>
			<path fill="#FFFFFF" d="M81.129,112.62l-0.459,0.717l0.018,11.07c0,7.077,0.062,11.245,0.172,11.563
				c0.174,0.592,0.761,1.086,1.25,1.086c0.173,0,0.537-0.322,0.791-0.717l0.459-0.715V124.48v-11.145L82.9,112.62
				C82.3,111.686,81.73,111.686,81.129,112.62z"/>
			<path fill="#FFFFFF" d="M87.868,112.523l-0.396,0.59v11.367v11.369l0.396,0.59c0.475,0.766,1.155,0.791,1.725,0.099l0.412-0.492
				V124.48v-11.564l-0.412-0.491C89.023,111.734,88.343,111.76,87.868,112.523z"/>
			<path fill="#FFFFFF" d="M94.639,112.499l-0.44,0.59l-0.017,10.948c-0.017,5.992,0,11.17,0.047,11.465
				c0.095,0.766,0.791,1.555,1.346,1.555c0.269,0,0.617-0.248,0.84-0.617l0.393-0.592V124.48v-11.367l-0.393-0.59
				C95.922,111.732,95.225,111.732,94.639,112.499z"/>
			<path fill="#FFFFFF" d="M109.857,117.627c-3.828-3.008-7.183-5.549-7.467-5.621c-0.429-0.126-0.586-0.023-0.996,0.59l-0.476,0.74
				l0.017,11.071c0,7.077,0.062,11.245,0.174,11.563c0.173,0.566,0.76,1.086,1.201,1.062c0.143,0,3.465-2.519,7.389-5.599
				c6.186-4.856,7.134-5.693,7.261-6.287C117.324,123.52,117.389,123.568,109.857,117.627z M108.116,128.13l-4.509,3.501v-7.15
				v-7.148l4.509,3.501c2.483,1.946,4.507,3.575,4.507,3.647C112.623,124.555,110.6,126.182,108.116,128.13z"/>
		</g>
	</g>
</g>
</svg>
