<?xml version="1.0" encoding="utf-8"?>
<!-- Generator: Adobe Illustrator 16.0.0, SVG Export Plug-In . SVG Version: 6.00 Build 0)  -->
<!DOCTYPE svg PUBLIC "-//W3C//DTD SVG 1.1//EN" "http://www.w3.org/Graphics/SVG/1.1/DTD/svg11.dtd">
<svg version="1.1" id="Layer_1" xmlns="http://www.w3.org/2000/svg" xmlns:xlink="http://www.w3.org/1999/xlink" x="0px" y="0px"
	 width="99.695px" height="45.695px" viewBox="0 0 99.695 45.695" enable-background="new 0 0 99.695 45.695" xml:space="preserve">
<g>
	<g>
		
			<rect x="0" y="0" opacity="0.2" fill="#A8A6A3" stroke="#000000" stroke-width="1.9452" stroke-miterlimit="10" enable-background="new    " width="99.695" height="45.695"/>
	</g>
	<g>
		<path fill="#FFFFFF" d="M12.904,25.021v0.992H5.271V14.654h7.488v0.992H6.391v4.096h5.552v0.944H6.391v4.335H12.904z"/>
		<path fill="#FFFFFF" d="M21.703,26.013h-1.088v-4.655c0-0.992-0.147-1.712-0.44-2.16c-0.293-0.448-0.744-0.672-1.352-0.672
			c-0.32,0-0.64,0.059-0.96,0.176c-0.32,0.118-0.616,0.283-0.888,0.496s-0.515,0.467-0.728,0.76
			c-0.213,0.293-0.368,0.611-0.464,0.952v5.104h-1.088v-8.335h0.992v1.888c0.341-0.608,0.83-1.098,1.464-1.472
			c0.635-0.374,1.326-0.56,2.072-0.56c0.458,0,0.848,0.085,1.168,0.256c0.32,0.171,0.576,0.411,0.768,0.72s0.331,0.688,0.416,1.136
			c0.085,0.448,0.128,0.944,0.128,1.488V26.013z"/>
		<path fill="#FFFFFF" d="M26.119,26.174c-0.395,0-0.76-0.066-1.096-0.199c-0.336-0.134-0.63-0.318-0.88-0.553
			s-0.445-0.509-0.584-0.824c-0.139-0.314-0.208-0.652-0.208-1.016c0-0.362,0.085-0.698,0.256-1.008c0.17-0.309,0.41-0.576,0.72-0.8
			c0.31-0.224,0.677-0.397,1.104-0.52s0.896-0.184,1.408-0.184c0.426,0,0.858,0.037,1.296,0.112c0.437,0.075,0.827,0.182,1.168,0.32
			V20.75c0-0.736-0.208-1.32-0.624-1.752s-0.992-0.648-1.728-0.648c-0.427,0-0.864,0.085-1.312,0.256
			c-0.448,0.171-0.901,0.416-1.36,0.736l-0.384-0.72c1.078-0.725,2.123-1.088,3.136-1.088c1.045,0,1.867,0.293,2.464,0.88
			c0.597,0.587,0.896,1.397,0.896,2.432v3.759c0,0.299,0.133,0.449,0.4,0.449v0.959c-0.181,0.033-0.32,0.049-0.416,0.049
			c-0.277,0-0.493-0.07-0.648-0.209c-0.155-0.138-0.237-0.33-0.248-0.575l-0.032-0.656c-0.384,0.501-0.867,0.886-1.448,1.151
			C27.418,26.041,26.791,26.174,26.119,26.174z M26.375,25.342c0.565,0,1.085-0.105,1.56-0.32c0.475-0.213,0.834-0.495,1.08-0.848
			c0.096-0.096,0.168-0.199,0.216-0.312c0.048-0.112,0.072-0.216,0.072-0.312V22.19c-0.363-0.138-0.739-0.245-1.128-0.32
			c-0.39-0.074-0.787-0.112-1.192-0.112c-0.768,0-1.392,0.16-1.872,0.48c-0.48,0.32-0.72,0.741-0.72,1.264
			c0,0.256,0.051,0.496,0.152,0.721c0.101,0.224,0.24,0.418,0.416,0.584c0.176,0.165,0.386,0.295,0.632,0.392
			C25.837,25.294,26.098,25.342,26.375,25.342z"/>
		<path fill="#FFFFFF" d="M36.823,26.174c-0.661,0-1.267-0.165-1.816-0.496c-0.549-0.33-0.979-0.757-1.288-1.279v1.615h-0.976
			v-11.68h1.088v5.088c0.373-0.565,0.821-1.021,1.344-1.368s1.131-0.52,1.824-0.52c0.586,0,1.112,0.123,1.576,0.368
			c0.464,0.245,0.858,0.573,1.184,0.984s0.576,0.875,0.752,1.392c0.176,0.518,0.264,1.048,0.264,1.592
			c0,0.587-0.102,1.142-0.304,1.664c-0.203,0.522-0.48,0.979-0.832,1.368c-0.352,0.389-0.771,0.699-1.256,0.928
			C37.898,26.059,37.378,26.174,36.823,26.174z M36.567,25.215c0.458,0,0.877-0.094,1.256-0.281
			c0.379-0.186,0.704-0.437,0.976-0.752c0.272-0.314,0.485-0.672,0.64-1.071c0.154-0.4,0.232-0.813,0.232-1.24
			c0-0.437-0.072-0.858-0.216-1.264c-0.144-0.405-0.347-0.765-0.608-1.08c-0.262-0.315-0.576-0.565-0.944-0.752
			c-0.368-0.186-0.771-0.28-1.208-0.28c-0.331,0-0.64,0.056-0.928,0.168s-0.555,0.264-0.8,0.456
			c-0.245,0.192-0.464,0.414-0.656,0.664s-0.352,0.515-0.48,0.792v2.592c0.042,0.288,0.157,0.558,0.344,0.809
			c0.187,0.25,0.411,0.467,0.672,0.647c0.261,0.182,0.544,0.325,0.848,0.433C35.999,25.161,36.29,25.215,36.567,25.215z"/>
		<path fill="#FFFFFF" d="M42.663,14.334h1.088v9.792c0,0.31,0.085,0.552,0.256,0.728c0.171,0.177,0.411,0.265,0.72,0.265
			c0.117,0,0.256-0.017,0.416-0.048c0.16-0.032,0.309-0.074,0.448-0.128l0.192,0.88c-0.203,0.086-0.451,0.154-0.744,0.208
			s-0.547,0.08-0.76,0.08c-0.501,0-0.896-0.142-1.184-0.425c-0.288-0.281-0.432-0.68-0.432-1.191V14.334z"/>
		<path fill="#FFFFFF" d="M50.566,26.174c-0.607,0-1.165-0.114-1.671-0.344c-0.507-0.229-0.947-0.544-1.32-0.943
			c-0.374-0.4-0.664-0.861-0.872-1.385c-0.208-0.522-0.312-1.083-0.312-1.68c0-0.586,0.104-1.139,0.312-1.656
			c0.208-0.517,0.496-0.97,0.864-1.36c0.368-0.389,0.808-0.699,1.32-0.928c0.512-0.229,1.066-0.344,1.664-0.344
			c0.607,0,1.166,0.115,1.672,0.344c0.508,0.229,0.941,0.542,1.305,0.936c0.361,0.395,0.645,0.848,0.848,1.36
			c0.203,0.512,0.305,1.056,0.305,1.632c0,0.085,0,0.171,0,0.256c0,0.085-0.006,0.144-0.016,0.176h-7.137
			c0.032,0.448,0.136,0.861,0.312,1.24c0.176,0.379,0.403,0.707,0.68,0.984s0.595,0.492,0.952,0.647s0.738,0.231,1.144,0.231
			c0.266,0,0.533-0.037,0.801-0.111c0.266-0.074,0.512-0.176,0.734-0.305c0.225-0.127,0.428-0.285,0.609-0.472
			c0.18-0.187,0.318-0.392,0.416-0.616l0.943,0.256c-0.129,0.311-0.309,0.59-0.545,0.84c-0.234,0.252-0.506,0.471-0.814,0.656
			c-0.311,0.188-0.652,0.331-1.025,0.432C51.361,26.123,50.972,26.174,50.566,26.174z M53.638,21.406
			c-0.031-0.448-0.135-0.856-0.312-1.224c-0.176-0.368-0.398-0.685-0.672-0.952c-0.271-0.266-0.586-0.474-0.943-0.624
			c-0.357-0.149-0.738-0.224-1.145-0.224c-0.405,0-0.789,0.075-1.151,0.224c-0.363,0.15-0.681,0.358-0.953,0.624
			c-0.272,0.267-0.491,0.587-0.656,0.96c-0.166,0.374-0.264,0.779-0.296,1.216H53.638z"/>
		<path fill="#FFFFFF" d="M65.238,26.094c-0.789,0-1.512-0.162-2.168-0.488c-0.656-0.324-1.219-0.756-1.688-1.295
			s-0.832-1.155-1.088-1.848s-0.385-1.403-0.385-2.128c0-0.757,0.137-1.482,0.408-2.176s0.648-1.307,1.129-1.84
			c0.48-0.534,1.045-0.958,1.695-1.272c0.65-0.315,1.355-0.472,2.111-0.472c0.791,0,1.514,0.168,2.168,0.504
			c0.656,0.336,1.217,0.776,1.682,1.32c0.463,0.544,0.824,1.16,1.08,1.848s0.383,1.39,0.383,2.104c0,0.757-0.135,1.483-0.408,2.176
			c-0.271,0.693-0.645,1.304-1.119,1.832s-1.037,0.949-1.688,1.264C66.699,25.937,65.996,26.094,65.238,26.094z M61.031,20.334
			c0,0.619,0.102,1.214,0.303,1.784c0.203,0.571,0.492,1.078,0.865,1.521c0.373,0.442,0.816,0.795,1.328,1.056
			s1.082,0.392,1.711,0.392c0.641,0,1.223-0.139,1.744-0.416c0.523-0.277,0.965-0.64,1.328-1.088c0.363-0.448,0.643-0.955,0.84-1.52
			c0.197-0.565,0.297-1.141,0.297-1.728c0-0.618-0.105-1.213-0.312-1.784s-0.498-1.075-0.871-1.512
			c-0.375-0.437-0.816-0.787-1.328-1.048c-0.514-0.261-1.078-0.392-1.697-0.392c-0.639,0-1.221,0.136-1.744,0.408
			c-0.521,0.272-0.965,0.632-1.328,1.08c-0.361,0.448-0.643,0.955-0.84,1.52C61.129,19.172,61.031,19.747,61.031,20.334z"/>
		<path fill="#FFFFFF" d="M77.254,26.094c-0.789,0-1.512-0.162-2.168-0.488c-0.656-0.324-1.219-0.756-1.688-1.295
			s-0.832-1.155-1.088-1.848s-0.385-1.403-0.385-2.128c0-0.757,0.137-1.482,0.408-2.176s0.648-1.307,1.129-1.84
			c0.48-0.534,1.045-0.958,1.695-1.272c0.65-0.315,1.355-0.472,2.111-0.472c0.791,0,1.514,0.168,2.168,0.504
			c0.656,0.336,1.217,0.776,1.682,1.32c0.463,0.544,0.824,1.16,1.08,1.848s0.383,1.39,0.383,2.104c0,0.757-0.135,1.483-0.408,2.176
			c-0.271,0.693-0.645,1.304-1.119,1.832s-1.037,0.949-1.688,1.264C78.715,25.937,78.011,26.094,77.254,26.094z M73.047,20.334
			c0,0.619,0.102,1.214,0.303,1.784c0.203,0.571,0.492,1.078,0.865,1.521c0.373,0.442,0.816,0.795,1.328,1.056
			s1.082,0.392,1.711,0.392c0.641,0,1.223-0.139,1.744-0.416c0.523-0.277,0.965-0.64,1.328-1.088c0.363-0.448,0.643-0.955,0.84-1.52
			c0.197-0.565,0.297-1.141,0.297-1.728c0-0.618-0.105-1.213-0.312-1.784s-0.498-1.075-0.871-1.512
			c-0.375-0.437-0.816-0.787-1.328-1.048c-0.514-0.261-1.078-0.392-1.697-0.392c-0.639,0-1.221,0.136-1.744,0.408
			c-0.521,0.272-0.965,0.632-1.328,1.08c-0.361,0.448-0.643,0.955-0.84,1.52C73.144,19.172,73.047,19.747,73.047,20.334z"/>
		<path fill="#FFFFFF" d="M93.654,14.654v11.359h-1.104v-5.312h-6.736v5.312h-1.119V14.654h1.119v5.056h6.736v-5.056H93.654z"/>
	</g>
</g>
</svg>
