<?xml version="1.0" encoding="utf-8"?>
<!-- Generator: Adobe Illustrator 16.0.0, SVG Export Plug-In . SVG Version: 6.00 Build 0)  -->
<!DOCTYPE svg PUBLIC "-//W3C//DTD SVG 1.1//EN" "http://www.w3.org/Graphics/SVG/1.1/DTD/svg11.dtd">
<svg version="1.1" id="Layer_1" xmlns="http://www.w3.org/2000/svg" xmlns:xlink="http://www.w3.org/1999/xlink" x="0px" y="0px"
	 width="50px" height="50px" viewBox="0 0 50 50" enable-background="new 0 0 50 50" xml:space="preserve">
<g>
	<path fill="#FF9400" d="M6.348,21.362V5.756h34.709c0,0-0.015-3.532,0-4.097c-0.035-0.818-0.453-2.16-3.184-2.16s-34.71,0-34.71,0
		S0-0.688,0,2.658c0,2.169,0,12.039,0,18.698c0,3.608,0,6.283,0,6.283c0,6.664,0,16.527,0,18.697c0,3.346,3.163,3.159,3.163,3.159
		s31.979,0,34.71,0c2.729,0,3.146-1.343,3.184-2.159c-0.015-0.564,0-4.097,0-4.097H6.348V27.639V21.362z"/>
	<path fill="#FF9400" d="M50,24.394L34.693,8.854l-0.051,10.54H15.745v9.647h18.897V40.08L50,24.394z"/>
</g>
</svg>
