<?xml version="1.0" encoding="utf-8"?>
<!-- Generator: Adobe Illustrator 16.0.0, SVG Export Plug-In . SVG Version: 6.00 Build 0)  -->
<!DOCTYPE svg PUBLIC "-//W3C//DTD SVG 1.1//EN" "http://www.w3.org/Graphics/SVG/1.1/DTD/svg11.dtd">
<svg version="1.1" id="Layer_1" xmlns="http://www.w3.org/2000/svg" xmlns:xlink="http://www.w3.org/1999/xlink" x="0px" y="0px"
	 width="160px" height="160px" viewBox="0 0 160 160" enable-background="new 0 0 160 160" xml:space="preserve">
<title>Chandelier</title>
<desc>Created with Sketch.</desc>
<g>
	<path fill="#A8A6A3" d="M52.059,53.946c-2.349-2.311-3.716-5.352-3.774-8.416c-0.052-2.725,0.944-5.244,2.815-7.085
		c1.865-1.834,4.422-2.826,7.202-2.769c3.276,0.059,6.531,1.547,8.915,4.079l11.078,11.759c3.01,3.191,4.627,7.356,4.54,11.717
		c-0.086,4.358-1.854,8.456-4.992,11.543l-1.417,1.393L52.434,54.299C52.3,54.182,52.176,54.061,52.059,53.946z M63.37,43.101
		c-1.587-1.561-1.786-1.843-3.824-1.88c-1.149-0.022-2.384,0.113-3.745,1.45c-1.357,1.339-1.369,2.231-1.354,3.369
		c0.044,2.116,0.881,2.953,2.629,4.545l18.036,18.133c3.59-4.825,3.074-9.122-0.708-14.216l-9.51-9.699
		C64.167,43.846,63.37,43.101,63.37,43.101z"/>
	<path fill="#A8A6A3" d="M74.516,85.699c3.83,3.766,10.055,3.773,13.893,0c3.839-3.779,3.839-9.892,0-13.666
		c-3.839-3.773-10.055-3.775-13.893,0S70.678,81.922,74.516,85.699L74.516,85.699z"/>
</g>
<path fill="#A8A6A3" d="M104.402,49.532c2.35-2.311,5.441-3.655,8.557-3.712c2.771-0.052,5.332,0.929,7.203,2.769
	c1.866,1.834,2.874,4.35,2.816,7.083c-0.06,3.222-1.574,6.424-4.148,8.768l-11.955,10.896c-3.246,2.96-7.479,4.551-11.914,4.466
	c-4.432-0.085-8.598-1.824-11.735-4.912l-1.417-1.391L104.044,49.9C104.163,49.769,104.286,49.646,104.402,49.532z M115.429,60.655
	c1.587-1.561,1.874-1.756,1.912-3.761c0.022-1.13-0.114-2.345-1.474-3.683c-1.36-1.335-2.27-1.347-3.426-1.333
	c-2.151,0.044-3.003,0.867-4.62,2.587l-18.438,17.74c4.905,3.531,9.274,3.023,14.454-0.695l9.862-9.354
	C114.672,61.44,115.429,60.655,115.429,60.655z"/>
<path fill="#A8A6A3" d="M110.8,102.403c2.349,2.311,3.717,5.351,3.775,8.415c0.051,2.725-0.944,5.243-2.815,7.085
	c-1.865,1.834-4.424,2.827-7.202,2.769c-3.277-0.059-6.531-1.547-8.915-4.079l-11.078-11.76c-3.011-3.19-4.627-7.354-4.54-11.717
	c0.086-4.358,1.854-8.455,4.993-11.542l1.416-1.393l23.993,21.869C110.559,102.167,110.684,102.288,110.8,102.403z M87.749,87.632
	c-3.59,4.825-3.073,9.122,0.708,14.215l9.509,9.699c0.727,0.957,1.523,1.702,1.523,1.702c1.588,1.561,1.787,1.843,3.824,1.881
	c1.15,0.021,2.385-0.114,3.746-1.451c1.357-1.339,1.37-2.231,1.354-3.368"/>
<path fill="#A8A6A3" d="M56.559,108.203c-2.35,2.311-5.442,3.655-8.558,3.712c-2.77,0.052-5.331-0.93-7.203-2.77
	c-1.864-1.834-2.873-4.349-2.815-7.083c0.06-3.222,1.573-6.423,4.148-8.768l11.956-10.896c3.245-2.959,7.478-4.551,11.912-4.464
	c4.431,0.084,8.597,1.823,11.736,4.912l1.415,1.392l-22.234,23.598C56.798,107.967,56.675,108.088,56.559,108.203z M45.532,97.079
	c-1.588,1.562-1.874,1.756-1.912,3.762c-0.022,1.129,0.116,2.343,1.474,3.682c1.362,1.337,2.269,1.349,3.426,1.334
	c2.151-0.044,3.002-0.867,4.62-2.586l18.438-17.739c-4.904-3.531-9.275-3.023-14.454,0.696l-9.862,9.354
	C46.289,96.295,45.532,97.079,45.532,97.079z"/>
</svg>
