<?xml version="1.0" encoding="utf-8"?>
<!-- Generator: Adobe Illustrator 16.0.0, SVG Export Plug-In . SVG Version: 6.00 Build 0)  -->
<!DOCTYPE svg PUBLIC "-//W3C//DTD SVG 1.1//EN" "http://www.w3.org/Graphics/SVG/1.1/DTD/svg11.dtd">
<svg version="1.1" id="Layer_1" xmlns="http://www.w3.org/2000/svg" xmlns:xlink="http://www.w3.org/1999/xlink" x="0px" y="0px"
	 width="90px" height="45px" viewBox="0 0 90 45" enable-background="new 0 0 90 45" xml:space="preserve">
<title>home</title>
<desc>Created with Sketch.</desc>
<g id="Group-2">
	<path id="Fill-200" fill="#F7F2ED" d="M4.8,38.144H20V32.2H4.8V38.144z M4.8,26.258H20v-5.943H4.8V26.258z M4.8,14.486H20V8.543
		H4.8V14.486z"/>
	<path id="Shape" opacity="0.8675" fill="#F7F2ED" enable-background="new    " d="M47.086,42.258
		c5.714,1.143,10.743-0.686,14.972-4.343c2.171-1.943,3.885-3.887,5.143-6.286c0.457-0.685,0.686-1.371,1.028-2.057l9.143,12.686
		l7.429-6.286L66.4,10.601l0,0c-0.571-0.915-1.372-1.714-2.172-2.629c-3.313-3.657-7.543-5.485-12.343-5.371
		c-6.057,0.229-10.743,3.314-14.743,8.115c-5.714,7.314-5.829,16.8-0.571,24.229C38.972,39.058,42.743,41.457,47.086,42.258z
		 M43.886,28.886c-3.314-4.799-2.628-10.856,1.6-14.514c4.228-3.657,9.829-2.743,13.257,2.057c0.113,0.114,0.113,0.229,0.229,0.343
		l0,0v0.114c2.971,4.572,2.171,10.4-1.829,13.943C52.8,34.372,47.086,33.572,43.886,28.886z"/>
</g>
</svg>
