<?xml version="1.0" encoding="utf-8"?>
<!-- Generator: Adobe Illustrator 16.0.0, SVG Export Plug-In . SVG Version: 6.00 Build 0)  -->
<!DOCTYPE svg PUBLIC "-//W3C//DTD SVG 1.1//EN" "http://www.w3.org/Graphics/SVG/1.1/DTD/svg11.dtd">
<svg version="1.1" id="Layer_1" xmlns="http://www.w3.org/2000/svg" xmlns:xlink="http://www.w3.org/1999/xlink" x="0px" y="0px"
	 width="160px" height="160px" viewBox="0 0 160 160" enable-background="new 0 0 160 160" xml:space="preserve">
<g>
	<path fill="#A8A6A3" d="M113.369,59.769c0-7.187-2.628-13.83-7.082-19.143c-3.907-4.667-9.21-8.343-15.352-10.492l0.03-0.147
		l-2.618-0.696c-2.044-0.534-4.141-0.907-6.279-1.105l-0.299-0.024h-0.016h-0.012c-1.055-0.087-2.139-0.16-3.29-0.16h-0.165
		c-1.137,0-2.234,0.072-3.289,0.16h-0.013l-0.316,0.024c-2.139,0.198-4.248,0.572-6.277,1.105L65.86,29.96l0.025,0.15
		c-6.167,2.149-11.513,5.825-15.431,10.515c-4.442,5.327-7.085,11.966-7.085,19.143c0,5.15,0.984,9.384,2.507,12.885
		c2.302,5.251,5.794,8.801,8.62,11.498c1.413,1.337,2.643,2.482,3.495,3.461c0.863,0.981,1.274,1.751,1.397,2.347
		c0.616,2.94,0.672,6.654,0.672,7.595v0.277c0,4.257,3.809,7.681,8.496,7.695h19.638c4.701,0,8.5-3.451,8.5-7.695v-0.263
		c0-0.931,0.066-4.654,0.668-7.6c0.084-0.407,0.289-0.876,0.672-1.449c0.672-0.996,1.946-2.236,3.523-3.726
		c2.357-2.249,5.345-5.068,7.728-9.087C111.673,71.713,113.386,66.534,113.369,59.769L113.369,59.769z M105.355,70.681
		c-1.878,4.282-4.689,7.187-7.415,9.781c-1.357,1.304-2.687,2.508-3.854,3.85c-1.15,1.316-2.162,2.833-2.561,4.682
		c-0.743,3.611-0.769,7.486-0.779,8.592c0,0.146,0,0.223,0,0.256c0,1.279-1.149,2.322-2.563,2.322H68.556
		c-0.726,0-1.341-0.261-1.823-0.683c-0.465-0.433-0.738-0.995-0.738-1.64c0-0.033,0-0.12,0-0.271c0-1.115-0.04-4.979-0.782-8.592
		c-0.246-1.213-0.808-2.318-1.466-3.288c-1.177-1.702-2.697-3.104-4.26-4.593c-2.358-2.22-4.854-4.63-6.8-7.909
		c-1.932-3.279-3.371-7.458-3.383-13.418c0-5.984,2.18-11.471,5.878-15.903c3.702-4.421,8.895-7.759,14.912-9.386l0.739-0.199
		c1.453-0.334,2.933-0.605,4.467-0.757h0.013l0.29-0.023c0.904-0.075,1.766-0.126,2.631-0.135l0.15,0.009l0.153-0.009
		c0.848,0,1.724,0.048,2.628,0.124h-0.012l0.287,0.024l0,0c1.533,0.147,3.016,0.41,4.454,0.759l0.753,0.199
		c6.003,1.625,11.208,4.967,14.911,9.384c3.687,4.432,5.881,9.918,5.881,15.901C107.438,64.313,106.6,67.824,105.355,70.681
		L105.355,70.681z"/>
	<path fill="#A8A6A3" d="M82.059,28.176L82.059,28.176L82.059,28.176z"/>
	<path fill="#A8A6A3" d="M74.671,28.176L74.671,28.176C74.671,28.176,74.683,28.176,74.671,28.176L74.671,28.176z"/>
	<path fill="#A8A6A3" d="M88.112,107.638H68.639c-2.016,0-3.646,1.479-3.646,3.315c0,1.81,1.646,3.304,3.646,3.304h19.474
		c2.016,0,3.646-1.494,3.646-3.304C91.759,109.117,90.128,107.638,88.112,107.638L88.112,107.638z"/>
	<path fill="#A8A6A3" d="M88.112,115.991H68.639c-2.016,0-3.646,1.48-3.646,3.305c0,1.836,1.646,3.315,3.646,3.315h19.474
		c2.016,0,3.646-1.479,3.646-3.315C91.759,117.472,90.128,115.991,88.112,115.991z"/>
	<path fill="#A8A6A3" d="M80.083,124.396H70.051c0,0.104-0.027,0.198-0.027,0.301c0,1.825,3.097,3.304,5.961,3.304h4.755
		c2.864,0,5.963-1.479,5.963-3.304c0-0.103-0.015-0.197-0.015-0.301H80.083L80.083,124.396z"/>
</g>
</svg>
