<?xml version="1.0" encoding="utf-8"?>
<!-- Generator: Adobe Illustrator 16.0.0, SVG Export Plug-In . SVG Version: 6.00 Build 0)  -->
<!DOCTYPE svg PUBLIC "-//W3C//DTD SVG 1.1//EN" "http://www.w3.org/Graphics/SVG/1.1/DTD/svg11.dtd">
<svg version="1.1" id="Layer_1" xmlns="http://www.w3.org/2000/svg" xmlns:xlink="http://www.w3.org/1999/xlink" x="0px" y="0px"
	 width="250px" height="45px" viewBox="0 0 250 45" enable-background="new 0 0 250 45" xml:space="preserve">
<path opacity="0.2" fill="#A8A6A3" stroke="#000000" stroke-width="1.045" stroke-miterlimit="10" enable-background="new    " d="
	M247.465,29.811c0,7.196-5.402,13.03-12.068,13.03H13.533c-6.665,0-12.068-5.834-12.068-13.03V14.872
	c0-7.197,5.403-13.031,12.068-13.031h221.863c6.666,0,12.067,5.834,12.067,13.031L247.465,29.811L247.465,29.811z"/>
<g>
	<g>
		<path fill="#FFFFFF" d="M107.71,26.625V14.29h2.221v10.233h5.825v2.103L107.71,26.625L107.71,26.625z"/>
		<path fill="#FFFFFF" d="M121.982,26.712c-0.836,0-1.596-0.177-2.277-0.53c-0.681-0.353-1.266-0.822-1.754-1.406
			c-0.488-0.586-0.866-1.254-1.134-2.005c-0.268-0.753-0.402-1.523-0.402-2.311c0-0.822,0.142-1.61,0.426-2.363
			c0.284-0.753,0.676-1.418,1.174-1.998c0.499-0.579,1.091-1.04,1.778-1.381c0.686-0.341,1.432-0.512,2.236-0.512
			c0.826,0,1.579,0.182,2.261,0.547c0.681,0.365,1.263,0.842,1.746,1.433c0.483,0.591,0.856,1.263,1.127,2.016
			c0.269,0.753,0.401,1.518,0.401,2.293c0,0.823-0.142,1.607-0.42,2.354c-0.277,0.75-0.664,1.408-1.158,1.981
			c-0.492,0.571-1.083,1.028-1.771,1.372C123.53,26.542,122.787,26.712,121.982,26.712z M118.668,20.457
			c0,0.533,0.075,1.048,0.225,1.546s0.367,0.938,0.652,1.321c0.284,0.382,0.633,0.688,1.046,0.921
			c0.413,0.231,0.882,0.347,1.408,0.347c0.536,0,1.011-0.117,1.424-0.355c0.413-0.235,0.762-0.553,1.046-0.945
			c0.284-0.393,0.499-0.836,0.644-1.329c0.145-0.492,0.217-0.993,0.217-1.503c0-0.532-0.078-1.048-0.233-1.546
			c-0.155-0.498-0.375-0.938-0.66-1.321c-0.285-0.383-0.633-0.686-1.046-0.912s-0.876-0.339-1.392-0.339
			c-0.537,0-1.014,0.119-1.432,0.356c-0.418,0.237-0.767,0.55-1.046,0.938c-0.279,0.388-0.491,0.828-0.635,1.32
			C118.74,19.447,118.668,19.948,118.668,20.457z"/>
		<path fill="#FFFFFF" d="M137.204,25.234c-0.912,0.983-1.974,1.478-3.187,1.478c-0.75,0-1.455-0.162-2.115-0.485
			c-0.659-0.324-1.233-0.771-1.723-1.338c-0.488-0.568-0.873-1.236-1.158-2.008c-0.283-0.77-0.426-1.601-0.426-2.493
			c0-0.845,0.143-1.642,0.426-2.389c0.285-0.747,0.676-1.401,1.176-1.963c0.498-0.562,1.086-1.008,1.762-1.338
			c0.676-0.33,1.41-0.495,2.204-0.495c1.071,0,1.991,0.243,2.76,0.729c0.767,0.486,1.343,1.141,1.729,1.963l-1.657,1.32
			c-0.29-0.614-0.694-1.083-1.216-1.407c-0.521-0.324-1.086-0.486-1.696-0.486c-0.483,0-0.927,0.11-1.328,0.33
			c-0.401,0.22-0.745,0.521-1.028,0.903c-0.285,0.382-0.506,0.823-0.66,1.32c-0.154,0.499-0.232,1.025-0.232,1.581
			c0,0.58,0.086,1.121,0.258,1.625c0.174,0.504,0.407,0.942,0.708,1.312c0.302,0.371,0.657,0.664,1.07,0.877
			c0.411,0.215,0.858,0.321,1.343,0.321c1.104,0,2.104-0.562,2.993-1.685v-0.869h-2.302v-1.754h4.136v6.341h-1.834L137.204,25.234
			L137.204,25.234z"/>
		<path fill="#FFFFFF" d="M140.938,26.625V14.29h2.222v12.335H140.938z"/>
		<path fill="#FFFFFF" d="M147.759,18.72v7.905h-2.221V14.29h1.722l5.953,8.096v-8.079h2.221v12.318h-1.802L147.759,18.72z"/>
	</g>
</g>
</svg>
