<?xml version="1.0" encoding="utf-8"?>
<!-- Generator: Adobe Illustrator 16.0.0, SVG Export Plug-In . SVG Version: 6.00 Build 0)  -->
<!DOCTYPE svg PUBLIC "-//W3C//DTD SVG 1.1//EN" "http://www.w3.org/Graphics/SVG/1.1/DTD/svg11.dtd">
<svg version="1.1" id="Layer_1" xmlns="http://www.w3.org/2000/svg" xmlns:xlink="http://www.w3.org/1999/xlink" x="0px" y="0px"
	 width="50px" height="50px" viewBox="0 0 50 50" enable-background="new 0 0 50 50" xml:space="preserve">
<title>Send Log</title>
<desc>Created with Sketch.</desc>
<g id="Page-1">
	<g id="Send-Log_1_">
		<g id="Symbols">
			<g id="Send-Log">
				<path id="Shape" fill="#FF9400" d="M32.47,18.25v-9L47.5,25L32.47,40.75v-9H17.53v-13.5H32.47z M28.78,40.75v-0.18
					C26.53,42.1,24.01,43,21.22,43c-8.28,0-15.03-8.1-15.03-18c0-9.9,6.75-18,15.03-18c2.7,0,5.311,0.9,7.47,2.43V4.39
					c-2.25-1.17-4.77-1.89-7.47-1.89C10.87,2.5,2.5,12.58,2.5,25s8.37,22.5,18.72,22.5c2.7,0,5.22-0.72,7.47-1.89v-4.86H28.78z"/>
			</g>
		</g>
	</g>
</g>
</svg>
