<?xml version="1.0" encoding="utf-8"?>
<!-- Generator: Adobe Illustrator 16.0.0, SVG Export Plug-In . SVG Version: 6.00 Build 0)  -->
<!DOCTYPE svg PUBLIC "-//W3C//DTD SVG 1.1//EN" "http://www.w3.org/Graphics/SVG/1.1/DTD/svg11.dtd">
<svg version="1.1" id="Layer_1" xmlns="http://www.w3.org/2000/svg" xmlns:xlink="http://www.w3.org/1999/xlink" x="0px" y="0px"
	 width="50px" height="50px" viewBox="0 0 50 50" enable-background="new 0 0 50 50" xml:space="preserve">
<g>
	<path fill="#FFFFFF" d="M34.274,46.099c0,1.052-0.823,1.901-1.849,1.901H18.572c-1.022,0-1.848-0.85-1.848-1.901
		c0-1.055,0.826-1.905,1.848-1.905h5.081V26.721c-1.526-0.724-2.592-2.301-2.592-4.148C21.061,20.043,23.05,18,25.5,18
		s4.439,2.044,4.439,4.573c0,1.847-1.064,3.428-2.592,4.148v17.474h5.078C33.449,44.193,34.274,45.044,34.274,46.099z M25.5,3
		C13.648,3,4,12.4,4,23.947c0,5.592,2.238,10.856,6.301,14.814c0.722,0.701,1.891,0.701,2.616,0c0.721-0.709,0.721-1.846,0-2.544
		c-3.371-3.279-5.222-7.631-5.222-12.27c0-9.563,7.982-17.348,17.805-17.348c9.821,0,17.805,7.779,17.805,17.348
		c0,4.631-1.852,8.992-5.211,12.27c-0.723,0.702-0.723,1.842,0,2.549c0.358,0.347,0.831,0.527,1.305,0.527
		c0.471,0,0.947-0.174,1.305-0.527C44.761,34.806,47,29.543,47,23.947C47,12.4,37.358,3,25.5,3z M25.5,11.651
		c-6.967,0-12.626,5.513-12.626,12.301c0,3.284,1.316,6.379,3.7,8.697c0.728,0.703,1.89,0.703,2.615,0
		c0.726-0.704,0.726-1.844,0-2.548c-1.688-1.642-2.615-3.826-2.615-6.153c0-4.798,4.006-8.696,8.926-8.696
		c4.918,0,8.926,3.899,8.926,8.696c0,2.323-0.925,4.511-2.614,6.153c-0.725,0.704-0.725,1.842,0,2.548
		c0.36,0.349,0.831,0.53,1.306,0.53c0.473,0,0.947-0.176,1.306-0.53c2.386-2.324,3.701-5.413,3.701-8.697
		C38.126,17.164,32.466,11.651,25.5,11.651z"/>
</g>
</svg>
