<?xml version="1.0" encoding="utf-8"?>
<!-- Generator: Adobe Illustrator 16.0.0, SVG Export Plug-In . SVG Version: 6.00 Build 0)  -->
<!DOCTYPE svg PUBLIC "-//W3C//DTD SVG 1.1//EN" "http://www.w3.org/Graphics/SVG/1.1/DTD/svg11.dtd">
<svg version="1.1" id="Layer_1" xmlns="http://www.w3.org/2000/svg" xmlns:xlink="http://www.w3.org/1999/xlink" x="0px" y="0px"
	 width="50px" height="50px" viewBox="0 0 50 50" enable-background="new 0 0 50 50" xml:space="preserve">
<g>
	<path fill="#F7F2ED" d="M31.213,38.317c0,0.654-0.535,1.183-1.204,1.183h-9.02c-0.666,0-1.203-0.528-1.203-1.183
		c0-0.656,0.538-1.186,1.203-1.186h3.309V26.26c-0.994-0.45-1.688-1.432-1.688-2.581c0-1.574,1.295-2.845,2.891-2.845
		s2.891,1.271,2.891,2.845c0,1.149-0.693,2.133-1.688,2.581v10.873h3.306C30.676,37.132,31.213,37.661,31.213,38.317z M25.5,11.5
		c-7.718,0-14,5.849-14,13.034c0,3.48,1.457,6.754,4.103,9.217c0.47,0.437,1.231,0.437,1.704,0c0.469-0.441,0.469-1.148,0-1.583
		c-2.195-2.04-3.401-4.748-3.401-7.634c0-5.951,5.198-10.794,11.594-10.794c6.395,0,11.594,4.84,11.594,10.794
		c0,2.881-1.206,5.595-3.394,7.634c-0.47,0.438-0.47,1.146,0,1.586c0.233,0.217,0.542,0.328,0.85,0.328s0.617-0.107,0.851-0.328
		c2.643-2.463,4.1-5.738,4.1-9.22C39.5,17.349,33.221,11.5,25.5,11.5z M25.5,16.883c-4.537,0-8.222,3.43-8.222,7.654
		c0,2.043,0.857,3.969,2.41,5.411c0.474,0.438,1.23,0.438,1.703,0c0.473-0.438,0.473-1.147,0-1.585
		c-1.099-1.022-1.703-2.381-1.703-3.829c0-2.986,2.608-5.411,5.812-5.411c3.202,0,5.812,2.426,5.812,5.411
		c0,1.446-0.603,2.806-1.702,3.829c-0.473,0.438-0.473,1.146,0,1.585c0.234,0.217,0.541,0.33,0.851,0.33
		c0.308,0,0.616-0.109,0.85-0.33c1.555-1.446,2.41-3.368,2.41-5.411C33.722,20.313,30.036,16.883,25.5,16.883z"/>
</g>
</svg>
