<?xml version="1.0" encoding="utf-8"?>
<!-- Generator: Adobe Illustrator 16.0.0, SVG Export Plug-In . SVG Version: 6.00 Build 0)  -->
<!DOCTYPE svg PUBLIC "-//W3C//DTD SVG 1.1//EN" "http://www.w3.org/Graphics/SVG/1.1/DTD/svg11.dtd">
<svg version="1.1" id="Layer_1" xmlns="http://www.w3.org/2000/svg" xmlns:xlink="http://www.w3.org/1999/xlink" x="0px" y="0px"
	 width="99.695px" height="45.695px" viewBox="0 0 99.695 45.695" enable-background="new 0 0 99.695 45.695" xml:space="preserve">
<g>
	<g>
		<g>
			<g>
				
					<rect x="0" y="0" opacity="0.2" fill="#A8A6A3" stroke="#000000" stroke-width="1.9452" stroke-miterlimit="10" enable-background="new    " width="99.695" height="45.695"/>
			</g>
		</g>
	</g>
	<g>
		<path fill="#FFFFFF" d="M7.105,27.014v-11.36h4.8c0.49,0,0.941,0.104,1.352,0.312c0.41,0.208,0.765,0.48,1.064,0.816
			c0.298,0.336,0.53,0.717,0.696,1.144s0.248,0.858,0.248,1.296c0,0.416-0.062,0.813-0.184,1.192
			c-0.123,0.379-0.293,0.72-0.512,1.024c-0.219,0.304-0.483,0.56-0.792,0.768c-0.31,0.208-0.656,0.35-1.04,0.424l2.784,4.384h-1.264
			l-2.672-4.192h-3.36v4.192H7.105z M8.225,21.83h3.712c0.331,0,0.632-0.072,0.904-0.216s0.504-0.338,0.696-0.584
			s0.341-0.522,0.448-0.832c0.106-0.31,0.16-0.635,0.16-0.976s-0.062-0.669-0.184-0.984s-0.288-0.589-0.496-0.824
			c-0.208-0.234-0.454-0.421-0.736-0.56c-0.283-0.138-0.579-0.208-0.888-0.208H8.225V21.83z"/>
		<path fill="#FFFFFF" d="M20.689,27.175c-0.608,0-1.166-0.114-1.672-0.345c-0.507-0.229-0.947-0.543-1.32-0.943
			c-0.374-0.4-0.664-0.861-0.872-1.385c-0.208-0.521-0.312-1.082-0.312-1.679c0-0.586,0.104-1.139,0.312-1.656
			c0.208-0.517,0.496-0.97,0.864-1.36c0.368-0.389,0.808-0.699,1.32-0.928c0.512-0.229,1.066-0.344,1.664-0.344
			c0.608,0,1.165,0.115,1.672,0.344c0.506,0.229,0.941,0.542,1.304,0.936c0.363,0.395,0.646,0.848,0.848,1.36
			c0.203,0.512,0.304,1.056,0.304,1.632c0,0.085,0,0.171,0,0.256c0,0.085-0.005,0.144-0.016,0.176h-7.136
			c0.032,0.448,0.136,0.861,0.312,1.24c0.176,0.379,0.403,0.707,0.68,0.984s0.595,0.493,0.952,0.648
			c0.357,0.154,0.738,0.231,1.144,0.231c0.266,0,0.533-0.038,0.8-0.112s0.512-0.176,0.736-0.304
			c0.224-0.128,0.427-0.285,0.608-0.472c0.181-0.188,0.32-0.393,0.416-0.616l0.944,0.256c-0.128,0.31-0.31,0.589-0.544,0.84
			c-0.235,0.251-0.507,0.47-0.816,0.656c-0.31,0.187-0.651,0.331-1.024,0.432C21.484,27.124,21.094,27.175,20.689,27.175z
			 M23.761,22.406c-0.032-0.448-0.136-0.856-0.312-1.224c-0.176-0.368-0.4-0.685-0.672-0.952c-0.272-0.266-0.587-0.474-0.944-0.624
			c-0.357-0.149-0.739-0.224-1.144-0.224s-0.789,0.075-1.152,0.224c-0.363,0.15-0.68,0.358-0.952,0.624
			c-0.272,0.267-0.491,0.587-0.656,0.96c-0.166,0.374-0.264,0.779-0.296,1.216H23.761z"/>
		<path fill="#FFFFFF" d="M28.577,27.175c-0.395,0-0.76-0.067-1.096-0.2c-0.336-0.133-0.63-0.317-0.88-0.552
			c-0.25-0.235-0.445-0.509-0.584-0.824c-0.139-0.314-0.208-0.653-0.208-1.017c0-0.361,0.085-0.697,0.256-1.008
			c0.17-0.309,0.41-0.576,0.72-0.8c0.31-0.224,0.677-0.397,1.104-0.52s0.896-0.184,1.408-0.184c0.426,0,0.858,0.037,1.296,0.112
			c0.437,0.075,0.827,0.182,1.168,0.32V21.75c0-0.736-0.208-1.32-0.624-1.752s-0.992-0.648-1.728-0.648
			c-0.427,0-0.864,0.085-1.312,0.256c-0.448,0.171-0.901,0.416-1.36,0.736l-0.384-0.72c1.078-0.725,2.123-1.088,3.136-1.088
			c1.045,0,1.867,0.293,2.464,0.88c0.597,0.587,0.896,1.397,0.896,2.432v3.76c0,0.299,0.133,0.448,0.4,0.448v0.96
			c-0.181,0.032-0.32,0.048-0.416,0.048c-0.277,0-0.493-0.069-0.648-0.208c-0.155-0.138-0.237-0.331-0.248-0.575l-0.032-0.656
			c-0.384,0.501-0.867,0.885-1.448,1.151C29.876,27.041,29.249,27.175,28.577,27.175z M28.833,26.343c0.565,0,1.085-0.106,1.56-0.32
			c0.475-0.213,0.834-0.495,1.08-0.848c0.096-0.097,0.168-0.2,0.216-0.312c0.048-0.113,0.072-0.217,0.072-0.312v-1.36
			c-0.363-0.138-0.739-0.245-1.128-0.32c-0.39-0.074-0.787-0.112-1.192-0.112c-0.768,0-1.392,0.16-1.872,0.48
			c-0.48,0.32-0.72,0.742-0.72,1.263c0,0.257,0.051,0.496,0.152,0.721c0.101,0.225,0.24,0.419,0.416,0.584
			c0.176,0.166,0.386,0.296,0.632,0.393C28.294,26.295,28.555,26.343,28.833,26.343z"/>
		<path fill="#FFFFFF" d="M38.625,27.175c-0.576,0-1.109-0.12-1.6-0.36s-0.912-0.557-1.264-0.951
			c-0.352-0.395-0.626-0.852-0.824-1.369c-0.198-0.517-0.296-1.059-0.296-1.624c0-0.586,0.096-1.144,0.288-1.672
			c0.192-0.528,0.456-0.989,0.792-1.384c0.336-0.395,0.736-0.707,1.2-0.936c0.464-0.229,0.973-0.344,1.528-0.344
			c0.704,0,1.328,0.184,1.872,0.552c0.544,0.368,0.971,0.814,1.28,1.336v-5.088h1.088v10.272c0,0.299,0.128,0.448,0.384,0.448v0.96
			c-0.16,0.032-0.288,0.048-0.384,0.048c-0.256,0-0.48-0.082-0.672-0.248c-0.192-0.165-0.288-0.365-0.288-0.6v-0.816
			c-0.331,0.545-0.779,0.977-1.344,1.297C39.819,27.014,39.233,27.175,38.625,27.175z M38.865,26.215
			c0.267,0,0.552-0.053,0.856-0.16c0.304-0.106,0.589-0.254,0.856-0.439c0.266-0.188,0.493-0.406,0.68-0.656
			c0.187-0.251,0.301-0.521,0.344-0.809v-2.576c-0.107-0.288-0.262-0.557-0.464-0.808c-0.203-0.25-0.435-0.472-0.696-0.664
			s-0.542-0.341-0.84-0.448c-0.299-0.106-0.592-0.16-0.88-0.16c-0.448,0-0.854,0.096-1.216,0.288s-0.675,0.445-0.936,0.76
			c-0.261,0.315-0.461,0.675-0.6,1.08c-0.139,0.406-0.208,0.822-0.208,1.248c0,0.448,0.08,0.875,0.24,1.28
			c0.16,0.406,0.378,0.76,0.656,1.064c0.277,0.304,0.605,0.547,0.984,0.729C38.019,26.124,38.427,26.215,38.865,26.215z"/>
		<path fill="#FFFFFF" d="M56.097,17.782c-0.32-0.363-0.748-0.656-1.281-0.88c-0.533-0.224-1.141-0.336-1.824-0.336
			c-1.002,0-1.732,0.19-2.191,0.568s-0.688,0.894-0.688,1.544c0,0.341,0.061,0.622,0.184,0.84c0.123,0.219,0.312,0.408,0.568,0.568
			c0.256,0.16,0.584,0.299,0.984,0.416c0.398,0.118,0.871,0.235,1.416,0.352c0.607,0.128,1.154,0.272,1.639,0.432
			c0.486,0.16,0.898,0.36,1.24,0.6c0.342,0.24,0.604,0.531,0.785,0.872c0.18,0.341,0.271,0.769,0.271,1.28
			c0,0.522-0.102,0.976-0.305,1.359c-0.203,0.385-0.484,0.704-0.848,0.961c-0.363,0.256-0.795,0.445-1.297,0.567
			c-0.5,0.122-1.051,0.185-1.646,0.185c-1.762,0-3.281-0.55-4.561-1.648l0.56-0.912c0.203,0.213,0.445,0.416,0.728,0.607
			c0.283,0.192,0.597,0.36,0.945,0.504c0.346,0.145,0.717,0.256,1.111,0.336s0.811,0.121,1.248,0.121
			c0.906,0,1.613-0.163,2.119-0.488c0.508-0.326,0.762-0.818,0.762-1.48c0-0.352-0.072-0.648-0.217-0.888
			c-0.145-0.24-0.359-0.448-0.648-0.624c-0.287-0.176-0.645-0.328-1.072-0.456c-0.426-0.128-0.922-0.256-1.488-0.384
			c-0.596-0.139-1.119-0.283-1.566-0.432c-0.449-0.149-0.828-0.336-1.137-0.56c-0.31-0.224-0.542-0.493-0.696-0.808
			c-0.155-0.314-0.232-0.701-0.232-1.16c0-0.523,0.098-0.989,0.296-1.4c0.197-0.41,0.477-0.752,0.84-1.024
			c0.362-0.272,0.789-0.48,1.28-0.624c0.49-0.144,1.035-0.216,1.631-0.216c0.758,0,1.434,0.115,2.025,0.344
			c0.592,0.229,1.127,0.552,1.607,0.968L56.097,17.782z"/>
		<path fill="#FFFFFF" d="M62.848,26.615c-0.064,0.031-0.157,0.074-0.28,0.127c-0.123,0.055-0.264,0.107-0.424,0.16
			c-0.16,0.054-0.342,0.102-0.544,0.145c-0.203,0.043-0.416,0.064-0.641,0.064c-0.234,0-0.458-0.033-0.672-0.097
			c-0.213-0.063-0.399-0.163-0.56-0.296s-0.288-0.301-0.384-0.504c-0.097-0.203-0.145-0.438-0.145-0.704v-5.968h-1.151v-0.864H59.2
			v-2.816h1.088v2.816h1.92v0.864h-1.92v5.665c0.021,0.309,0.131,0.535,0.328,0.68s0.424,0.216,0.681,0.216
			c0.309,0,0.581-0.05,0.815-0.151s0.384-0.174,0.448-0.217L62.848,26.615z"/>
		<path fill="#FFFFFF" d="M66.304,27.175c-0.395,0-0.76-0.067-1.096-0.2s-0.63-0.317-0.88-0.552
			c-0.251-0.235-0.446-0.509-0.584-0.824c-0.139-0.314-0.208-0.653-0.208-1.017c0-0.361,0.085-0.697,0.256-1.008
			c0.17-0.309,0.41-0.576,0.72-0.8c0.31-0.224,0.678-0.397,1.104-0.52c0.426-0.123,0.896-0.184,1.407-0.184
			c0.427,0,0.858,0.037,1.296,0.112s0.827,0.182,1.169,0.32V21.75c0-0.736-0.208-1.32-0.624-1.752s-0.992-0.648-1.729-0.648
			c-0.427,0-0.864,0.085-1.312,0.256c-0.448,0.171-0.902,0.416-1.36,0.736l-0.384-0.72c1.077-0.725,2.122-1.088,3.136-1.088
			c1.045,0,1.866,0.293,2.464,0.88c0.598,0.587,0.896,1.397,0.896,2.432v3.76c0,0.299,0.133,0.448,0.399,0.448v0.96
			c-0.182,0.032-0.319,0.048-0.416,0.048c-0.277,0-0.493-0.069-0.647-0.208c-0.155-0.138-0.238-0.331-0.248-0.575l-0.032-0.656
			c-0.384,0.501-0.867,0.885-1.448,1.151S66.976,27.175,66.304,27.175z M66.56,26.343c0.565,0,1.086-0.106,1.561-0.32
			c0.475-0.213,0.834-0.495,1.08-0.848c0.096-0.097,0.168-0.2,0.216-0.312c0.048-0.113,0.072-0.217,0.072-0.312v-1.36
			c-0.363-0.138-0.739-0.245-1.129-0.32c-0.389-0.074-0.786-0.112-1.191-0.112c-0.769,0-1.393,0.16-1.872,0.48
			c-0.48,0.32-0.72,0.742-0.72,1.263c0,0.257,0.05,0.496,0.151,0.721s0.24,0.419,0.416,0.584c0.176,0.166,0.387,0.296,0.632,0.393
			C66.022,26.295,66.283,26.343,66.56,26.343z"/>
		<path fill="#FFFFFF" d="M76.864,26.615c-0.064,0.031-0.157,0.074-0.28,0.127c-0.123,0.055-0.264,0.107-0.424,0.16
			c-0.16,0.054-0.342,0.102-0.544,0.145c-0.203,0.043-0.416,0.064-0.641,0.064c-0.234,0-0.458-0.033-0.672-0.097
			c-0.213-0.063-0.399-0.163-0.56-0.296s-0.288-0.301-0.384-0.504c-0.097-0.203-0.145-0.438-0.145-0.704v-5.968h-1.151v-0.864h1.151
			v-2.816h1.088v2.816h1.92v0.864h-1.92v5.665c0.021,0.309,0.131,0.535,0.328,0.68s0.424,0.216,0.681,0.216
			c0.309,0,0.581-0.05,0.815-0.151s0.384-0.174,0.448-0.217L76.864,26.615z"/>
		<path fill="#FFFFFF" d="M80.832,27.175c-0.906,0-1.581-0.302-2.023-0.904c-0.443-0.603-0.664-1.501-0.664-2.696v-4.896h1.088
			v4.704c0,1.888,0.646,2.832,1.936,2.832c0.32,0,0.635-0.053,0.944-0.16c0.31-0.106,0.595-0.262,0.856-0.464
			c0.261-0.202,0.496-0.442,0.704-0.72s0.376-0.592,0.504-0.944v-5.248h1.088v6.928c0,0.299,0.128,0.448,0.384,0.448v0.96
			c-0.128,0.021-0.232,0.032-0.312,0.032c-0.079,0-0.136,0-0.168,0c-0.256-0.011-0.464-0.102-0.624-0.272
			c-0.159-0.171-0.239-0.399-0.239-0.688v-0.959c-0.363,0.65-0.856,1.154-1.48,1.512S81.536,27.175,80.832,27.175z"/>
		<path fill="#FFFFFF" d="M90.496,27.175c-0.65,0-1.285-0.106-1.903-0.32c-0.619-0.213-1.152-0.522-1.601-0.928l0.496-0.736
			c0.47,0.384,0.946,0.673,1.432,0.864s1.006,0.288,1.561,0.288c0.672,0,1.208-0.136,1.607-0.408c0.4-0.272,0.601-0.658,0.601-1.16
			c0-0.234-0.054-0.429-0.16-0.584c-0.106-0.154-0.264-0.29-0.472-0.407s-0.47-0.222-0.784-0.312c-0.314-0.09-0.68-0.184-1.096-0.28
			c-0.48-0.117-0.896-0.234-1.248-0.352c-0.353-0.118-0.644-0.25-0.872-0.4c-0.229-0.149-0.4-0.333-0.513-0.552
			c-0.111-0.219-0.168-0.493-0.168-0.824c0-0.416,0.083-0.784,0.248-1.104c0.166-0.32,0.39-0.584,0.672-0.792
			c0.283-0.208,0.613-0.365,0.992-0.472s0.781-0.16,1.208-0.16c0.641,0,1.222,0.104,1.744,0.312s0.944,0.483,1.264,0.824
			l-0.527,0.64c-0.31-0.32-0.686-0.56-1.128-0.72c-0.443-0.16-0.904-0.24-1.385-0.24c-0.287,0-0.555,0.03-0.8,0.088
			c-0.245,0.059-0.461,0.152-0.647,0.28c-0.188,0.128-0.334,0.291-0.44,0.488c-0.106,0.198-0.16,0.43-0.16,0.696
			c0,0.224,0.037,0.405,0.112,0.544c0.074,0.139,0.197,0.259,0.368,0.36c0.17,0.102,0.387,0.192,0.647,0.272
			c0.262,0.08,0.579,0.163,0.952,0.248c0.533,0.128,1.003,0.256,1.408,0.384c0.405,0.128,0.744,0.278,1.016,0.448
			c0.272,0.171,0.478,0.378,0.616,0.625c0.139,0.245,0.208,0.543,0.208,0.896c0,0.769-0.293,1.376-0.88,1.823
			C92.277,26.951,91.488,27.175,90.496,27.175z"/>
	</g>
</g>
</svg>
