<?xml version="1.0" encoding="utf-8"?>
<!-- Generator: Adobe Illustrator 16.0.0, SVG Export Plug-In . SVG Version: 6.00 Build 0)  -->
<!DOCTYPE svg PUBLIC "-//W3C//DTD SVG 1.1//EN" "http://www.w3.org/Graphics/SVG/1.1/DTD/svg11.dtd">
<svg version="1.1" id="Layer_1" xmlns="http://www.w3.org/2000/svg" xmlns:xlink="http://www.w3.org/1999/xlink" x="0px" y="0px"
	 width="160px" height="160px" viewBox="0 0 160 160" enable-background="new 0 0 160 160" xml:space="preserve">
<title>Music</title>
<desc>Created with Sketch.</desc>
<g id="Symbols">
	<g id="Music">
		<path id="Fill-1" fill="#EEEEEE" d="M37.446,110.227c-1.602-3.172-1.478-6.887,0.35-10.466c1.699-3.327,4.706-6.181,8.473-8.021
			c3.149-1.534,6.524-2.24,9.77-2.033l-0.358,5.316c-2.25-0.139-4.736,0.389-6.995,1.492c-2.721,1.324-4.866,3.329-6.04,5.635
			c-1.043,2.046-1.167,4.067-0.344,5.694c1.806,3.568,7.779,4.405,13.046,1.831c3.509-1.716,6.086-4.619,6.756-7.587l0.166-1.347
			v-39.81c0-1.704,1.336-3.509,2.905-4.007l48.246-15.288c1.611-0.51,2.908,0.442,2.908,2.134l-0.019,56.902
			c-0.265,5.203-4.162,10.387-9.912,13.203c-3.765,1.847-7.892,2.489-11.613,1.812c-4.012-0.73-7.104-2.872-8.704-6.034
			c-1.599-3.17-1.478-6.886,0.351-10.466c1.693-3.328,4.705-6.179,8.476-8.02c2.764-1.352,5.756-2.07,8.649-2.07
			c0.049,0,0.098,5.335,0.098,5.335c-2.079-0.005-4.281,0.505-6.334,1.512c-2.721,1.323-4.861,3.327-6.038,5.635
			c-1.042,2.046-1.163,4.066-0.345,5.693c0.82,1.628,2.541,2.756,4.834,3.171c2.574,0.466,5.496-0.009,8.211-1.337
			c3.944-1.931,6.723-5.402,6.916-8.651l0.011-1.106V51.094c0-1.688-1.339-2.632-2.968-2.115l-37.276,11.81
			c-1.642,0.522-2.972,2.35-2.975,4.04l-0.016,36.387l-0.238,1.853c-0.974,4.644-4.591,8.893-9.673,11.379
			c-2.835,1.388-5.803,2.053-8.6,2.053C44.039,116.5,39.5,114.273,37.446,110.227z"/>
	</g>
</g>
</svg>
