<?xml version="1.0" encoding="utf-8"?>
<!-- Generator: Adobe Illustrator 16.0.0, SVG Export Plug-In . SVG Version: 6.00 Build 0)  -->
<!DOCTYPE svg PUBLIC "-//W3C//DTD SVG 1.1//EN" "http://www.w3.org/Graphics/SVG/1.1/DTD/svg11.dtd">
<svg version="1.1" id="Layer_1" xmlns="http://www.w3.org/2000/svg" xmlns:xlink="http://www.w3.org/1999/xlink" x="0px" y="0px"
	 width="99.695px" height="45.695px" viewBox="0 0 99.695 45.695" enable-background="new 0 0 99.695 45.695" xml:space="preserve">
<g>
	<g>
		<g>
			
				<rect x="0" y="0" opacity="0.2" fill="#A8A6A3" stroke="#000000" stroke-width="1.9452" stroke-miterlimit="10" enable-background="new    " width="99.695" height="45.695"/>
		</g>
	</g>
	<g>
		<path fill="#FFFFFF" d="M13.271,27.681v-11.36h4.8c0.49,0,0.941,0.104,1.352,0.312c0.41,0.208,0.765,0.48,1.064,0.816
			c0.298,0.336,0.53,0.717,0.696,1.144s0.248,0.858,0.248,1.296c0,0.416-0.062,0.813-0.184,1.192
			c-0.123,0.379-0.293,0.72-0.512,1.024c-0.219,0.304-0.483,0.56-0.792,0.768c-0.31,0.208-0.656,0.35-1.04,0.424l2.784,4.384h-1.264
			l-2.672-4.191h-3.36v4.191H13.271z M14.391,22.497h3.712c0.331,0,0.632-0.072,0.904-0.216s0.504-0.338,0.696-0.584
			s0.341-0.522,0.448-0.832c0.106-0.31,0.16-0.635,0.16-0.976s-0.062-0.669-0.184-0.984s-0.288-0.589-0.496-0.824
			c-0.208-0.234-0.454-0.421-0.736-0.56c-0.283-0.138-0.579-0.208-0.888-0.208h-3.616V22.497z"/>
		<path fill="#FFFFFF" d="M26.855,27.842c-0.608,0-1.166-0.115-1.672-0.344c-0.507-0.229-0.947-0.545-1.32-0.944
			c-0.374-0.399-0.664-0.861-0.872-1.384c-0.208-0.523-0.312-1.083-0.312-1.68c0-0.587,0.104-1.139,0.312-1.657
			c0.208-0.517,0.496-0.97,0.864-1.36c0.368-0.389,0.808-0.699,1.32-0.928c0.512-0.229,1.066-0.344,1.664-0.344
			c0.608,0,1.165,0.115,1.672,0.344c0.506,0.229,0.941,0.542,1.304,0.936c0.363,0.395,0.646,0.848,0.848,1.36
			c0.203,0.512,0.304,1.056,0.304,1.632c0,0.085,0,0.171,0,0.256s-0.005,0.144-0.016,0.177h-7.136
			c0.032,0.447,0.136,0.861,0.312,1.239c0.176,0.379,0.403,0.707,0.68,0.984s0.595,0.493,0.952,0.647
			c0.357,0.155,0.738,0.232,1.144,0.232c0.266,0,0.533-0.037,0.8-0.112c0.267-0.074,0.512-0.176,0.736-0.304
			c0.224-0.128,0.427-0.285,0.608-0.473c0.181-0.186,0.32-0.392,0.416-0.615l0.944,0.256c-0.128,0.31-0.31,0.59-0.544,0.84
			c-0.235,0.251-0.507,0.47-0.816,0.656c-0.31,0.187-0.651,0.33-1.024,0.432C27.65,27.791,27.26,27.842,26.855,27.842z
			 M29.927,23.073c-0.032-0.448-0.136-0.856-0.312-1.224c-0.176-0.368-0.4-0.685-0.672-0.952c-0.272-0.266-0.587-0.474-0.944-0.624
			c-0.357-0.149-0.739-0.224-1.144-0.224s-0.789,0.075-1.152,0.224c-0.363,0.15-0.68,0.358-0.952,0.624
			c-0.272,0.267-0.491,0.587-0.656,0.96c-0.166,0.374-0.264,0.779-0.296,1.216H29.927z"/>
		<path fill="#FFFFFF" d="M35.415,27.842c-0.65,0-1.285-0.107-1.904-0.32s-1.152-0.522-1.6-0.928l0.496-0.736
			c0.469,0.385,0.947,0.672,1.432,0.864s1.005,0.288,1.56,0.288c0.672,0,1.208-0.137,1.608-0.408s0.6-0.658,0.6-1.16
			c0-0.234-0.054-0.43-0.16-0.584c-0.107-0.154-0.264-0.29-0.472-0.408c-0.208-0.117-0.469-0.221-0.784-0.312
			c-0.315-0.091-0.68-0.185-1.096-0.28c-0.48-0.117-0.896-0.234-1.248-0.352s-0.643-0.25-0.872-0.4
			c-0.229-0.149-0.4-0.333-0.512-0.552c-0.112-0.219-0.168-0.493-0.168-0.824c0-0.416,0.083-0.784,0.248-1.104
			c0.165-0.32,0.389-0.584,0.672-0.792c0.282-0.208,0.613-0.365,0.992-0.472c0.379-0.106,0.781-0.16,1.208-0.16
			c0.64,0,1.222,0.104,1.744,0.312s0.944,0.483,1.264,0.824l-0.528,0.64c-0.31-0.32-0.686-0.56-1.128-0.72
			c-0.442-0.16-0.904-0.24-1.384-0.24c-0.288,0-0.555,0.03-0.8,0.088c-0.246,0.059-0.462,0.152-0.648,0.28s-0.333,0.291-0.44,0.488
			c-0.106,0.198-0.16,0.43-0.16,0.696c0,0.224,0.037,0.405,0.112,0.544s0.197,0.259,0.368,0.36c0.17,0.102,0.386,0.192,0.648,0.272
			c0.261,0.08,0.579,0.163,0.952,0.248c0.534,0.128,1.003,0.256,1.408,0.383c0.405,0.129,0.744,0.278,1.016,0.449
			c0.272,0.17,0.477,0.379,0.616,0.623c0.139,0.246,0.208,0.545,0.208,0.896c0,0.768-0.293,1.376-0.88,1.824
			C37.196,27.617,36.407,27.842,35.415,27.842z"/>
		<path fill="#FFFFFF" d="M44.039,27.842c-0.608,0-1.166-0.115-1.672-0.344c-0.507-0.229-0.947-0.545-1.32-0.944
			c-0.374-0.399-0.664-0.861-0.872-1.384c-0.208-0.523-0.312-1.083-0.312-1.68c0-0.587,0.104-1.139,0.312-1.657
			c0.208-0.517,0.496-0.97,0.864-1.36c0.368-0.389,0.808-0.699,1.32-0.928c0.512-0.229,1.066-0.344,1.664-0.344
			c0.608,0,1.165,0.115,1.672,0.344c0.506,0.229,0.941,0.542,1.304,0.936c0.363,0.395,0.646,0.848,0.848,1.36
			c0.203,0.512,0.304,1.056,0.304,1.632c0,0.085,0,0.171,0,0.256s-0.005,0.144-0.016,0.177h-7.136
			c0.032,0.447,0.136,0.861,0.312,1.239c0.176,0.379,0.403,0.707,0.68,0.984s0.595,0.493,0.952,0.647
			c0.357,0.155,0.738,0.232,1.144,0.232c0.266,0,0.533-0.037,0.8-0.112c0.267-0.074,0.512-0.176,0.736-0.304
			c0.224-0.128,0.427-0.285,0.608-0.473c0.181-0.186,0.32-0.392,0.416-0.615l0.944,0.256c-0.128,0.31-0.31,0.59-0.544,0.84
			c-0.235,0.251-0.507,0.47-0.816,0.656c-0.31,0.187-0.651,0.33-1.024,0.432C44.834,27.791,44.444,27.842,44.039,27.842z
			 M47.111,23.073c-0.032-0.448-0.136-0.856-0.312-1.224c-0.176-0.368-0.4-0.685-0.672-0.952c-0.272-0.266-0.587-0.474-0.944-0.624
			c-0.357-0.149-0.739-0.224-1.144-0.224s-0.789,0.075-1.152,0.224c-0.363,0.15-0.68,0.358-0.952,0.624
			c-0.272,0.267-0.491,0.587-0.656,0.96c-0.166,0.374-0.264,0.779-0.296,1.216H47.111z"/>
		<path fill="#FFFFFF" d="M53.767,27.281c-0.064,0.032-0.158,0.075-0.28,0.129c-0.122,0.053-0.265,0.106-0.424,0.16
			c-0.16,0.053-0.342,0.101-0.544,0.144c-0.203,0.042-0.416,0.063-0.641,0.063c-0.234,0-0.459-0.031-0.672-0.096
			s-0.399-0.162-0.56-0.296s-0.288-0.302-0.384-0.504c-0.096-0.202-0.144-0.438-0.144-0.704v-5.968h-1.152v-0.864h1.152V16.53h1.088
			v2.816h1.92v0.864h-1.92v5.664c0.021,0.311,0.131,0.537,0.328,0.681s0.424,0.216,0.68,0.216c0.31,0,0.582-0.051,0.816-0.152
			c0.234-0.101,0.385-0.173,0.448-0.215L53.767,27.281z"/>
		<path fill="#FFFFFF" d="M67.062,26.689v0.992H59.43v-11.36h7.488v0.992h-6.368v4.096h5.552v0.944h-5.552v4.336H67.062z"/>
		<path fill="#FFFFFF" d="M75.575,18.449c-0.32-0.363-0.747-0.656-1.28-0.88c-0.533-0.224-1.142-0.336-1.824-0.336
			c-1.003,0-1.733,0.19-2.192,0.568c-0.458,0.378-0.688,0.894-0.688,1.544c0,0.341,0.062,0.622,0.184,0.84
			c0.123,0.219,0.312,0.408,0.568,0.568c0.256,0.16,0.584,0.299,0.984,0.416c0.399,0.118,0.872,0.235,1.416,0.352
			c0.607,0.128,1.154,0.272,1.64,0.432s0.898,0.36,1.24,0.6c0.341,0.24,0.603,0.531,0.784,0.872
			c0.181,0.342,0.271,0.768,0.271,1.279c0,0.523-0.102,0.977-0.304,1.36c-0.203,0.384-0.485,0.704-0.849,0.96
			c-0.362,0.256-0.794,0.445-1.296,0.568c-0.501,0.123-1.051,0.184-1.647,0.184c-1.761,0-3.28-0.549-4.561-1.647l0.561-0.912
			c0.202,0.214,0.445,0.416,0.728,0.608c0.282,0.191,0.598,0.359,0.944,0.504c0.347,0.144,0.717,0.256,1.112,0.336
			c0.395,0.08,0.81,0.119,1.247,0.119c0.907,0,1.613-0.162,2.12-0.487s0.761-0.819,0.761-1.479c0-0.353-0.072-0.648-0.217-0.889
			c-0.144-0.24-0.359-0.448-0.647-0.624s-0.646-0.328-1.072-0.456s-0.923-0.256-1.488-0.384c-0.597-0.139-1.119-0.283-1.567-0.432
			s-0.827-0.336-1.136-0.56c-0.31-0.224-0.542-0.493-0.696-0.808c-0.155-0.314-0.232-0.701-0.232-1.16
			c0-0.523,0.099-0.989,0.296-1.4c0.197-0.41,0.478-0.752,0.841-1.024c0.362-0.272,0.789-0.48,1.279-0.624
			c0.491-0.144,1.035-0.216,1.632-0.216c0.758,0,1.433,0.115,2.024,0.344c0.592,0.229,1.128,0.552,1.608,0.968L75.575,18.449z"/>
		<path fill="#FFFFFF" d="M87.19,24.754c0,0.426-0.085,0.818-0.256,1.176s-0.4,0.666-0.688,0.928
			c-0.288,0.262-0.624,0.465-1.009,0.608c-0.384,0.144-0.794,0.216-1.231,0.216h-5.36v-11.36h5.473c0.394,0,0.752,0.085,1.071,0.256
			c0.32,0.171,0.592,0.392,0.816,0.664c0.224,0.272,0.397,0.582,0.52,0.928c0.123,0.347,0.185,0.696,0.185,1.048
			c0,0.576-0.145,1.102-0.433,1.576c-0.288,0.475-0.688,0.83-1.199,1.064c0.65,0.192,1.165,0.55,1.544,1.072
			C87.001,23.452,87.19,24.06,87.19,24.754z M79.766,17.298v4.192h3.904c0.277,0,0.536-0.059,0.775-0.176
			c0.24-0.117,0.445-0.272,0.616-0.464s0.304-0.413,0.4-0.664c0.096-0.25,0.144-0.515,0.144-0.792c0-0.288-0.045-0.56-0.136-0.816
			s-0.219-0.477-0.384-0.664c-0.166-0.187-0.36-0.336-0.584-0.448c-0.225-0.112-0.47-0.168-0.736-0.168H79.766z M86.07,24.561
			c0-0.277-0.048-0.546-0.144-0.808s-0.232-0.491-0.408-0.688c-0.176-0.197-0.384-0.357-0.624-0.48
			c-0.24-0.122-0.499-0.184-0.775-0.184h-4.353v4.303h4.24c0.288,0,0.557-0.059,0.808-0.176s0.47-0.273,0.656-0.472
			c0.187-0.197,0.333-0.427,0.44-0.688C86.017,25.108,86.07,24.84,86.07,24.561z"/>
	</g>
</g>
</svg>
