<?xml version="1.0" encoding="utf-8"?>
<!-- Generator: Adobe Illustrator 16.0.0, SVG Export Plug-In . SVG Version: 6.00 Build 0)  -->
<!DOCTYPE svg PUBLIC "-//W3C//DTD SVG 1.1//EN" "http://www.w3.org/Graphics/SVG/1.1/DTD/svg11.dtd">
<svg version="1.1" id="Layer_1" xmlns="http://www.w3.org/2000/svg" xmlns:xlink="http://www.w3.org/1999/xlink" x="0px" y="0px"
	 width="99.695px" height="45.695px" viewBox="0 0 99.695 45.695" enable-background="new 0 0 99.695 45.695" xml:space="preserve">
<path opacity="0.2" fill="#A8A6A3" stroke="#000000" stroke-width="1.9452" stroke-miterlimit="10" enable-background="new    " d="
	M99.695,30.681c0,7.547-2.151,13.666-4.807,13.666H6.503c-2.654,0-4.808-6.118-4.808-13.666V15.015
	c0-7.548,2.153-13.668,4.808-13.668h88.386c2.655,0,4.806,6.119,4.806,13.668L99.695,30.681L99.695,30.681z"/>
<g>
	<g>
		<path fill="#FFFFFF" d="M34,26.605c0.702,0.433,1.729,0.793,2.809,0.793c1.603,0,2.539-0.846,2.539-2.07
			c0-1.135-0.648-1.783-2.287-2.413c-1.981-0.702-3.205-1.729-3.205-3.439c0-1.891,1.566-3.295,3.925-3.295
			c1.242,0,2.143,0.288,2.683,0.594l-0.432,1.278c-0.396-0.216-1.207-0.576-2.305-0.576c-1.656,0-2.287,0.99-2.287,1.818
			c0,1.134,0.738,1.692,2.413,2.341c2.053,0.792,3.097,1.782,3.097,3.564c0,1.873-1.387,3.494-4.25,3.494
			c-1.17,0-2.449-0.343-3.097-0.775L34,26.605z"/>
		<path fill="#FFFFFF" d="M47.861,28.514l-0.126-1.099h-0.054c-0.486,0.685-1.423,1.297-2.665,1.297
			c-1.765,0-2.665-1.242-2.665-2.503c0-2.106,1.873-3.259,5.24-3.241v-0.18c0-0.72-0.198-2.017-1.981-2.017
			c-0.81,0-1.657,0.252-2.269,0.648l-0.36-1.044c0.72-0.468,1.765-0.774,2.863-0.774c2.665,0,3.313,1.818,3.313,3.565v3.259
			c0,0.756,0.036,1.494,0.144,2.089H47.861z M47.627,24.067c-1.728-0.036-3.69,0.271-3.69,1.962c0,1.027,0.684,1.514,1.494,1.514
			c1.134,0,1.854-0.721,2.106-1.459c0.055-0.162,0.09-0.342,0.09-0.504V24.067z"/>
		<path fill="#FFFFFF" d="M52.324,19.8l1.71,4.897c0.288,0.793,0.522,1.513,0.702,2.232h0.055c0.198-0.72,0.45-1.439,0.738-2.232
			l1.692-4.897h1.656l-3.421,8.715h-1.513L50.632,19.8H52.324z"/>
		<path fill="#FFFFFF" d="M61.252,24.445c0.036,2.143,1.404,3.025,2.989,3.025c1.135,0,1.818-0.198,2.413-0.451l0.27,1.135
			c-0.558,0.252-1.513,0.541-2.898,0.541c-2.683,0-4.285-1.766-4.285-4.395c0-2.628,1.548-4.699,4.087-4.699
			c2.845,0,3.601,2.502,3.601,4.105c0,0.324-0.035,0.576-0.054,0.738H61.252z M65.897,23.311c0.019-1.008-0.414-2.575-2.196-2.575
			c-1.603,0-2.305,1.477-2.431,2.575H65.897z"/>
	</g>
</g>
</svg>
