<?xml version="1.0" encoding="utf-8"?>
<!-- Generator: Adobe Illustrator 16.0.0, SVG Export Plug-In . SVG Version: 6.00 Build 0)  -->
<!DOCTYPE svg PUBLIC "-//W3C//DTD SVG 1.1//EN" "http://www.w3.org/Graphics/SVG/1.1/DTD/svg11.dtd">
<svg version="1.1" id="Layer_1" xmlns="http://www.w3.org/2000/svg" xmlns:xlink="http://www.w3.org/1999/xlink" x="0px" y="0px"
	 width="109px" height="49px" viewBox="0 0 109 49" enable-background="new 0 0 109 49" xml:space="preserve">
<path fill="#1E1E1E" stroke="#1E1E1E" stroke-width="2" stroke-miterlimit="10" d="M102.703,32.667c0,6.628-5.373,14-12,14h-75
	c-6.627,0-12-7.372-12-14V17.334c0-6.627,5.373-15,12-15h75c6.627,0,12,8.373,12,15V32.667z"/>
<g>
	<g>
		<g>
			<path fill="#FF9400" d="M37.428,20.424c-0.112-0.112-0.316-0.264-0.612-0.456c-0.296-0.192-0.656-0.38-1.08-0.564
				c-0.424-0.184-0.884-0.339-1.38-0.468c-0.496-0.128-1-0.192-1.512-0.192c-0.912,0-1.592,0.168-2.04,0.504
				c-0.448,0.336-0.672,0.808-0.672,1.416c0,0.352,0.084,0.644,0.252,0.876s0.412,0.436,0.732,0.612
				c0.32,0.176,0.724,0.336,1.212,0.48c0.488,0.144,1.052,0.296,1.692,0.456c0.832,0.224,1.588,0.464,2.268,0.72
				c0.68,0.256,1.256,0.576,1.728,0.96c0.472,0.384,0.836,0.843,1.092,1.38c0.256,0.535,0.384,1.194,0.384,1.979
				c0,0.912-0.172,1.691-0.516,2.34c-0.344,0.648-0.808,1.174-1.392,1.572s-1.256,0.691-2.016,0.876
				c-0.76,0.185-1.556,0.274-2.388,0.274c-1.28,0-2.544-0.19-3.792-0.574c-1.248-0.385-2.368-0.93-3.36-1.633l1.464-2.855
				c0.144,0.145,0.404,0.333,0.78,0.562c0.376,0.231,0.82,0.465,1.332,0.697c0.512,0.23,1.08,0.428,1.704,0.588
				c0.624,0.159,1.264,0.238,1.92,0.238c1.824,0,2.736-0.583,2.736-1.752c0-0.367-0.104-0.68-0.312-0.938
				c-0.208-0.254-0.504-0.479-0.888-0.67c-0.384-0.192-0.849-0.369-1.392-0.528c-0.544-0.16-1.152-0.336-1.824-0.528
				c-0.816-0.224-1.524-0.468-2.124-0.732c-0.6-0.263-1.1-0.574-1.5-0.936c-0.4-0.36-0.7-0.776-0.9-1.248
				c-0.2-0.472-0.3-1.036-0.3-1.692c0-0.864,0.16-1.632,0.48-2.304c0.32-0.672,0.764-1.232,1.332-1.68
				c0.567-0.448,1.228-0.788,1.98-1.02s1.56-0.348,2.424-0.348c1.2,0,2.304,0.188,3.312,0.564s1.888,0.82,2.64,1.332L37.428,20.424z
				"/>
			<path fill="#FF9400" d="M45.108,33.24c-0.608,0-1.176-0.102-1.704-0.301c-0.528-0.199-0.984-0.479-1.368-0.84
				c-0.384-0.359-0.684-0.779-0.9-1.262c-0.216-0.479-0.324-1.008-0.324-1.584c0-0.592,0.132-1.14,0.396-1.646
				c0.264-0.504,0.632-0.93,1.104-1.281s1.036-0.628,1.692-0.828c0.656-0.2,1.376-0.3,2.16-0.3c0.56,0,1.107,0.048,1.644,0.144
				c0.536,0.098,1.012,0.232,1.428,0.408v-0.721c0-0.831-0.236-1.471-0.708-1.919c-0.472-0.448-1.172-0.672-2.1-0.672
				c-0.672,0-1.328,0.12-1.968,0.36c-0.64,0.24-1.296,0.592-1.968,1.056l-0.984-2.04c1.616-1.072,3.36-1.608,5.232-1.608
				c1.808,0,3.212,0.444,4.212,1.332c1,0.888,1.5,2.172,1.5,3.853v3.914c0,0.336,0.06,0.573,0.18,0.719
				c0.12,0.145,0.316,0.225,0.588,0.24V33c-0.544,0.111-1.016,0.168-1.416,0.168c-0.608,0-1.076-0.137-1.404-0.408
				c-0.328-0.271-0.532-0.632-0.612-1.08l-0.072-0.695c-0.56,0.736-1.24,1.295-2.04,1.682C46.875,33.048,46.02,33.24,45.108,33.24z
				 M46.02,30.889c0.543,0,1.06-0.097,1.548-0.289c0.488-0.189,0.868-0.447,1.14-0.768c0.352-0.271,0.528-0.576,0.528-0.912V27.48
				c-0.384-0.146-0.8-0.26-1.248-0.351C47.54,27.045,47.108,27,46.692,27c-0.832,0-1.512,0.188-2.04,0.564
				c-0.528,0.375-0.792,0.852-0.792,1.428c0,0.544,0.208,0.996,0.624,1.355C44.9,30.708,45.412,30.889,46.02,30.889z"/>
			<path fill="#FF9400" d="M58.835,33l-4.632-12.576h3.312l3.19,9.96l3.216-9.96h3.023L62.314,33H58.835z"/>
			<path fill="#FF9400" d="M74.459,33.24c-1.007,0-1.919-0.172-2.734-0.516c-0.815-0.347-1.513-0.812-2.088-1.404
				c-0.576-0.592-1.021-1.28-1.332-2.064c-0.312-0.783-0.469-1.607-0.469-2.472c0-0.896,0.152-1.74,0.456-2.532
				s0.744-1.488,1.319-2.088c0.576-0.6,1.275-1.076,2.101-1.428c0.824-0.352,1.748-0.528,2.772-0.528
				c1.022,0,1.938,0.176,2.748,0.528c0.808,0.352,1.496,0.824,2.062,1.416c0.567,0.592,1,1.28,1.297,2.064
				c0.295,0.784,0.443,1.601,0.443,2.448c0,0.208-0.005,0.408-0.013,0.6c-0.008,0.192-0.026,0.354-0.062,0.48h-9.719
				c0.048,0.496,0.168,0.936,0.36,1.32c0.19,0.384,0.438,0.711,0.744,0.981c0.303,0.271,0.646,0.479,1.03,0.624
				c0.386,0.146,0.784,0.219,1.201,0.219c0.639,0,1.243-0.156,1.812-0.471c0.566-0.312,0.955-0.725,1.164-1.234l2.76,0.769
				c-0.465,0.96-1.205,1.748-2.221,2.364C77.079,32.932,75.867,33.24,74.459,33.24z M77.725,25.656
				c-0.08-0.944-0.43-1.7-1.045-2.268c-0.615-0.568-1.363-0.852-2.244-0.852c-0.432,0-0.836,0.076-1.211,0.228
				c-0.377,0.152-0.709,0.364-0.996,0.636c-0.289,0.272-0.523,0.6-0.709,0.984c-0.184,0.384-0.291,0.808-0.324,1.272H77.725z"/>
		</g>
	</g>
</g>
</svg>
