<?xml version="1.0" encoding="utf-8"?>
<!-- Generator: Adobe Illustrator 16.0.0, SVG Export Plug-In . SVG Version: 6.00 Build 0)  -->
<!DOCTYPE svg PUBLIC "-//W3C//DTD SVG 1.1//EN" "http://www.w3.org/Graphics/SVG/1.1/DTD/svg11.dtd">
<svg version="1.1" id="Layer_1" xmlns="http://www.w3.org/2000/svg" xmlns:xlink="http://www.w3.org/1999/xlink" x="0px" y="0px"
	 width="160px" height="160px" viewBox="0 0 160 160" enable-background="new 0 0 160 160" xml:space="preserve">
<g>
	<path fill="#FF9400" d="M80.001,119.562c-22.001,0-40.005-17.719-40.005-39.367c0-16.141,9.604-30.306,24.805-36.213
		c1.998-0.784,4.403,0,5.2,1.965c0.794,1.966-1.114,3.242-3.113,4.024c-12.397,4.724-21.111,17.243-21.111,30.223
		c0,17.317,16.613,33.567,34.22,33.567c17.597,0,34.226-16.24,34.226-33.567c0-12.99-8.66-25.285-20.666-30.001
		c-2-0.782-4.358-2.281-3.156-4.248c0.797-1.965,3.201-3.149,5.199-1.965c14.803,5.907,24.396,20.074,24.396,36.213
		C120.007,101.844,102.003,119.562,80.001,119.562L80.001,119.562z"/>
	<path fill="#FF9400" d="M80.001,79.414c-2.396,0-2.891-1.004-2.891-3.792V33.13c0-2.14,0.494-3.569,2.891-3.569
		c2.397,0,3.108,1.429,3.108,3.569v43.047C83.109,78.317,82.398,79.414,80.001,79.414L80.001,79.414z"/>
</g>
</svg>
