<?xml version="1.0" encoding="utf-8"?>
<!-- Generator: Adobe Illustrator 16.0.0, SVG Export Plug-In . SVG Version: 6.00 Build 0)  -->
<!DOCTYPE svg PUBLIC "-//W3C//DTD SVG 1.1//EN" "http://www.w3.org/Graphics/SVG/1.1/DTD/svg11.dtd">
<svg version="1.1" id="Layer_1" xmlns="http://www.w3.org/2000/svg" xmlns:xlink="http://www.w3.org/1999/xlink" x="0px" y="0px"
	 width="50px" height="50px" viewBox="0 0 50 50" enable-background="new 0 0 50 50" xml:space="preserve">
<g>
	<path fill="#FF9400" d="M13.484,21.823c-0.646,0-1.184-0.455-1.184-1.052c0-0.555,0.544-1.038,1.184-1.038h23.001
		c0.657,0,1.211,0.487,1.211,1.038c0,0.598-0.554,1.052-1.211,1.052H13.484L13.484,21.823z M13.484,34.364L13.484,34.364
		c0.681,0,1.201,0.478,1.201,1.036c0,0.566-0.52,1.042-1.201,1.042c-0.646,0-1.184-0.472-1.184-1.042
		C12.3,34.836,12.845,34.364,13.484,34.364L13.484,34.364z M13.484,29.491L13.484,29.491c0.681,0,1.201,0.465,1.201,1.043
		c0,0.573-0.52,1.02-1.201,1.02c-0.646,0-1.184-0.44-1.184-1.02C12.3,29.956,12.845,29.491,13.484,29.491L13.484,29.491z
		 M13.484,24.625L13.484,24.625c0.681,0,1.201,0.44,1.201,1.03c0,0.563-0.52,1.05-1.201,1.05c-0.646,0-1.184-0.486-1.184-1.05
		C12.3,25.064,12.845,24.625,13.484,24.625L13.484,24.625z M18.263,36.444L18.263,36.444c-0.683,0-1.211-0.473-1.211-1.042
		c0-0.566,0.529-1.037,1.211-1.037h18.223c0.657,0,1.211,0.477,1.211,1.037c0,0.564-0.554,1.042-1.211,1.042H18.263L18.263,36.444z
		 M18.263,26.699L18.263,26.699c-0.683,0-1.211-0.487-1.211-1.052c0-0.587,0.529-1.03,1.211-1.03c7.647,0,10.559,0,18.218,0
		c0.671,0,1.211,0.44,1.211,1.03c0,0.564-0.543,1.052-1.211,1.052C28.821,26.699,25.916,26.699,18.263,26.699L18.263,26.699z
		 M18.263,31.549L18.263,31.549c-0.683,0-1.211-0.441-1.211-1.02c0-0.575,0.529-1.042,1.211-1.042c7.647,0,10.559,0,18.218,0
		c0.671,0,1.211,0.464,1.211,1.042c0,0.575-0.543,1.02-1.211,1.02C28.821,31.549,25.916,31.549,18.263,31.549L18.263,31.549z
		 M7.798,2L7.798,2h23.416c0.545,0,1.039,0.197,1.415,0.509l14.287,12.508c0.386,0.376,0.584,0.799,0.584,1.263v0.022v26.059
		c0,1.271-0.594,2.425-1.554,3.288l0,0l-0.054,0.022C44.929,46.49,43.602,47,42.184,47H7.798c-1.452,0-2.78-0.51-3.729-1.351l0,0
		l0,0C3.082,44.809,2.5,43.633,2.5,42.361V6.624c0-1.263,0.582-2.412,1.569-3.251C5.018,2.532,6.33,2,7.798,2L7.798,2z
		 M30.012,5.452L30.012,5.452H7.798c-0.367,0-0.693,0.133-0.95,0.354c-0.241,0.221-0.393,0.52-0.393,0.817v35.738
		c0,0.321,0.153,0.612,0.394,0.832c0.252,0.243,0.582,0.354,0.95,0.354h34.388c0.378,0,0.707-0.11,0.959-0.354l0,0
		c0.251-0.22,0.395-0.51,0.395-0.832V17.295h-9.018c-1.227,0-2.365-0.432-3.164-1.153l-0.09-0.087
		c-0.77-0.721-1.264-1.658-1.264-2.7L30.012,5.452L30.012,5.452z M41.525,15.211L41.525,15.211l-9.127-7.99v6.13
		c0,0.478,0.226,0.942,0.593,1.263l0.053,0.046c0.367,0.344,0.896,0.551,1.479,0.551H41.525L41.525,15.211z"/>
</g>
</svg>
