<?xml version="1.0" encoding="utf-8"?>
<!-- Generator: Adobe Illustrator 16.0.0, SVG Export Plug-In . SVG Version: 6.00 Build 0)  -->
<!DOCTYPE svg PUBLIC "-//W3C//DTD SVG 1.1//EN" "http://www.w3.org/Graphics/SVG/1.1/DTD/svg11.dtd">
<svg version="1.1" id="Layer_1" xmlns="http://www.w3.org/2000/svg" xmlns:xlink="http://www.w3.org/1999/xlink" x="0px" y="0px"
	 width="50px" height="50px" viewBox="0 0 50 50" enable-background="new 0 0 50 50" xml:space="preserve">
<title>Settings</title>
<desc>Created with Sketch.</desc>
<g id="Symbols">
	<g id="Settings">
		<path id="Shape" fill="#FF9400" d="M50,28.365v-6.732c-3.439-1.224-5.611-1.567-6.708-4.207v-0.001
			c-1.099-2.649,0.211-4.447,1.765-7.724l-4.758-4.759c-3.254,1.546-5.068,2.864-7.725,1.764l0,0
			C29.928,5.611,29.584,3.422,28.366,0h-6.732c-1.213,3.406-1.561,5.609-4.207,6.706h-0.001c-2.649,1.101-4.442-0.204-7.724-1.764
			L4.943,9.701c1.552,3.267,2.864,5.072,1.764,7.724c-1.097,2.647-3.3,2.995-6.706,4.208v6.732c3.399,1.208,5.609,1.56,6.706,4.208
			c1.105,2.668-0.238,4.511-1.764,7.721l4.759,4.762c3.254-1.545,5.072-2.863,7.724-1.765h0.001c2.646,1.099,2.992,3.29,4.207,6.708
			h6.732c1.212-3.409,1.562-5.604,4.224-6.714h0.003c2.628-1.093,4.416,0.214,7.702,1.776l4.762-4.765
			c-1.551-3.257-2.863-5.069-1.768-7.722C44.389,29.929,46.598,29.577,50,28.365L50,28.365z M25,33.33
			c-4.602,0-8.333-3.729-8.333-8.331c0-4.602,3.731-8.333,8.333-8.333c4.602,0,8.331,3.731,8.331,8.333
			C33.331,29.601,29.602,33.33,25,33.33z"/>
	</g>
</g>
</svg>
