<?xml version="1.0" encoding="utf-8"?>
<!-- Generator: Adobe Illustrator 16.0.0, SVG Export Plug-In . SVG Version: 6.00 Build 0)  -->
<!DOCTYPE svg PUBLIC "-//W3C//DTD SVG 1.1//EN" "http://www.w3.org/Graphics/SVG/1.1/DTD/svg11.dtd">
<svg version="1.1" id="Layer_1" xmlns="http://www.w3.org/2000/svg" xmlns:xlink="http://www.w3.org/1999/xlink" x="0px" y="0px"
	 width="160px" height="160px" viewBox="0 0 160 160" enable-background="new 0 0 160 160" xml:space="preserve">
<title>Settopbox</title>
<desc>Created with Sketch.</desc>
<g id="Symbols">
	<g id="Settopbox">
		<path id="Page-1" fill="#FFFFFF" d="M48.611,84.48c0,1.02,1.016,2.379,1.569,2.379h69.201c0.648,0,1.2-0.684,1.2-1.48V70.194
			c0-0.794-0.552-1.474-1.2-1.474H50.18c-0.737,0-1.569,0.456-1.569,1.135V84.48z M72.538,37.777c2.034,0,3.696-2.039,3.696-4.534
			c0-2.495-1.662-4.533-3.696-4.533c-2.03,0-3.695,2.039-3.695,4.534S70.508,37.777,72.538,37.777L72.538,37.777z M44.916,84.48
			V69.855c0-3.516,2.68-5.669,5.265-5.669h20.51V41.97c-3.231-1.018-5.543-4.534-5.543-8.84c0-4.986,3.327-9.067,7.391-9.067
			c4.067,0,7.391,4.082,7.391,9.067c0,4.196-2.402,7.822-5.543,8.84v22.217h44.995c2.681,0,4.896,2.723,4.896,6.008v15.079
			c0,3.281-2.215,6.006-4.896,6.006H50.18C47.225,91.395,44.916,87.648,44.916,84.48L44.916,84.48z M122.333,97.059h-75.57
			c-2.587,0-4.713,2.611-4.713,5.779v8.954c0,1.245,0.833,2.271,1.851,2.271c1.015,0,1.848-1.024,1.848-2.271v-8.954
			c0-0.677,0.461-1.246,1.015-1.246h75.57c0.558,0,1.016,0.569,1.016,1.246v8.954c0,1.245,0.835,2.271,1.852,2.271
			c1.021,0,1.851-1.024,1.851-2.271v-8.954C127.05,99.67,124.921,97.059,122.333,97.059L122.333,97.059z M105.336,80.056
			c0.464,0,0.928-0.222,1.293-0.677c0.372-0.456,0.559-1.019,0.559-1.594c0-0.562-0.187-1.125-0.559-1.581
			c-0.648-0.907-1.938-0.907-2.581,0c-0.371,0.456-0.558,1.019-0.558,1.581c0,0.575,0.187,1.138,0.558,1.594
			C104.412,79.834,104.877,80.056,105.336,80.056L105.336,80.056z M97.486,80.056c0.459,0,0.924-0.222,1.289-0.677
			c0.371-0.456,0.557-1.019,0.557-1.594c0-0.562-0.186-1.125-0.557-1.581c-0.645-0.907-1.938-0.907-2.588,0
			c-0.365,0.456-0.552,1.019-0.552,1.581c0,0.575,0.187,1.138,0.552,1.594C96.559,79.834,97.023,80.056,97.486,80.056L97.486,80.056
			z M101.361,83.906c0.465,0,0.929-0.223,1.299-0.678c0.365-0.447,0.553-1.019,0.553-1.586c0-0.562-0.188-1.133-0.553-1.587
			c-0.741-0.791-1.942-0.791-2.586,0c-0.371,0.455-0.558,1.024-0.558,1.587c0,0.567,0.187,1.139,0.558,1.586
			C100.439,83.686,100.904,83.906,101.361,83.906L101.361,83.906z M101.361,76.204c0.465,0,0.929-0.228,1.299-0.683
			c0.365-0.452,0.553-1.019,0.553-1.587c0-0.566-0.188-1.133-0.553-1.585c-0.648-0.793-1.942-0.793-2.586,0
			c-0.371,0.452-0.558,1.019-0.558,1.585c0,0.568,0.187,1.135,0.558,1.587C100.439,75.977,100.904,76.204,101.361,76.204
			L101.361,76.204z M115.5,80.396c0.458,0,0.928-0.228,1.293-0.683c0.365-0.449,0.552-1.019,0.552-1.581
			c0-0.569-0.187-1.139-0.552-1.594c-0.649-0.79-1.938-0.79-2.587,0c-0.366,0.455-0.552,1.024-0.552,1.594
			c0,0.562,0.186,1.132,0.552,1.581C114.576,80.169,115.041,80.396,115.5,80.396L115.5,80.396z M62.378,80.056
			c0.461,0,0.922-0.222,1.293-0.677c0.369-0.456,0.554-1.019,0.554-1.594c0-0.562-0.186-1.125-0.554-1.581
			c-0.647-0.907-1.94-0.907-2.587,0c-0.372,0.456-0.554,1.019-0.554,1.581c0,0.575,0.183,1.138,0.554,1.594
			C61.452,79.834,61.913,80.056,62.378,80.056L62.378,80.056z M53.693,79.379c-0.371-0.456-0.554-1.019-0.554-1.594
			c0-0.562,0.183-1.125,0.554-1.581c0.74-0.907,1.94-0.907,2.587,0c0.368,0.456,0.554,1.019,0.554,1.581
			c0,0.575-0.186,1.138-0.554,1.594c-0.371,0.455-0.833,0.677-1.294,0.677C54.523,80.056,54.062,79.834,53.693,79.379L53.693,79.379
			z"/>
	</g>
</g>
</svg>
