<?xml version="1.0" encoding="utf-8"?>
<!-- Generator: Adobe Illustrator 16.0.0, SVG Export Plug-In . SVG Version: 6.00 Build 0)  -->
<!DOCTYPE svg PUBLIC "-//W3C//DTD SVG 1.1//EN" "http://www.w3.org/Graphics/SVG/1.1/DTD/svg11.dtd">
<svg version="1.1" id="Layer_1" xmlns="http://www.w3.org/2000/svg" xmlns:xlink="http://www.w3.org/1999/xlink" x="0px" y="0px"
	 width="160px" height="160px" viewBox="0 0 160 160" enable-background="new 0 0 160 160" xml:space="preserve">
<title>Socket</title>
<desc>Created with Sketch.</desc>
<g id="Symbols">
	<g id="Socket">
		<g id="Group-2" transform="translate(4.000000, 5.000000)">
			<path id="Fill-1" fill="#A8A6A3" d="M52.132,109.762h51.731c4.822-7.963,7.847-16.484,8.994-25.332
				c0.957-7.414,0.613-15.103-1.026-22.851c-2.263-10.679-6.401-18.577-7.983-21.335H52.152C50.571,43,46.429,50.897,44.169,61.579
				c-1.642,7.748-1.983,15.437-1.025,22.851C44.289,93.277,47.312,101.799,52.132,109.762 M105.066,115h-54.13
				c-0.746,0-1.443-0.41-1.876-1.094c-5.671-9-9.201-18.699-10.496-28.842c-1.034-8.108-0.643-16.49,1.163-24.917
				c3.062-14.295,9.099-23.693,9.354-24.087c0.432-0.668,1.12-1.06,1.855-1.06h54.13c0.733,0,1.42,0.393,1.854,1.061
				c0.257,0.394,6.287,9.792,9.354,24.087c1.804,8.428,2.199,16.808,1.164,24.917c-1.297,10.143-4.828,19.843-10.494,28.843
				C106.51,114.592,105.812,115,105.066,115"/>
			<path id="Fill-4" fill="#A8A6A3" d="M70.613,94.036c0,0-1.445-11.494,7.22-11.494c8.668,0,7.219,11.494,7.219,11.494H70.613z"/>
			<path id="Fill-6" fill="#A8A6A3" d="M71.734,92.663H83.93c0.036-1.687-0.125-4.772-1.658-6.774
				c-1.011-1.32-2.465-1.966-4.437-1.966c-1.976,0-3.427,0.647-4.443,1.979C71.952,87.788,71.693,90.798,71.734,92.663
				 M85.055,95.415h-14.44c-0.604,0-1.115-0.507-1.199-1.181c-0.033-0.256-0.757-6.332,2.146-10.142
				c1.482-1.942,3.592-2.923,6.274-2.923c2.681,0,4.791,0.979,6.276,2.923c2.896,3.812,2.177,9.886,2.146,10.142
				C86.166,94.908,85.662,95.415,85.055,95.415"/>
			<polygon id="Fill-8" fill="#A8A6A3" points="63.031,73.514 68.085,73.514 68.085,57.094 63.031,57.094 			"/>
			<path id="Fill-10" fill="#A8A6A3" d="M64.242,72.136h2.633V58.472h-2.633V72.136z M68.085,74.892h-5.056
				c-0.667,0-1.211-0.618-1.211-1.376V57.094c0-0.761,0.543-1.376,1.211-1.376h5.056c0.67,0,1.211,0.615,1.211,1.376v16.42
				C69.297,74.272,68.757,74.892,68.085,74.892L68.085,74.892z"/>
			<polygon id="Fill-11" fill="#A8A6A3" points="87.585,73.514 92.635,73.514 92.635,57.094 87.585,57.094 			"/>
			<path id="Fill-12" fill="#A8A6A3" d="M88.793,72.136h2.634V58.472h-2.634V72.136z M92.635,74.892h-5.05
				c-0.673,0-1.214-0.618-1.214-1.376V57.094c0-0.761,0.541-1.376,1.214-1.376h5.05c0.674,0,1.215,0.615,1.215,1.376v16.42
				C93.85,74.272,93.309,74.892,92.635,74.892L92.635,74.892z"/>
		</g>
	</g>
</g>
</svg>
