<?xml version="1.0" encoding="utf-8"?>
<!-- Generator: Adobe Illustrator 16.0.0, SVG Export Plug-In . SVG Version: 6.00 Build 0)  -->
<!DOCTYPE svg PUBLIC "-//W3C//DTD SVG 1.1//EN" "http://www.w3.org/Graphics/SVG/1.1/DTD/svg11.dtd">
<svg version="1.1" id="Layer_1" xmlns="http://www.w3.org/2000/svg" xmlns:xlink="http://www.w3.org/1999/xlink" x="0px" y="0px"
	 width="160px" height="160px" viewBox="0 0 160 160" enable-background="new 0 0 160 160" xml:space="preserve">
<title>Socket</title>
<desc>Created with Sketch.</desc>
<g id="Symbols">
	<g id="Socket">
		<g id="Group-2" transform="translate(4.000000, 5.000000)">
			<path id="Fill-1" fill="#FFFFFF" d="M50.515,111.934h54.965c5.123-8.46,8.336-17.514,9.557-26.915
				c1.016-7.879,0.65-16.047-1.092-24.279c-2.403-11.346-6.803-19.738-8.483-22.669H50.537c-1.68,2.928-6.081,11.319-8.482,22.669
				c-1.744,8.232-2.107,16.4-1.089,24.279C42.182,94.42,45.395,103.474,50.515,111.934 M106.758,117.5H49.244
				c-0.792,0-1.533-0.435-1.993-1.162c-6.026-9.562-9.776-19.867-11.152-30.645c-1.098-8.615-0.683-17.52,1.236-26.474
				c3.254-15.189,9.667-25.175,9.938-25.593c0.46-0.71,1.191-1.127,1.971-1.127h57.514c0.779,0,1.508,0.417,1.969,1.127
				c0.273,0.418,6.68,10.404,9.938,25.593c1.916,8.954,2.338,17.858,1.238,26.474c-1.379,10.776-5.129,21.082-11.151,30.645
				C108.291,117.066,107.55,117.5,106.758,117.5"/>
			<path id="Fill-4" fill="#FFFFFF" d="M70.152,95.226c0,0-1.536-12.212,7.67-12.212c9.211,0,7.671,12.212,7.671,12.212H70.152z"/>
			<path id="Fill-6" fill="#FFFFFF" d="M71.343,93.768H84.3c0.039-1.792-0.134-5.072-1.763-7.199
				c-1.072-1.404-2.618-2.089-4.713-2.089c-2.099,0-3.641,0.69-4.721,2.104C71.574,88.588,71.299,91.785,71.343,93.768
				 M85.494,96.691H70.152c-0.642,0-1.185-0.539-1.274-1.253c-0.035-0.272-0.805-6.729,2.28-10.776
				c1.575-2.064,3.816-3.105,6.666-3.105c2.848,0,5.09,1.041,6.668,3.105c3.078,4.049,2.312,10.504,2.279,10.776
				C86.677,96.152,86.141,96.691,85.494,96.691"/>
			<polygon id="Fill-8" fill="#FFFFFF" points="62.095,73.421 67.466,73.421 67.466,55.975 62.095,55.975 			"/>
			<path id="Fill-10" fill="#FFFFFF" d="M63.382,71.957h2.797V57.439h-2.797V71.957z M67.466,74.885h-5.372
				c-0.709,0-1.287-0.657-1.287-1.462V55.975c0-0.809,0.578-1.462,1.287-1.462h5.372c0.712,0,1.287,0.653,1.287,1.462v17.447
				C68.753,74.227,68.179,74.885,67.466,74.885L67.466,74.885z"/>
			<polygon id="Fill-11" fill="#FFFFFF" points="88.184,73.421 93.549,73.421 93.549,55.975 88.184,55.975 			"/>
			<path id="Fill-12" fill="#FFFFFF" d="M89.468,71.957h2.798V57.439h-2.798V71.957z M93.549,74.885h-5.365
				c-0.715,0-1.289-0.657-1.289-1.462V55.975c0-0.809,0.574-1.462,1.289-1.462h5.365c0.717,0,1.29,0.653,1.29,1.462v17.447
				C94.839,74.227,94.266,74.885,93.549,74.885L93.549,74.885z"/>
		</g>
	</g>
</g>
</svg>
