<?xml version="1.0" encoding="utf-8"?>
<!-- Generator: Adobe Illustrator 16.0.0, SVG Export Plug-In . SVG Version: 6.00 Build 0)  -->
<!DOCTYPE svg PUBLIC "-//W3C//DTD SVG 1.1//EN" "http://www.w3.org/Graphics/SVG/1.1/DTD/svg11.dtd">
<svg version="1.1" id="Layer_1" xmlns="http://www.w3.org/2000/svg" xmlns:xlink="http://www.w3.org/1999/xlink" x="0px" y="0px"
	 width="160px" height="160px" viewBox="0 0 160 160" enable-background="new 0 0 160 160" xml:space="preserve">
<title>Hanging lamp</title>
<desc>Created with Sketch.</desc>
<g id="Symbols">
	<g id="Hanging-lamp">
		<path id="Shape_3_" fill="#FFFFFF" d="M90.697,68.164v-8.859c0-4.271-3.254-7.879-7.682-9.033V26.827
			c0-1.471-1.353-2.66-3.02-2.66c-1.671,0-3.023,1.189-3.023,2.66v23.446c-4.43,1.155-7.675,4.767-7.675,9.033v8.859
			C49.28,72.453,35,88.297,35,106.645c0,0.705,0.315,1.381,0.884,1.883c0.568,0.494,1.337,0.777,2.139,0.777h21.325
			c3.896,6.832,11.821,11.195,20.601,11.195c8.809,0,16.713-4.348,20.598-11.195h21.432c1.67,0,3.021-1.188,3.021-2.66
			C125,88.293,110.715,72.453,90.697,68.164z M79.948,115.175c-5.385,0-10.331-2.221-13.5-5.87h26.997
			C90.281,112.954,85.35,115.175,79.948,115.175z M41.157,103.979c1.348-15.365,14.269-28.205,31.713-31.046
			c1.43-0.231,2.47-1.334,2.47-2.612V59.305c0-2.258,2.087-4.099,4.657-4.099c2.565,0,4.653,1.841,4.653,4.099v11.014
			c0,1.281,1.039,2.383,2.479,2.612c17.44,2.842,30.356,15.678,31.701,31.047H41.157L41.157,103.979z"/>
		<path id="Shape_4_" fill="#FFFFFF" d="M67.406,80.114c-3.688,1.607-7.052,3.712-9.994,6.258c-2.941,2.545-5.393,5.465-7.279,8.688
			c-0.765,1.301-0.186,2.905,1.3,3.58c0.442,0.199,0.917,0.299,1.385,0.299c1.096,0,2.15-0.522,2.689-1.443
			c1.593-2.717,3.658-5.182,6.143-7.327c2.484-2.151,5.322-3.929,8.434-5.28c1.497-0.652,2.114-2.244,1.371-3.562
			C70.716,80.007,68.903,79.465,67.406,80.114z"/>
	</g>
</g>
</svg>
