<?xml version="1.0" encoding="utf-8"?>
<!-- Generator: Adobe Illustrator 16.0.0, SVG Export Plug-In . SVG Version: 6.00 Build 0)  -->
<!DOCTYPE svg PUBLIC "-//W3C//DTD SVG 1.1//EN" "http://www.w3.org/Graphics/SVG/1.1/DTD/svg11.dtd">
<svg version="1.1" id="Layer_1" xmlns="http://www.w3.org/2000/svg" xmlns:xlink="http://www.w3.org/1999/xlink" x="0px" y="0px"
	 width="160px" height="160px" viewBox="0 0 160 160" enable-background="new 0 0 160 160" xml:space="preserve">
<title>Split AC</title>
<desc>Created with Sketch.</desc>
<g id="Symbols">
	<g id="Split-AC">
		<g id="Page-1" transform="translate(0.000000, 6.000000)">
			<path id="Stroke-11" fill="#A6A6A6" d="M123.05,86.206c0,7.99-4.817,14.547-10.698,14.547H47.314
				c-5.879,0-10.697-6.557-10.697-14.547v-22.11c0-7.99,4.818-14.542,10.697-14.542h65.038c5.879,0,10.697,6.553,10.697,14.542
				L123.05,86.206L123.05,86.206z M127.5,86.206v-22.11c0-11.336-6.814-20.596-15.148-20.596H47.314
				c-8.337,0-15.148,9.261-15.148,20.596v22.11c0,11.335,6.811,20.595,15.148,20.595h65.038
				C120.686,106.8,127.5,97.539,127.5,86.206z"/>
		</g>
	</g>
</g>
<path fill="#A6A6A6" d="M43.833,102.383"/>
<rect x="42.5" y="94.834" fill="#A6A6A6" width="74.667" height="4.666"/>
</svg>
