<?xml version="1.0" encoding="utf-8"?>
<!-- Generator: Adobe Illustrator 16.0.0, SVG Export Plug-In . SVG Version: 6.00 Build 0)  -->
<!DOCTYPE svg PUBLIC "-//W3C//DTD SVG 1.1//EN" "http://www.w3.org/Graphics/SVG/1.1/DTD/svg11.dtd">
<svg version="1.1" id="Layer_1" xmlns="http://www.w3.org/2000/svg" xmlns:xlink="http://www.w3.org/1999/xlink" x="0px" y="0px"
	 width="160px" height="160px" viewBox="0 0 160 160" enable-background="new 0 0 160 160" xml:space="preserve">
<title>water pump</title>
<desc>Created with Sketch.</desc>
<g id="Symbols">
	<g id="water-pump">
		<path id="Shape" fill="#FFFFFF" d="M84.864,113.801c-13.439,1.915-26.146-4.354-30.833-15.031
			c-2.447-5.574-2.398-11.416-0.103-18.055c2.687-7.773,6.852-15.336,13.159-24.498c3.667-5.326,7.815-10.678,12.876-16.704
			c2.061,2.422,4.114,4.954,6.18,7.62c7.637,9.868,13.021,18.104,17.029,26.551c2.434,5.139,3.881,9.489,4.415,13.776
			c0.056,0.47,0.093,0.896,0.146,1.781c0.035,0.51,0.035,0.536,0.063,0.926C107.965,101.469,97.919,111.939,84.864,113.801z
			 M114.925,88.908c-0.069-1.092-0.112-1.621-0.196-2.258c-0.633-5.084-2.275-10.064-4.998-15.793
			c-4.248-8.953-9.879-17.571-17.795-27.797c-2.834-3.658-5.65-7.081-8.508-10.33c-1.919-2.17-4.872-2.452-6.996,0.034
			c-6.154,7.198-11.065,13.441-15.368,19.692c-6.619,9.62-11.062,17.682-13.973,26.112c-2.805,8.116-2.869,15.632,0.299,22.848
			c5.997,13.673,21.935,21.536,38.542,19.165c16.551-2.356,29.346-15.729,29.064-30.614
			C114.954,89.357,114.954,89.357,114.925,88.908z"/>
	</g>
</g>
</svg>
