<?xml version="1.0" encoding="utf-8"?>
<!-- Generator: Adobe Illustrator 16.0.0, SVG Export Plug-In . SVG Version: 6.00 Build 0)  -->
<!DOCTYPE svg PUBLIC "-//W3C//DTD SVG 1.1//EN" "http://www.w3.org/Graphics/SVG/1.1/DTD/svg11.dtd">
<svg version="1.1" id="Layer_1" xmlns="http://www.w3.org/2000/svg" xmlns:xlink="http://www.w3.org/1999/xlink" x="0px" y="0px"
	 width="350px" height="120px" viewBox="-9.363 -1.218 350 120" enable-background="new -9.363 -1.218 350 120"
	 xml:space="preserve">
<g>
	<g>
		<g enable-background="new    ">
			<path fill="#FF9400" d="M47.547,101.519c-0.189-0.205-0.441-0.402-0.755-0.593c-0.315-0.19-0.668-0.362-1.062-0.517
				c-0.394-0.153-0.822-0.278-1.286-0.373c-0.464-0.096-0.948-0.143-1.451-0.143c-1.306,0-2.261,0.227-2.867,0.681
				c-0.606,0.454-0.909,1.076-0.909,1.866c0,0.425,0.086,0.776,0.26,1.055c0.173,0.278,0.444,0.517,0.814,0.714
				s0.83,0.37,1.38,0.516c0.55,0.147,1.203,0.301,1.958,0.462c0.865,0.176,1.647,0.377,2.348,0.604
				c0.7,0.228,1.298,0.509,1.793,0.846c0.495,0.337,0.873,0.747,1.132,1.23c0.26,0.482,0.39,1.076,0.39,1.778
				c0,0.747-0.158,1.395-0.472,1.944c-0.315,0.549-0.743,1.003-1.286,1.361c-0.542,0.359-1.184,0.623-1.923,0.791
				c-0.74,0.168-1.542,0.252-2.407,0.252c-1.29,0-2.513-0.187-3.669-0.56c-1.156-0.373-2.207-0.919-3.15-1.637l1.015-1.669
				c0.251,0.249,0.578,0.498,0.979,0.747c0.401,0.249,0.857,0.472,1.369,0.67c0.511,0.197,1.062,0.358,1.651,0.483
				c0.59,0.124,1.207,0.187,1.853,0.187c1.195,0,2.124-0.198,2.784-0.594c0.661-0.395,0.991-0.988,0.991-1.778
				c0-0.439-0.106-0.81-0.318-1.109s-0.523-0.561-0.932-0.779c-0.409-0.22-0.917-0.414-1.522-0.582
				c-0.605-0.169-1.294-0.341-2.064-0.517c-0.85-0.19-1.597-0.396-2.242-0.615s-1.184-0.482-1.616-0.79s-0.759-0.682-0.979-1.12
				c-0.221-0.439-0.331-0.967-0.331-1.582c0-0.746,0.149-1.405,0.448-1.977s0.716-1.054,1.25-1.449s1.172-0.692,1.912-0.89
				c0.739-0.197,1.542-0.297,2.407-0.297c1.132,0,2.155,0.161,3.067,0.483c0.912,0.322,1.722,0.755,2.43,1.296L47.547,101.519z"/>
			<path fill="#FF9400" d="M53.894,100.223v-2.416h2.076v2.416H53.894z M53.894,113.84v-11.465h2.076v11.465H53.894z"/>
			<path fill="#FF9400" d="M80.038,113.84h-2.077v-6.413c0-1.2-0.208-2.087-0.625-2.658c-0.417-0.57-1.035-0.856-1.853-0.856
				c-0.849,0-1.608,0.282-2.277,0.846c-0.669,0.564-1.145,1.293-1.427,2.186v6.896h-2.077v-6.413c0-1.23-0.205-2.123-0.613-2.68
				c-0.41-0.557-1.023-0.835-1.841-0.835c-0.834,0-1.589,0.274-2.265,0.824c-0.676,0.549-1.156,1.277-1.439,2.185v6.919h-2.076
				v-11.465h1.888v2.46c0.503-0.849,1.156-1.505,1.958-1.966s1.707-0.691,2.713-0.691c1.038,0,1.86,0.26,2.466,0.779
				c0.605,0.52,0.979,1.189,1.121,2.01c1.101-1.859,2.667-2.789,4.696-2.789c0.708,0,1.301,0.12,1.781,0.362
				c0.479,0.241,0.861,0.578,1.145,1.01c0.283,0.433,0.487,0.941,0.613,1.526c0.126,0.586,0.189,1.223,0.189,1.911V113.84z"/>
			<path fill="#FF9400" d="M92.048,114.06c-1.023,0-1.923-0.234-2.702-0.703c-0.779-0.468-1.396-1.062-1.853-1.779v6.94h-2.076
				v-16.143h1.84v2.152c0.487-0.703,1.121-1.271,1.899-1.702c0.779-0.432,1.64-0.647,2.584-0.647c0.849,0,1.628,0.161,2.336,0.482
				c0.708,0.322,1.321,0.758,1.84,1.308c0.519,0.549,0.924,1.183,1.215,1.899c0.291,0.718,0.437,1.464,0.437,2.24
				c0,0.82-0.134,1.593-0.401,2.317s-0.645,1.354-1.132,1.889c-0.488,0.534-1.07,0.959-1.746,1.273
				C93.613,113.902,92.866,114.06,92.048,114.06z M91.411,112.391c0.614,0,1.168-0.121,1.664-0.362
				c0.496-0.242,0.92-0.563,1.274-0.967c0.354-0.402,0.625-0.86,0.814-1.373c0.188-0.512,0.283-1.039,0.283-1.581
				c0-0.571-0.11-1.116-0.331-1.637c-0.22-0.52-0.519-0.974-0.896-1.361s-0.822-0.695-1.333-0.923
				c-0.511-0.227-1.065-0.34-1.663-0.34c-0.378,0-0.767,0.069-1.168,0.208c-0.401,0.14-0.779,0.322-1.133,0.55
				c-0.354,0.227-0.661,0.498-0.92,0.812c-0.259,0.314-0.429,0.647-0.507,0.999v3.272c0.173,0.381,0.393,0.736,0.661,1.065
				c0.267,0.329,0.574,0.615,0.92,0.856c0.346,0.242,0.716,0.433,1.109,0.571C90.577,112.321,90.986,112.391,91.411,112.391z"/>
			<path fill="#FF9400" d="M102.312,97.807h2.076v13.068c0,0.425,0.122,0.758,0.366,0.999c0.244,0.241,0.586,0.362,1.026,0.362
				c0.173,0,0.377-0.025,0.614-0.077c0.236-0.051,0.456-0.112,0.661-0.187l0.33,1.56c-0.346,0.132-0.755,0.242-1.227,0.329
				c-0.472,0.088-0.889,0.132-1.25,0.132c-0.802,0-1.436-0.212-1.899-0.637c-0.464-0.424-0.696-1.018-0.696-1.779V97.807z"/>
			<path fill="#FF9400" d="M116.611,114.06c-0.928,0-1.778-0.157-2.548-0.473c-0.771-0.314-1.432-0.742-1.982-1.284
				c-0.551-0.542-0.979-1.176-1.286-1.9s-0.46-1.489-0.46-2.295c0-0.805,0.153-1.566,0.46-2.284
				c0.307-0.717,0.739-1.347,1.298-1.889c0.558-0.542,1.223-0.97,1.994-1.285c0.771-0.314,1.62-0.472,2.548-0.472
				s1.773,0.161,2.537,0.482c0.763,0.322,1.412,0.751,1.947,1.285c0.534,0.535,0.947,1.157,1.239,1.867
				c0.291,0.71,0.437,1.446,0.437,2.207c0,0.161-0.004,0.308-0.012,0.439s-0.02,0.234-0.035,0.308h-10.217
				c0.047,0.57,0.188,1.091,0.425,1.56c0.236,0.469,0.542,0.871,0.92,1.207c0.377,0.338,0.806,0.601,1.286,0.791
				c0.479,0.19,0.987,0.286,1.522,0.286c0.377,0,0.747-0.048,1.109-0.144c0.362-0.095,0.7-0.223,1.015-0.384
				c0.314-0.161,0.594-0.358,0.837-0.593s0.429-0.498,0.555-0.791l1.793,0.461c-0.205,0.425-0.484,0.812-0.838,1.164
				s-0.763,0.655-1.227,0.912c-0.464,0.256-0.979,0.457-1.545,0.604S117.224,114.06,116.611,114.06z M120.834,107.339
				c-0.047-0.542-0.193-1.043-0.437-1.505c-0.244-0.461-0.551-0.853-0.92-1.175s-0.798-0.574-1.286-0.758
				c-0.487-0.183-1.007-0.274-1.557-0.274c-0.551,0-1.07,0.092-1.557,0.274c-0.488,0.184-0.917,0.439-1.286,0.769
				c-0.37,0.33-0.669,0.722-0.896,1.175c-0.229,0.454-0.366,0.952-0.413,1.494H120.834z"/>
			<path fill="#FF9400" d="M135.369,100.223v-2.416h2.076v2.416H135.369z M135.369,113.84v-11.465h2.076v11.465H135.369z"/>
			<path fill="#FF9400" d="M147.261,114.06c-0.991,0-1.966-0.143-2.926-0.429c-0.959-0.285-1.786-0.698-2.478-1.24l0.896-1.296
				c0.724,0.513,1.447,0.896,2.171,1.152c0.724,0.257,1.487,0.385,2.289,0.385c0.896,0,1.608-0.165,2.135-0.494
				c0.527-0.329,0.791-0.794,0.791-1.395c0-0.278-0.071-0.517-0.212-0.714c-0.142-0.198-0.354-0.37-0.637-0.517
				c-0.283-0.146-0.645-0.277-1.085-0.395s-0.952-0.242-1.534-0.374c-0.739-0.176-1.376-0.344-1.911-0.505
				c-0.535-0.161-0.976-0.352-1.321-0.571c-0.346-0.22-0.598-0.483-0.755-0.79c-0.157-0.308-0.236-0.688-0.236-1.143
				c0-0.571,0.122-1.08,0.366-1.526c0.244-0.446,0.578-0.82,1.003-1.12s0.924-0.527,1.499-0.681c0.574-0.154,1.191-0.23,1.852-0.23
				c0.928,0,1.793,0.139,2.596,0.417s1.478,0.645,2.029,1.098l-0.944,1.164c-0.519-0.424-1.101-0.742-1.746-0.955
				c-0.646-0.212-1.306-0.318-1.982-0.318c-0.755,0-1.396,0.15-1.923,0.45c-0.527,0.3-0.791,0.779-0.791,1.438
				c0,0.264,0.051,0.483,0.153,0.659c0.102,0.176,0.271,0.329,0.507,0.461s0.539,0.249,0.909,0.352
				c0.369,0.103,0.814,0.213,1.333,0.329c0.818,0.176,1.53,0.355,2.135,0.538c0.605,0.184,1.109,0.399,1.51,0.648
				c0.401,0.249,0.7,0.542,0.896,0.878c0.197,0.338,0.295,0.747,0.295,1.23c0,1.069-0.44,1.918-1.321,2.548
				S148.755,114.06,147.261,114.06z"/>
			<path fill="#FF9400" d="M178.053,109.82c0,0.601-0.13,1.149-0.39,1.647c-0.259,0.498-0.613,0.923-1.062,1.273
				c-0.448,0.352-0.968,0.623-1.558,0.813s-1.223,0.285-1.899,0.285h-7.951V98.246h8.329c0.582,0,1.109,0.117,1.581,0.352
				s0.873,0.538,1.203,0.911s0.586,0.798,0.767,1.273c0.181,0.477,0.271,0.956,0.271,1.439c0,0.775-0.209,1.493-0.625,2.152
				c-0.417,0.658-1.011,1.149-1.781,1.471c0.959,0.264,1.718,0.751,2.276,1.461C177.773,108.017,178.053,108.854,178.053,109.82z
				 M167.316,99.959v5.205h5.333c0.378,0,0.724-0.069,1.038-0.208c0.314-0.14,0.586-0.326,0.814-0.561
				c0.228-0.234,0.408-0.509,0.542-0.823c0.134-0.315,0.201-0.648,0.201-1c0-0.365-0.063-0.71-0.189-1.032
				c-0.126-0.321-0.295-0.6-0.507-0.834s-0.472-0.418-0.778-0.55s-0.634-0.197-0.979-0.197H167.316z M175.905,109.469
				c0-0.351-0.066-0.691-0.2-1.021c-0.134-0.33-0.315-0.619-0.543-0.868c-0.229-0.249-0.499-0.446-0.813-0.593
				c-0.315-0.146-0.661-0.22-1.039-0.22h-5.993v5.359h5.828c0.394,0,0.756-0.073,1.086-0.22s0.621-0.341,0.873-0.582
				c0.251-0.242,0.448-0.523,0.59-0.846S175.905,109.82,175.905,109.469z"/>
			<path fill="#FF9400" d="M188.293,114.06c-0.929,0-1.778-0.157-2.549-0.473c-0.771-0.314-1.432-0.742-1.981-1.284
				c-0.551-0.542-0.979-1.176-1.286-1.9s-0.46-1.489-0.46-2.295c0-0.805,0.153-1.566,0.46-2.284
				c0.307-0.717,0.739-1.347,1.298-1.889c0.558-0.542,1.223-0.97,1.994-1.285c0.771-0.314,1.619-0.472,2.548-0.472
				c0.928,0,1.773,0.161,2.536,0.482c0.764,0.322,1.412,0.751,1.947,1.285c0.534,0.535,0.947,1.157,1.238,1.867
				s0.437,1.446,0.437,2.207c0,0.161-0.004,0.308-0.012,0.439s-0.02,0.234-0.035,0.308h-10.217c0.047,0.57,0.188,1.091,0.425,1.56
				c0.235,0.469,0.543,0.871,0.92,1.207c0.378,0.338,0.806,0.601,1.286,0.791c0.479,0.19,0.987,0.286,1.521,0.286
				c0.378,0,0.747-0.048,1.109-0.144c0.361-0.095,0.7-0.223,1.015-0.384s0.594-0.358,0.838-0.593
				c0.243-0.234,0.428-0.498,0.555-0.791l1.793,0.461c-0.205,0.425-0.484,0.812-0.838,1.164s-0.763,0.655-1.227,0.912
				c-0.465,0.256-0.979,0.457-1.546,0.604S188.906,114.06,188.293,114.06z M192.517,107.339c-0.047-0.542-0.193-1.043-0.437-1.505
				c-0.244-0.461-0.551-0.853-0.92-1.175c-0.37-0.322-0.799-0.574-1.286-0.758c-0.488-0.183-1.007-0.274-1.558-0.274
				s-1.07,0.092-1.558,0.274c-0.487,0.184-0.916,0.439-1.285,0.769c-0.37,0.33-0.669,0.722-0.897,1.175
				c-0.228,0.454-0.365,0.952-0.412,1.494H192.517z"/>
			<path fill="#FF9400" d="M202.096,114.06c-0.582,0-1.125-0.092-1.628-0.274c-0.504-0.184-0.94-0.436-1.31-0.758
				c-0.37-0.322-0.66-0.699-0.873-1.131c-0.212-0.432-0.318-0.904-0.318-1.417c0-0.527,0.126-1.007,0.377-1.438
				c0.252-0.432,0.61-0.802,1.074-1.109s1.015-0.549,1.651-0.725c0.638-0.176,1.333-0.264,2.088-0.264
				c0.598,0,1.204,0.052,1.817,0.153c0.613,0.103,1.156,0.242,1.628,0.418v-0.923c0-0.937-0.283-1.673-0.85-2.207
				s-1.368-0.802-2.406-0.802c-1.243,0-2.549,0.446-3.917,1.34l-0.685-1.252c1.589-0.996,3.186-1.493,4.79-1.493
				c1.62,0,2.883,0.402,3.787,1.208c0.904,0.805,1.356,1.939,1.356,3.404v4.678c0,0.454,0.221,0.688,0.661,0.703v1.669
				c-0.221,0.029-0.401,0.051-0.543,0.065s-0.291,0.022-0.448,0.022c-0.409,0-0.735-0.113-0.979-0.341
				c-0.244-0.227-0.389-0.501-0.437-0.823l-0.047-0.812c-0.551,0.688-1.247,1.212-2.088,1.57
				C203.956,113.88,203.056,114.06,202.096,114.06z M202.639,112.61c0.739,0,1.428-0.129,2.064-0.385s1.121-0.597,1.451-1.021
				c0.299-0.278,0.448-0.563,0.448-0.856v-1.691c-1.007-0.365-2.053-0.549-3.138-0.549c-1.039,0-1.885,0.205-2.537,0.615
				s-0.979,0.944-0.979,1.604c0,0.322,0.067,0.622,0.201,0.9c0.133,0.278,0.322,0.52,0.566,0.725
				c0.243,0.205,0.53,0.366,0.861,0.483C201.907,112.552,202.261,112.61,202.639,112.61z"/>
			<path fill="#FF9400" d="M217.952,114.06c-1.29,0-2.266-0.402-2.927-1.208c-0.66-0.805-0.99-2.006-0.99-3.603v-6.874h2.076v6.501
				c0,2.343,0.873,3.515,2.619,3.515c0.85,0,1.647-0.253,2.395-0.758c0.747-0.506,1.302-1.197,1.664-2.076v-7.182h2.076v9.093
				c0,0.454,0.22,0.688,0.661,0.703v1.669c-0.236,0.029-0.422,0.047-0.555,0.055c-0.134,0.008-0.264,0.011-0.39,0.011
				c-0.409,0-0.751-0.112-1.026-0.34c-0.275-0.227-0.421-0.509-0.437-0.846l-0.047-1.34c-0.551,0.864-1.274,1.526-2.171,1.987
				C220.005,113.829,219.021,114.06,217.952,114.06z"/>
			<path fill="#FF9400" d="M236.852,113.269c-0.126,0.059-0.291,0.129-0.495,0.209c-0.205,0.08-0.437,0.161-0.696,0.241
				c-0.26,0.081-0.543,0.146-0.85,0.198c-0.307,0.051-0.625,0.076-0.955,0.076c-0.756,0-1.408-0.193-1.959-0.582
				c-0.551-0.388-0.825-0.991-0.825-1.812v-7.709h-1.676v-1.516h1.676v-3.821h2.076v3.821h2.761v1.516h-2.761v7.116
				c0.031,0.425,0.181,0.732,0.448,0.922c0.268,0.19,0.582,0.286,0.943,0.286c0.409,0,0.782-0.062,1.121-0.187
				c0.338-0.125,0.57-0.224,0.696-0.297L236.852,113.269z"/>
			<path fill="#FF9400" d="M240.934,100.223v-2.416h2.077v2.416H240.934z M240.934,113.84v-11.465h2.077v11.465H240.934z"/>
			<path fill="#FF9400" d="M249.168,113.84v-9.949h-1.675v-1.516h1.675v-0.241c0-1.421,0.338-2.533,1.015-3.339
				c0.676-0.805,1.597-1.208,2.761-1.208c0.487,0,0.968,0.062,1.439,0.187c0.472,0.125,0.896,0.297,1.274,0.517l-0.52,1.428
				c-0.221-0.146-0.492-0.264-0.814-0.352s-0.641-0.132-0.955-0.132c-0.692,0-1.22,0.241-1.581,0.725
				c-0.362,0.483-0.543,1.187-0.543,2.108v0.308h3.28v1.516h-3.28v9.949H249.168z"/>
			<path fill="#FF9400" d="M262.547,114.06c-1.29,0-2.266-0.402-2.927-1.208c-0.66-0.805-0.99-2.006-0.99-3.603v-6.874h2.076v6.501
				c0,2.343,0.873,3.515,2.619,3.515c0.85,0,1.647-0.253,2.395-0.758c0.747-0.506,1.302-1.197,1.664-2.076v-7.182h2.076v9.093
				c0,0.454,0.22,0.688,0.661,0.703v1.669c-0.236,0.029-0.422,0.047-0.555,0.055c-0.134,0.008-0.264,0.011-0.39,0.011
				c-0.409,0-0.751-0.112-1.026-0.34c-0.275-0.227-0.421-0.509-0.437-0.846l-0.047-1.34c-0.551,0.864-1.274,1.526-2.171,1.987
				C264.6,113.829,263.616,114.06,262.547,114.06z"/>
			<path fill="#FF9400" d="M275.123,97.807h2.076v13.068c0,0.425,0.122,0.758,0.366,0.999c0.243,0.241,0.585,0.362,1.026,0.362
				c0.173,0,0.377-0.025,0.613-0.077c0.235-0.051,0.456-0.112,0.66-0.187l0.331,1.56c-0.347,0.132-0.756,0.242-1.228,0.329
				c-0.472,0.088-0.889,0.132-1.25,0.132c-0.803,0-1.436-0.212-1.899-0.637c-0.465-0.424-0.696-1.018-0.696-1.779V97.807z"/>
		</g>
		<g id="Layer_1_22_" transform="translate(12.444444, 18.086681)" opacity="0.8675">
			<g id="Group_24_">
				<path id="Shape_139_" fill="#FFFFFF" d="M20.646,58.452h40.652v13.362H-0.444v-0.989v-8.249c0-0.99,0.34-1.65,0.85-2.31
					c12.587-15.673,25.003-31.18,37.59-46.853c0.17-0.33,0.509-0.495,0.681-0.99H1.596V-1.104h58.171c0,2.474-0.169,4.949,0,7.423
					c0.17,2.145-0.51,3.794-2.041,5.609C45.65,26.942,33.574,42.12,21.496,57.297C21.156,57.627,20.987,57.957,20.646,58.452z"/>
				<path id="Shape_138_" fill="#FFFFFF" d="M94.805,18.528c8.505,0.165,16.499,2.804,22.452,9.404
					c4.763,5.114,6.974,11.383,6.804,18.146c-0.171,13.198-9.015,23.591-22.622,26.396c-9.354,1.814-18.029,0.494-25.853-4.95
					c-6.123-4.289-9.526-10.228-10.716-17.486c-0.851-5.774-0.169-11.219,2.551-16.498c3.232-6.434,8.505-10.723,15.308-13.197
					C86.472,19.023,90.384,18.528,94.805,18.528z M109.263,45.913c0.17-8.249-6.293-14.517-14.627-14.683
					c-8.505-0.165-14.968,6.104-14.968,14.354c-0.17,8.413,6.123,14.683,14.627,14.847C102.8,60.597,109.093,54.491,109.263,45.913z
					"/>
				<path id="Shape_137_" fill="#FFFFFF" d="M166.583,20.177v12.538c-2.551,0-5.273-0.33-7.824,0
					c-5.272,0.825-9.184,2.31-11.906,6.764c-0.34,0.495-0.68,2.31-0.68,2.804v28.046v1.32h-15.138V19.683h15.138v5.114
					C152.466,21.332,158.078,20.013,166.583,20.177z"/>
				<path id="Shape_136_" fill="#FFFFFF" d="M226.114,27.272c-6.121-6.599-13.945-9.404-22.45-9.404
					c-4.422,0-8.335,0.66-11.908,1.979c-1.189,0.496-2.21,0.825-3.23,1.32V-1.764h-14.968v46.193l0,0c0,1.649,0,3.299,0.338,4.949
					c1.192,7.259,4.595,13.198,10.717,17.487c7.826,5.609,16.67,6.928,25.855,4.949c13.605-2.804,22.451-13.198,22.621-26.396
					C233.089,38.49,230.876,32.385,226.114,27.272z M217.949,45.253c-0.17,8.58-6.461,14.683-14.967,14.519
					c-8.506-0.165-14.797-6.435-14.629-14.848v-0.495l0,0v-0.165c0.343-7.918,6.804-13.693,14.969-13.693
					C211.827,30.736,218.12,37.005,217.949,45.253z"/>
				<path id="Shape_135_" fill="#FFFFFF" d="M262.515,71.32c9.015,1.485,17.007-0.99,23.812-6.104
					c3.401-2.64,6.121-5.444,8.165-8.744c0.68-0.989,1.189-1.98,1.701-2.97l14.626,17.982l11.737-8.908l-29.427-36.295l0,0
					c-1.019-1.319-2.21-2.474-3.401-3.794c-5.442-4.949-12.074-7.588-19.56-7.259c-9.696,0.33-17.35,4.619-23.473,11.548
					c-9.015,10.394-9.186,23.757-1.021,34.314C249.757,66.7,255.541,70.165,262.515,71.32z M257.411,52.347
					c-5.273-6.763-4.252-15.342,2.55-20.456c6.805-5.114,15.649-3.959,20.923,2.805c0.17,0.165,0.17,0.33,0.339,0.495l0,0v0.165
					c4.765,6.434,3.403,14.848-3.062,19.797C271.529,60.102,262.515,58.947,257.411,52.347z"/>
			</g>
		</g>
		<g enable-background="new    ">
			<path fill="#FFFFFF" d="M328.359,0.46v1.527h-2.771v7.096h-1.948V1.987h-2.784V0.46H328.359z"/>
			<path fill="#FFFFFF" d="M335.635,0.46h2.785v8.623h-1.804V3.251c0-0.167,0.002-0.403,0.007-0.705
				c0.004-0.302,0.006-0.535,0.006-0.699l-1.755,7.236h-1.882l-1.742-7.236c0,0.164,0.002,0.396,0.006,0.699
				s0.007,0.538,0.007,0.705v5.832h-1.804V0.46h2.816l1.687,6.78L335.635,0.46z"/>
		</g>
	</g>
</g>
</svg>
