<?xml version="1.0" encoding="utf-8"?>
<!-- Generator: Adobe Illustrator 16.0.0, SVG Export Plug-In . SVG Version: 6.00 Build 0)  -->
<!DOCTYPE svg PUBLIC "-//W3C//DTD SVG 1.1//EN" "http://www.w3.org/Graphics/SVG/1.1/DTD/svg11.dtd">
<svg version="1.1" id="Layer_1" xmlns="http://www.w3.org/2000/svg" xmlns:xlink="http://www.w3.org/1999/xlink" x="0px" y="0px"
	 width="160px" height="160px" viewBox="0 0 160 160" enable-background="new 0 0 160 160" xml:space="preserve">
<title>Chandelier</title>
<desc>Created with Sketch.</desc>
<g id="Symbols">
	<g id="Chandelier">
		<path id="Shape" fill="#A8A6A3" d="M123.824,63.22c-0.189-1.235-1.33-2.185-2.566-2.185h-15.117c-1.331,0-2.376,0.95-2.566,2.185
			l-3.612,22.136c-0.095,0.76,0,3.038,2.568,3.038h8.556v13.966c0,7.695-6.371,13.966-14.167,13.966s-14.164-6.271-14.164-13.966
			V88.394h8.556c1.427,0,2.661-1.044,2.661-2.659c0-0.283-3.706-22.515-3.706-22.515c-0.192-1.235-1.331-2.185-2.568-2.185H82.85
			V40.99h3.803c1.427,0,2.661-1.14,2.661-2.659c0-1.425-1.141-2.66-2.661-2.66h-3.993v-3.61c0-1.425-1.236-4.66-2.663-4.66
			s-2.662,3.14-2.662,4.66v3.61h-3.993c-1.426,0-2.662,1.14-2.662,2.66c0,1.424,1.141,2.659,2.662,2.659h3.993v20.045h-4.944
			c-1.331,0-2.377,0.95-2.566,2.185l-3.613,22.136c-0.095,0.76,0,3.038,2.567,3.038h8.556v13.966
			c0,7.695-6.369,13.966-14.166,13.966c-7.795,0-14.165-6.271-14.165-13.966V88.394h8.557c1.426,0,2.662-1.044,2.662-2.659
			c0-0.283-3.708-22.515-3.708-22.515c-0.189-1.235-1.331-2.185-2.567-2.185h-15.21c-1.332,0-2.377,0.95-2.567,2.185l-3.708,22.136
			c-0.095,0.76,0,3.038,2.567,3.038h8.556v13.966c0,10.642,8.746,19.284,19.49,19.284c5.609,0,10.647-2.375,14.166-6.173v6.27
			c0,1.424,1.141,2.66,2.662,2.66c1.427,0,2.662-1.14,2.662-2.66v-6.27c3.519,3.798,8.652,6.173,14.166,6.173
			c10.743,0,19.488-8.643,19.488-19.284V88.394h8.558c1.425,0,2.662-1.044,2.662-2.659C127.532,85.545,123.824,63.22,123.824,63.22z
			 M38.166,83.17l2.853-16.815h10.552l2.757,16.815H38.166z M71.916,83.17l2.757-16.815h10.553l2.759,16.815H71.916z M105.571,83.17
			l2.757-16.815h10.648l2.757,16.815H105.571z"/>
	</g>
</g>
</svg>
