<?xml version="1.0" encoding="utf-8"?>
<!-- Generator: Adobe Illustrator 16.0.0, SVG Export Plug-In . SVG Version: 6.00 Build 0)  -->
<!DOCTYPE svg PUBLIC "-//W3C//DTD SVG 1.1//EN" "http://www.w3.org/Graphics/SVG/1.1/DTD/svg11.dtd">
<svg version="1.1" id="Layer_1" xmlns="http://www.w3.org/2000/svg" xmlns:xlink="http://www.w3.org/1999/xlink" x="0px" y="0px"
	 width="160px" height="160px" viewBox="0 0 160 160" enable-background="new 0 0 160 160" xml:space="preserve">
<title>Chandelier</title>
<desc>Created with Sketch.</desc>
<g id="Symbols">
	<g id="Chandelier">
		<path id="Shape" fill="#FFFFFF" d="M123.824,63.22c-0.189-1.235-1.33-2.185-2.566-2.185h-15.117c-1.33,0-2.375,0.95-2.565,2.185
			l-3.612,22.135c-0.095,0.761,0,3.039,2.568,3.039h8.556v13.965c0,7.695-6.371,13.967-14.167,13.967s-14.164-6.271-14.164-13.967
			V88.395h8.557c1.426,0,2.66-1.045,2.66-2.66c0-0.282-3.705-22.514-3.705-22.514c-0.192-1.235-1.332-2.185-2.568-2.185h-4.85V40.99
			h3.803c1.428,0,2.662-1.14,2.662-2.659c0-1.425-1.142-2.66-2.662-2.66H82.66v-3.61c0-1.425-1.236-2.66-2.663-2.66
			c-1.427,0-2.662,1.14-2.662,2.66v3.61h-3.993c-1.426,0-2.662,1.14-2.662,2.66c0,1.424,1.141,2.659,2.662,2.659h3.993v20.045
			h-4.944c-1.331,0-2.377,0.95-2.566,2.185l-3.613,22.135c-0.095,0.761,0,3.039,2.567,3.039h8.556v13.965
			c0,7.695-6.369,13.967-14.166,13.967c-7.795,0-14.165-6.271-14.165-13.967V88.395h8.557c1.426,0,2.662-1.045,2.662-2.66
			c0-0.282-3.708-22.514-3.708-22.514c-0.189-1.235-1.331-2.185-2.567-2.185h-15.21c-1.332,0-2.377,0.95-2.567,2.185l-3.708,22.135
			c-0.095,0.761,0,3.039,2.567,3.039h8.556v13.965c0,10.643,8.746,19.285,19.49,19.285c5.609,0,10.647-2.375,14.166-6.174v6.271
			c0,1.424,1.141,2.659,2.662,2.659c1.427,0,2.663-1.139,2.663-2.659v-6.271c3.519,3.799,8.651,6.174,14.166,6.174
			c10.742,0,19.488-8.644,19.488-19.285V88.395h8.557c1.426,0,2.662-1.045,2.662-2.66C127.532,85.545,123.824,63.22,123.824,63.22z
			 M38.166,83.17l2.853-16.815h10.552l2.757,16.815H38.166z M71.916,83.17l2.757-16.815h10.554l2.758,16.815H71.916z M105.57,83.17
			l2.758-16.815h10.648l2.756,16.815H105.57z"/>
	</g>
</g>
</svg>
