<?xml version="1.0" encoding="utf-8"?>
<!-- Generator: Adobe Illustrator 16.0.0, SVG Export Plug-In . SVG Version: 6.00 Build 0)  -->
<!DOCTYPE svg PUBLIC "-//W3C//DTD SVG 1.1//EN" "http://www.w3.org/Graphics/SVG/1.1/DTD/svg11.dtd">
<svg version="1.1" id="Layer_1" xmlns="http://www.w3.org/2000/svg" xmlns:xlink="http://www.w3.org/1999/xlink" x="0px" y="0px"
	 width="50px" height="50px" viewBox="21 24.5 50 50" enable-background="new 21 24.5 50 50" xml:space="preserve">
<g>
	<path fill="#FFFFFF" d="M46,30.75c-13.807,0-25,9.796-25,21.878C21.006,64.704,32.193,74.5,46,74.5c13.807,0,25-9.796,25-21.877
		C71,40.546,59.807,30.75,46,30.75z M46,68c-11.096,0-17.833-5.13-17.833-14.833c0-9.704,6.739-16.833,17.833-16.833
		s18,7.624,18,17.333C64,63.375,57.094,68,46,68z M69.589,38.52c0.897-1.367,1.404-2.954,1.404-4.648
		C71,28.699,66.201,24.5,60.283,24.5c-3.451,0-6.518,1.428-8.477,3.643C59.165,29.469,65.49,33.28,69.589,38.52L69.589,38.52
		L69.589,38.52z M40.193,28.143c-1.959-2.215-5.025-3.643-8.477-3.643c-5.918,0-10.71,4.199-10.71,9.377
		c0,1.694,0.514,3.275,1.406,4.648C26.51,33.28,32.835,29.469,40.193,28.143z"/>
	<path fill="#FFFFFF" d="M46,52.628v-12.5h-3.574v15.628h14.285v-3.128H46z"/>
</g>
</svg>
