<?xml version="1.0" encoding="utf-8"?>
<!-- Generator: Adobe Illustrator 16.0.0, SVG Export Plug-In . SVG Version: 6.00 Build 0)  -->
<!DOCTYPE svg PUBLIC "-//W3C//DTD SVG 1.1//EN" "http://www.w3.org/Graphics/SVG/1.1/DTD/svg11.dtd">
<svg version="1.1" id="Layer_1" xmlns="http://www.w3.org/2000/svg" xmlns:xlink="http://www.w3.org/1999/xlink" x="0px" y="0px"
	 width="100px" height="100px" viewBox="0 4 100 100" enable-background="new 0 4 100 100" xml:space="preserve">
<g>
	<path fill="#A8A6A3" d="M50,34.75c-13.807,0-25,9.796-25,21.878C25.006,68.704,36.193,78.5,50,78.5c13.807,0,25-9.796,25-21.877
		C75,44.546,63.807,34.75,50,34.75z M50,72c-11.096,0-17.833-5.13-17.833-14.833c0-9.704,6.739-16.833,17.833-16.833
		s18,7.624,18,17.333C68,67.375,61.094,72,50,72z M73.589,42.52c0.897-1.367,1.404-2.954,1.404-4.648
		C75,32.699,70.201,28.5,64.283,28.5c-3.451,0-6.518,1.428-8.477,3.643C63.165,33.469,69.49,37.28,73.589,42.52L73.589,42.52
		L73.589,42.52z M44.193,32.143c-1.959-2.215-5.025-3.643-8.477-3.643c-5.918,0-10.71,4.199-10.71,9.377
		c0,1.694,0.514,3.275,1.406,4.648C30.51,37.28,36.835,33.469,44.193,32.143z"/>
	<path fill="#A8A6A3" d="M50,56.628v-12.5h-3.574v15.628h14.285v-3.128H50z"/>
</g>
</svg>
