<?xml version="1.0" encoding="utf-8"?>
<!-- Generator: Adobe Illustrator 16.0.0, SVG Export Plug-In . SVG Version: 6.00 Build 0)  -->
<!DOCTYPE svg PUBLIC "-//W3C//DTD SVG 1.1//EN" "http://www.w3.org/Graphics/SVG/1.1/DTD/svg11.dtd">
<svg version="1.1" id="Layer_1" xmlns="http://www.w3.org/2000/svg" xmlns:xlink="http://www.w3.org/1999/xlink" x="0px" y="0px"
	 width="300px" height="300px" viewBox="0 0 300 300" enable-background="new 0 0 300 300" xml:space="preserve">
<title>Group</title>
<desc>Created with Sketch.</desc>
<g id="App-icon">
	<g id="_x35_12---Play-Store-Copy-2">
		<g id="Group">
			<g id="XMLID_6_-link">
				<path id="XMLID_6_" fill="#3F3F3F" d="M257.664,300H42.336C19.222,300,0,281.021,0,257.664V42.336C0,19.222,18.978,0,42.336,0
					h215.328C280.777,0,300,18.978,300,42.336v215.328C299.757,281.021,280.777,300,257.664,300z"/>
			</g>
			<path id="Shape" fill="#FFFFFF" d="M114.712,210.154c19.159,3.395,36.136-2.424,50.444-13.334
				c7.275-5.817,12.854-11.879,17.219-19.152c1.212-2.182,2.426-4.363,3.396-6.787l31.285,39.517l24.979-19.638l-62.57-79.517l0,0
				c-2.183-2.909-4.607-5.576-7.275-8.243c-11.642-10.909-25.465-16.484-41.471-16c-20.613,0.727-37.105,9.939-49.959,25.455
				c-18.917,22.546-19.645,52.123-2.183,75.154C87.55,199.729,99.676,207.487,114.712,210.154z M103.798,168.456
				c-11.397-14.788-9.215-33.455,5.335-44.606c14.551-11.152,33.469-8.486,44.624,6.061c0.242,0.242,0.484,0.729,0.728,0.97l0,0
				l0.242,0.243c9.943,14.061,7.275,32.484-6.547,43.152C133.871,185.427,114.712,182.76,103.798,168.456z"/>
		</g>
	</g>
</g>
</svg>
