<?xml version="1.0" encoding="utf-8"?>
<!-- Generator: Adobe Illustrator 16.0.0, SVG Export Plug-In . SVG Version: 6.00 Build 0)  -->
<!DOCTYPE svg PUBLIC "-//W3C//DTD SVG 1.1//EN" "http://www.w3.org/Graphics/SVG/1.1/DTD/svg11.dtd">
<svg version="1.1" id="Layer_1" xmlns="http://www.w3.org/2000/svg" xmlns:xlink="http://www.w3.org/1999/xlink" x="0px" y="0px"
	 width="109px" height="49px" viewBox="0 0 109 49" enable-background="new 0 0 109 49" xml:space="preserve">
<g>
	<g>
		<g>
			<g>
				<path fill="#FF9400" d="M109,36.621C109,43.457,103.544,49,96.813,49H12.187C5.456,49,0,43.457,0,36.621V12.379
					C0,5.542,5.456,0,12.187,0h84.627C103.544,0,109,5.542,109,12.379V36.621z"/>
			</g>
		</g>
		<g id="Back_21_">
			<polyline id="Fill-207_24_" fill="#FFFFFF" points="23.5,16.949 23.5,12.833 12.385,23.834 23.5,34.666 23.5,30.719 
				16.63,23.834 23.5,16.949 			"/>
		</g>
		<g>
			<path fill="#FFFFFF" d="M38.084,15.372c0.96-0.192,2.904-0.336,4.729-0.336c2.232,0,3.601,0.216,4.776,0.912
				c1.128,0.6,1.944,1.704,1.944,3.168c0,1.44-0.84,2.785-2.665,3.457v0.048c1.849,0.504,3.216,1.896,3.216,3.985
				c0,1.464-0.672,2.615-1.68,3.432c-1.176,0.937-3.144,1.465-6.36,1.465c-1.8,0-3.144-0.121-3.96-0.24V15.372z M41.708,21.564h1.2
				c1.92,0,2.952-0.792,2.952-1.992c0-1.224-0.936-1.872-2.592-1.872c-0.792,0-1.248,0.048-1.56,0.096V21.564z M41.708,28.741
				c0.36,0.048,0.792,0.048,1.416,0.048c1.656,0,3.12-0.624,3.12-2.328c0-1.632-1.464-2.28-3.288-2.28h-1.248V28.741z"/>
			<path fill="#FFFFFF" d="M59.133,31.334l-0.217-1.177h-0.072c-0.768,0.937-1.968,1.44-3.359,1.44
				c-2.376,0-3.792-1.729-3.792-3.601c0-3.048,2.736-4.512,6.888-4.488v-0.168c0-0.624-0.336-1.512-2.137-1.512
				c-1.199,0-2.472,0.408-3.24,0.888l-0.672-2.352c0.816-0.456,2.424-1.032,4.56-1.032c3.912,0,5.16,2.304,5.16,5.064v4.08
				c0,1.129,0.049,2.209,0.168,2.857H59.133z M58.7,25.789c-1.92-0.023-3.408,0.432-3.408,1.848c0,0.937,0.624,1.393,1.44,1.393
				c0.912,0,1.656-0.6,1.896-1.344c0.047-0.192,0.071-0.408,0.071-0.625V25.789z"/>
			<path fill="#FFFFFF" d="M73.939,31.045c-0.646,0.289-1.871,0.529-3.264,0.529c-3.793,0-6.217-2.305-6.217-6.001
				c0-3.433,2.354-6.241,6.721-6.241c0.961,0,2.018,0.168,2.785,0.456l-0.576,2.712c-0.432-0.192-1.08-0.36-2.041-0.36
				c-1.92,0-3.168,1.368-3.145,3.289c0,2.16,1.441,3.287,3.217,3.287c0.865,0,1.537-0.144,2.088-0.359L73.939,31.045z"/>
			<path fill="#FFFFFF" d="M79.604,24.541h0.049c0.264-0.48,0.553-0.96,0.84-1.416l2.377-3.528h4.393l-4.201,4.752l4.801,6.985
				h-4.488l-2.832-4.824l-0.938,1.151v3.673h-3.648V14.292h3.648V24.541z"/>
		</g>
	</g>
</g>
</svg>
