<?xml version="1.0" encoding="utf-8"?>
<!-- Generator: Adobe Illustrator 21.0.0, SVG Export Plug-In . SVG Version: 6.00 Build 0)  -->
<svg version="1.1" id="Layer_1" xmlns="http://www.w3.org/2000/svg" xmlns:xlink="http://www.w3.org/1999/xlink" x="0px" y="0px"
	 width="200px" height="100px" viewBox="0 0 200 100" enable-background="new 0 0 200 100" xml:space="preserve">
<title>Group 7</title>
<desc>Created with Sketch.</desc>
<g id="Page-1">
	<g id="Group-7" transform="translate(-8.000000, -2.000000)">
		
			<text transform="matrix(0.7756 0 0 1 28.4485 97.6182)" fill="#FF9400" font-family="'Raleway-Regular'" font-size="19.6469px" letter-spacing="1.3">Simple is Beautiful</text>
		<g id="Layer_1_1_" transform="translate(8.000000, 10.000000)" opacity="0.8675">
			<g id="Group">
				<path id="Shape" fill="#FFFFFF" d="M13,52.7h25.1v11H0v-0.8v-6.8c0-0.8,0.2-1.4,0.5-1.9C8.3,41.3,16,28.5,23.8,15.6
					c0.1-0.3,0.3-0.4,0.4-0.8H1.3V3.6h36c0,2-0.1,4.1,0,6.1c0.1,1.8-0.3,3.1-1.3,4.6C28.5,26.7,21,39.2,13.6,51.8
					C13.4,52,13.3,52.3,13,52.7z"/>
				<path id="Shape_1_" fill="#FFFFFF" d="M58.9,19.8c5.3,0.1,10.2,2.3,13.9,7.8c2.9,4.2,4.3,9.4,4.2,15C76.9,53.4,71.4,62,63,64.3
					c-5.8,1.5-11.2,0.4-16-4.1c-3.8-3.5-5.9-8.4-6.6-14.4c-0.5-4.8-0.1-9.3,1.6-13.6c2-5.3,5.3-8.8,9.5-10.9
					C53.8,20.2,56.2,19.8,58.9,19.8z M67.9,42.4c0.1-6.8-3.9-12-9-12.1c-5.3-0.1-9.3,5-9.3,11.8c-0.1,6.9,3.8,12.1,9,12.3
					C63.9,54.5,67.8,49.5,67.9,42.4z"/>
				<path id="Shape_2_" fill="#FFFFFF" d="M103.3,21.1v10.3c-1.6,0-3.3-0.3-4.8,0c-3.3,0.7-5.7,1.9-7.4,5.6
					c-0.2,0.4-0.4,1.9-0.4,2.3v23.1v1.1h-9.4V20.7h9.4v4.2C94.6,22.1,98.1,21,103.3,21.1z"/>
				<path id="Shape_3_" fill="#FFFFFF" d="M140.1,27c-3.8-5.4-8.6-7.8-13.9-7.8c-2.7,0-5.2,0.5-7.4,1.6c-0.7,0.4-1.4,0.7-2,1.1V3
					h-9.3v38.1l0,0c0,1.4,0,2.7,0.2,4.1c0.7,6,2.8,10.9,6.6,14.4c4.8,4.6,10.3,5.7,16,4.1c8.4-2.3,13.9-10.9,14-21.8
					C144.5,36.2,143.1,31.2,140.1,27z M135.1,41.8c-0.1,7.1-4,12.1-9.3,12c-5.3-0.1-9.2-5.3-9-12.3v-0.4l0,0V41
					c0.2-6.5,4.2-11.3,9.3-11.3C131.3,29.8,135.2,35,135.1,41.8z"/>
				<path id="Shape_4_" fill="#FFFFFF" d="M162.7,63.3c5.6,1.2,10.5-0.8,14.7-5c2.1-2.2,3.8-4.5,5.1-7.2c0.4-0.8,0.7-1.6,1.1-2.5
					l9,14.8l7.3-7.4l-18.2-30l0,0c-0.6-1.1-1.4-2-2.1-3.1c-3.4-4.1-7.5-6.3-12.1-6c-6,0.3-10.7,3.8-14.5,9.5
					c-5.6,8.6-5.7,19.6-0.6,28.3C154.8,59.5,158.3,62.4,162.7,63.3z M159.5,47.7c-3.3-5.6-2.6-12.7,1.6-16.9s9.7-3.3,12.9,2.3
					c0.1,0.1,0.1,0.3,0.2,0.4l0,0v0.1c2.9,5.3,2.1,12.3-1.9,16.3C168.2,54.1,162.7,53.1,159.5,47.7z"/>
			</g>
		</g>
		<text transform="matrix(0.7756 0 0 1 197.0012 10.4346)" fill="#FF9400" font-family="'Helvetica'" font-size="9.8234px">TM</text>
	</g>
</g>
</svg>
