<?xml version="1.0" encoding="utf-8"?>
<!-- Generator: Adobe Illustrator 16.0.0, SVG Export Plug-In . SVG Version: 6.00 Build 0)  -->
<!DOCTYPE svg PUBLIC "-//W3C//DTD SVG 1.1//EN" "http://www.w3.org/Graphics/SVG/1.1/DTD/svg11.dtd">
<svg version="1.1" id="Layer_1" xmlns="http://www.w3.org/2000/svg" xmlns:xlink="http://www.w3.org/1999/xlink" x="0px" y="0px"
	 width="50px" height="50px" viewBox="0 0 50 50" enable-background="new 0 0 50 50" xml:space="preserve">
<g>
	<path fill="#F7F2ED" d="M14.152,20.16c3.2,2.1,3.2,2.1,7.1,4.5c3.899,2.5,3.899,2.5,7.1,4.5c2.6,1.7,2.6,1.7,3.199,2.101
		l0.015-2.504l-9.714,5.521l2.95,1.167l-0.04-22.654l-2.911,1.737l9.534,5.75l0.066-2.317l-17.4,10.8c-0.5,0.3-0.7,1-0.3,1.5
		c0.4,0.5,1.1,0.6,1.7,0.3l17.6-10.9c0.701-0.4,0.701-1.3,0-1.7l-9.299-5.8c-0.8-0.5-1.9,0-1.9,0.9V35.96c0,0.801,1,1.301,1.8,0.9
		l9.399-5.3c0.701-0.4,0.701-1.3,0.1-1.8c-0.699-0.4-0.699-0.4-3.199-2.101c-3.199-2.1-3.628-2.374-7.529-4.775
		c-3.9-2.5-3.471-2.225-6.671-4.225c-0.5-0.3-1.3-0.2-1.7,0.2S13.552,19.86,14.152,20.16L14.152,20.16z"/>
</g>
</svg>
