<?xml version="1.0" encoding="utf-8"?>
<!-- Generator: Adobe Illustrator 16.0.0, SVG Export Plug-In . SVG Version: 6.00 Build 0)  -->
<!DOCTYPE svg PUBLIC "-//W3C//DTD SVG 1.1//EN" "http://www.w3.org/Graphics/SVG/1.1/DTD/svg11.dtd">
<svg version="1.1" id="Layer_1" xmlns="http://www.w3.org/2000/svg" xmlns:xlink="http://www.w3.org/1999/xlink" x="0px" y="0px"
	 width="160px" height="160px" viewBox="-69.5 -69.5 160 160" enable-background="new -69.5 -69.5 160 160" xml:space="preserve">
<title>Chandelier</title>
<desc>Created with Sketch.</desc>
<g id="Symbols">
	<g id="Chandelier">
		<path id="Shape" fill="#A8A6A3" d="M52-4c-0.2-1.3-1.2-2.3-2.5-2.3H35.3c-1.2,0-2.3,1-2.5,2.3l-3.5,23.3c-0.1,0.8,0,3.2,2.5,3.2
			h8.1v14.7c0,8.1-6,14.7-13.5,14.7C19,52,13,45.4,13,37.3V22.5h8.1c1.4,0,2.5-1.1,2.5-2.8c0-0.3-3.5-23.7-3.5-23.7
			c-0.2-1.3-1.2-2.3-2.5-2.3H13v-21.1h3.7c1.4,0,2.5-1.2,2.5-2.8S18.1-33,16.8-33H13v-3.8c0-1.5-1.1-2.8-2.5-2.8
			c-1.4,0-2.5,1.2-2.5,2.8v3.8H4.3c-1.4,0-2.5,1.2-2.5,2.8s1.1,2.8,2.5,2.8H8v21.1H3.3c-1.2,0-2.3,1-2.5,2.3l-3.5,23.3
			c-0.1,0.8,0,3.2,2.5,3.2H8v14.7C8,45.4,2,52-5.4,52c-7.4,0-13.5-6.6-13.5-14.7V22.5h8.1c1.4,0,2.5-1.1,2.5-2.8
			c0-0.3-3.5-23.7-3.5-23.7C-12-5.3-13-6.3-14.3-6.3h-14.3c-1.2,0-2.3,1-2.5,2.3l-3.5,23.3c-0.1,0.8,0,3.2,2.5,3.2h8.1v14.7
			c0,11.2,8.3,20.3,18.4,20.3c5.3,0,10.1-2.5,13.5-6.5v6.6c0,1.5,1.1,2.8,2.5,2.8c1.4,0,2.5-1.2,2.5-2.8v-6.6
			c3.4,4,8.2,6.5,13.5,6.5c10.2,0,18.4-9.1,18.4-20.3V22.5H53c1.4,0,2.5-1.1,2.5-2.8C55.5,19.5,52-4,52-4z M-29.1,17l2.6-17.7h10
			l2.6,17.7H-29.1z M2.8,17L5.5-0.7h10L18.2,17H2.8z M34.7,17l2.6-17.7h10L50.1,17H34.7z"/>
	</g>
</g>
</svg>
