<?xml version="1.0" encoding="utf-8"?>
<!-- Generator: Adobe Illustrator 16.0.0, SVG Export Plug-In . SVG Version: 6.00 Build 0)  -->
<!DOCTYPE svg PUBLIC "-//W3C//DTD SVG 1.1//EN" "http://www.w3.org/Graphics/SVG/1.1/DTD/svg11.dtd">
<svg version="1.1" id="Layer_1" xmlns="http://www.w3.org/2000/svg" xmlns:xlink="http://www.w3.org/1999/xlink" x="0px" y="0px"
	 width="50px" height="50px" viewBox="0 0 50 50" enable-background="new 0 0 50 50" xml:space="preserve">
<title>Change Password</title>
<desc>Created with Sketch.</desc>
<g id="Page-1">
	<g id="Change-Password_1_">
		<g id="Symbols">
			<g id="Change-Password">
				<path id="Shape" fill="#FF9400" d="M25.904,34.303l-4.215,4.43h-3.471v3.384h-3.471V45.5H4.5v-8.378l11.817-11.681
					C18.218,29.551,21.689,32.691,25.904,34.303z M45.82,18.675c0,7.411-6.198,13.453-13.801,13.453
					c-7.604,0-13.801-6.042-13.801-13.453c0-7.411,6.198-13.453,13.801-13.453C39.622,5.222,45.82,11.264,45.82,18.675z
					 M40.696,13.6c0-1.853-1.57-3.383-3.472-3.383c-1.9,0-3.469,1.53-3.469,3.383c0,1.853,1.568,3.384,3.469,3.384
					C39.126,16.983,40.696,15.453,40.696,13.6z"/>
			</g>
		</g>
	</g>
</g>
</svg>
