<?xml version="1.0" encoding="utf-8"?>
<!-- Generator: Adobe Illustrator 21.0.0, SVG Export Plug-In . SVG Version: 6.00 Build 0)  -->
<svg version="1.1" id="Layer_1" xmlns="http://www.w3.org/2000/svg" xmlns:xlink="http://www.w3.org/1999/xlink" x="0px" y="0px"
	 width="50px" height="50px" viewBox="0 0 50 50" enable-background="new 0 0 50 50" xml:space="preserve">
<title>Change Password</title>
<desc>Created with Sketch.</desc>
<g id="Page-1">
	<g id="Change-Password_1_">
		<g id="Symbols">
			<g id="Change-Password">
				<path id="Shape" fill="#EF1851" d="M25.9,36.1l-5.1,5.5h-4.2v4.2h-4.2V50H0V39.6l14.3-14.5C16.6,30.2,20.8,34.1,25.9,36.1z
					 M50,16.7c0,9.2-7.5,16.7-16.7,16.7s-16.7-7.5-16.7-16.7S24.1,0,33.3,0S50,7.5,50,16.7z M43.8,10.4c0-2.3-1.9-4.2-4.2-4.2
					c-2.3,0-4.2,1.9-4.2,4.2s1.9,4.2,4.2,4.2C41.9,14.6,43.8,12.7,43.8,10.4z"/>
			</g>
		</g>
	</g>
</g>
</svg>
