<?xml version="1.0" encoding="utf-8"?>
<!-- Generator: Adobe Illustrator 21.0.0, SVG Export Plug-In . SVG Version: 6.00 Build 0)  -->
<svg version="1.1" id="Layer_1" xmlns="http://www.w3.org/2000/svg" xmlns:xlink="http://www.w3.org/1999/xlink" x="0px" y="0px"
	 width="50px" height="65px" viewBox="0 0 50 65" enable-background="new 0 0 50 65" xml:space="preserve">
<title>changepassword120160</title>
<desc>Created with Sketch.</desc>
<g id="Page-1">
	<g id="changepassword120160">
		<g id="Symbols">
			<g id="Change-Password">
				<path id="Shape" fill="#FF9400" d="M26,47l-5.1,7.2h-4.2v5.4h-4.2V65H0V51.5l14.3-18.8C16.5,39.2,20.8,44.4,26,47z M50,21.7
					c0,12-7.5,21.7-16.7,21.7s-16.7-9.7-16.7-21.7S24.1,0,33.3,0S50,9.7,50,21.7z M43.8,13.5c0-3-1.9-5.4-4.2-5.4
					c-2.3,0-4.2,2.4-4.2,5.4c0,3,1.9,5.4,4.2,5.4C41.9,18.9,43.8,16.5,43.8,13.5z"/>
			</g>
		</g>
	</g>
</g>
</svg>
