<?xml version="1.0" encoding="UTF-8"?>
<svg width="50px" height="50px" viewBox="0 0 50 50" version="1.1" xmlns="http://www.w3.org/2000/svg" xmlns:xlink="http://www.w3.org/1999/xlink">
    <!-- Generator: Sketch 41.2 (35397) - http://www.bohemiancoding.com/sketch -->
    <title>changepassword</title>
    <desc>Created with Sketch.</desc>
    <defs></defs>
    <g id="Page-1" stroke="none" stroke-width="1" fill="none" fill-rule="evenodd">
        <g id="changepassword" fill="#FF9400">
            <g id="Symbols">
                <g id="Change-Password">
                    <path d="M25.9395833,36.11875 L20.8333333,41.6666666 L16.6666667,41.6666666 L16.6666667,45.8333334 L12.5,45.8333334 L12.5,50 L0,50 L0,39.5833334 L14.3020833,25.10625 C16.5520833,30.15625 20.75,34.1395834 25.9395833,36.11875 Z M50,16.6666667 C50,25.8708333 42.5375,33.3333334 33.3333334,33.3333334 C24.1291667,33.3333334 16.6666667,25.8708333 16.6666667,16.6666667 C16.6666667,7.4625 24.1291667,0 33.3333334,0 C42.5375,0 50,7.4625 50,16.6666667 Z M43.75,10.4166667 C43.75,8.11666666 41.8833334,6.25 39.5833334,6.25 C37.2833334,6.25 35.4166666,8.11666666 35.4166666,10.4166667 C35.4166666,12.7166667 37.2833334,14.5833333 39.5833334,14.5833333 C41.8833334,14.5833333 43.75,12.7166667 43.75,10.4166667 Z" id="Shape"></path>
                </g>
            </g>
        </g>
    </g>
</svg>