<?xml version="1.0" encoding="UTF-8" standalone="no"?>
<svg width="16px" height="16px" viewBox="0 0 16 16" version="1.1" xmlns="http://www.w3.org/2000/svg" xmlns:xlink="http://www.w3.org/1999/xlink">
    <!-- Generator: Sketch 41.1 (35376) - http://www.bohemiancoding.com/sketch -->
    <title>Change Password</title>
    <desc>Created with Sketch.</desc>
    <defs></defs>
    <g id="Symbols" stroke="none" stroke-width="1" fill="none" fill-rule="evenodd">
        <g id="Change-Password" fill="#FF9400">
            <path d="M8.30066667,11.558 L6.66666667,13.3333333 L5.33333333,13.3333333 L5.33333333,14.6666667 L4,14.6666667 L4,16 L0,16 L0,12.6666667 L4.57666667,8.034 C5.29666667,9.65 6.64,10.9246667 8.30066667,11.558 Z M16,5.33333333 C16,8.27866667 13.612,10.6666667 10.6666667,10.6666667 C7.72133333,10.6666667 5.33333333,8.27866667 5.33333333,5.33333333 C5.33333333,2.388 7.72133333,0 10.6666667,0 C13.612,0 16,2.388 16,5.33333333 Z M14,3.33333333 C14,2.59733333 13.4026667,2 12.6666667,2 C11.9306667,2 11.3333333,2.59733333 11.3333333,3.33333333 C11.3333333,4.06933333 11.9306667,4.66666667 12.6666667,4.66666667 C13.4026667,4.66666667 14,4.06933333 14,3.33333333 Z" id="Shape"></path>
        </g>
    </g>
</svg>