<?xml version="1.0" encoding="utf-8"?>
<!-- Generator: Adobe Illustrator 21.0.0, SVG Export Plug-In . SVG Version: 6.00 Build 0)  -->
<svg version="1.1" id="Layer_1" xmlns="http://www.w3.org/2000/svg" xmlns:xlink="http://www.w3.org/1999/xlink" x="0px" y="0px"
	 width="16px" height="16px" viewBox="0 0 16 16" style="enable-background:new 0 0 16 16;" xml:space="preserve">
<style type="text/css">
	.st0{fill:#FF9400;}
</style>
<title>Change Password</title>
<desc>Created with Sketch.</desc>
<g id="Symbols">
	<g id="Change-Password">
		<path id="Shape" class="st0" d="M10.3,43.6L-2,61.3h-10v13.3h-10V88h-30V54.7l34.3-46.3C-12.3,24.5-2.2,37.2,10.3,43.6z M68-18.7
			c0,29.5-17.9,53.3-40,53.3s-40-23.9-40-53.3S5.9-72,28-72S68-48.1,68-18.7z M53-38.7C53-46,48.5-52,43-52s-10,6-10,13.3
			c0,7.4,4.5,13.3,10,13.3S53-31.3,53-38.7z"/>
	</g>
</g>
</svg>
