<?xml version="1.0" encoding="utf-8"?>
<!-- Generator: Adobe Illustrator 21.0.0, SVG Export Plug-In . SVG Version: 6.00 Build 0)  -->
<svg version="1.1" id="Layer_1" xmlns="http://www.w3.org/2000/svg" xmlns:xlink="http://www.w3.org/1999/xlink" x="0px" y="0px"
	 width="25px" height="25px" viewBox="0 0 25 25" enable-background="new 0 0 25 25" xml:space="preserve">
<title>changepassword120160</title>
<desc>Created with Sketch.</desc>
<g id="Page-1">
	<g id="changepassword120160">
		<g id="Symbols">
			<g id="Change-Password">
				<path id="Shape" fill="#FF9400" d="M13,18.1l-2.6,2.8H8.3v2.1H6.2V25H0v-5.2l7.1-7.2C8.3,15.1,10.4,17.1,13,18.1z M25,8.3
					c0,4.6-3.7,8.3-8.3,8.3s-8.3-3.7-8.3-8.3S12.1,0,16.7,0S25,3.7,25,8.3z M21.9,5.2c0-1.1-0.9-2.1-2.1-2.1c-1.1,0-2.1,0.9-2.1,2.1
					c0,1.2,0.9,2.1,2.1,2.1C20.9,7.3,21.9,6.4,21.9,5.2z"/>
			</g>
		</g>
	</g>
</g>
</svg>
