<?xml version="1.0" encoding="UTF-8"?>
<svg width="50px" height="65px" viewBox="0 0 50 65" version="1.1" xmlns="http://www.w3.org/2000/svg" xmlns:xlink="http://www.w3.org/1999/xlink">
    <!-- Generator: Sketch 41.2 (35397) - http://www.bohemiancoding.com/sketch -->
    <title>changepassword120160</title>
    <desc>Created with Sketch.</desc>
    <defs></defs>
    <g id="Page-1" stroke="none" stroke-width="1" fill="none" fill-rule="evenodd">
        <g id="changepassword120160" fill="#FF9400">
            <g id="Symbols">
                <g id="Change-Password">
                    <path d="M25.9583333,46.9625 L20.8333333,54.153125 L16.6666667,54.153125 L16.6666667,59.55625 L12.5,59.55625 L12.5,65 L0,65 L0,51.471875 L14.2916667,32.6625 C16.5416667,39.203125 20.75,44.3625 25.9583333,46.9625 Z M50,21.653125 C50,33.6375 42.5416667,43.30625 33.3333333,43.30625 C24.125,43.30625 16.6666667,33.596875 16.6666667,21.653125 C16.6666667,9.709375 24.125,0 33.3333333,0 C42.5416667,0 50,9.709375 50,21.653125 Z M43.75,13.528125 C43.75,10.5625 41.875,8.125 39.5833333,8.125 C37.2916667,8.125 35.4166667,10.5625 35.4166667,13.528125 C35.4166667,16.534375 37.2916667,18.93125 39.5833333,18.93125 C41.875,18.93125 43.75,16.534375 43.75,13.528125 Z" id="Shape"></path>
                </g>
            </g>
        </g>
    </g>
</svg>