<?xml version="1.0" encoding="utf-8"?>
<!-- Generator: Adobe Illustrator 21.0.0, SVG Export Plug-In . SVG Version: 6.00 Build 0)  -->
<svg version="1.1" id="Layer_1" xmlns="http://www.w3.org/2000/svg" xmlns:xlink="http://www.w3.org/1999/xlink" x="0px" y="0px"
	 width="50px" height="50px" viewBox="0 0 50 50" enable-background="new 0 0 50 50" xml:space="preserve">
<title>Device Config</title>
<desc>Created with Sketch.</desc>
<g id="Page-1">
	<g id="Device-Config_1_">
		<g id="Symbols">
			<g id="Device-Config">
				<path id="Shape" fill="#E81C4D" d="M30,39.6H20c-0.7,0-1.2,0.5-1.2,1s0.6,1,1.2,1h10c0.7,0,1.2-0.5,1.2-1S30.7,39.6,30,39.6z
					 M30,43.8H20c-0.7,0-1.2,0.5-1.2,1c0,0.6,0.6,1,1.2,1h10c0.7,0,1.2-0.5,1.2-1C31.2,44.2,30.7,43.8,30,43.8z M30.6,47.9H19.4
					l3,1.6c0.4,0.3,1,0.5,1.5,0.5h2.2c0.6,0,1.2-0.2,1.5-0.5L30.6,47.9z M40,19.2c0,7.4-8,12.5-8,18.3H18c0-5.9-8-10.9-8-18.3
					c0-7.8,7.5-12,15-12C32.5,7.1,40,11.4,40,19.2z M50,17.7v2.9h-6.3c0.1-0.5,0.1-0.9,0.1-1.4c0-0.5,0-1-0.1-1.4L50,17.7L50,17.7z
					 M23.4,4.1V0h3.4v4.1C26.2,4,25.6,4,25,4C24.5,4,23.9,4,23.4,4.1z M37.2,7.3l3.9-3.6l2.5,1.9l-4,3.7C39,8.7,38.2,7.9,37.2,7.3
					L37.2,7.3z M10.3,9.3l-4-3.7l2.5-1.9l3.9,3.6C11.8,7.9,11,8.7,10.3,9.3z M6.3,20.6H0v-2.9h6.3c0,0.5-0.1,0.9-0.1,1.4
					C6.2,19.7,6.3,20.1,6.3,20.6L6.3,20.6z"/>
			</g>
		</g>
	</g>
</g>
</svg>
