<?xml version="1.0" encoding="utf-8"?>
<!-- Generator: Adobe Illustrator 16.0.0, SVG Export Plug-In . SVG Version: 6.00 Build 0)  -->
<!DOCTYPE svg PUBLIC "-//W3C//DTD SVG 1.1//EN" "http://www.w3.org/Graphics/SVG/1.1/DTD/svg11.dtd">
<svg version="1.1" id="Layer_1" xmlns="http://www.w3.org/2000/svg" xmlns:xlink="http://www.w3.org/1999/xlink" x="0px" y="0px"
	 width="50px" height="50px" viewBox="0 0 50 50" enable-background="new 0 0 50 50" xml:space="preserve">
<g>
	<path fill="#FF9400" d="M25.005,1C11.206,1-0.417,11.977,0.012,25.5c0.158,5.046,1.204,8.914,3.694,12.817l5.021-2.69
		C6.669,32.511,6,29.485,6,25.5C6,14.453,13.529,7.043,24.801,7.043c11.271,0,19.367,7.409,19.367,18.457
		c0,11.046-8.098,18.306-19.367,18.306c-5.117,0-9.053-0.879-12.634-3.932l-3.58,4.095C13.051,48.035,18.44,50,25.01,50
		C38.812,50,50,39.034,50,25.5C50,11.967,38.812,1,25.005,1L25.005,1z"/>
	<path fill="#FF9400" d="M8.726,44.089c-0.193-0.16-0.347-0.355-0.459-0.564L8.726,44.089z"/>
	<path fill="#FF9400" d="M3.7,38.307c-0.092-0.158-0.158-0.339-0.188-0.535L3.7,38.307z"/>
	<path fill="#FF9400" d="M27.059,31.592c0,1.222-1.014,2.211-2.256,2.211l0,0c-1.245,0-2.255-0.989-2.255-2.211V17.994
		c0-1.22,1.01-2.21,2.255-2.21l0,0c1.245,0,2.256,0.99,2.256,2.21V31.592L27.059,31.592z"/>
</g>
<path fill="#FF9400" d="M31.602,22.538c1.221,0,2.211,1.013,2.211,2.255l0,0c0,1.245-0.99,2.256-2.211,2.256H18.003
	c-1.22,0-2.21-1.01-2.21-2.256l0,0c0-1.244,0.99-2.255,2.21-2.255H31.602L31.602,22.538z"/>
</svg>
