<?xml version="1.0" encoding="utf-8"?>
<!-- Generator: Adobe Illustrator 16.0.0, SVG Export Plug-In . SVG Version: 6.00 Build 0)  -->
<!DOCTYPE svg PUBLIC "-//W3C//DTD SVG 1.1//EN" "http://www.w3.org/Graphics/SVG/1.1/DTD/svg11.dtd">
<svg version="1.1" id="Layer_1" xmlns="http://www.w3.org/2000/svg" xmlns:xlink="http://www.w3.org/1999/xlink" x="0px" y="0px"
	 width="160px" height="160px" viewBox="0 0 160 160" enable-background="new 0 0 160 160" xml:space="preserve">
<title>Dinner</title>
<desc>Created with Sketch.</desc>
<g id="Dinner">
	<g id="Group-2" transform="translate(1.000000, 4.500000)">
		<path id="Shape_1_" fill="#FFFFFF" d="M88.541,118c18.199,0,32.959-19.031,32.959-42.5c0-23.471-14.76-42.5-32.959-42.5
			c-18.202,0-32.958,19.029-32.958,42.5C55.582,98.969,70.339,118,88.541,118L88.541,118z M88.541,113.524
			c-16.287,0-29.489-17.026-29.489-38.024c0-21.001,13.203-38.027,29.489-38.027c16.283,0,29.486,17.026,29.486,38.027
			C118.027,96.498,104.824,113.524,88.541,113.524L88.541,113.524z"/>
		<path id="Shape_2_" fill="#FFFFFF" d="M88.541,100.104c10.539,0,19.082-11.017,19.082-24.604c0-13.59-8.543-24.604-19.082-24.604
			c-10.539,0-19.083,11.014-19.083,24.604C69.458,89.088,78.002,100.104,88.541,100.104L88.541,100.104z M88.541,95.635
			c-8.623,0-15.612-9.018-15.612-20.134c0-11.12,6.989-20.131,15.612-20.131S104.15,64.38,104.15,75.5
			C104.15,86.617,97.164,95.635,88.541,95.635L88.541,95.635z"/>
		<path id="Shape_4_" fill="#FFFFFF" d="M46.908,59.841v17.897c0,1.234-0.775,2.237-1.733,2.237c-0.96,0-1.736-1.003-1.736-2.237
			V59.841c-4.644-0.01-6.938-4.522-6.938-11.173V35.237c0-1.235,0.776-2.238,1.736-2.238c0.958,0,1.733,1.003,1.733,2.238v13.431
			c0,4.476,1.124,6.69,3.469,6.701V35.238c0-1.235,0.776-2.238,1.736-2.238c0.958,0,1.733,1.003,1.733,2.238V55.37
			c2.359-0.01,3.469-2.205,3.469-6.701V35.242c0-1.235,0.779-2.234,1.736-2.234c0.958,0,1.733,0.999,1.733,2.234v13.427
			C53.846,55.339,51.565,59.833,46.908,59.841L46.908,59.841z"/>
		<path id="Shape_5_" fill="#FFFFFF" d="M46.908,79.977v33.549h-3.469V79.977H46.908z M41.705,75.5c-0.96,0-1.736,1.003-1.736,2.238
			v38.023c0,1.234,0.776,2.238,1.736,2.238h6.938c0.958,0,1.733-1.004,1.733-2.238V77.738c0-1.234-0.775-2.238-1.733-2.238H41.705
			L41.705,75.5z"/>
	</g>
</g>
</svg>
