<?xml version="1.0" encoding="utf-8"?>
<!-- Generator: Adobe Illustrator 21.0.0, SVG Export Plug-In . SVG Version: 6.00 Build 0)  -->
<svg version="1.1" id="Layer_1" xmlns="http://www.w3.org/2000/svg" xmlns:xlink="http://www.w3.org/1999/xlink" x="0px" y="0px"
	 width="160px" height="160px" viewBox="0 0 160 160" enable-background="new 0 0 160 160" xml:space="preserve">
<title>Dinner</title>
<desc>Created with Sketch.</desc>
<g id="Symbols">
	<g id="Dinner">
		<path id="Shape" fill="none" d="M23,22"/>
		<path id="Shape_1_" fill="none" d="M23,22"/>
		<path id="Shape_2_" fill="#FF9400" d="M57.3,79.9c1.4,0.7,2.9,0.9,4.5,0.9c3.8,0,7.5-1.9,9.3-5.1c0.4-0.6,0.6-1.2,0.8-1.8
			c0.1-0.6-0.1-1-0.6-1.2l-16-6.7c-0.5-0.2-1.2-0.1-1.5,0.3c-0.4,0.4-0.8,1-1.2,1.6C50,72.3,52.2,77.8,57.3,79.9z M54.9,68.8
			c0.1-0.1,0.1-0.3,0.3-0.4L69,74.2c-0.1,0.2-0.1,0.3-0.3,0.6c-1.9,3.4-6.5,4.8-10.4,3.1C54.5,76.3,52.9,72.1,54.9,68.8z"/>
		<path id="Shape_3_" fill="#FF9400" d="M59.3,76.1c0.3,0.1,0.4,0.1,0.6,0.1c0.5,0,0.9-0.2,1.2-0.7l0.5-0.8c0.3-0.6,0-1.2-0.6-1.5
			c-0.6-0.2-1.4,0-1.7,0.6l-0.5,0.8C58.4,75.2,58.7,75.8,59.3,76.1z"/>
		<path id="Shape_4_" fill="#FF9400" d="M23,22"/>
		<path id="Shape_5_" fill="#FF9400" d="M63.3,76.4c0.3,0.3,0.6,0.7,1.2,0.7c0.3,0,0.4,0,0.5-0.1c0.6-0.2,0.9-0.9,0.5-1.5l-0.6-1.1
			c-0.3-0.6-1-0.8-1.7-0.4c-0.6,0.2-0.9,0.9-0.5,1.5L63.3,76.4z"/>
		<path id="Shape_6_" fill="#FF9400" d="M23,22"/>
		<path id="Shape_7_" fill="#FF9400" d="M23,22"/>
		<path id="Shape_8_" fill="#FF9400" d="M44.9,78.1c3.1,4.4,9.1,6.7,17.9,6.8v34.8h-8.1c-0.8,0-1.3,0.4-1.3,1.1
			c0,0.7,0.5,1.1,1.3,1.1h18.8c0.8,0,1.3-0.4,1.3-1.1c0-0.7-0.5-1.1-1.3-1.1h-8.1V84.9c8.8-0.1,14.8-2.5,17.9-6.8
			c5.9-8.4-1.3-21.3-1.7-21.8c-0.3-0.3-0.6-0.6-1.2-0.6H64.3h-0.3h-0.3H47.7c-0.5,0-0.9,0.2-1.2,0.6C46.3,56.8,39,69.7,44.9,78.1z
			 M48.6,57.9h15.2h0.3h0.3h15.2c0.5,1,1.4,2.9,2.2,5.4c-1.7,0.6-3.8,1-7.2,1c-4.2,0-6.5-0.8-9-1.7c-2.6-0.9-5.1-1.8-9.8-1.8
			c-4.3,0-6.9,0.8-9.2,1.6C47.3,60.4,48.1,58.7,48.6,57.9z M45.9,65v0.1l0.9-0.3c2.4-0.9,4.7-1.7,9-1.7s6.5,0.8,9,1.7
			c2.6,0.9,5.1,1.8,9.8,1.8c3.6,0,5.9-0.6,7.7-1.1c0.9,3.7,1,8.1-1.4,11.3c-2.7,3.8-8.3,5.8-16.6,5.8h-0.1h-0.1h-0.1h-0.1
			c-8.3,0-13.9-1.9-16.6-5.8C44.6,73.4,44.9,68.8,45.9,65z"/>
		<path id="Shape_9_" fill="#FF9400" d="M120.3,58.1c2.8,0,5.5-0.8,7.7-2.2c3.2-2.1,5-5.6,5-9.1c0-6.5-6-11.9-13.6-11.9
			c-7,0-12.9,4.8-13.4,10.9H88.5c-0.4,0-0.9,0.2-1,0.6c-0.3,0.3-0.3,0.7-0.1,1.1c0.1,0.1,6.5,12.7,3.2,24.8
			c-5.5,20.5-1.4,32.8,12.2,36.6v10.9h-8.1c-0.8,0-1.3,0.4-1.3,1.1c0,0.7,0.5,1.1,1.3,1.1h18.5c0.8,0,1.3-0.4,1.3-1.1
			c0-0.7-0.5-1.1-1.3-1.1h-8.1v-10.9c13.7-3.8,17.8-16.1,12.3-36.7c-1.4-5.1-1-10.1-0.3-14.4C118.3,58,119.3,58.1,120.3,58.1z
			 M119.6,37.1c6,0,11,4.4,11,9.7c0,2.9-1.5,5.6-4,7.4c-1.7,1.1-4.6,2.4-8.7,1.6c1.2-4.9,2.9-8.2,2.9-8.3c0.1-0.3,0.1-0.8-0.1-1.1
			c-0.3-0.3-0.6-0.6-1-0.6h-10.9C109.2,40.9,113.8,37.1,119.6,37.1z M104,106.8c-12.7-3.3-16.4-14.5-11-34.1
			c1.2-4.5,1.2-8.9,0.6-12.8l0.3-0.1c1.4-1,2.7-1.8,5-1.8c2.3,0,3.6,0.8,5,1.8c1.5,1,3.3,2.2,6.5,2.2c1.5,0,2.7-0.2,3.6-0.7
			c-0.4,3.6-0.1,7.4,0.9,11.3C120.3,92.5,116.8,103.6,104,106.8z M114.5,58.6c-1,0.6-2.2,1.1-4,1.1c-2.3,0-3.6-0.8-5-1.8
			c-1.5-1-3.3-2.2-6.5-2.2c-2.6,0-4.2,0.8-5.6,1.7c-0.8-4.2-2-7.5-2.9-9.3h27.2C116.8,50,115.2,53.8,114.5,58.6z M23,22 M23,22"/>
		<path id="Shape_10_" fill="#FF9400" d="M124.2,52.4c0.3,0.2,0.6,0.3,0.9,0.3c0.3,0,0.6-0.1,0.9-0.3c0.5-0.4,0.5-1.1,0-1.6l-2-1.8
			c-0.5-0.4-1.3-0.4-1.8,0c-0.5,0.4-0.5,1.1,0,1.6L124.2,52.4z"/>
		<path id="Shape_11_" fill="#FF9400" d="M114.8,41c-0.5-0.4-1.3-0.4-1.8,0c-0.5,0.4-0.5,1.1,0,1.6l2,1.8c0.3,0.2,0.6,0.3,0.9,0.3
			s0.6-0.1,0.9-0.3c0.5-0.4,0.5-1.1,0-1.6L114.8,41z"/>
		<path id="Shape_12_" fill="#FF9400" d="M123,44.9c0.4,0,0.6-0.1,0.9-0.3l2-1.8c0.5-0.4,0.5-1.1,0-1.6c-0.5-0.4-1.3-0.4-1.8,0
			l-2,1.8c-0.5,0.4-0.5,1.1,0,1.6C122.3,44.7,122.6,44.9,123,44.9z"/>
	</g>
</g>
</svg>
