<?xml version="1.0" encoding="utf-8"?>
<!-- Generator: Adobe Illustrator 16.0.0, SVG Export Plug-In . SVG Version: 6.00 Build 0)  -->
<!DOCTYPE svg PUBLIC "-//W3C//DTD SVG 1.1//EN" "http://www.w3.org/Graphics/SVG/1.1/DTD/svg11.dtd">
<svg version="1.1" id="Layer_1" xmlns="http://www.w3.org/2000/svg" xmlns:xlink="http://www.w3.org/1999/xlink" x="0px" y="0px"
	 width="160px" height="160px" viewBox="0 0 160 160" enable-background="new 0 0 160 160" xml:space="preserve">
<title>Dinner</title>
<desc>Created with Sketch.</desc>
<g id="Dinner">
	<g id="Group-2" transform="translate(1.000000, 4.500000)">
		<path id="Shape_1_" fill="#FFFFFF" d="M89.103,111.5c19.27,0,34.898-16.121,34.898-36c0-19.881-15.629-36-34.898-36
			c-19.273,0-34.897,16.119-34.897,36C54.204,95.379,69.829,111.5,89.103,111.5L89.103,111.5z M89.103,107.708
			c-17.246,0-31.225-14.422-31.225-32.208c0-17.789,13.98-32.21,31.225-32.21c17.241,0,31.221,14.421,31.221,32.21
			C120.323,93.286,106.344,107.708,89.103,107.708L89.103,107.708z"/>
		<path id="Shape_2_" fill="#FFFFFF" d="M89.103,96.341c11.159,0,20.204-9.332,20.204-20.841c0-11.512-9.045-20.84-20.204-20.84
			S68.896,63.988,68.896,75.5C68.896,87.01,77.943,96.341,89.103,96.341L89.103,96.341z M89.103,92.555
			c-9.131,0-16.531-7.639-16.531-17.054c0-9.419,7.4-17.052,16.531-17.052c9.13,0,16.527,7.632,16.527,17.051
			C105.63,84.916,98.232,92.555,89.103,92.555L89.103,92.555z"/>
		<path id="Shape_4_" fill="#FFFFFF" d="M42.02,62.236v15.159c0,1.047-0.821,1.895-1.835,1.895c-1.017,0-1.838-0.848-1.838-1.895
			V62.236C33.429,62.228,31,58.406,31,52.772V41.396c0-1.046,0.821-1.896,1.838-1.896c1.015,0,1.835,0.85,1.835,1.896v11.376
			c0,3.792,1.189,5.667,3.673,5.676V41.396c0-1.046,0.821-1.896,1.838-1.896c1.015,0,1.835,0.85,1.835,1.896v17.052
			c2.498-0.008,3.673-1.868,3.673-5.676V41.4c0-1.046,0.825-1.893,1.838-1.893c1.015,0,1.835,0.847,1.835,1.893v11.373
			C49.366,58.422,46.951,62.229,42.02,62.236L42.02,62.236z"/>
		<path id="Shape_5_" fill="#FFFFFF" d="M42.02,79.291v28.419h-3.673V79.291H42.02z M36.511,75.5c-1.017,0-1.838,0.852-1.838,1.896
			v32.207c0,1.045,0.822,1.896,1.838,1.896h7.346c1.015,0,1.835-0.852,1.835-1.896V77.396c0-1.045-0.82-1.896-1.835-1.896H36.511
			L36.511,75.5z"/>
	</g>
</g>
</svg>
