<?xml version="1.0" encoding="utf-8"?>
<!-- Generator: Adobe Illustrator 16.0.0, SVG Export Plug-In . SVG Version: 6.00 Build 0)  -->
<!DOCTYPE svg PUBLIC "-//W3C//DTD SVG 1.1//EN" "http://www.w3.org/Graphics/SVG/1.1/DTD/svg11.dtd">
<svg version="1.1" id="Layer_1" xmlns="http://www.w3.org/2000/svg" xmlns:xlink="http://www.w3.org/1999/xlink" x="0px" y="0px"
	 width="99.695px" height="45.695px" viewBox="0 0 99.695 45.695" enable-background="new 0 0 99.695 45.695" xml:space="preserve">
<path opacity="0.2" fill="#A8A6A3" stroke="#000000" stroke-width="1.9452" stroke-miterlimit="10" enable-background="new    " d="
	M98,30.681c0,7.547-2.151,13.666-4.808,13.666H4.807C2.153,44.347,0,38.229,0,30.681V15.015C0,7.467,2.152,1.347,4.807,1.347h88.386
	C95.848,1.347,98,7.466,98,15.015V30.681L98,30.681z"/>
<g>
	<g>
		<path fill="#FFFFFF" d="M2.94,28.347v-11.36h3.856c0.907,0,1.699,0.149,2.376,0.448c0.677,0.299,1.243,0.704,1.696,1.216
			c0.453,0.512,0.794,1.112,1.024,1.8s0.344,1.421,0.344,2.2c0,0.864-0.128,1.645-0.384,2.344c-0.256,0.698-0.622,1.295-1.096,1.791
			c-0.475,0.496-1.046,0.881-1.712,1.152s-1.416,0.408-2.248,0.408H2.94z M11.116,22.652c0-0.683-0.096-1.31-0.288-1.88
			c-0.192-0.57-0.472-1.064-0.84-1.48c-0.368-0.416-0.819-0.738-1.352-0.968c-0.534-0.229-1.147-0.344-1.84-0.344H4.06v9.376h2.736
			c0.704,0,1.326-0.119,1.864-0.359s0.989-0.57,1.352-0.992c0.362-0.422,0.637-0.918,0.824-1.488S11.116,23.323,11.116,22.652z"/>
		<path fill="#FFFFFF" d="M14.156,18.267v-1.6h1.088v1.6H14.156z M14.156,28.347v-8.336h1.088v8.336H14.156z"/>
		<path fill="#FFFFFF" d="M20.412,28.508c-0.65,0-1.285-0.107-1.904-0.32s-1.152-0.522-1.6-0.928l0.496-0.736
			c0.469,0.385,0.947,0.672,1.432,0.864s1.005,0.288,1.56,0.288c0.672,0,1.208-0.137,1.608-0.408s0.6-0.658,0.6-1.16
			c0-0.234-0.054-0.43-0.16-0.584c-0.107-0.154-0.264-0.29-0.472-0.408c-0.208-0.117-0.469-0.221-0.784-0.312
			c-0.315-0.091-0.68-0.185-1.096-0.28c-0.48-0.117-0.896-0.234-1.248-0.352s-0.643-0.25-0.872-0.4
			c-0.229-0.148-0.4-0.333-0.512-0.552c-0.112-0.219-0.168-0.493-0.168-0.824c0-0.416,0.083-0.784,0.248-1.104
			c0.165-0.32,0.389-0.584,0.672-0.792c0.282-0.208,0.613-0.365,0.992-0.472c0.379-0.106,0.781-0.16,1.208-0.16
			c0.64,0,1.222,0.104,1.744,0.312s0.944,0.483,1.264,0.824l-0.528,0.64c-0.31-0.32-0.686-0.56-1.128-0.72
			c-0.442-0.16-0.904-0.24-1.384-0.24c-0.288,0-0.555,0.03-0.8,0.088c-0.246,0.059-0.462,0.152-0.648,0.28s-0.333,0.291-0.44,0.488
			c-0.106,0.198-0.16,0.43-0.16,0.696c0,0.224,0.037,0.405,0.112,0.544s0.197,0.259,0.368,0.36c0.17,0.102,0.386,0.192,0.648,0.272
			c0.261,0.08,0.579,0.162,0.952,0.248c0.534,0.127,1.003,0.256,1.408,0.383c0.405,0.129,0.744,0.278,1.016,0.449
			c0.272,0.17,0.477,0.379,0.616,0.623c0.139,0.246,0.208,0.545,0.208,0.896c0,0.768-0.293,1.376-0.88,1.824
			C22.193,28.283,21.404,28.508,20.412,28.508z"/>
		<path fill="#FFFFFF" d="M27.532,28.508c-0.395,0-0.76-0.066-1.096-0.2s-0.63-0.317-0.88-0.552
			c-0.251-0.234-0.446-0.51-0.584-0.824c-0.139-0.314-0.208-0.653-0.208-1.016c0-0.363,0.085-0.699,0.256-1.008
			c0.17-0.31,0.41-0.576,0.72-0.801c0.31-0.224,0.678-0.396,1.104-0.52c0.426-0.123,0.896-0.184,1.407-0.184
			c0.427,0,0.858,0.037,1.296,0.111s0.827,0.182,1.169,0.32v-0.752c0-0.736-0.208-1.32-0.624-1.752s-0.992-0.648-1.729-0.648
			c-0.427,0-0.864,0.085-1.312,0.256c-0.448,0.171-0.902,0.416-1.36,0.736l-0.384-0.72c1.077-0.725,2.122-1.088,3.136-1.088
			c1.045,0,1.866,0.293,2.464,0.88c0.598,0.587,0.896,1.397,0.896,2.432v3.76c0,0.299,0.133,0.448,0.399,0.448v0.96
			c-0.182,0.032-0.319,0.048-0.416,0.048c-0.277,0-0.493-0.069-0.647-0.208c-0.155-0.139-0.238-0.33-0.248-0.576l-0.032-0.656
			c-0.384,0.502-0.867,0.887-1.448,1.152C28.831,28.374,28.204,28.508,27.532,28.508z M27.788,27.676
			c0.565,0,1.086-0.106,1.561-0.32c0.475-0.213,0.834-0.496,1.08-0.848c0.096-0.096,0.168-0.2,0.216-0.312
			c0.048-0.111,0.072-0.216,0.072-0.312v-1.36c-0.363-0.139-0.739-0.245-1.129-0.32c-0.389-0.074-0.786-0.111-1.191-0.111
			c-0.769,0-1.393,0.16-1.872,0.48c-0.48,0.319-0.72,0.74-0.72,1.264c0,0.256,0.05,0.496,0.151,0.72s0.24,0.419,0.416,0.584
			s0.387,0.296,0.632,0.392C27.25,27.627,27.51,27.676,27.788,27.676z"/>
		<path fill="#FFFFFF" d="M38.236,28.508c-0.662,0-1.267-0.166-1.816-0.496s-0.979-0.758-1.288-1.28v1.616h-0.976v-11.68h1.088
			v5.088c0.373-0.565,0.821-1.021,1.344-1.368s1.131-0.52,1.824-0.52c0.587,0,1.112,0.123,1.576,0.368
			c0.464,0.245,0.858,0.573,1.184,0.984s0.576,0.875,0.752,1.392s0.265,1.048,0.265,1.591c0,0.588-0.102,1.143-0.305,1.664
			c-0.202,0.523-0.479,0.979-0.832,1.369c-0.352,0.389-0.771,0.698-1.256,0.928C39.31,28.392,38.791,28.508,38.236,28.508z
			 M37.98,27.548c0.458,0,0.877-0.093,1.256-0.28c0.378-0.187,0.704-0.438,0.976-0.752c0.272-0.314,0.485-0.672,0.641-1.072
			c0.154-0.4,0.231-0.812,0.231-1.24c0-0.437-0.072-0.858-0.216-1.264c-0.145-0.405-0.347-0.765-0.608-1.08
			c-0.261-0.315-0.576-0.565-0.943-0.752c-0.368-0.186-0.771-0.28-1.208-0.28c-0.331,0-0.641,0.056-0.929,0.168
			s-0.555,0.264-0.8,0.456s-0.464,0.414-0.656,0.664c-0.191,0.25-0.352,0.515-0.479,0.792V25.5c0.042,0.287,0.157,0.557,0.344,0.808
			s0.411,0.467,0.672,0.647c0.262,0.182,0.544,0.326,0.849,0.433C37.412,27.494,37.702,27.548,37.98,27.548z"/>
		<path fill="#FFFFFF" d="M44.076,16.667h1.088v9.792c0,0.311,0.085,0.553,0.256,0.729s0.411,0.264,0.72,0.264
			c0.118,0,0.257-0.016,0.416-0.047c0.16-0.033,0.31-0.075,0.448-0.129l0.192,0.881c-0.203,0.085-0.451,0.154-0.744,0.207
			c-0.294,0.054-0.547,0.08-0.76,0.08c-0.502,0-0.896-0.141-1.185-0.424c-0.288-0.282-0.432-0.68-0.432-1.191V16.667z"/>
		<path fill="#FFFFFF" d="M51.979,28.508c-0.607,0-1.165-0.115-1.672-0.344c-0.507-0.229-0.946-0.545-1.32-0.944
			c-0.373-0.399-0.664-0.861-0.872-1.384c-0.208-0.523-0.312-1.083-0.312-1.68c0-0.587,0.104-1.139,0.312-1.657
			c0.208-0.517,0.496-0.97,0.864-1.36c0.368-0.389,0.809-0.699,1.32-0.928c0.512-0.229,1.066-0.344,1.664-0.344
			c0.607,0,1.165,0.115,1.672,0.344c0.507,0.229,0.941,0.542,1.304,0.936c0.362,0.395,0.646,0.848,0.849,1.36
			c0.202,0.512,0.304,1.056,0.304,1.632c0,0.085,0,0.171,0,0.256s-0.006,0.144-0.016,0.177h-7.137
			c0.032,0.447,0.137,0.861,0.312,1.239c0.176,0.379,0.402,0.707,0.68,0.984s0.595,0.493,0.952,0.647
			c0.357,0.155,0.738,0.232,1.144,0.232c0.267,0,0.533-0.037,0.801-0.112c0.266-0.074,0.512-0.176,0.735-0.304
			c0.225-0.128,0.427-0.285,0.608-0.473c0.181-0.186,0.319-0.392,0.416-0.615l0.943,0.256c-0.128,0.31-0.309,0.59-0.544,0.84
			c-0.234,0.251-0.507,0.47-0.815,0.656c-0.31,0.187-0.651,0.33-1.024,0.432S52.385,28.508,51.979,28.508z M55.052,23.74
			c-0.032-0.449-0.136-0.856-0.312-1.225c-0.176-0.368-0.399-0.685-0.672-0.952c-0.271-0.266-0.587-0.474-0.943-0.624
			c-0.357-0.149-0.739-0.224-1.145-0.224s-0.789,0.075-1.151,0.224c-0.363,0.15-0.681,0.358-0.952,0.624
			c-0.272,0.267-0.491,0.587-0.656,0.96c-0.166,0.374-0.264,0.779-0.296,1.217H55.052z"/>
		<path fill="#FFFFFF" d="M66.651,28.427c-0.789,0-1.512-0.162-2.168-0.488c-0.656-0.325-1.219-0.757-1.688-1.296
			c-0.469-0.538-0.832-1.154-1.088-1.848s-0.384-1.403-0.384-2.128c0-0.757,0.136-1.482,0.408-2.176
			c0.271-0.693,0.647-1.307,1.128-1.84c0.48-0.534,1.045-0.958,1.696-1.272c0.65-0.315,1.354-0.472,2.111-0.472
			c0.79,0,1.513,0.168,2.168,0.504c0.656,0.336,1.217,0.776,1.681,1.32c0.464,0.544,0.824,1.16,1.08,1.848s0.384,1.39,0.384,2.104
			c0,0.758-0.136,1.482-0.408,2.176c-0.271,0.693-0.646,1.305-1.12,1.832c-0.475,0.528-1.037,0.949-1.688,1.264
			C68.112,28.27,67.408,28.427,66.651,28.427z M62.443,22.667c0,0.619,0.102,1.213,0.304,1.784c0.203,0.571,0.491,1.078,0.864,1.521
			s0.816,0.795,1.328,1.056c0.512,0.262,1.082,0.393,1.712,0.393c0.64,0,1.222-0.139,1.744-0.416s0.965-0.641,1.328-1.088
			c0.362-0.448,0.643-0.955,0.84-1.521s0.296-1.141,0.296-1.728c0-0.618-0.104-1.213-0.312-1.784
			c-0.208-0.571-0.499-1.075-0.872-1.512c-0.374-0.437-0.816-0.787-1.328-1.048c-0.513-0.261-1.078-0.392-1.696-0.392
			c-0.64,0-1.222,0.136-1.744,0.408s-0.966,0.632-1.328,1.08c-0.362,0.448-0.643,0.955-0.84,1.52
			C62.542,21.505,62.443,22.081,62.443,22.667z"/>
		<path fill="#FFFFFF" d="M78.668,28.427c-0.789,0-1.512-0.162-2.168-0.488c-0.656-0.325-1.219-0.757-1.688-1.296
			c-0.469-0.538-0.832-1.154-1.088-1.848s-0.384-1.403-0.384-2.128c0-0.757,0.136-1.482,0.408-2.176
			c0.271-0.693,0.647-1.307,1.128-1.84c0.48-0.534,1.045-0.958,1.696-1.272c0.65-0.315,1.354-0.472,2.111-0.472
			c0.79,0,1.513,0.168,2.168,0.504c0.656,0.336,1.217,0.776,1.681,1.32c0.464,0.544,0.824,1.16,1.08,1.848s0.384,1.39,0.384,2.104
			c0,0.758-0.136,1.482-0.408,2.176c-0.271,0.693-0.646,1.305-1.12,1.832c-0.475,0.528-1.037,0.949-1.688,1.264
			C80.129,28.27,79.425,28.427,78.668,28.427z M74.46,22.667c0,0.619,0.102,1.213,0.304,1.784c0.203,0.571,0.491,1.078,0.864,1.521
			s0.816,0.795,1.328,1.056c0.512,0.262,1.082,0.393,1.712,0.393c0.64,0,1.222-0.139,1.744-0.416s0.965-0.641,1.328-1.088
			c0.362-0.448,0.643-0.955,0.84-1.521s0.296-1.141,0.296-1.728c0-0.618-0.104-1.213-0.312-1.784
			c-0.208-0.571-0.499-1.075-0.872-1.512c-0.374-0.437-0.816-0.787-1.328-1.048c-0.513-0.261-1.078-0.392-1.696-0.392
			c-0.64,0-1.222,0.136-1.744,0.408s-0.966,0.632-1.328,1.08c-0.362,0.448-0.643,0.955-0.84,1.52
			C74.558,21.505,74.46,22.081,74.46,22.667z"/>
		<path fill="#FFFFFF" d="M95.067,16.988v11.36h-1.104v-5.312h-6.736v5.312h-1.12v-11.36h1.12v5.056h6.736v-5.056H95.067z"/>
	</g>
</g>
</svg>
