<?xml version="1.0" encoding="utf-8"?>
<!-- Generator: Adobe Illustrator 16.0.0, SVG Export Plug-In . SVG Version: 6.00 Build 0)  -->
<!DOCTYPE svg PUBLIC "-//W3C//DTD SVG 1.1//EN" "http://www.w3.org/Graphics/SVG/1.1/DTD/svg11.dtd">
<svg version="1.1" id="Layer_1" xmlns="http://www.w3.org/2000/svg" xmlns:xlink="http://www.w3.org/1999/xlink" x="0px" y="0px"
	 width="90px" height="90px" viewBox="0 0 90 90" enable-background="new 0 0 90 90" xml:space="preserve">
<title>Symbols</title>
<desc>Created with Sketch.</desc>
<g id="Page-1">
	<g id="Discovery_1_">
		<g id="Symbols">
			<g id="Discovery">
				<path id="Shape" fill="#FF9400" d="M46.111,38.666H29.445v-2.111h16.667V38.666L46.111,38.666z M46.111,42.889H29.445v-2.112
					h16.667V42.889L46.111,42.889z M39.834,47H29.445v-2.111h10.444V47H39.834z M63.111,72L47.723,56.553
					c-2.889,1.777-6.276,2.891-9.943,2.891C27.39,59.555,19,51.109,19,40.776C19,30.445,27.389,22,37.779,22
					c10.389,0,18.776,8.445,18.776,18.779c0,3.667-1.055,7.112-2.887,10L69,66.111L63.111,72z M37.779,55.332
					c7.999,0,14.553-6.555,14.553-14.553c0-7.998-6.555-14.556-14.553-14.556c-7.998,0-14.613,6.442-14.613,14.556
					C23.166,48.891,29.723,55.332,37.779,55.332z"/>
			</g>
		</g>
	</g>
</g>
</svg>
