<?xml version="1.0" encoding="utf-8"?>
<!-- Generator: Adobe Illustrator 16.0.0, SVG Export Plug-In . SVG Version: 6.00 Build 0)  -->
<!DOCTYPE svg PUBLIC "-//W3C//DTD SVG 1.1//EN" "http://www.w3.org/Graphics/SVG/1.1/DTD/svg11.dtd">
<svg version="1.1" id="Layer_1" xmlns="http://www.w3.org/2000/svg" xmlns:xlink="http://www.w3.org/1999/xlink" x="0px" y="0px"
	 width="16px" height="26px" viewBox="0 0 16 26" enable-background="new 0 0 16 26" xml:space="preserve">
<title>Bulb</title>
<desc>Created with Sketch.</desc>
<g id="Page-1">
	<g id="Control-screen-Copy-3" transform="translate(-171.000000, -139.000000)">
		<g id="Control-1-Copy-2" transform="translate(156.000000, 128.000000)">
			<g id="Bulb" transform="translate(15.000000, 11.000000)">
				<path id="Fill-1" fill="none" d="M15.179,10.59c-0.69,1.621-1.444,3.216-2.206,4.807c-0.258,0.535-0.865,0.705-1.342,0.439
					c-0.49-0.274-0.646-0.874-0.391-1.368c0.834-1.613,1.684-3.221,2.245-4.956c0.575-1.778,0.163-3.368-0.92-4.829
					c-0.886-1.194-2.109-1.919-3.57-2.178C7.211,2.188,5.594,2.62,4.182,3.766c-1.01,0.819-1.638,1.853-1.94,3.097
					C1.971,7.979,2.047,9.078,2.5,10.117c0.648,1.487,1.392,2.935,2.055,4.416c0.418,0.936,0.791,1.893,1.123,2.861
					c0.092,0.27,0.184,0.328,0.433,0.327c1.663-0.007,3.325-0.004,4.987-0.003c1.146,0,2.162,1.055,2.225,2.186
					c0.082,1.481-1.129,2.555-2.598,2.548c-1.445-0.007-2.889,0.001-4.333-0.004c-0.283-0.001-0.518,0.021-0.527,0.385
					c-0.009,0.38,0.224,0.428,0.531,0.427c1.24-0.004,2.48-0.006,3.72,0c0.738,0.004,1.242,0.498,1.146,1.129
					c-0.07,0.46-0.408,0.7-0.814,0.869H6.031c-0.039-0.001-0.079,0-0.122-0.007c-1.749-0.252-2.539-2.24-1.666-3.649
					c0.535-0.863,1.382-1.13,2.346-1.137c1.417-0.012,2.835,0.001,4.253-0.014c0.156-0.002,0.364-0.072,0.45-0.185
					c0.069-0.091,0.05-0.343-0.033-0.431c-0.107-0.112-0.316-0.184-0.481-0.186c-2.1-0.012-4.199-0.007-6.298-0.007H3.982
					c0-0.31,0.034-0.556-0.005-0.788c-0.204-1.212-0.635-2.352-1.171-3.457c-0.669-1.379-1.368-2.747-1.984-4.148
					c-0.307-0.697-0.611-1.438-0.68-2.194C0.095,8.388,0.212,7.079,0.214,7.05C0.286,6.17,0.595,5.352,1.001,4.587
					c0.958-1.804,2.456-3.032,4.411-3.702c0.246-0.084,0.945-0.251,1.655-0.311c0.86-0.073,1.729-0.031,1.746-0.03
					c1.1,0.081,2.113,0.433,3.055,0.98c1.785,1.04,2.979,2.545,3.562,4.499c0.088,0.296,0.25,0.943,0.313,1.548
					c0.048,0.451,0.017,0.89-0.014,1.083C15.615,9.372,15.352,10.183,15.179,10.59"/>
				<path id="Fill-4" fill="none" d="M7.766,4.458c0.456,0.035,0.779,0.278,0.766,0.606C8.52,5.394,8.224,5.608,7.774,5.616
					C6.587,5.636,5.469,6.577,5.265,7.73C5.233,7.911,5.197,8.092,5.183,8.275C5.153,8.659,4.974,8.834,4.6,8.824
					c-0.308-0.009-0.565-0.292-0.542-0.62c0.124-1.739,1.14-3.057,2.846-3.574C7.183,4.545,7.479,4.514,7.766,4.458"/>
			</g>
		</g>
	</g>
</g>
</svg>
