<?xml version="1.0" encoding="utf-8"?>
<!-- Generator: Adobe Illustrator 21.0.0, SVG Export Plug-In . SVG Version: 6.00 Build 0)  -->
<svg version="1.1" id="Layer_1" xmlns="http://www.w3.org/2000/svg" xmlns:xlink="http://www.w3.org/1999/xlink" x="0px" y="0px"
	 width="90px" height="45px" viewBox="0 0 90 45" enable-background="new 0 0 90 45" xml:space="preserve">
<title>Symbols</title>
<desc>Created with Sketch.</desc>
<g id="Page-1">
	<g id="Discovery_1_">
		<g id="Symbols">
			<g id="Discovery">
				<path id="Shape" fill="#EF1B4E" d="M48.8,15h-30v-1.9h30V15z M48.8,18.8h-30v-1.9h30V18.8z M37.5,22.5H18.8v-1.9h18.8V22.5z
					 M79.4,45L51.7,31.1c-5.2,1.6-11.3,2.6-17.9,2.6C15.1,33.8,0,26.2,0,16.9S15.1,0,33.8,0s33.8,7.6,33.8,16.9c0,3.3-1.9,6.4-5.2,9
					L90,39.7L79.4,45z M33.8,30C48.2,30,60,24.1,60,16.9S48.2,3.8,33.8,3.8S7.5,9.6,7.5,16.9S19.3,30,33.8,30z"/>
			</g>
		</g>
	</g>
</g>
</svg>
