<?xml version="1.0" encoding="utf-8"?>
<!-- Generator: Adobe Illustrator 21.0.0, SVG Export Plug-In . SVG Version: 6.00 Build 0)  -->
<svg version="1.1" id="Layer_1" xmlns="http://www.w3.org/2000/svg" xmlns:xlink="http://www.w3.org/1999/xlink" x="0px" y="0px"
	 width="120px" height="168px" viewBox="0 0 120 168" enable-background="new 0 0 120 168" xml:space="preserve">
<title>Fill-1</title>
<desc>Created with Sketch.</desc>
<g id="Page-1">
	<g id="Fan_1_">
		<g id="Symbols">
			<g id="Fan">
				<path id="Fill-1" fill="#EFE6EA" d="M116.3,135.1c-1.7-5.5-4.7-9.5-8.7-11l-0.8-0.4C95,119.4,84,112.9,73.5,104.3l-2.2-1.8
					l-0.5,3.6c-0.6,5-2.6,9.3-5.3,11.8l-2,1.8l1.7,2.4c7.4,10.8,16.1,21.7,24.3,29.5c7.9,7.5,14.3,10.5,19.1,8.5
					c2.9-1.2,5.1-3.8,6.7-8.2C117.4,146.7,117.8,140.7,116.3,135.1z M112.2,149.5c-1.1,3-2.5,4.7-4.5,5.5c-3.6,1.5-9.1-1.1-16.2-7.9
					c-7.4-7.1-15.3-16.8-22.2-26.6c2-2.6,3.5-6,4.4-9.8c10.2,8,20.8,14.1,32.1,18.3l0.8,0.4c2.9,1.1,5.1,3.9,6.3,7.9
					C114,141.1,113.8,145.4,112.2,149.5l1.6,1.3L112.2,149.5z M50,102.9c0-8.1,4.3-14.7,9.5-14.7s9.5,6.6,9.5,14.7
					s-4.3,14.7-9.5,14.7S50,110.9,50,102.9h-3.6c0,11,5.9,20.1,13.1,20.1s13.1-9.1,13.1-20.1s-5.9-20.1-13.1-20.1
					s-13.1,9.1-13.1,20.1H50z M24.1,155.1c8.3-13.3,17.6-24.9,27.6-34.5l2-1.9l-1.8-2.4c-2.4-3.2-3.9-7.9-4-12.9l-0.1-3.5l-2.3,1
					c-9.6,4.3-20.3,10.5-28.8,17.6C8.7,125,3.9,132,2.5,139.4c-0.7,4.4-0.3,8.5,1.3,12.9c2.2,5.6,5.4,9.1,9.2,9.8
					c3.8,0.9,7.6-1.3,10.5-6L24.1,155.1l-1.3-1.8L24.1,155.1z M20.8,152.3c-2.1,3.4-4.8,5-7.4,4.4c-2.7-0.5-4.9-2.9-6.6-7.1
					c-1.1-3.2-1.4-5.9-0.9-8.8c1.1-5.6,5.3-11.6,12.5-17.6c7.7-6.4,17.2-12.1,26-16.2c0.5,4,1.6,7.8,3.3,10.9
					c-9.6,9.5-18.5,20.8-26.5,33.5L20.8,152.3z M47.7,29.6c3.4,17.9,5.3,36,5.7,54.3l0.1,3.8l2.4-1.3c1.1-0.6,2.4-1,3.7-1
					c1.9,0,3.8,0.8,5.5,2.1l2.1,1.7l0.5-3.5c2.4-15.5,4.1-32.3,4.4-47.1c0.3-14.1-1.3-24.1-4.7-29.6c-2.1-3.3-4.7-4.9-8-4.9
					c-4.2,0-7.7,2.5-10,7.2c-2.2,4.8-2.9,11-1.8,16.9L47.7,29.6l1.7-0.7L47.7,29.6z M51,26.8c-0.8-4.3-0.4-8.8,1.2-12.2
					c1.6-3.2,4-4.9,7.1-4.9c2.3,0,4,1,5.4,3.2c2.6,4.1,3.9,12.9,3.7,25.7c-0.3,13.4-1.8,28.5-3.8,42.8C63,80.4,61.3,80,59.6,80
					c-0.9,0-1.8,0.1-2.6,0.4c-0.5-17.6-2.4-35-5.7-52.2L51,26.8z M32.5,149.8l-0.2-0.4C32.4,149.6,32.4,149.7,32.5,149.8
					C32.5,149.8,32.5,149.8,32.5,149.8z M49.2,41.7c0.1-0.1,0.1-0.1,0.1-0.1L49.2,41.7z M32.1,60.6L32.1,60.6L32,60.7
					C32,60.7,32,60.7,32.1,60.6C32.1,60.6,32.1,60.6,32.1,60.6z M97.1,118.7L97.1,118.7C97.1,118.8,97.1,118.7,97.1,118.7z
					 M95.2,117.2c0-0.1,0-0.2,0-0.3c0,0,0,0,0,0L95.2,117.2z M114.8,136c1.4,4.7,1,9.9-1.1,14.8c-1.4,3.9-3.4,6.3-5.8,7.3
					c-0.8,0.3-1.7,0.5-2.6,0.5c-3.9,0-9-2.9-15.2-8.7C81.8,142,73,130.9,65.5,120l-0.9-1.3l-1.1,0.7c-1.3,0.8-2.8,1.3-4.3,1.3
					c-2.1,0-4.2-1-6-2.6l-1-0.9l-1,0.9c-7.6,7.1-14.6,15.3-21.1,24.3l-1.4,1.9c-1.9,2.9-3.9,5.9-6,9.3l-0.6,0.9
					c-2.3,3.6-5.1,5.5-8,5.5c-0.1,0-0.2,0-0.5-0.1c-0.4-0.1-0.7-0.1-1-0.1c-3.1-0.6-5.9-3.6-7.7-8.5c-1.4-3.9-1.8-7.7-1.1-11.3
					c1.2-6.5,5.4-12.9,13.8-20.8c8.3-6.9,18.8-13,29-17.6l1.1-0.5l0.2-1.7c0.5-5.7,2.7-10.6,5.9-13.3l0.9-0.8l0-1.6
					c-0.3-13.8-1.3-27.3-3.1-40.2l-0.5-3.5c-0.6-3.6-1.3-7.3-2.1-12l-0.2-1.3c-1.1-5.3-0.5-10.9,1.6-15c1.9-4.1,5.1-6.3,8.7-6.3
					c2.8,0,5.1,1.4,6.9,4.1c3,4.8,4.5,13.9,4.2,28c-0.3,14.8-2.1,31.9-4.6,47.7L65.5,87l0.9,1.1c2.8,3.4,4.5,8.5,4.5,14.1v2.2
					l0.9,0.8c8.2,6.7,16.2,11.9,24.3,15.8l0,0.6l2,1c3,1.5,5.6,2.6,8.2,3.5l0.8,0.3C110.7,127.6,113.5,131.2,114.8,136l1.7-1.1
					L114.8,136z M74.5,101.1c-0.2-6.2-2-12-5-16.2c2.4-15.7,4.1-32.4,4.4-47.2c0.3-15.4-1.4-25.8-5.2-31.9C66.2,2,63,0,59.2,0
					c-4.8,0-9.1,3.1-11.7,8.6c-2.7,5.5-3.5,12.8-2.1,19.7l0.2,1.3c0.7,3.7,1.2,6.8,1.7,9.8c-0.5,0.2-1.1,0.6-1.7,1
					c-0.9,0.4-2,1-2.9,1.9c-0.8,0.4-1.9,1.3-3.2,2.5c-0.4,0.3-0.8,0.7-1.3,1.2c-0.6,0.6-1,1-2.1,2.1c-0.3,0.4-0.5,0.6-0.9,1.1
					c-1.4,1.6-2,2.3-2.6,3.2c-0.6,0.7-1.2,1.6-2.2,3.1c-0.5,0.8-0.7,1.2-1,1.5c-0.3,0.5-1.3,2.1-1.5,2.6c-0.6,1-1,1.9-1.4,2.8
					c-0.8,1.6-1.6,3.4-2.4,5.5c-0.2,0.5-0.3,0.9-0.7,1.7c-0.7,1.8-1,2.6-1.3,3.7c-0.1,0.4-0.6,2-0.7,2.5c-0.3,1-0.5,1.8-0.7,2.7
					c-0.5,2.2-0.8,3.2-1,4.2c-0.1,0.5-0.6,2.9-0.7,3.4l-0.4,3l3.5,1.4c0.1-0.7,0.3-1.7,0.5-3.1c0.1-0.7,0.2-1.4,0.6-3
					c0.1-0.6,0.2-1.2,0.4-1.9c0.1-0.2,0.4-1.7,0.5-2.2c0.3-1.3,0.7-2.6,1.4-4.4c0.3-0.8,0.5-1.5,0.8-2.3c0.2-0.5,1-2.3,1.1-2.4
					c1.1-2.4,1.5-3.4,2.3-4.5c0.8-1.6,1.4-2.6,2.9-4.8c0.8-1.2,1.4-2,3.1-4c0.6-0.8,1.1-1.4,2.1-2.3c0.6-0.6,0.9-0.9,1.2-1.2
					c0.2-0.2,0.5-0.4,1-0.9c0.3-0.3,0.3-0.3,0.5-0.5c0.6-0.6,1.1-0.9,1.5-1.2c-1,0.7,2.4-1.7,3-2c0.3-0.2,0.7-0.4,1.4-0.7
					c0.6-0.3,1-0.6,1.4-0.9c0.3-0.1,0.6-0.3,0.8-0.4c1.5,11.2,2.4,22.9,2.6,34.8c-3.3,3.3-5.7,8.6-6.6,14.6
					c-10.1,4.7-20.4,10.7-28.8,17.7c-9.1,8.7-13.9,15.9-15.4,24c-1,5-0.5,10.3,1.4,15.4c2.4,6.4,6.2,10.4,10.7,11.3
					c0.3,0,0.5,0,0.8,0.1c0.4,0.1,0.7,0.1,1,0.1c3.9,0,7.6-2.5,10.6-7.1l0.6-1c1.6-2.6,3.1-4.9,4.6-7c0.4,0.5,0.9,1.1,1.4,1.7
					c0.4,0.5,0.7,0.9,1,1.3c0.5,0.6,0.9,1,1.3,1.5c0.7,0.7,1,1.2,1.4,1.6c0.6,0.6,1.2,1.2,1.7,1.7c0.5,0.6,1.2,1.2,2.3,2
					c0.6,0.4,0.9,0.7,1.2,0.9c0.6,0.4,1,0.7,2,1.3c0.9,0.6,1.4,1,2.1,1.3c1.2,0.7,2.1,1.1,4.2,2c0.5,0.2,0.8,0.2,1.5,0.5
					c0.4,0.1,0.4,0.1,0.7,0.2c0.9,0.3,1.6,0.4,2.3,0.5c0.3,0.1,0.8,0.2,1.4,0.3c0.4,0.1,0.7,0.1,1.4,0.2c0.6,0.1,0.9,0.1,1.2,0.1
					c2.2,0,3.1,0,4.2-0.2c0.9-0.1,0.9-0.1,1.8-0.3c0.9-0.1,0.9-0.1,1.7-0.3c1.1-0.2,1.8-0.4,3.2-1c0.3-0.1,0.6-0.2,1.2-0.5
					c0.5-0.2,0.9-0.4,1.3-0.6c0.8-0.4,1.5-0.7,1.9-1l15.1-9.3l-16.1,4.1c-0.5,0.1-1.2,0.4-2.1,0.9c-0.1,0-0.4,0.1-0.9,0.3
					c-0.4,0.2-0.7,0.3-1,0.3c-0.4,0.1-0.5,0.1-1.5,0.4c-0.6,0.2-1,0.3-1.4,0.4c-1.2,0.2-2.3,0.4-3.3,0.4c-1.8,0-2.6,0-3.7-0.2
					c-2-0.3-2.9-0.4-3.9-0.7c-0.5-0.1-1-0.3-2-0.6c-1.1-0.4-1.5-0.5-2.1-0.7c-1-0.4-2.2-1.1-3.6-1.9c-1-0.6-1.8-1.2-3.6-2.6
					c-1.5-1.3-2.2-1.9-3-2.8c-0.5-0.5-0.9-0.9-1.4-1.5c-0.7-0.8-1-1.2-1.4-1.6c-0.2-0.3-0.5-0.5-0.7-0.8c-0.4-0.5-0.6-0.9-1.2-1.8
					c-0.3-0.4-0.4-0.6-0.6-0.8c-0.1-0.2-0.2-0.3-0.3-0.5c5.7-7.7,11.8-14.7,18.3-20.9c2.1,1.7,4.5,2.6,6.9,2.6
					c1.5,0,3.1-0.4,4.5-1.1c7.4,10.7,16.1,21.5,24.3,29.3c6.8,6.4,12.4,9.6,17.1,9.6c1.3,0,2.4-0.2,3.6-0.7c3.4-1.4,6.1-4.7,8-9.7
					c2.7-6.2,3.2-13.3,1.3-19.8l-1.7,1.1l1.7-1c-1.7-6.4-5.4-11.1-10.1-12.9l-0.8-0.4c-2.1-0.7-4.2-1.6-6.4-2.6
					c0.2-1.3,0.3-1.9,0.4-2.6c0-0.3,0.1-0.6,0.1-1.3c0.2-1.4,0.2-2.4,0.2-3.5c0.2-2.6,0.2-3.8,0.2-5.5c0.1-1.6,0.1-3-0.1-6.3
					c-0.2-3.3-0.3-4.8-0.7-6.8c-0.2-1.7-0.5-4-1-6.5c-0.2-0.8-0.3-1.2-0.5-2.2c-0.5-2.2-0.7-3.2-1.1-4.5c-0.4-1.5-0.8-2.7-1.8-5.6
					c-0.3-0.9-0.5-1.5-1.1-2.8c-0.5-1.3-0.7-1.8-1-2.5c-0.3-0.8-1.1-2.3-1.2-2.5c-0.5-0.9-0.8-1.6-1.2-2.3c-0.4-0.9-0.9-1.8-2-3.4
					c0.3,0.5-1.3-2.2-1.8-2.7c-0.5-0.8-1.1-1.6-1.4-2l-2.4,4l1.4,2.1c0.3,0.4,0.5,0.6,0.7,1c0.2,0.3,0.3,0.6,0.7,1.3
					c0.7,1.1,1.2,2.1,1.8,3.3c0.1,0.2,1.5,3.4,2,4.4c0.5,1.3,1.1,2.9,1.7,4.7c0.2,0.6,0.3,1.3,0.8,2.8c0.4,1.4,0.6,2,0.8,2.8
					c0.4,1.5,0.6,2.8,1.2,5.8c0.3,2,0.6,3.9,0.7,5.8c0.1,1.3,0.2,2.1,0.3,4.1c0,1,0.1,1.5,0.1,2.1c0,2.7,0,3.9-0.1,5.2
					c0,1.2-0.1,2-0.2,3.5c-0.1,0.8-0.1,1.2-0.2,1.7c0,0.6-0.1,1.2-0.2,2.1c-0.1,1-0.2,1.6-0.3,2c0,0.5-0.1,0.9-0.2,1.4
					C88.5,111.3,81.6,106.7,74.5,101.1z M59.6,104c-0.4,0-0.7-0.5-0.7-1.1s0.3-1.1,0.7-1.1s0.7,0.5,0.7,1.1S59.9,104,59.6,104v5.4
					c2.4,0,4.3-2.9,4.3-6.5s-1.9-6.5-4.3-6.5s-4.3,2.9-4.3,6.5s1.9,6.5,4.3,6.5V104z M59.6,93.1c-3.5,0-6.4,4.5-6.4,9.8
					s2.9,9.8,6.4,9.8c3.5,0,6.4-4.5,6.4-9.8C66,97.5,63.1,93.1,59.6,93.1v5.4c1.5,0,2.8,1.9,2.8,4.4c0,2.3-1.3,4.4-2.8,4.4
					s-2.8-2-2.8-4.4c0-2.3,1.3-4.4,2.8-4.4V93.1z"/>
			</g>
		</g>
	</g>
</g>
</svg>
