<?xml version="1.0" encoding="utf-8"?>
<!-- Generator: Adobe Illustrator 16.0.0, SVG Export Plug-In . SVG Version: 6.00 Build 0)  -->
<!DOCTYPE svg PUBLIC "-//W3C//DTD SVG 1.1//EN" "http://www.w3.org/Graphics/SVG/1.1/DTD/svg11.dtd">
<svg version="1.1" id="Layer_1" xmlns="http://www.w3.org/2000/svg" xmlns:xlink="http://www.w3.org/1999/xlink" x="0px" y="0px"
	 width="160px" height="160px" viewBox="0.4 1 160 160" enable-background="new 0.4 1 160 160" xml:space="preserve">
<title>Chandelier</title>
<desc>Created with Sketch.</desc>
<g id="Symbols">
	<g id="Fan">
		<path id="Fill-1" fill="#A8A6A3" d="M123.2,108.6c-1.2-3-3.6-5.1-6.6-5.9l-0.6-0.2c-8.9-2.4-17.2-5.8-25.1-10.5l-1.6-1l-0.4,2
			c-0.5,2.7-2,5-4,6.3l-1.5,1l1.3,1.3c5.6,5.8,12.1,11.7,18.3,15.9c6,4,10.8,5.6,14.4,4.6c2.2-0.6,3.9-2.1,5.1-4.4
			C124,114.8,124.3,111.6,123.2,108.6z M120.1,116.3c-0.8,1.6-1.9,2.5-3.4,3c-2.7,0.8-6.8-0.6-12.2-4.2c-5.6-3.8-11.5-9-16.7-14.3
			c1.5-1.4,2.7-3.2,3.3-5.3c7.7,4.3,15.7,7.6,24.2,9.8l0.6,0.2c2.2,0.6,3.9,2.1,4.8,4.2C121.4,111.8,121.3,114.1,120.1,116.3
			l1.2,0.7L120.1,116.3z M73.2,91.3c0-4.3,3.2-7.9,7.2-7.9c3.9,0,7.2,3.5,7.2,7.9s-3.2,7.9-7.2,7.9C76.4,99.2,73.2,95.6,73.2,91.3
			h-2.7c0,5.9,4.5,10.8,9.9,10.8c5.4,0,9.9-4.9,9.9-10.8c0-5.9-4.4-10.8-9.9-10.8c-5.5,0-9.9,4.9-9.9,10.8H73.2z M53.6,119.4
			c6.2-7.1,13.3-13.4,20.8-18.5l1.5-1l-1.4-1.3c-1.8-1.7-2.9-4.2-3-7l-0.1-1.9l-1.7,0.5c-7.2,2.3-15.3,5.7-21.7,9.5
			c-6.1,3.5-9.7,7.3-10.8,11.2c-0.6,2.3-0.2,4.6,1,6.9c1.7,3,4.1,4.9,7,5.3c2.8,0.5,5.7-0.7,7.9-3.2L53.6,119.4l-1-1L53.6,119.4z
			 M51.1,117.9c-1.6,1.9-3.6,2.7-5.6,2.3c-2-0.3-3.7-1.6-4.9-3.8c-0.9-1.7-1.1-3.2-0.7-4.8c0.8-3,4-6.2,9.5-9.4
			c5.8-3.4,13-6.5,19.6-8.7c0.4,2.2,1.2,4.2,2.5,5.8c-7.2,5.1-14,11.2-20,18L51.1,117.9z M71.4,51.9c2.6,9.6,4,19.4,4.3,29.2l0.1,2
			l1.8-0.7c0.9-0.3,1.8-0.5,2.8-0.5c1.4,0,2.9,0.4,4.1,1.2l1.6,0.9l0.4-1.9c1.8-8.4,3.1-17.3,3.3-25.3c0.2-7.6-1-13-3.6-15.9
			c-1.6-1.8-3.6-2.6-6.1-2.6c-3.2,0-5.8,1.3-7.6,3.9c-1.7,2.6-2.2,5.9-1.3,9.1L71.4,51.9l1.3-0.4L71.4,51.9z M73.9,50.4
			c-0.6-2.3-0.3-4.7,0.9-6.6c1.2-1.7,3-2.7,5.4-2.7c1.8,0,3,0.5,4.1,1.7c2,2.2,3,7,2.8,13.8c-0.2,7.2-1.3,15.3-2.9,23
			c-1.2-0.5-2.5-0.7-3.8-0.7c-0.7,0-1.3,0.1-2,0.2c-0.4-9.5-1.8-18.8-4.3-28.1L73.9,50.4z M60,116.5l-0.2-0.2
			C59.8,116.4,59.9,116.4,60,116.5C60,116.5,60,116.5,60,116.5z M72.5,58.4C72.6,58.4,72.6,58.3,72.5,58.4L72.5,58.4z M59.6,68.5
			L59.6,68.5L59.6,68.5C59.6,68.6,59.6,68.6,59.6,68.5C59.6,68.6,59.6,68.5,59.6,68.5z M108.7,99.8L108.7,99.8
			C108.6,99.8,108.7,99.8,108.7,99.8z M107.2,99c0-0.1,0-0.1,0-0.2c0,0,0,0,0,0L107.2,99z M122.1,109.1c1,2.5,0.8,5.3-0.8,8
			c-1.1,2.1-2.6,3.4-4.4,3.9c-0.6,0.2-1.3,0.3-2,0.3c-3,0-6.8-1.5-11.5-4.7c-6.3-4.2-12.9-10.2-18.5-16l-0.7-0.7l-0.8,0.4
			c-1,0.5-2.1,0.7-3.2,0.7c-1.6,0-3.2-0.5-4.5-1.4L74.9,99l-0.7,0.5c-5.7,3.8-11,8.2-16,13.1l-1,1c-1.4,1.6-2.9,3.2-4.5,5l-0.4,0.5
			c-1.8,1.9-3.9,3-6.1,3c-0.1,0-0.2,0-0.4,0c-0.3-0.1-0.5-0.1-0.7-0.1c-2.3-0.3-4.5-1.9-5.8-4.6c-1.1-2.1-1.4-4.1-0.8-6.1
			c0.9-3.5,4.1-6.9,10.4-11.2c6.3-3.7,14.2-7,21.9-9.5l0.8-0.3l0.1-0.9c0.4-3.1,2.1-5.7,4.5-7.1l0.7-0.4l0-0.9
			c-0.2-7.4-1-14.7-2.4-21.6l-0.4-1.9c-0.5-1.9-1-3.9-1.6-6.4l-0.2-0.7c-0.8-2.8-0.3-5.9,1.2-8.1c1.4-2.2,3.8-3.4,6.6-3.4
			c2.1,0,3.9,0.7,5.2,2.2c2.3,2.6,3.4,7.5,3.2,15.1c-0.2,8-1.6,17.2-3.4,25.7l-0.2,0.9l0.7,0.6c2.2,1.8,3.4,4.6,3.4,7.6V92l0.7,0.4
			c6.2,3.6,12.2,6.4,18.3,8.5v0.3l1.5,0.5c2.3,0.8,4.2,1.4,6.2,1.9l0.6,0.2C119,104.6,121.1,106.5,122.1,109.1l1.3-0.6L122.1,109.1z
			 M91.6,90.3c-0.1-3.4-1.5-6.5-3.8-8.7c1.8-8.4,3.1-17.4,3.3-25.4c0.2-8.3-1-13.8-3.9-17.1C85.4,37,82.9,36,80.1,36
			c-3.6,0-6.9,1.7-8.8,4.6c-2,2.9-2.6,6.9-1.6,10.6l0.2,0.7c0.5,2,0.9,3.7,1.3,5.2c-0.4,0.1-0.8,0.3-1.3,0.5c-0.7,0.2-1.5,0.6-2.2,1
			c-0.6,0.2-1.5,0.7-2.4,1.4c-0.3,0.2-0.6,0.4-1,0.7c-0.4,0.3-0.8,0.5-1.6,1.1c-0.3,0.2-0.4,0.3-0.7,0.6c-1.1,0.9-1.5,1.2-2,1.7
			c-0.5,0.4-0.9,0.9-1.7,1.7c-0.4,0.4-0.6,0.6-0.7,0.8c-0.2,0.3-1,1.2-1.2,1.4c-0.4,0.5-0.8,1-1.1,1.5c-0.6,0.8-1.2,1.8-1.8,2.9
			c-0.1,0.3-0.2,0.5-0.5,0.9c-0.5,1-0.8,1.4-1,2c-0.1,0.2-0.5,1.1-0.6,1.3c-0.2,0.5-0.4,1-0.5,1.5c-0.4,1.2-0.6,1.7-0.7,2.3
			c-0.1,0.3-0.4,1.6-0.5,1.9l-0.3,1.6l2.6,0.7c0.1-0.4,0.3-0.9,0.4-1.7c0.1-0.4,0.2-0.7,0.4-1.6c0.1-0.3,0.2-0.6,0.3-1
			c0-0.1,0.3-0.9,0.4-1.2c0.2-0.7,0.6-1.4,1-2.4c0.2-0.5,0.4-0.8,0.6-1.2c0.2-0.3,0.7-1.2,0.8-1.3c0.8-1.3,1.2-1.9,1.7-2.4
			c0.6-0.8,1.1-1.4,2.2-2.6c0.6-0.6,1.1-1.1,2.3-2.1c0.4-0.4,0.9-0.7,1.6-1.3c0.4-0.3,0.7-0.5,0.9-0.6c0.2-0.1,0.4-0.2,0.8-0.5
			c0.2-0.1,0.2-0.1,0.4-0.3c0.5-0.3,0.8-0.5,1.1-0.7c-0.8,0.4,1.8-0.9,2.3-1.1c0.2-0.1,0.5-0.2,1-0.4c0.4-0.2,0.8-0.3,1.1-0.5
			c0.2-0.1,0.4-0.1,0.6-0.2c1.1,6,1.8,12.3,2,18.7c-2.5,1.8-4.3,4.6-5,7.9c-7.6,2.5-15.4,5.7-21.7,9.5c-6.9,4.6-10.5,8.6-11.6,12.9
			c-0.7,2.7-0.4,5.5,1.1,8.3c1.8,3.4,4.7,5.6,8.1,6.1c0.3,0,0.3,0,0.6,0.1c0.3,0,0.5,0.1,0.7,0.1c3,0,5.8-1.4,8-3.8l0.5-0.5
			c1.2-1.4,2.3-2.6,3.5-3.8c0.3,0.3,0.6,0.6,1.1,0.9c0.3,0.3,0.5,0.5,0.8,0.7c0.3,0.3,0.7,0.6,1,0.8c0.5,0.4,0.8,0.6,1.1,0.8
			c0.5,0.3,0.9,0.6,1.3,0.9c0.4,0.3,0.9,0.6,1.8,1.1c0.5,0.2,0.7,0.4,0.9,0.5c0.4,0.2,0.8,0.4,1.5,0.7c0.6,0.3,1.1,0.5,1.6,0.7
			c0.9,0.4,1.6,0.6,3.2,1.1c0.4,0.1,0.6,0.1,1.1,0.3c0.3,0.1,0.3,0.1,0.6,0.1c0.7,0.1,1.2,0.2,1.7,0.3c0.2,0.1,0.6,0.1,1.1,0.1
			c0.3,0,0.6,0.1,1.1,0.1c0.5,0,0.7,0,0.9,0.1c1.7,0,2.3,0,3.2-0.1c0.7-0.1,0.7-0.1,1.4-0.2c0.6-0.1,0.6-0.1,1.3-0.2
			c0.8-0.1,1.3-0.2,2.4-0.6c0.2-0.1,0.4-0.1,0.9-0.2c0.4-0.1,0.7-0.2,0.9-0.3c0.6-0.2,1.1-0.4,1.4-0.5l11.4-5l-12.2,2.2
			c-0.3,0.1-0.9,0.2-1.6,0.5c0,0-0.3,0.1-0.7,0.2c-0.3,0.1-0.5,0.1-0.8,0.2c-0.3,0.1-0.4,0.1-1.1,0.2c-0.5,0.1-0.7,0.2-1,0.2
			c-0.9,0.1-1.7,0.2-2.5,0.2c-1.4,0-2,0-2.8-0.1c-1.5-0.1-2.2-0.2-3-0.4c-0.4-0.1-0.7-0.2-1.5-0.3c-0.8-0.2-1.2-0.3-1.6-0.4
			c-0.8-0.2-1.7-0.6-2.7-1c-0.7-0.3-1.3-0.6-2.7-1.4c-1.2-0.7-1.7-1-2.2-1.5c-0.4-0.3-0.7-0.5-1.1-0.8c-0.5-0.4-0.8-0.6-1-0.8
			c-0.2-0.1-0.3-0.3-0.5-0.4c-0.3-0.2-0.5-0.5-0.9-0.9c-0.2-0.2-0.3-0.3-0.5-0.4c-0.1-0.1-0.2-0.2-0.2-0.2
			c4.3-4.2,8.9-7.9,13.8-11.3c1.6,0.9,3.4,1.4,5.2,1.4c1.1,0,2.3-0.2,3.4-0.6c5.6,5.8,12.2,11.6,18.4,15.7c5.1,3.4,9.3,5.2,12.9,5.2
			c0.9,0,1.8-0.1,2.7-0.4c2.5-0.7,4.6-2.5,6-5.2c2.1-3.4,2.4-7.1,1-10.6l-1.3,0.6l1.3-0.5c-1.3-3.4-4.1-6-7.6-6.9l-0.6-0.2
			c-1.6-0.4-3.1-0.9-4.8-1.4c0.2-0.7,0.2-1,0.3-1.4c0-0.2,0-0.3,0.1-0.7c0.1-0.8,0.2-1.3,0.2-1.9c0.1-1.4,0.2-2,0.2-3
			c0.1-0.8,0.1-1.6-0.1-3.4c-0.2-1.8-0.2-2.6-0.5-3.6c-0.2-0.9-0.4-2.1-0.8-3.5c-0.1-0.4-0.2-0.6-0.4-1.2c-0.4-1.2-0.5-1.7-0.8-2.4
			c-0.3-0.8-0.6-1.5-1.3-3c-0.2-0.5-0.4-0.8-0.8-1.5c-0.4-0.7-0.5-1-0.7-1.3c-0.3-0.4-0.8-1.2-0.9-1.4c-0.3-0.5-0.6-0.9-0.9-1.2
			c-0.3-0.5-0.7-1-1.5-1.8c0.2,0.3-1-1.2-1.4-1.5c-0.4-0.4-0.8-0.9-1.1-1.1l-1.8,2.1l1,1.1c0.2,0.2,0.4,0.3,0.5,0.5
			c0.1,0.2,0.3,0.3,0.5,0.7c0.5,0.6,0.9,1.1,1.4,1.8c0.1,0.1,1.1,1.8,1.5,2.4c0.4,0.7,0.8,1.6,1.3,2.6c0.1,0.3,0.3,0.7,0.6,1.5
			c0.3,0.8,0.4,1.1,0.6,1.5c0.3,0.8,0.5,1.5,0.9,3.1c0.3,1,0.4,2.1,0.5,3.1c0.1,0.7,0.1,1.1,0.2,2.2c0,0.5,0,0.8,0.1,1.1
			c0,1.4,0,2.1-0.1,2.8c0,0.6,0,1.1-0.2,1.9c-0.1,0.4-0.1,0.7-0.1,0.9c0,0.3-0.1,0.6-0.2,1.1c-0.1,0.6-0.2,0.8-0.2,1.1
			c0,0.3-0.1,0.5-0.1,0.7C102.2,95.8,97,93.4,91.6,90.3z M80.4,91.9c-0.3,0-0.5-0.3-0.5-0.6c0-0.3,0.2-0.6,0.5-0.6
			c0.3,0,0.5,0.3,0.5,0.6C80.9,91.6,80.6,91.9,80.4,91.9v2.9c1.8,0,3.2-1.6,3.2-3.5s-1.4-3.5-3.2-3.5s-3.2,1.6-3.2,3.5
			s1.4,3.5,3.2,3.5V91.9z M80.4,86c-2.6,0-4.8,2.4-4.8,5.2s2.2,5.2,4.8,5.2c2.6,0,4.8-2.4,4.8-5.2C85.2,88.4,83,86,80.4,86v2.9
			c1.2,0,2.1,1,2.1,2.3c0,1.3-1,2.3-2.1,2.3c-1.1,0-2.1-1.1-2.1-2.3c0-1.3,1-2.3,2.1-2.3V86z"/>
	</g>
</g>
</svg>
