<?xml version="1.0" encoding="UTF-8" standalone="no"?>
<svg width="36px" height="44px" viewBox="0 0 36 44" version="1.1" xmlns="http://www.w3.org/2000/svg" xmlns:xlink="http://www.w3.org/1999/xlink">
    <!-- Generator: Sketch 41.1 (35376) - http://www.bohemiancoding.com/sketch -->
    <title>G</title>
    <desc>Created with Sketch.</desc>
    <defs></defs>
    <g id="Welcome" stroke="none" stroke-width="1" fill="none" fill-rule="evenodd">
        <g id="Artboard-3" transform="translate(-7.000000, -5.000000)" fill="#E9DD00">
            <path d="M27.7645334,25.706774 L42.1177645,25.706774 L42.1177645,46.2402695 C39.8843867,46.95264 37.6125365,47.4917231 35.3021457,47.8575349 C32.9917549,48.2233468 30.3155924,48.40625 27.2735778,48.40625 C20.8814966,48.40625 15.9046045,46.5050194 12.342752,42.7025012 C8.78089952,38.8999831 7,33.5717242 7,26.7175649 C7,22.3278224 7.88082328,18.482042 9.64249626,15.1801085 C11.4041692,11.878175 13.9407477,9.35603624 17.2523079,7.61361652 C20.563868,5.87119679 24.443341,5 28.8908433,5 C33.3961054,5 37.5932523,5.82787762 41.4824102,7.48365768 L39.5763473,11.8156188 C35.7642025,10.1983452 32.0965121,9.38972056 28.5731662,9.38972056 C23.4325467,9.38972056 19.4183029,10.9203315 16.5303144,13.9815993 C13.6423259,17.0428671 12.1983533,21.2881465 12.1983533,26.7175649 C12.1983533,32.4165288 13.5893802,36.7388201 16.3714758,39.6845684 C19.1535714,42.6303166 23.2400138,44.1031687 28.6309256,44.1031687 C31.5574207,44.1031687 34.4164864,43.7662417 37.2082086,43.0923777 L37.2082086,30.0964945 L27.7645334,30.0964945 L27.7645334,25.706774 Z" id="G"></path>
        </g>
    </g>
</svg>