<?xml version="1.0" encoding="utf-8"?>
<!-- Generator: Adobe Illustrator 21.0.0, SVG Export Plug-In . SVG Version: 6.00 Build 0)  -->
<svg version="1.1" id="Layer_1" xmlns="http://www.w3.org/2000/svg" xmlns:xlink="http://www.w3.org/1999/xlink" x="0px" y="0px"
	 width="160px" height="160px" viewBox="0 0 160 160" enable-background="new 0 0 160 160" xml:space="preserve">
<title>Heart</title>
<desc>Created with Sketch.</desc>
<g id="Symbols">
	<g id="Heart">
		<path id="Shape" fill="#FF9400" d="M80.4,121.9c-0.5,0.5-1,0.5-1.5,0.1L51.3,95C30.9,74,27.3,61.4,40.4,44.1
			c7.5-10,22.9-8.2,36.1,4.6c1.9,1.9,5.1,1.9,7-0.1c11.9-12.7,27.3-14.5,35.8-4.4c13.6,16.3,9.8,29.3-11.2,50.8L80.4,121.9z
			 M34.3,39.5c-15.8,21-11.2,37.5,11.6,61l27.7,26.9c3.3,3.4,8.7,3.4,12.1-0.1l27.6-26.8c23.5-24.1,28.5-41.2,11.7-61.3
			c-11.2-13.5-30.7-11.9-45.2,2.1C64,27.4,44.6,25.8,34.3,39.5z"/>
	</g>
</g>
</svg>
