<?xml version="1.0" encoding="UTF-8" standalone="no"?>
  <svg version="1.1" id="Layer_1" xmlns="http://www.w3.org/2000/svg" xmlns:xlink="http://www.w3.org/1999/xlink" x="0px" y="0px"
	 width="21px" height="21px" viewBox="0 0 21 21" enable-background="new 0 0 21 21" xml:space="preserve">
   
    <!-- Generator: Sketch 41.1 (35376) - http://www.bohemiancoding.com/sketch -->
    <title>Heart</title>
    <desc>Created with Sketch.</desc>
    <defs></defs>
    <g id="Symbols" stroke="none" stroke-width="1" fill="none" fill-rule="evenodd">
        <g id="Heart" fill="#FF9400">
            <path d="M10.4489367,16.5318246 C10.3802392,16.6015035 10.3144361,16.6015035 10.2569724,16.5429211 L6.60835052,13.0363845 C3.92104269,10.2964459 3.45255606,8.65817181 5.16872969,6.40342384 C6.15325174,5.10597215 8.18365035,5.33279995 9.93097352,7.00193129 C10.1750532,7.25114054 10.6012916,7.25114054 10.8569453,6.99050949 C12.4307181,5.33039725 14.459122,5.10208702 15.5711718,6.42266112 C17.3635871,8.54040908 16.8580755,10.2413295 14.0967974,13.0406303 L10.4489367,16.5318246 Z M4.37255773,5.79835387 C2.2874652,8.53779499 2.90152285,10.6851237 5.90495646,13.7470312 L9.55357837,17.2535678 C9.99257012,17.7014178 10.7021052,17.7014178 11.1515934,17.2431784 L14.7933953,13.7581277 C17.8866134,10.6242055 18.5509297,8.39537276 16.33528,5.77757418 C14.8540438,4.01858403 12.2955248,4.22844476 10.3769229,6.05594827 C8.28030195,4.22440742 5.72546285,4.01542758 4.37255773,5.79835387 Z" id="Shape"></path>
        </g>
    </g>
</svg>