<?xml version="1.0" encoding="utf-8"?>
<!-- Generator: Adobe Illustrator 21.0.0, SVG Export Plug-In . SVG Version: 6.00 Build 0)  -->
<svg version="1.1" id="Layer_1" xmlns="http://www.w3.org/2000/svg" xmlns:xlink="http://www.w3.org/1999/xlink" x="0px" y="0px"
	 width="50px" height="50px" viewBox="0 0 50 50" enable-background="new 0 0 50 50" xml:space="preserve">
<title>Help</title>
<desc>Created with Sketch.</desc>
<g id="Page-1">
	<g id="Help_1_">
		<g id="Symbols">
			<g id="Help">
				<path id="Shape" fill="#ED153F" d="M25,0C11.2,0,0,11.2,0,25s11.2,25,25,25s25-11.2,25-25S38.8,0,25,0z M25,38
					c-1.4,0-2.6-1.2-2.6-2.6s1.2-2.6,2.6-2.6c1.4,0,2.6,1.2,2.6,2.6S26.4,38,25,38z M29.1,25.7c-1.9,2-2,3.2-1.9,4.5H23
					c0-3.1,0-4.4,3-7.2c1.2-1.1,2.1-2,2-3.8c-0.1-1.7-1.5-2.6-2.8-2.6c-1.5,0-3.2,1.1-3.2,4.2h-4.2c0-5,2.9-8.2,7.5-8.2
					c2.2,0,4,0.7,5.3,2c1.2,1.2,1.8,2.9,1.8,4.8C32.2,22.3,30.5,24.1,29.1,25.7L29.1,25.7z"/>
			</g>
		</g>
	</g>
</g>
</svg>
