<?xml version="1.0" encoding="utf-8"?>
<!-- Generator: Adobe Illustrator 16.0.0, SVG Export Plug-In . SVG Version: 6.00 Build 0)  -->
<!DOCTYPE svg PUBLIC "-//W3C//DTD SVG 1.1//EN" "http://www.w3.org/Graphics/SVG/1.1/DTD/svg11.dtd">
<svg version="1.1" id="Layer_1" xmlns="http://www.w3.org/2000/svg" xmlns:xlink="http://www.w3.org/1999/xlink" x="0px" y="0px"
	 width="50px" height="50px" viewBox="0 0 50 50" enable-background="new 0 0 50 50" xml:space="preserve">
<g>
	<path fill="#FF9400" d="M25.005,1C11.206,1-0.417,11.977,0.012,25.5c0.158,5.046,1.204,8.914,3.694,12.816l5.021-2.689
		C6.669,32.511,6,29.484,6,25.5C6,14.453,13.529,7.043,24.801,7.043c11.271,0,19.367,7.409,19.367,18.457
		c0,11.046-8.098,18.307-19.367,18.307c-5.117,0-9.053-0.88-12.634-3.933l-3.58,4.095C13.051,48.035,18.44,50,25.01,50
		C38.812,50,50,39.034,50,25.5C50,11.967,38.812,1,25.005,1L25.005,1z"/>
	<path fill="#FF9400" d="M8.726,44.089c-0.193-0.159-0.347-0.354-0.459-0.563L8.726,44.089z"/>
	<path fill="#FF9400" d="M3.7,38.307c-0.092-0.158-0.158-0.339-0.188-0.535L3.7,38.307z"/>
	<path fill="#FF9400" d="M24.803,15.784L24.803,15.784"/>
	<path fill="#FF9400" d="M22.548,17.994"/>
</g>
<path fill="#FF9400" d="M34.377,19.036c0-2.597-0.934-4.592-2.773-5.918c-1.82-1.312-4.135-1.98-6.873-1.98
	c-2.085,0-3.878,0.469-5.315,1.398c-2.295,1.459-3.531,3.954-3.684,7.424l-0.006,0.244h5.658v-0.239c0-0.939,0.275-1.862,0.832-2.74
	c0.535-0.857,1.434-1.271,2.75-1.271c1.321,0,2.24,0.341,2.719,1.02c0.496,0.705,0.75,1.496,0.75,2.347
	c0,0.613-0.254,1.24-0.83,2.031c-0.246,0.356-0.578,0.693-0.971,0.994c-0.117,0.077-2.857,1.842-4.097,3.297
	c-0.786,0.933-0.837,2.051-0.903,3.963l-0.015,0.471h5.489l0.007-0.24c0.01-0.908,0.075-1.02,0.219-1.475
	c0.179-0.562,0.657-1.145,1.442-1.756l1.438-0.994c1.307-1.016,2.344-1.848,2.812-2.516l-0.004-0.006
	C33.924,21.857,34.377,20.49,34.377,19.036z"/>
<path fill="#FF9400" d="M24.658,32.975l-0.117-0.004c-1.939,0-3.389,1.406-3.443,3.348c-0.057,1.975,1.356,3.453,3.361,3.515h0.133
	c1.98,0,3.408-1.36,3.465-3.308C28.117,34.5,26.721,33.036,24.658,32.975z"/>
</svg>
