<?xml version="1.0" encoding="utf-8"?>
<!-- Generator: Adobe Illustrator 21.0.0, SVG Export Plug-In . SVG Version: 6.00 Build 0)  -->
<svg version="1.1" id="Layer_1" xmlns="http://www.w3.org/2000/svg" xmlns:xlink="http://www.w3.org/1999/xlink" x="0px" y="0px"
	 width="90px" height="45px" viewBox="0 0 90 45" enable-background="new 0 0 90 45" xml:space="preserve">
<title>home</title>
<desc>Created with Sketch.</desc>
<g id="Page-1_1_">
	<g id="home">
		<g id="Page-1">
			<g id="Menu-icon_1_">
				<g id="Symbols">
					<g id="Menu-icon">
						<g id="Group-2">
							<path id="Fill-200" fill="#F40B2C" d="M0,42.9h17.1v-6.5H0V42.9z M0,26.6h17.1v-6.5H0V26.6z M0,10.4h17.1V3.9H0V10.4z"/>
							<path id="Shape" opacity="0.8675" fill="#F40B2C" enable-background="new    " d="M47.3,44.1c6.4,1.2,12-0.7,16.8-4.7
								c2.4-2.1,4.3-4.2,5.8-6.8c0.5-0.7,0.8-1.5,1.2-2.2l10.3,13.9l8.3-6.8L69,9.5l0,0c-0.7-1-1.5-1.9-2.4-2.9
								c-3.8-4-8.5-6-13.9-5.8c-6.8,0.3-12.1,3.6-16.5,8.9c-6.4,8-6.5,18.3-0.7,26.4C38.3,40.5,42.5,43.2,47.3,44.1z M43.8,29.5
								c-3.7-5.2-3-11.8,1.8-15.8s11-3.1,14.8,2.2c0.1,0.1,0.1,0.3,0.2,0.4l0,0v0.1c3.3,5,2.4,11.4-2.1,15.2
								C53.7,35.5,47.3,34.6,43.8,29.5z"/>
						</g>
					</g>
				</g>
			</g>
		</g>
	</g>
</g>
</svg>
