<?xml version="1.0" encoding="utf-8"?>
<!-- Generator: Adobe Illustrator 21.0.0, SVG Export Plug-In . SVG Version: 6.00 Build 0)  -->
<svg version="1.1" id="Layer_1" xmlns="http://www.w3.org/2000/svg" xmlns:xlink="http://www.w3.org/1999/xlink" x="0px" y="0px"
	 width="119px" height="161px" viewBox="0 0 119 161" enable-background="new 0 0 119 161" xml:space="preserve">
<title>Bulb</title>
<desc>Created with Sketch.</desc>
<g id="Page-1">
	<g id="Bulb_1_" transform="translate(0.000000, -3.000000)">
		<g id="Symbols">
			<g id="Bulb">
				<g id="Group">
					<path id="Fill-1" fill="#A8A6A3" d="M113.8,68.4c-5.2,10.5-10.8,20.8-16.5,31.1c-1.9,3.5-6.5,4.6-10.1,2.8
						c-3.7-1.8-4.9-5.6-2.9-8.8c6.3-10.4,12.6-20.8,16.8-32c4.3-11.5,1.2-21.8-6.9-31.2c-6.6-7.7-15.8-12.4-26.8-14.1
						c-13.4-2-25.5,0.7-36.1,8.1c-7.6,5.3-12.3,12-14.5,20c-2,7.2-1.5,14.3,1.9,21c4.9,9.6,10.4,19,15.4,28.5
						c3.1,6,5.9,12.2,8.4,18.5c0.7,1.7,1.4,2.1,3.2,2.1c12.5,0,24.9,0,37.4,0c8.6,0,16.2,6.8,16.7,14.1c0.6,9.6-8.5,16.5-19.5,16.5
						c-10.8,0-21.7,0-32.5,0c-2.1,0-3.9,0.1-3.9,2.5c-0.1,2.5,1.7,2.8,4,2.8c9.3,0,18.6,0,27.9,0c5.5,0,9.3,3.2,8.6,7.3
						c-0.5,3-3.1,4.5-6.1,5.6H45.2c-0.3,0-0.6,0-0.9,0c-13.1-1.6-19-14.5-12.5-23.6c4-5.6,10.4-7.3,17.6-7.4
						c10.6-0.1,21.3,0,31.9-0.1c1.2,0,2.7-0.5,3.4-1.2c0.5-0.6,0.4-2.2-0.2-2.8c-0.8-0.7-2.4-1.2-3.6-1.2
						c-15.7-0.1-31.5-0.1-47.2-0.1h-3.7c0-2,0.3-3.6,0-5.1c-1.5-7.8-4.8-15.2-8.8-22.3c-5-8.9-10.3-17.7-14.9-26.8
						c-2.3-4.5-4.6-9.3-5.1-14.2c-0.4-4.3,0.5-12.8,0.5-13c0.5-5.7,2.9-11,5.9-15.9C14.7,18,25.9,10.1,40.6,5.7
						c1.8-0.5,7.1-1.6,12.4-2c6.4-0.5,13-0.2,13.1-0.2C74.3,4,81.9,6.3,89,9.9c13.4,6.7,22.3,16.4,26.7,29.1c0.7,1.9,1.9,6.1,2.4,10
						c0.4,2.9,0.1,5.8-0.1,7C117.1,60.6,115.1,65.8,113.8,68.4"/>
					<path id="Fill-4" fill="#A8A6A3" d="M58.2,28.8c3.4,0.2,5.8,1.8,5.7,3.9c-0.1,2.1-2.3,3.5-5.7,3.6c-8.9,0.1-17.3,6.2-18.8,13.7
						c-0.2,1.2-0.5,2.3-0.6,3.5c-0.2,2.5-1.6,3.6-4.4,3.5c-2.3-0.1-4.2-1.9-4.1-4c0.9-11.2,8.5-19.8,21.3-23.1
						C53.9,29.4,56.1,29.2,58.2,28.8"/>
				</g>
			</g>
		</g>
	</g>
</g>
</svg>
