<?xml version="1.0" encoding="utf-8"?>
<!-- Generator: Adobe Illustrator 21.0.0, SVG Export Plug-In . SVG Version: 6.00 Build 0)  -->
<svg version="1.1" id="Layer_1" xmlns="http://www.w3.org/2000/svg" xmlns:xlink="http://www.w3.org/1999/xlink" x="0px" y="0px"
	 width="100px" height="100px" viewBox="0 0 100 100" enable-background="new 0 0 100 100" xml:space="preserve">
<title>Bulb</title>
<desc>Created with Sketch.</desc>
<g id="Page-1">
	<g id="Bulb_1_" transform="translate(0.000000, -3.000000)">
		<g id="Symbols">
			<g id="Bulb">
				<g id="Group">
					<path id="Fill-1" fill="#A8A6A3" d="M96.2,43.7c-4.4,6.6-9.2,13-14.1,19.5c-1.6,2.2-5.5,2.9-8.6,1.8c-3.2-1.1-4.2-3.5-2.5-5.5
						c5.4-6.5,10.8-13,14.3-20c3.7-7.2,1-13.6-5.9-19.5C73.8,15,66,12.1,56.6,11c-11.4-1.3-21.8,0.4-30.8,5.1
						c-6.5,3.3-10.5,7.5-12.4,12.5c-1.7,4.5-1.3,8.9,1.6,13.1c4.2,6,8.9,11.9,13.1,17.8c2.6,3.8,5,7.6,7.2,11.6
						c0.6,1.1,1.2,1.3,2.7,1.3c10.7,0,21.2,0,31.9,0c7.3,0,13.8,4.3,14.2,8.8c0.5,6-7.3,10.3-16.6,10.3c-9.2,0-18.5,0-27.7,0
						c-1.8,0-3.3,0.1-3.3,1.6c-0.1,1.6,1.5,1.8,3.4,1.8c7.9,0,15.9,0,23.8,0c4.7,0,7.9,2,7.3,4.6c-0.4,1.9-2.6,2.8-5.2,3.5H37.6
						c-0.3,0-0.5,0-0.8,0c-11.2-1-16.2-9.1-10.7-14.8c3.4-3.5,8.9-4.6,15-4.6c9-0.1,18.2,0,27.2-0.1c1,0,2.3-0.3,2.9-0.8
						c0.4-0.4,0.3-1.4-0.2-1.8c-0.7-0.4-2-0.8-3.1-0.8c-13.4-0.1-26.9-0.1-40.3-0.1h-3.2c0-1.3,0.3-2.3,0-3.2
						c-1.3-4.9-4.1-9.5-7.5-14C12.9,57.5,8.4,52,4.4,46.3c-2-2.8-3.9-5.8-4.4-8.9c-0.3-2.7,0.4-8,0.4-8.1c0.4-3.6,2.5-6.9,5-10
						c6.1-7.2,15.6-12.1,28.2-14.9c1.5-0.3,6.1-1,10.6-1.3c5.5-0.3,11.1-0.1,11.2-0.1c7,0.3,13.5,1.8,19.5,4
						c11.4,4.2,19,10.3,22.8,18.2c0.6,1.2,1.6,3.8,2,6.3c0.3,1.8,0.1,3.6-0.1,4.4C99,38.8,97.3,42,96.2,43.7"/>
					<path id="Fill-4" fill="#A8A6A3" d="M48.7,18.9c2.9,0.1,4.9,1.1,4.9,2.4c-0.1,1.3-2,2.2-4.9,2.3c-7.6,0.1-14.8,3.9-16,8.6
						c-0.2,0.8-0.4,1.4-0.5,2.2c-0.2,1.6-1.4,2.3-3.8,2.2c-2-0.1-3.6-1.2-3.5-2.5c0.8-7,7.3-12.4,18.2-14.5
						C45.1,19.3,46.9,19.1,48.7,18.9"/>
				</g>
			</g>
		</g>
	</g>
</g>
</svg>
