<?xml version="1.0" encoding="utf-8"?>
<!-- Generator: Adobe Illustrator 16.0.0, SVG Export Plug-In . SVG Version: 6.00 Build 0)  -->
<!DOCTYPE svg PUBLIC "-//W3C//DTD SVG 1.1//EN" "http://www.w3.org/Graphics/SVG/1.1/DTD/svg11.dtd">
<svg version="1.1" id="Layer_1" xmlns="http://www.w3.org/2000/svg" xmlns:xlink="http://www.w3.org/1999/xlink" x="0px" y="0px"
	 width="160px" height="160px" viewBox="0 0 160 160" enable-background="new 0 0 160 160" xml:space="preserve">
<title>Bulb</title>
<desc>Created with Sketch.</desc>
<g id="Page-1">
	<g id="Control-screen-Copy-3" transform="translate(-171.000000, -139.000000)">
		<g id="Control-1-Copy-2" transform="translate(156.000000, 128.000000)">
			<g id="Bulb" transform="translate(15.000000, 11.000000)">
				<path id="Fill-1" fill="#A8A6A3" d="M110.049,66.598c-2.867,6.554-6.003,13.006-9.17,19.439
					c-1.07,2.165-3.596,2.852-5.575,1.777c-2.038-1.109-2.687-3.535-1.625-5.533c3.467-6.522,6.999-13.027,9.333-20.044
					c2.391-7.192,0.678-13.62-3.823-19.529c-3.682-4.83-8.769-7.761-14.84-8.81c-7.416-1.282-14.139,0.468-20.009,5.101
					c-4.199,3.313-6.81,7.492-8.063,12.526c-1.125,4.514-0.809,8.957,1.075,13.164c2.695,6.013,5.786,11.867,8.541,17.859
					c1.739,3.783,3.288,7.652,4.666,11.571c0.383,1.089,0.766,1.326,1.798,1.322c6.911-0.026,13.822-0.018,20.731-0.014
					c4.766,0,8.987,4.268,9.247,8.84c0.338,5.99-4.693,10.332-10.8,10.306c-6.009-0.027-12.008,0.006-18.012-0.017
					c-1.176-0.004-2.151,0.084-2.189,1.557c-0.039,1.535,0.931,1.729,2.205,1.728c5.155-0.017,10.312-0.024,15.464,0
					c3.07,0.017,5.166,2.015,4.767,4.563c-0.294,1.861-1.696,2.832-3.385,3.517H72.026c-0.163-0.004-0.329,0-0.51-0.026
					c-7.268-1.021-10.551-9.062-6.925-14.761c2.223-3.491,5.746-4.569,9.752-4.598c5.89-0.048,11.785,0.004,17.679-0.056
					c0.65-0.01,1.513-0.293,1.871-0.746c0.293-0.368,0.206-1.389-0.138-1.741c-0.446-0.455-1.314-0.742-2.007-0.751
					c-8.725-0.049-17.448-0.028-26.175-0.028h-2.066c0-1.25,0.14-2.246-0.022-3.187c-0.848-4.901-2.639-9.512-4.87-13.981
					c-2.783-5.577-5.685-11.107-8.247-16.777c-1.273-2.82-2.542-5.818-2.823-8.873c-0.2-2.703,0.288-7.998,0.298-8.114
					c0.298-3.557,1.583-6.869,3.271-9.959c3.982-7.297,10.211-12.262,18.335-14.972c1.021-0.342,3.93-1.015,6.881-1.258
					c3.574-0.294,7.188-0.124,7.256-0.12c4.569,0.328,8.784,1.75,12.697,3.965c7.423,4.206,12.387,10.293,14.809,18.196
					c0.366,1.199,1.039,3.813,1.303,6.262c0.2,1.823,0.067,3.598-0.058,4.378C111.864,61.672,110.769,64.953,110.049,66.598"/>
				<path id="Fill-4" fill="#A8A6A3" d="M79.237,41.799c1.896,0.142,3.237,1.125,3.186,2.453c-0.053,1.331-1.283,2.2-3.15,2.229
					c-4.937,0.081-9.584,3.888-10.43,8.551c-0.132,0.731-0.283,1.465-0.341,2.204c-0.124,1.554-0.871,2.263-2.425,2.22
					c-1.281-0.036-2.348-1.18-2.251-2.508c0.514-7.034,4.737-12.364,11.829-14.454C76.814,42.152,78.042,42.024,79.237,41.799"/>
			</g>
		</g>
	</g>
</g>
</svg>
