<?xml version="1.0" encoding="utf-8"?>
<!-- Generator: Adobe Illustrator 16.0.0, SVG Export Plug-In . SVG Version: 6.00 Build 0)  -->
<!DOCTYPE svg PUBLIC "-//W3C//DTD SVG 1.1//EN" "http://www.w3.org/Graphics/SVG/1.1/DTD/svg11.dtd">
<svg version="1.1" id="Layer_1" xmlns="http://www.w3.org/2000/svg" xmlns:xlink="http://www.w3.org/1999/xlink" x="0px" y="0px"
	 width="160px" height="160px" viewBox="0 0 160 160" enable-background="new 0 0 160 160" xml:space="preserve">
<title>Bulb</title>
<desc>Created with Sketch.</desc>
<g id="Page-1">
	<g id="Control-screen-Copy-3" transform="translate(-171.000000, -139.000000)">
		<g id="Control-1-Copy-2" transform="translate(156.000000, 128.000000)">
			<g id="Bulb" transform="translate(15.000000, 11.000000)">
				<path id="Fill-1" fill="#FFFFFF" d="M107.739,66.598c-2.647,6.554-5.542,13.006-8.465,19.439
					c-0.989,2.165-3.32,2.852-5.147,1.777c-1.882-1.109-2.48-3.534-1.5-5.533c3.2-6.522,6.461-13.027,8.615-20.044
					c2.207-7.192,0.626-13.62-3.529-19.529c-3.398-4.83-8.095-7.761-13.699-8.81c-6.845-1.282-13.052,0.468-18.47,5.101
					c-3.876,3.313-6.286,7.492-7.444,12.526c-1.038,4.514-0.746,8.957,0.993,13.164c2.488,6.013,5.341,11.867,7.884,17.859
					c1.605,3.783,3.035,7.652,4.307,11.571c0.354,1.089,0.707,1.326,1.66,1.322c6.379-0.026,12.759-0.017,19.137-0.013
					c4.399,0,8.297,4.267,8.536,8.84c0.313,5.99-4.332,10.332-9.968,10.305c-5.547-0.027-11.086,0.006-16.628-0.017
					c-1.086-0.003-1.986,0.084-2.021,1.557c-0.036,1.536,0.86,1.729,2.035,1.728c4.759-0.017,9.519-0.024,14.276,0
					c2.834,0.016,4.768,2.015,4.4,4.564c-0.271,1.86-1.566,2.832-3.125,3.516H72.639c-0.15-0.004-0.303,0-0.47-0.027
					c-6.709-1.02-9.74-9.061-6.393-14.76c2.052-3.491,5.304-4.569,9.002-4.598c5.437-0.048,10.878,0.004,16.319-0.056
					c0.601-0.009,1.397-0.293,1.728-0.746c0.271-0.368,0.19-1.388-0.127-1.741c-0.412-0.455-1.214-0.742-1.853-0.751
					c-8.053-0.048-16.106-0.028-24.162-0.028h-1.907c0-1.25,0.129-2.246-0.021-3.187c-0.783-4.901-2.436-9.511-4.495-13.981
					c-2.569-5.577-5.248-11.107-7.613-16.777c-1.176-2.82-2.346-5.818-2.606-8.873c-0.184-2.703,0.266-7.998,0.275-8.114
					c0.275-3.557,1.461-6.869,3.019-9.959c3.676-7.297,9.426-12.262,16.926-14.972c0.942-0.342,3.627-1.015,6.352-1.258
					c3.299-0.294,6.636-0.124,6.698-0.12c4.219,0.328,8.109,1.75,11.721,3.965c6.852,4.206,11.434,10.293,13.67,18.196
					c0.338,1.199,0.959,3.813,1.203,6.262c0.184,1.823,0.062,3.598-0.053,4.378C109.414,61.672,108.403,64.953,107.739,66.598"/>
				<path id="Fill-4" fill="#FFFFFF" d="M79.296,41.799c1.75,0.142,2.988,1.125,2.94,2.453c-0.049,1.331-1.184,2.2-2.908,2.229
					c-4.557,0.081-8.847,3.888-9.628,8.551c-0.122,0.731-0.261,1.465-0.315,2.204c-0.114,1.554-0.804,2.263-2.239,2.22
					c-1.182-0.036-2.167-1.18-2.078-2.508c0.474-7.034,4.373-12.364,10.919-14.454C77.059,42.152,78.193,42.024,79.296,41.799"/>
			</g>
		</g>
	</g>
</g>
</svg>
