<?xml version="1.0" encoding="utf-8"?>
<!-- Generator: Adobe Illustrator 16.0.0, SVG Export Plug-In . SVG Version: 6.00 Build 0)  -->
<!DOCTYPE svg PUBLIC "-//W3C//DTD SVG 1.1//EN" "http://www.w3.org/Graphics/SVG/1.1/DTD/svg11.dtd">
<svg version="1.1" id="Layer_1" xmlns="http://www.w3.org/2000/svg" xmlns:xlink="http://www.w3.org/1999/xlink" x="0px" y="0px"
	 width="160px" height="160px" viewBox="0 0 160 160" enable-background="new 0 0 160 160" xml:space="preserve">
<title>Chandelier</title>
<desc>Created with Sketch.</desc>
<g id="Symbols">
	<g id="Bulb">
		
			<g id="Page-1" transform="translate(10.500000, 11.000000) rotate(-360.000000) translate(-10.500000, -11.000000) translate(6.000000, 4.000000)">
			<path id="Stroke-1" fill="#A8A6A3" d="M33.5,56.6c-0.2-0.4-0.3-0.8-0.3-1.2C34,42,52.1,31.3,74.1,31.3c22.1,0,40.2,10.6,41,24.1
				c0,0.4-0.1,0.8-0.3,1.2l-16.9,34c-0.7,1.4,0.6,3,3,3.4s4.9-0.4,5.6-1.8l16.8-33.9c0.5-1,0.7-2,0.6-3C123,39,100.9,26,74,26
				S25.1,39,24,55.3c-0.1,1,0.2,2,0.7,3l23.7,47.2c0.6,1.2,2.3,1.9,4.3,1.9l43-0.1c1.7,0,3.1,0.8,3.1,1.9s-1.4,1.9-3.1,1.9H60.2
				c-6.7,0-12.1,3.3-12.1,7.4c0,4.1,5.4,7.4,12.1,7.4l16.9-0.1c2.5,0,4.5-1.2,4.5-2.8s-2.1-2.8-4.6-2.7l-16.9,0.1
				c-1.7,0-3.1-0.9-3.1-1.9c0-1.1,1.4-1.9,3.1-1.9l35.8-0.1c6.7,0,12.1-3.3,12.1-7.4c0-4.1-5.4-7.4-12.1-7.4l-39.7,0.1L33.5,56.6z"
				/>
			<path id="Stroke-3" fill="#A8A6A3" d="M56.8,55.7c0-5.3,6.9-9.5,15.6-9.5c2.5,0,4.5-1.3,4.5-2.8s-2-2.8-4.5-2.8
				c-13.6,0-24.6,6.7-24.6,14.9c0,1.5,2,2.8,4.5,2.8C54.8,58.4,56.8,57.2,56.8,55.7z"/>
		</g>
	</g>
</g>
</svg>
