<?xml version="1.0" encoding="utf-8"?>
<!-- Generator: Adobe Illustrator 16.0.0, SVG Export Plug-In . SVG Version: 6.00 Build 0)  -->
<!DOCTYPE svg PUBLIC "-//W3C//DTD SVG 1.1//EN" "http://www.w3.org/Graphics/SVG/1.1/DTD/svg11.dtd">
<svg version="1.1" id="Layer_1" xmlns="http://www.w3.org/2000/svg" xmlns:xlink="http://www.w3.org/1999/xlink" x="0px" y="0px"
	 width="160px" height="160px" viewBox="0 0 160 160" enable-background="new 0 0 160 160" xml:space="preserve">
<title>Cold Weather</title>
<desc>Created with Sketch.</desc>
<g id="Symbols">
	<g id="Cold-Weather">
		<path id="Shape" fill="#FFFFFF" d="M120.521,71.418h-11.855l7.326-7.329c0.768-0.771,0.768-2.023,0-2.794
			c-0.77-0.771-2.027-0.771-2.795,0l-10.12,10.123H84.753l9.802-9.802h8.571c1.093,0,1.978-0.886,1.978-1.975
			c0-1.089-0.885-1.979-1.978-1.979h-6.212c-0.09-0.27-0.242-0.525-0.464-0.74c-0.159-0.162-0.345-0.283-0.539-0.38v-6.239
			c0-1.093-0.886-1.979-1.979-1.979c-1.093,0-1.979,0.886-1.979,1.979v8.325l-10.08,10.078V50.763l10.33-10.338
			c0.773-0.771,0.773-2.023,0-2.794c-0.768-0.771-2.02-0.771-2.795,0l-7.535,7.543V32.979c0-1.093-0.887-1.979-1.979-1.979
			c-1.089,0-1.975,0.885-1.975,1.979v11.859l-7.329-7.329c-0.771-0.771-2.024-0.771-2.794,0c-0.771,0.771-0.771,2.023,0,2.794
			l10.123,10.124v18.086l-9.906-9.906v-8.325c0-1.09-0.885-1.975-1.978-1.975c-1.09,0-1.976,0.885-1.976,1.975v7.222h-7.364
			c-1.089,0-1.974,0.885-1.974,1.978c0,1.089,0.885,1.975,1.974,1.975h8.578l9.958,9.961H56.897L46.773,61.294
			c-0.771-0.771-2.023-0.771-2.794,0s-0.771,2.023,0,2.794l7.329,7.329H39.479c-1.093,0-1.979,0.885-1.979,1.975
			c0,1.093,0.885,1.979,1.979,1.979h11.918l-7.54,7.536c-0.771,0.774-0.771,2.026,0,2.795c0.384,0.388,0.893,0.581,1.397,0.581
			s1.01-0.193,1.396-0.581l10.336-10.331h18.221L65.094,85.486h-8.325c-1.093,0-1.978,0.887-1.978,1.973
			c0,1.093,0.885,1.979,1.978,1.979h6.271c0.091,0.193,0.208,0.373,0.367,0.525c0.173,0.18,0.37,0.305,0.581,0.401v6.434
			c0,1.093,0.886,1.978,1.979,1.978c1.089,0,1.975-0.885,1.975-1.978v-8.571l9.979-9.975v18.352L67.795,106.73
			c-0.771,0.769-0.771,2.021,0,2.795c0.384,0.388,0.892,0.58,1.397,0.58s1.013-0.192,1.397-0.58l7.329-7.332v11.828
			c0,1.093,0.885,1.979,1.975,1.979c1.093,0,1.979-0.886,1.979-1.979v-11.918l7.535,7.539c0.388,0.389,0.899,0.582,1.397,0.582
			c0.512,0,1.016-0.193,1.396-0.582c0.773-0.768,0.773-2.025,0-2.793l-10.33-10.343V78.052l10.012,10.017v8.578
			c0,1.086,0.887,1.972,1.973,1.972c1.092,0,1.979-0.886,1.979-1.972v-7.223h7.368c1.085,0,1.97-0.886,1.97-1.979
			c0-1.094-0.885-1.979-1.97-1.979h-8.33L84.775,75.371h17.963l10.34,10.331c0.382,0.388,0.887,0.581,1.398,0.581
			c0.498,0,1.012-0.193,1.396-0.581c0.768-0.769,0.768-2.021,0-2.795l-7.547-7.536h12.195c1.092,0,1.979-0.886,1.979-1.979
			C122.501,72.303,121.615,71.418,120.521,71.418z"/>
	</g>
</g>
</svg>
