<?xml version="1.0" encoding="UTF-8"?>
<svg width="16px" height="26px" viewBox="0 0 16 26" version="1.1" xmlns="http://www.w3.org/2000/svg" xmlns:xlink="http://www.w3.org/1999/xlink">
    <!-- Generator: Sketch 41.2 (35397) - http://www.bohemiancoding.com/sketch -->
    <title>Bulb</title>
    <desc>Created with Sketch.</desc>
    <defs></defs>
    <g id="Page-1" stroke="none" stroke-width="1" fill="none" fill-rule="evenodd">
        <g id="Control-screen-Copy-3" transform="translate(-171.000000, -139.000000)" fill="#555554">
            <g id="Control-1-Copy-2" transform="translate(156.000000, 128.000000)">
                <g id="Bulb" transform="translate(15.000000, 11.000000)">
                    <path d="M15.1784788,10.5896913 C14.4876229,12.2102966 13.7340362,13.8058781 12.972189,15.3960859 C12.7154592,15.9320903 12.1074537,16.1012409 11.6315343,15.8356047 C11.140239,15.5614669 10.9842709,14.9621012 11.2399375,14.4678832 C12.0742481,12.855138 12.9234439,11.2466436 13.4851579,9.51174744 C14.0608576,7.73330043 13.6486504,6.14397483 12.5653798,4.68305608 C11.6800341,3.48897657 10.4560078,2.764332 8.99528958,2.50479134 C7.21134859,2.1877443 5.59368084,2.62004472 4.18154416,3.76568092 C3.17147304,4.5851268 2.54334784,5.61839698 2.24179867,6.8627645 C1.9714104,7.97880536 2.04722708,9.07776274 2.50049138,10.1174492 C3.148818,11.604675 3.892672,13.0516382 4.55531137,14.5331694 C4.97357078,15.4684301 5.34619297,16.4261479 5.67775801,17.3939715 C5.77017748,17.6636179 5.86186085,17.7223273 6.11057553,17.7214451 C7.77289906,17.71551 9.43530437,17.7175151 11.0976279,17.718638 C12.2446107,17.71944 13.2591801,18.7741247 13.3220744,19.9049231 C13.4043523,21.3857325 12.1933301,22.4590245 10.7239425,22.4519666 C9.27966345,22.4449888 7.83530264,22.4528488 6.39094183,22.4483574 C6.10771298,22.4474751 5.87347463,22.4690501 5.86447804,22.8332571 C5.85507252,23.2132644 6.08857479,23.2609859 6.39478583,23.2598631 C7.6346788,23.2552914 8.87465356,23.2539279 10.1145465,23.2598631 C10.8540658,23.2633118 11.3575474,23.7575299 11.2615293,24.388095 C11.1914377,24.8487074 10.8534933,25.0887585 10.447502,25.2575882 L6.03099665,25.2575882 C5.99222955,25.2566258 5.95223564,25.2571872 5.90856131,25.2508511 C4.16019772,24.9987694 3.36997042,23.0107489 4.24255736,21.6019629 C4.77744523,20.7383245 5.62516889,20.4718061 6.58862134,20.4642669 C8.00607418,20.4531987 9.42377238,20.4657106 10.8411434,20.4515144 C10.9976022,20.4499104 11.2061594,20.3785287 11.2919541,20.2667241 C11.3620457,20.1753715 11.3415989,19.9234503 11.2589121,19.8365892 C11.1511985,19.7235815 10.9423959,19.6520394 10.7766134,19.6510769 C8.67762835,19.6392067 6.57847973,19.6432971 4.47941291,19.6432971 L3.98263785,19.6432971 C3.98263785,19.3333883 4.01625236,19.0882844 3.97699454,18.8548903 C3.77309921,17.6433262 3.342081,16.503545 2.80580276,15.3983317 C2.13645684,14.0191409 1.43815828,12.6519809 0.821892219,11.2502528 C0.515272249,10.5527974 0.210451596,9.81155059 0.142322912,9.05634823 C0.0946410121,8.38792677 0.212087338,7.07867409 0.214459165,7.04972039 C0.286104696,6.17028179 0.595341854,5.35139733 1.00092426,4.58729232 C1.95832446,2.78334039 3.45682836,1.55557513 5.41170446,0.885709996 C5.65739302,0.80149563 6.35700017,0.634831389 7.06699429,0.574758474 C7.92698602,0.501852894 8.79597433,0.543960077 8.81184104,0.545163139 C9.9125323,0.625928727 10.9257113,0.977383349 11.8666723,1.52541836 C13.6525762,2.56558609 14.846423,4.0700557 15.4290746,6.02439043 C15.5174865,6.32074479 15.6795068,6.96743092 15.743219,7.5725713 C15.7907373,8.02331867 15.7602307,8.46259684 15.7295605,8.65532744 C15.615631,9.37179118 15.3517039,10.1832969 15.1784788,10.5896913" id="Fill-1"></path>
                    <path d="M7.76619132,4.45776491 C8.22199102,4.49305474 8.54537736,4.73655457 8.5323732,5.06442917 C8.51920547,5.39342663 8.22395391,5.60821336 7.77445182,5.61583276 C6.58706619,5.6358838 5.46862711,6.57724001 5.26514072,7.72977376 C5.23316195,7.91079455 5.19750276,8.09221635 5.18319001,8.27492143 C5.15309235,8.65933996 4.97356958,8.83434543 4.59939344,8.82375848 C4.29171024,8.81501623 4.03481685,8.53237678 4.05820797,8.20361993 C4.18187012,6.46415214 5.19774812,5.14655823 6.90399134,4.62988304 C7.18288547,4.54542806 7.47838239,4.51382762 7.76619132,4.45776491" id="Fill-4"></path>
                </g>
            </g>
        </g>
    </g>
</svg>