<?xml version="1.0" encoding="utf-8"?>
<!-- Generator: Adobe Illustrator 16.0.0, SVG Export Plug-In . SVG Version: 6.00 Build 0)  -->
<!DOCTYPE svg PUBLIC "-//W3C//DTD SVG 1.1//EN" "http://www.w3.org/Graphics/SVG/1.1/DTD/svg11.dtd">
<svg version="1.1" id="Layer_1" xmlns="http://www.w3.org/2000/svg" xmlns:xlink="http://www.w3.org/1999/xlink" x="0px" y="0px"
	 width="50px" height="50px" viewBox="0 0 50 50" enable-background="new 0 0 50 50" xml:space="preserve">
<g>
	<g>
		<path fill="#F7F2ED" d="M33.03,39.301c0,0.663-0.614,1.199-1.375,1.199H21.344c-0.761,0-1.375-0.536-1.375-1.199
			c0-0.665,0.614-1.201,1.375-1.201h3.781V27.08c-1.136-0.456-1.929-1.451-1.929-2.615c0-1.595,1.48-2.884,3.304-2.884
			c1.823,0,3.304,1.289,3.304,2.884c0,1.164-0.793,2.161-1.929,2.615V38.1h3.78C32.416,38.1,33.03,38.636,33.03,39.301z M26.5,10.5
			c-8.82,0-16,6.267-16,13.965c0,3.729,1.666,7.237,4.689,9.876c0.537,0.467,1.407,0.467,1.947,0c0.536-0.473,0.536-1.229,0-1.696
			c-2.508-2.187-3.886-5.089-3.886-8.18c0-6.376,5.941-11.565,13.25-11.565c7.309,0,13.25,5.186,13.25,11.565
			c0,3.088-1.379,5.994-3.879,8.18c-0.536,0.468-0.536,1.228,0,1.699c0.267,0.232,0.621,0.352,0.972,0.352
			c0.35,0,0.705-0.116,0.972-0.352c3.02-2.64,4.686-6.148,4.686-9.879C42.5,16.767,35.324,10.5,26.5,10.5z M26.5,16.267
			c-5.184,0-9.396,3.676-9.396,8.201c0,2.189,0.979,4.252,2.753,5.797c0.541,0.469,1.406,0.469,1.947,0
			c0.54-0.469,0.54-1.229,0-1.698c-1.256-1.095-1.947-2.551-1.947-4.102c0-3.199,2.981-5.798,6.643-5.798
			c3.661,0,6.643,2.599,6.643,5.798c0,1.549-0.69,3.007-1.947,4.102c-0.539,0.469-0.539,1.228,0,1.698
			c0.268,0.233,0.621,0.353,0.972,0.353s0.705-0.116,0.973-0.353c1.773-1.548,2.752-3.608,2.752-5.797
			C35.896,19.943,31.684,16.267,26.5,16.267z"/>
	</g>
</g>
</svg>
