<?xml version="1.0" encoding="utf-8"?>
<!-- Generator: Adobe Illustrator 21.0.0, SVG Export Plug-In . SVG Version: 6.00 Build 0)  -->
<svg version="1.1"
	 id="svg2" inkscape:version="0.48.1 " sodipodi:docname="Om.svg" xmlns:cc="http://creativecommons.org/ns#" xmlns:dc="http://purl.org/dc/elements/1.1/" xmlns:inkscape="http://www.inkscape.org/namespaces/inkscape" xmlns:rdf="http://www.w3.org/1999/02/22-rdf-syntax-ns#" xmlns:sodipodi="http://sodipodi.sourceforge.net/DTD/sodipodi-0.dtd" xmlns:svg="http://www.w3.org/2000/svg"
	 xmlns="http://www.w3.org/2000/svg" xmlns:xlink="http://www.w3.org/1999/xlink" x="0px" y="0px" width="341.2px" height="351.5px"
	 viewBox="0 0 341.2 351.5" enable-background="new 0 0 341.2 351.5" xml:space="preserve">
<sodipodi:namedview  bordercolor="#666666" borderopacity="1" gridtolerance="10" guidetolerance="10" id="namedview6" inkscape:bbox-nodes="true" inkscape:bbox-paths="true" inkscape:current-layer="svg2" inkscape:cx="50.672374" inkscape:cy="175.39413" inkscape:object-nodes="true" inkscape:object-paths="true" inkscape:pageopacity="0" inkscape:pageshadow="2" inkscape:snap-bbox="true" inkscape:snap-bbox-edge-midpoints="true" inkscape:snap-bbox-midpoints="true" inkscape:snap-center="true" inkscape:snap-global="false" inkscape:snap-intersection-paths="true" inkscape:snap-midpoints="true" inkscape:snap-object-midpoints="true" inkscape:snap-smooth-nodes="true" inkscape:window-height="706" inkscape:window-maximized="1" inkscape:window-width="1024" inkscape:window-x="-8" inkscape:window-y="-8" inkscape:zoom="1.0618489" objecttolerance="10" pagecolor="#ffffff" showgrid="false">
	</sodipodi:namedview>
<linearGradient id="path4_1_" gradientUnits="userSpaceOnUse" x1="-5.2198" y1="346.2451" x2="335.9927" y2="-3.1455" gradientTransform="matrix(1 0 0 -1 0 353.7725)">
	<stop  offset="0" style="stop-color:#FFCC00"/>
	<stop  offset="0.3382" style="stop-color:#FFFFFF"/>
	<stop  offset="0.5442" style="stop-color:#FFCC00"/>
	<stop  offset="0.7071" style="stop-color:#A68500"/>
	<stop  offset="0.8043" style="stop-color:#FFCC00"/>
	<stop  offset="1" style="stop-color:#FFCC00"/>
</linearGradient>
<path id="path4" fill="url(#path4_1_)" d="M82.6,347.3C43.9,333.5,15.9,299.1,4.7,252c-5-21.4-6.5-56.7-2.3-56.7
	c1.4,0,5.1,9.7,8.2,21.6c6.9,25.9,18.6,50.3,30,62.3c18.8,19.8,65.5,27.6,92.4,15.4c20.9-9.5,29.4-32.1,20.3-54.1
	c-7-17-23-22.7-52.7-18.8c0,0-18.2-19.6-24-54.5l18.7,1.7c22.5,2,39.5-2.9,48.3-14.1c8.3-10.5,8.1-14.6-1.1-25.3
	c-13.3-15.5-37.2-11.5-85.6,14l-24.4-40.9l10.2-7.8c25.6-19.6,70.2-29.3,95.5-21c23.1,7.6,40,37.8,35.5,63.3
	c-3.1,17.2-16.9,41.4-27.5,48.1L137,191l12.7,5.7c21.6,9.7,34.8,2.3,50.6-28.5c21.8-42.7,36-53.7,68.8-53.8
	c15.3,0,20.8,1.6,31.9,9.4c27.9,19.5,43.1,60,39.7,105.9c-4.2,58.1-31.7,93.3-72.9,93.3c-22.6,0-37.1-7.9-48.7-26.5
	c-10.2-16.3-14.8-48.7-8.9-62.9c2.8-6.8,3.3-7.1,3.5-1.6c0.3,10,11.8,26.4,22.2,31.8c25.7,13.3,62.7-3.4,77.3-35
	c11.1-24,5.1-70.2-10.1-78.3c-3.2-1.7-11.1-3.1-17.5-3.1c-13.7,0-24.4,9.8-39.5,36.2c-5.2,9.1-14,20.9-19.5,26.1
	c-8.9,8.6-12.1,9.6-30,9.6h-20l6.5,14.4c9.3,20.6,8.8,54-1,74.3c-8.7,18-28.7,36.2-44.7,40.6C121.9,352.9,96.5,352.3,82.6,347.3z
	 M158,69.3c-8.9-15.1-14.3-43.3-8.4-43.3c7,15.1,21.3,28.6,36.6,38c27.5,13.3,55.4,7.9,85.8-16.5c6.7-5.4,12.6-9.2,13.2-8.5
	c7.4,11.5,20.3,21,24.5,34.4c0,5.7-24.4,21.9-43.6,29.1C218.5,116.3,186.1,110.8,158,69.3z M182,34.4L213,0l34.5,31.9
	c-11.8,9.7-20.3,24.8-33.8,32.4C203,56.5,187.2,47.2,182,34.4z"/>
<path id="path3943" fill="#FFEEAA" d="M212.5,0.5l-30.1,33.4l9.8,1.2l20.9-23.2L212.5,0.5z"/>
<path id="path3945" fill="#D4AA00" d="M213.5,0.5l0.6,11.4l21.1,19.5l11.7,0L213.5,0.5z"/>
<linearGradient id="path3941_1_" gradientUnits="userSpaceOnUse" x1="149.0082" y1="301.1612" x2="284.3207" y2="301.1612" gradientTransform="matrix(1 0 0 -1 0 353.7725)">
	<stop  offset="0" style="stop-color:#AA8800"/>
	<stop  offset="0.5" style="stop-color:#FFCC00"/>
	<stop  offset="1" style="stop-color:#FFEEAA"/>
</linearGradient>
<path id="path3941" fill="url(#path3941_1_)" d="M149.6,26c-0.2,0-0.4,0.1-0.6,0.1c0,0,0,0,0,0c0,0.1,0.1,0.1,0.1,0.2
	c0.1,5.3,1.4,12.4,5.8,19.5c1.8,3,3.9,5.8,5.7,8.6c13.2,13.8,31.1,23.4,50.3,24.6c26.3,2.4,49.9-12.4,69.9-27.8l1.5-1.2l2-10.9
	c-2,0.7-6.9,4-12.3,8.4C241.5,72,213.7,77.3,186.2,64C170.9,54.6,156.6,41.1,149.6,26L149.6,26z"/>
<linearGradient id="path3939_1_" gradientUnits="userSpaceOnUse" x1="309.8395" y1="286.037" x2="147.3619" y2="285.8146" gradientTransform="matrix(1 0 0 -1 0 353.7725)">
	<stop  offset="0" style="stop-color:#AA8800"/>
	<stop  offset="0.5" style="stop-color:#FFCC00"/>
	<stop  offset="1" style="stop-color:#FFEEAA"/>
</linearGradient>
<path id="path3939" fill="url(#path3939_1_)" d="M148.4,26.5c-3.8,3.9,1.4,28.9,9.6,42.8c28.1,41.5,60.5,46.9,108.2,33.2
	c18.7-7,42.2-22.6,43.5-28.6l-9.4-1c-18.2,17-43,26.1-67.6,28c-31.4,4.2-61.7-17.6-72.6-46.3c-1.8-2.9-3.8-5.7-5.7-8.5
	C150.9,41,148.5,33.1,148.4,26.5z"/>
<path id="path3937" fill="#806600" d="M235.2,32.4c-6.9,7.3-12.9,16.2-20.8,22.4l-0.2,9.3c13.1-7.7,21.6-22.2,32.7-31.7H235.2z"/>
<path id="path3935" fill="#D4AA00" d="M182.2,34.9c5.4,12.6,20.5,21.4,31,29.1l0.1-9.3c-7.6-5.3-15.7-11-21.2-18.7L182.2,34.9z"/>
<path id="path3933" fill="#D4AA00" d="M285.3,39.3l-2,10.8c6,7.1,12.7,13.6,17.1,21.8l9.2,1C305.2,59.9,292.7,50.6,285.3,39.3z"/>
<linearGradient id="path3931_1_" gradientUnits="userSpaceOnUse" x1="148.0001" y1="222.9231" x2="45.2148" y2="298.3248" gradientTransform="matrix(1 0 0 -1 0 353.7725)">
	<stop  offset="0" style="stop-color:#AA8800"/>
	<stop  offset="0.5" style="stop-color:#FFCC00"/>
	<stop  offset="1" style="stop-color:#FFEEAA"/>
</linearGradient>
<path id="path3931" fill="url(#path3931_1_)" d="M116.2,70.7C91.8,70.8,62,80,42.8,94.7l-9.9,7.5l10.4,1.9
	C63,88.7,87.6,80.1,112.5,78.8c0.9,0,1.8-0.1,2.6-0.1c2.6,0,5.2,0.1,7.8,0.2c26.2,0.7,45.1,27.5,43.3,52.4
	c-3.1,18.9-11.8,38.5-28.1,49.5c-5.3,2.1-12.9,7.6-9.2,14.2c8.8,6.4,19.5,10.6,30.2,13.1c17.3,3.9,32.8-9.3,41-23.4
	c12.5-20.3,20.6-46.4,43.3-58c14.4-4.9,31.1-6.9,45.3-0.8c24.9,12.4,37.7,40,42.2,66.2c4.8,32.2,1.6,67.1-15.2,95.4
	c-13.5,23.5-45,34.6-69.9,23.4c-20.1-9.1-28.4-32.3-30-53c-2-6.3-3.1-10.4-3.7-15.8c-0.4-3.7-0.3-9.9,0.2-13.5
	c0.1-0.9-1.2,2.4-2.3,4.9c-5.8,14.2-1.3,46.6,8.9,62.9c11.6,18.6,26.1,26.5,48.7,26.5c41.1,0,68.7-35.2,72.9-93.3
	c3.3-45.9-11.8-86.3-39.7-105.9c-11.2-7.8-16.6-9.4-31.9-9.4c-32.9,0-47,11.1-68.8,53.8c-15.8,30.8-29,38.3-50.6,28.5L137,191
	l9.2-5.8c10.7-6.8,24.5-30.9,27.5-48.1c4.5-25.5-12.4-55.7-35.5-63.3C131.9,71.6,124.4,70.7,116.2,70.7z"/>
<path id="path3929" fill="#D4AA00" d="M32.8,102.9L56.7,143l3.1-10.5l-16.6-27.7L32.8,102.9z"/>
<linearGradient id="path3927_1_" gradientUnits="userSpaceOnUse" x1="57.352" y1="208.8929" x2="157.2106" y2="208.8929" gradientTransform="matrix(1 0 0 -1 0 353.7725)">
	<stop  offset="0" style="stop-color:#AA8800"/>
	<stop  offset="0.5" style="stop-color:#FFCC00"/>
	<stop  offset="1" style="stop-color:#FFEEAA"/>
</linearGradient>
<path id="path3927" fill="url(#path3927_1_)" d="M121.4,112.5c-21.6-0.1-42,10.8-61,20.2l-3.1,10.4c48.1-25.4,71.9-29.2,85.1-13.8
	c9.2,10.7,9.4,14.8,1.1,25.3c-8.8,11.2-25.8,16.2-48.3,14.2l-18.1-1.6l10.2,9.3c8.6,0,18,1.3,26.8,0.3c18.6-1.4,39.1-12.4,43.1-32.1
	c0.5-15.1-12.5-27.9-26.4-31.5C127.6,112.8,124.5,112.5,121.4,112.5z"/>
<linearGradient id="path3925_1_" gradientUnits="userSpaceOnUse" x1="161.014" y1="127.0015" x2="4.5289" y2="220.0385" gradientTransform="matrix(1 0 0 -1 0 353.7725)">
	<stop  offset="0" style="stop-color:#AA8800"/>
	<stop  offset="0.5" style="stop-color:#FFCC00"/>
	<stop  offset="1" style="stop-color:#FFEEAA"/>
</linearGradient>
<path id="path3925" fill="url(#path3925_1_)" d="M287.8,139.2c-6.2,0-12.4,1.4-17.7,4c-23.8,13.8-30.5,43.4-49.9,61.7
	c-9.8,10-25.1,5.4-37.6,6.2c-6.1-1.4-15.5,1.5-14.5,9.2c7.6,13.9,13.1,29.3,13.6,45.3c2.4,28.6-12.3,58.2-37.9,71.5
	c-20.9,10-46.5,8.3-67.5-0.9c-34.9-16.1-56.7-52.1-64.4-88.7c-2.1-7.2-2.5-11.4-3.9-18.7c-1.9-10.2-4.9-25.8-6.2-33.2
	C-1.6,199,0,231.8,4.8,252c11.1,47.1,39.2,81.5,77.8,95.3c13.9,5,39.3,5.5,54.9,1.2c16-4.4,36-22.6,44.7-40.6
	c9.8-20.3,10.2-53.8,1-74.3l-6.5-14.4h20c17.9,0,21.1-1,30-9.6c5.5-5.3,14.3-17,19.5-26.1c15.1-26.3,25.8-36.2,39.5-36.2
	c6.4,0,14.3,1.4,17.5,3.1c15.2,8.2,21.2,54.4,10.1,78.3c-14.6,31.6-51.5,48.3-77.3,35c-10.5-5.4-21.9-21.7-22.2-31.8
	c-0.1-2-0.2-3.3-0.4-3.7c-0.5,3.3-0.8,8.6-0.3,13.7c0.5,5,2.1,11.6,3.9,15.6c1.7,2.1,3.5,4.1,5.4,5.9c16.8,16.4,43.9,15.8,63.5,5.2
	c23.4-11.7,39.2-36.2,41-62.3c0.4-17.6-0.5-36.4-9.5-51.9C311.4,143.9,299.6,139.1,287.8,139.2z"/>
<path id="path3923" fill="#D4AA00" d="M76.7,167.7c5.7,33.1,22.4,52.2,23.7,53.6l3.5-8.5c-7.8-10.5-13.4-23-16.9-35.7L76.7,167.7z"
	/>
<linearGradient id="path3804_1_" gradientUnits="userSpaceOnUse" x1="2.477" y1="101.9249" x2="164.9518" y2="101.9249" gradientTransform="matrix(1 0 0 -1 0 353.7725)">
	<stop  offset="0" style="stop-color:#AA8800"/>
	<stop  offset="0.5" style="stop-color:#FFCC00"/>
	<stop  offset="1" style="stop-color:#FFEEAA"/>
</linearGradient>
<path id="path3804" fill="url(#path3804_1_)" d="M2.5,195.3c2,9.7,3.9,22.2,6.3,33.4c1.7,8,1.9,13.2,3.9,18.6c0.9,2.3,2,5.2,2.5,5.9
	c7.7,18.9,20.5,36.6,39.5,45.2c26.1,10.7,57.4,14.8,83.6,2.2c26.7-11.3,34.7-49,17.9-71.8c-11.5-16-33.5-18.1-51.7-15.8l-3.4,8.5
	c29.5-3.8,45.3,1.9,52.3,18.8c9.1,22,0.6,44.6-20.3,54.1c-26.9,12.2-73.5,4.4-92.4-15.4c-11.3-11.9-23.1-36.3-30-62.3
	C7.6,205,3.9,195.4,2.5,195.3L2.5,195.3z"/>
<path id="path2987" inkscape:connector-curvature="0" fill="none" stroke="#FFEEAA" d="M191.8,35.6c5.6,8.1,14.2,13.4,22.1,19
	c8.3-6.4,14.6-15.2,21.8-22.7c-7.4-6.8-14.7-13.7-22.1-20.5C206.3,19.4,199.1,27.5,191.8,35.6z M280.8,51.2
	c-20,15.4-43.6,30.2-69.9,27.8c-19.7-1.3-38.2-11.4-51.5-25.8c10.5,29.5,41.2,52.1,73.2,47.8c24.9-2,49.8-11.1,68.1-28.5
	c-4.4-8.7-11.6-15.4-17.8-22.9C282.2,50.1,281.5,50.6,280.8,51.2z M112.5,78.8c-25.1,1.3-49.9,10-69.6,25.5
	c5.7,9.5,11.4,19,17.1,28.6c21.8-10.8,45.5-23.7,70.8-19.7c14,3.6,27,16.4,26.4,31.5c-3.9,19.6-24.5,30.6-43.1,32.1
	c-9,1.1-18.6-0.3-27.3-0.3c3.5,13.1,9.2,25.7,17.3,36.5c18.3-2.3,40.5-0.4,52.1,15.8c16.8,22.8,8.8,60.5-17.9,71.8
	c-26.2,12.6-57.5,8.5-83.6-2.2c-19-8.6-31.8-26.3-39.5-45.2c-1.1-1.5-4.6-12.2-3.7-7.7c7.4,37.3,29.3,74.3,64.8,90.6
	c21,9.2,46.6,10.8,67.5,0.9c25.6-13.4,40.3-43,38-71.5c-0.5-16-6-31.5-13.6-45.3c-1-7.7,8.4-10.6,14.5-9.2
	c12.4-0.7,27.7,3.8,37.6-6.2c19.4-18.3,26.1-47.9,49.9-61.7c15.6-7.4,38.1-4.8,47.2,11.2c9.1,15.5,9.9,34.3,9.5,51.9
	c-1.8,26.1-17.6,50.7-41,62.3c-19.6,10.6-46.7,11.3-63.5-5.2c-2.3-2.1-4.5-4.6-6.4-7.1c1.3,21.1,9.5,45.3,30.1,54.6
	c24.9,11.2,56.5,0.1,69.9-23.4c16.8-28.3,20-63.2,15.2-95.4c-4.6-26.2-17.4-53.8-42.2-66.2c-14.2-6.1-31-4.1-45.3,0.8
	c-22.7,11.5-30.8,37.7-43.3,58c-8.1,14.1-23.6,27.3-41,23.4c-10.7-2.4-21.4-6.7-30.2-13.1c-3.7-6.5,3.9-12.1,9.2-14.2
	c16.3-11,25-30.6,28.1-49.5c1.8-24.9-17.1-51.8-43.3-52.4C119.5,78.7,116,78.6,112.5,78.8z"/>
</svg>
