<?xml version="1.0" encoding="utf-8"?>
<!-- Generator: Adobe Illustrator 16.0.0, SVG Export Plug-In . SVG Version: 6.00 Build 0)  -->
<!DOCTYPE svg PUBLIC "-//W3C//DTD SVG 1.1//EN" "http://www.w3.org/Graphics/SVG/1.1/DTD/svg11.dtd">
<svg version="1.1" id="Layer_1" xmlns="http://www.w3.org/2000/svg" xmlns:xlink="http://www.w3.org/1999/xlink" x="0px" y="0px"
	 width="34px" height="34px" viewBox="-2 -2 34 34" enable-background="new -2 -2 34 34" xml:space="preserve">
<title>orange_tick_select</title>
<desc>Created with Sketch.</desc>
<g>
	<g>
		<defs>
			<polyline id="SVGID_1_" points="-2,-2 32,-2 32,32 -2,32 -2,-2 			"/>
		</defs>
		<clipPath id="SVGID_2_">
			<use xlink:href="#SVGID_1_"  overflow="visible"/>
		</clipPath>
		<path clip-path="url(#SVGID_2_)" fill="#FFFFFF" d="M4,30c-2.2,0-4-1.8-4-4V4c0-2.2,1.8-4,4-4h22c2.2,0,4,1.8,4,4v22
			c0,2.2-1.8,4-4,4H4 M26-2H4C0.7-2-2,0.7-2,4v22c0,3.3,2.7,6,6,6h22c3.3,0,6-2.7,6-6V4C32,0.7,29.3-2,26-2"/>
		<path clip-path="url(#SVGID_2_)" fill="#FF9400" d="M26,2H4C3.4,2,3,2.2,2.6,2.6C2.2,3,2,3.4,2,4v22c0,0.6,0.2,1,0.6,1.4
			C3,27.8,3.4,28,4,28h22c0.6,0,1-0.2,1.4-0.6C27.8,27,28,26.6,28,26V4c0-0.6-0.2-1-0.6-1.4C27,2.2,26.6,2,26,2"/>
		<path clip-path="url(#SVGID_2_)" fill="#FF9400" d="M4,2h22c0.6,0,1,0.2,1.4,0.6C27.8,3,28,3.4,28,4v22c0,0.6-0.2,1-0.6,1.4
			C27,27.8,26.6,28,26,28H4c-0.6,0-1-0.2-1.4-0.6C2.2,27,2,26.6,2,26V4c0-0.6,0.2-1,0.6-1.4C3,2.2,3.4,2,4,2L4,2 M26,0H4
			C1.8,0,0,1.8,0,4v22c0,2.2,1.8,4,4,4h22c2.2,0,4-1.8,4-4V4C30,1.8,28.2,0,26,0"/>
	</g>
	<polygon fill="#FFFFFF" points="26.2,9 24.8,7.5 12,20.2 6,14.2 4.5,15.8 12,23.2 13.5,21.8 	"/>
</g>
</svg>
