<?xml version="1.0" encoding="utf-8"?>
<!-- Generator: Adobe Illustrator 16.0.0, SVG Export Plug-In . SVG Version: 6.00 Build 0)  -->
<!DOCTYPE svg PUBLIC "-//W3C//DTD SVG 1.1//EN" "http://www.w3.org/Graphics/SVG/1.1/DTD/svg11.dtd">
<svg version="1.1" id="Layer_1" xmlns="http://www.w3.org/2000/svg" xmlns:xlink="http://www.w3.org/1999/xlink" x="0px" y="0px"
	 width="160px" height="160px" viewBox="0 0 160 160" enable-background="new 0 0 160 160" xml:space="preserve">
<title>Party</title>
<desc>Created with Sketch.</desc>
<g>
	<g id="Symbols">
		<g id="Party">
			<g id="Page-1" transform="translate(4.000000, 3.000000)">
				<path id="Stroke-1" fill="#FFFFFF" d="M103.096,47.942H43.728c-1.656,0-2.798,1.452-2.21,2.812l10.66,24.692
					c3.343,7.746,11.802,12.873,21.237,12.873c9.433,0,17.884-5.127,21.229-12.873l10.662-24.692
					C105.891,49.394,104.75,47.942,103.096,47.942z M87.5,74.833c-2.646,6.138-6.621,7.333-14.088,7.333
					c-7.471,0-11.598-1.864-14.245-8l-9.333-21.333L98.5,52.5L87.5,74.833z"/>
				<path id="Stroke-3" fill="#FFFFFF" d="M70.164,86.865v30.008c0,1.146,1.468,2.076,3.277,2.076c1.812,0,3.275-0.932,3.275-2.076
					V86.865c0-1.146-1.467-2.078-3.275-2.078C71.631,84.787,70.164,85.719,70.164,86.865z"/>
				<path id="Stroke-8" fill="#FFFFFF" d="M89.84,48.228c0-5.286,4.876-9.574,10.896-9.574c6.02,0,10.896,4.288,10.896,9.574
					c0,5.289-4.877,9.575-10.896,9.575c-1.305,0-2.364,0.93-2.364,2.077c0,1.149,1.062,2.077,2.364,2.077
					c8.632,0,15.625-6.146,15.625-13.728c0-7.579-6.993-13.728-15.625-13.728c-8.633,0-15.623,6.149-15.623,13.728
					c0,1.149,1.059,2.077,2.363,2.077C88.782,50.305,89.84,49.377,89.84,48.228z"/>
			</g>
		</g>
	</g>
	<path id="Stroke-3_1_" fill="#FFFFFF" d="M58.408,124.678h30.008c2.146,0,3.076-1.06,3.076-2.363c0-1.309-0.932-2.364-2.076-2.364
		H59.408c-1.146,0-2.079,1.06-2.079,2.364C57.329,123.618,58.262,124.678,58.408,124.678z"/>
</g>
</svg>
