<?xml version="1.0" encoding="utf-8"?>
<!-- Generator: Adobe Illustrator 16.0.0, SVG Export Plug-In . SVG Version: 6.00 Build 0)  -->
<!DOCTYPE svg PUBLIC "-//W3C//DTD SVG 1.1//EN" "http://www.w3.org/Graphics/SVG/1.1/DTD/svg11.dtd">
<svg version="1.1" id="Layer_1" xmlns="http://www.w3.org/2000/svg" xmlns:xlink="http://www.w3.org/1999/xlink" x="0px" y="0px"
	 width="160px" height="160px" viewBox="0 0 160 160" enable-background="new 0 0 160 160" xml:space="preserve">
<title>Party</title>
<desc>Created with Sketch.</desc>
<g id="Symbols">
	<g id="Party">
		<g id="Page-1" transform="translate(4.000000, 3.000000)">
			<path id="Stroke-1" fill="#FFFFFF" d="M103.096,47.942H43.728c-1.656,0-2.798,1.452-2.21,2.812l10.66,24.692
				c3.343,7.746,11.802,12.873,21.237,12.873c9.433,0,17.884-5.127,21.229-12.873l10.662-24.692
				C105.891,49.394,104.75,47.942,103.096,47.942z M90.223,73.972c-2.647,6.137-9.341,10.194-16.809,10.194
				c-7.471,0-14.169-4.057-16.816-10.193l-9.447-21.877h52.515L90.223,73.972z"/>
			<path id="Stroke-3" fill="#FFFFFF" d="M71.047,86.865v30.008c0,1.146,1.059,2.076,2.364,2.076c1.308,0,2.364-0.932,2.364-2.076
				V86.865c0-1.146-1.059-2.078-2.364-2.078C72.106,84.787,71.047,85.719,71.047,86.865z"/>
			<g id="Group-7" transform="translate(3.000000, 14.350000)">
				<path id="Stroke-5" fill="#FFFFFF" d="M85.252,100.998h-29.68c-1.305,0-2.364,0.93-2.364,2.075s1.059,2.077,2.364,2.077h29.681
					c1.306,0,2.363-0.932,2.363-2.077S86.559,100.998,85.252,100.998z"/>
			</g>
			<path id="Stroke-8" fill="#FFFFFF" d="M89.84,48.228c0-5.286,4.876-9.574,10.896-9.574c6.02,0,10.896,4.288,10.896,9.574
				c0,5.289-4.877,9.575-10.896,9.575c-1.305,0-2.364,0.93-2.364,2.077c0,1.149,1.062,2.077,2.364,2.077
				c8.632,0,15.625-6.146,15.625-13.728c0-7.579-6.993-13.728-15.625-13.728c-8.633,0-15.623,6.149-15.623,13.728
				c0,1.149,1.059,2.077,2.363,2.077C88.782,50.305,89.84,49.377,89.84,48.228z"/>
		</g>
	</g>
</g>
</svg>
