<?xml version="1.0" encoding="utf-8"?>
<!-- Generator: Adobe Illustrator 16.0.0, SVG Export Plug-In . SVG Version: 6.00 Build 0)  -->
<!DOCTYPE svg PUBLIC "-//W3C//DTD SVG 1.1//EN" "http://www.w3.org/Graphics/SVG/1.1/DTD/svg11.dtd">
<svg version="1.1" id="Layer_1" xmlns="http://www.w3.org/2000/svg" xmlns:xlink="http://www.w3.org/1999/xlink" x="0px" y="0px"
	 width="99.695px" height="45.695px" viewBox="0 0 99.695 45.695" enable-background="new 0 0 99.695 45.695" xml:space="preserve">
<path opacity="0.2" fill="#A8A6A3" stroke="#000000" stroke-width="1.9452" stroke-miterlimit="10" enable-background="new    " d="
	M98,30.681c0,7.547-2.151,13.666-4.808,13.666H4.807C2.153,44.347,0,38.229,0,30.681V15.015C0,7.467,2.152,1.347,4.807,1.347h88.386
	C95.848,1.347,98,7.466,98,15.015V30.681L98,30.681z"/>
<g>
	<g>
		<path fill="#FFFFFF" d="M6.94,28.347v-11.36h4.8c0.49,0,0.941,0.104,1.352,0.312c0.41,0.208,0.765,0.48,1.064,0.816
			c0.298,0.336,0.53,0.717,0.696,1.144s0.248,0.858,0.248,1.296c0,0.416-0.062,0.813-0.184,1.192
			c-0.123,0.379-0.293,0.72-0.512,1.024c-0.219,0.304-0.483,0.56-0.792,0.768c-0.31,0.209-0.656,0.35-1.04,0.425l2.784,4.384h-1.264
			l-2.672-4.191H8.06v4.191H6.94z M8.06,23.163h3.712c0.331,0,0.632-0.072,0.904-0.216s0.504-0.338,0.696-0.584
			s0.341-0.522,0.448-0.832c0.106-0.31,0.16-0.635,0.16-0.976s-0.062-0.669-0.184-0.984s-0.288-0.589-0.496-0.824
			c-0.208-0.234-0.454-0.421-0.736-0.56c-0.283-0.138-0.579-0.208-0.888-0.208H8.06V23.163z"/>
		<path fill="#FFFFFF" d="M20.764,28.508c-0.608,0-1.166-0.115-1.672-0.344c-0.507-0.229-0.947-0.545-1.32-0.944
			c-0.374-0.399-0.664-0.861-0.872-1.384c-0.208-0.523-0.312-1.083-0.312-1.68c0-0.587,0.104-1.139,0.312-1.657
			c0.208-0.517,0.496-0.97,0.864-1.36c0.368-0.389,0.808-0.699,1.32-0.928c0.512-0.229,1.066-0.344,1.664-0.344
			c0.608,0,1.165,0.115,1.672,0.344c0.506,0.229,0.941,0.542,1.304,0.936c0.363,0.395,0.646,0.848,0.848,1.36
			c0.203,0.512,0.304,1.056,0.304,1.632c0,0.085,0,0.171,0,0.256s-0.005,0.144-0.016,0.177h-7.136
			c0.032,0.447,0.136,0.861,0.312,1.239c0.176,0.379,0.403,0.707,0.68,0.984s0.595,0.493,0.952,0.647
			c0.357,0.155,0.738,0.232,1.144,0.232c0.266,0,0.533-0.037,0.8-0.112c0.267-0.074,0.512-0.176,0.736-0.304
			c0.224-0.128,0.427-0.285,0.608-0.473c0.181-0.186,0.32-0.392,0.416-0.615l0.944,0.256c-0.128,0.31-0.31,0.59-0.544,0.84
			c-0.235,0.251-0.507,0.47-0.816,0.656c-0.31,0.187-0.651,0.33-1.024,0.432C21.559,28.457,21.17,28.508,20.764,28.508z
			 M23.837,23.74c-0.032-0.449-0.136-0.856-0.312-1.225c-0.176-0.368-0.4-0.685-0.672-0.952c-0.272-0.266-0.587-0.474-0.944-0.624
			c-0.357-0.149-0.739-0.224-1.144-0.224s-0.789,0.075-1.152,0.224c-0.363,0.15-0.68,0.358-0.952,0.624
			c-0.272,0.267-0.491,0.587-0.656,0.96c-0.166,0.374-0.264,0.779-0.296,1.217H23.837z"/>
		<path fill="#FFFFFF" d="M28.652,28.508c-0.395,0-0.76-0.066-1.096-0.2c-0.336-0.134-0.63-0.317-0.88-0.552
			s-0.445-0.51-0.584-0.824s-0.208-0.653-0.208-1.016c0-0.363,0.085-0.699,0.256-1.008c0.17-0.31,0.41-0.576,0.72-0.801
			c0.31-0.224,0.677-0.396,1.104-0.52c0.426-0.123,0.896-0.184,1.408-0.184c0.427,0,0.858,0.037,1.296,0.111s0.827,0.182,1.169,0.32
			v-0.752c0-0.736-0.208-1.32-0.624-1.752s-0.992-0.648-1.729-0.648c-0.427,0-0.864,0.085-1.312,0.256
			c-0.447,0.171-0.901,0.416-1.359,0.736l-0.384-0.72c1.078-0.725,2.123-1.088,3.136-1.088c1.045,0,1.866,0.293,2.464,0.88
			c0.598,0.587,0.896,1.397,0.896,2.432v3.76c0,0.299,0.133,0.448,0.399,0.448v0.96c-0.182,0.032-0.319,0.048-0.416,0.048
			c-0.277,0-0.493-0.069-0.647-0.208c-0.155-0.139-0.238-0.33-0.248-0.576l-0.032-0.656c-0.384,0.502-0.867,0.887-1.448,1.152
			C29.951,28.374,29.324,28.508,28.652,28.508z M28.908,27.676c0.565,0,1.086-0.106,1.561-0.32c0.475-0.213,0.834-0.496,1.08-0.848
			c0.096-0.096,0.168-0.2,0.216-0.312c0.048-0.111,0.072-0.216,0.072-0.312v-1.36c-0.363-0.139-0.739-0.245-1.129-0.32
			c-0.389-0.074-0.786-0.111-1.191-0.111c-0.769,0-1.392,0.16-1.872,0.48c-0.48,0.319-0.72,0.74-0.72,1.264
			c0,0.256,0.051,0.496,0.152,0.72c0.101,0.224,0.24,0.419,0.416,0.584c0.176,0.165,0.386,0.296,0.632,0.392
			C28.37,27.627,28.631,27.676,28.908,27.676z"/>
		<path fill="#FFFFFF" d="M38.7,28.508c-0.576,0-1.109-0.12-1.6-0.36c-0.491-0.239-0.912-0.558-1.265-0.952
			c-0.352-0.395-0.627-0.85-0.824-1.367s-0.296-1.059-0.296-1.625c0-0.586,0.097-1.144,0.288-1.671
			c0.192-0.528,0.456-0.989,0.792-1.384c0.336-0.395,0.736-0.707,1.2-0.936c0.464-0.229,0.974-0.344,1.528-0.344
			c0.704,0,1.328,0.184,1.872,0.552c0.544,0.368,0.97,0.814,1.279,1.336v-5.088h1.089v10.272c0,0.299,0.128,0.448,0.384,0.448v0.96
			c-0.16,0.032-0.288,0.048-0.384,0.048c-0.257,0-0.48-0.083-0.673-0.248c-0.191-0.165-0.288-0.365-0.288-0.6v-0.816
			c-0.33,0.544-0.778,0.976-1.344,1.296S39.308,28.508,38.7,28.508z M38.94,27.548c0.267,0,0.552-0.054,0.855-0.16
			c0.305-0.106,0.59-0.253,0.856-0.44c0.267-0.186,0.493-0.404,0.68-0.656c0.187-0.25,0.302-0.52,0.344-0.807v-2.577
			c-0.106-0.288-0.261-0.557-0.464-0.808c-0.202-0.25-0.435-0.472-0.695-0.664c-0.262-0.192-0.542-0.341-0.841-0.448
			s-0.592-0.16-0.88-0.16c-0.447,0-0.854,0.096-1.216,0.288s-0.675,0.445-0.936,0.76c-0.262,0.315-0.462,0.675-0.601,1.08
			c-0.139,0.406-0.208,0.822-0.208,1.248c0,0.449,0.08,0.875,0.24,1.281c0.16,0.404,0.379,0.76,0.656,1.063s0.605,0.546,0.983,0.728
			C38.094,27.457,38.503,27.548,38.94,27.548z"/>
		<path fill="#FFFFFF" d="M56.173,19.115c-0.32-0.363-0.747-0.656-1.28-0.88c-0.533-0.224-1.142-0.336-1.824-0.336
			c-1.003,0-1.733,0.19-2.192,0.568c-0.458,0.378-0.688,0.894-0.688,1.544c0,0.341,0.062,0.622,0.184,0.84
			c0.123,0.219,0.312,0.408,0.568,0.568c0.256,0.16,0.584,0.299,0.984,0.416c0.399,0.118,0.872,0.235,1.416,0.352
			c0.607,0.128,1.154,0.272,1.64,0.432s0.898,0.36,1.24,0.6c0.341,0.239,0.603,0.53,0.784,0.872
			c0.181,0.342,0.271,0.768,0.271,1.279c0,0.523-0.102,0.977-0.304,1.36c-0.203,0.384-0.485,0.704-0.849,0.96
			c-0.362,0.256-0.794,0.445-1.296,0.568c-0.501,0.123-1.051,0.184-1.647,0.184c-1.761,0-3.28-0.549-4.561-1.647l0.561-0.912
			c0.202,0.214,0.445,0.416,0.728,0.608c0.282,0.191,0.598,0.359,0.944,0.504c0.347,0.144,0.717,0.256,1.112,0.336
			c0.395,0.08,0.81,0.119,1.247,0.119c0.907,0,1.613-0.162,2.12-0.487s0.761-0.819,0.761-1.479c0-0.353-0.072-0.648-0.217-0.889
			c-0.144-0.24-0.359-0.448-0.647-0.624s-0.646-0.328-1.072-0.456s-0.923-0.256-1.488-0.384c-0.597-0.139-1.119-0.283-1.567-0.432
			s-0.827-0.336-1.136-0.56c-0.31-0.224-0.542-0.493-0.696-0.808c-0.155-0.314-0.232-0.701-0.232-1.16
			c0-0.523,0.099-0.989,0.296-1.4c0.197-0.41,0.478-0.752,0.841-1.024c0.362-0.272,0.789-0.48,1.279-0.624
			c0.491-0.144,1.035-0.216,1.632-0.216c0.758,0,1.433,0.115,2.024,0.344c0.592,0.229,1.128,0.552,1.608,0.968L56.173,19.115z"/>
		<path fill="#FFFFFF" d="M63.02,27.947c-0.064,0.032-0.157,0.075-0.28,0.129c-0.123,0.053-0.264,0.106-0.424,0.16
			c-0.16,0.053-0.342,0.101-0.544,0.144c-0.203,0.042-0.416,0.063-0.641,0.063c-0.234,0-0.458-0.031-0.672-0.096
			c-0.213-0.064-0.399-0.162-0.56-0.296s-0.288-0.302-0.384-0.504c-0.097-0.202-0.145-0.438-0.145-0.704v-5.968H58.22v-0.864h1.151
			v-2.816h1.088v2.816h1.92v0.864h-1.92v5.664c0.021,0.311,0.131,0.537,0.328,0.681s0.424,0.216,0.681,0.216
			c0.309,0,0.581-0.051,0.815-0.152c0.234-0.101,0.384-0.173,0.448-0.215L63.02,27.947z"/>
		<path fill="#FFFFFF" d="M66.475,28.508c-0.395,0-0.76-0.066-1.096-0.2s-0.63-0.317-0.88-0.552
			c-0.251-0.234-0.446-0.51-0.584-0.824c-0.139-0.314-0.208-0.653-0.208-1.016c0-0.363,0.085-0.699,0.256-1.008
			c0.17-0.31,0.41-0.576,0.72-0.801c0.31-0.224,0.678-0.396,1.104-0.52c0.426-0.123,0.896-0.184,1.407-0.184
			c0.427,0,0.858,0.037,1.296,0.111s0.827,0.182,1.169,0.32v-0.752c0-0.736-0.208-1.32-0.624-1.752s-0.992-0.648-1.729-0.648
			c-0.427,0-0.864,0.085-1.312,0.256c-0.448,0.171-0.902,0.416-1.36,0.736l-0.384-0.72c1.077-0.725,2.122-1.088,3.136-1.088
			c1.045,0,1.866,0.293,2.464,0.88c0.598,0.587,0.896,1.397,0.896,2.432v3.76c0,0.299,0.133,0.448,0.399,0.448v0.96
			c-0.182,0.032-0.319,0.048-0.416,0.048c-0.277,0-0.493-0.069-0.647-0.208c-0.155-0.139-0.238-0.33-0.248-0.576l-0.032-0.656
			c-0.384,0.502-0.867,0.887-1.448,1.152C67.774,28.374,67.147,28.508,66.475,28.508z M66.731,27.676
			c0.565,0,1.086-0.106,1.561-0.32c0.475-0.213,0.834-0.496,1.08-0.848c0.096-0.096,0.168-0.2,0.216-0.312
			c0.048-0.111,0.072-0.216,0.072-0.312v-1.36c-0.363-0.139-0.739-0.245-1.129-0.32c-0.389-0.074-0.786-0.111-1.191-0.111
			c-0.769,0-1.393,0.16-1.872,0.48c-0.48,0.319-0.72,0.74-0.72,1.264c0,0.256,0.05,0.496,0.151,0.72s0.24,0.419,0.416,0.584
			s0.387,0.296,0.632,0.392C66.193,27.627,66.454,27.676,66.731,27.676z"/>
		<path fill="#FFFFFF" d="M77.1,27.947c-0.064,0.032-0.157,0.075-0.28,0.129c-0.123,0.053-0.264,0.106-0.424,0.16
			c-0.16,0.053-0.342,0.101-0.544,0.144c-0.203,0.042-0.416,0.063-0.641,0.063c-0.234,0-0.458-0.031-0.672-0.096
			c-0.213-0.064-0.399-0.162-0.56-0.296s-0.288-0.302-0.384-0.504c-0.097-0.202-0.145-0.438-0.145-0.704v-5.968h-1.151v-0.864h1.151
			v-2.816h1.088v2.816h1.92v0.864h-1.92v5.664c0.021,0.311,0.131,0.537,0.328,0.681s0.424,0.216,0.681,0.216
			c0.309,0,0.581-0.051,0.815-0.152c0.234-0.101,0.384-0.173,0.448-0.215L77.1,27.947z"/>
		<path fill="#FFFFFF" d="M81.067,28.508c-0.906,0-1.581-0.301-2.023-0.904c-0.443-0.603-0.664-1.501-0.664-2.695v-4.896h1.088
			v4.704c0,1.888,0.646,2.832,1.936,2.832c0.32,0,0.635-0.054,0.944-0.16s0.595-0.261,0.856-0.464
			c0.261-0.203,0.496-0.443,0.704-0.721s0.376-0.592,0.504-0.943v-5.248H85.5v6.928c0,0.299,0.128,0.448,0.384,0.448v0.96
			c-0.128,0.021-0.232,0.032-0.312,0.032c-0.079,0-0.136,0-0.168,0c-0.256-0.011-0.464-0.102-0.624-0.272
			c-0.159-0.17-0.239-0.4-0.239-0.688v-0.961c-0.363,0.651-0.856,1.155-1.48,1.513S81.771,28.508,81.067,28.508z"/>
		<path fill="#FFFFFF" d="M90.731,28.508c-0.65,0-1.285-0.107-1.903-0.32c-0.619-0.213-1.152-0.522-1.601-0.928l0.496-0.736
			c0.47,0.385,0.946,0.672,1.432,0.864s1.006,0.288,1.561,0.288c0.672,0,1.208-0.137,1.607-0.408c0.4-0.271,0.601-0.658,0.601-1.16
			c0-0.234-0.054-0.43-0.16-0.584s-0.264-0.29-0.472-0.408c-0.208-0.117-0.47-0.221-0.784-0.312s-0.68-0.185-1.096-0.28
			c-0.48-0.117-0.896-0.234-1.248-0.352c-0.353-0.117-0.644-0.25-0.872-0.4c-0.229-0.148-0.4-0.333-0.513-0.552
			c-0.111-0.219-0.168-0.493-0.168-0.824c0-0.416,0.083-0.784,0.248-1.104c0.166-0.32,0.39-0.584,0.672-0.792
			c0.283-0.208,0.613-0.365,0.992-0.472s0.781-0.16,1.208-0.16c0.641,0,1.222,0.104,1.744,0.312s0.944,0.483,1.264,0.824
			l-0.527,0.64c-0.31-0.32-0.686-0.56-1.128-0.72c-0.443-0.16-0.904-0.24-1.385-0.24c-0.287,0-0.555,0.03-0.8,0.088
			c-0.245,0.059-0.461,0.152-0.647,0.28c-0.188,0.128-0.334,0.291-0.44,0.488c-0.106,0.198-0.16,0.43-0.16,0.696
			c0,0.224,0.037,0.405,0.112,0.544c0.074,0.139,0.197,0.259,0.368,0.36c0.17,0.102,0.387,0.192,0.647,0.272
			c0.262,0.08,0.579,0.162,0.952,0.248c0.533,0.127,1.003,0.256,1.408,0.383c0.405,0.129,0.744,0.278,1.016,0.449
			c0.272,0.17,0.478,0.379,0.616,0.623c0.139,0.246,0.208,0.545,0.208,0.896c0,0.768-0.293,1.376-0.88,1.824
			C92.512,28.283,91.723,28.508,90.731,28.508z"/>
	</g>
</g>
</svg>
