<?xml version="1.0" encoding="utf-8"?>
<!-- Generator: Adobe Illustrator 16.0.0, SVG Export Plug-In . SVG Version: 6.00 Build 0)  -->
<!DOCTYPE svg PUBLIC "-//W3C//DTD SVG 1.1//EN" "http://www.w3.org/Graphics/SVG/1.1/DTD/svg11.dtd">
<svg version="1.1" id="Layer_1" xmlns="http://www.w3.org/2000/svg" xmlns:xlink="http://www.w3.org/1999/xlink" x="0px" y="0px"
	 width="109px" height="49px" viewBox="0 0 109 49" enable-background="new 0 0 109 49" xml:space="preserve">
<g>
	<g>
		<g>
			<path fill="#FF9400" d="M107.621,35.912c0,6.627-5.373,12-12,12H14.01c-6.627,0-12-5.373-12-12v-20.99c0-6.627,5.373-12,12-12
				h81.611c6.627,0,12,5.373,12,12V35.912z"/>
			<path d="M95.621,48.412H14.01c-6.893,0-12.5-5.607-12.5-12.5v-20.99c0-6.893,5.607-12.5,12.5-12.5h81.611
				c6.893,0,12.5,5.607,12.5,12.5v20.99C108.121,42.805,102.514,48.412,95.621,48.412z M14.01,3.422c-6.341,0-11.5,5.159-11.5,11.5
				v20.99c0,6.341,5.159,11.5,11.5,11.5h81.611c6.341,0,11.5-5.159,11.5-11.5v-20.99c0-6.341-5.159-11.5-11.5-11.5H14.01z"/>
		</g>
		<g>
			<path d="M15.661,13.059c1.232-0.252,2.996-0.392,4.676-0.392c2.604,0,4.284,0.476,5.46,1.54c0.952,0.84,1.484,2.128,1.484,3.584
				c0,2.492-1.568,4.144-3.556,4.816v0.084c1.456,0.504,2.324,1.848,2.772,3.808c0.616,2.632,1.064,4.452,1.456,5.181h-2.52
				c-0.308-0.533-0.728-2.156-1.26-4.508c-0.56-2.604-1.568-3.584-3.78-3.668h-2.296v8.176h-2.436V13.059z M18.097,21.655h2.492
				c2.604,0,4.256-1.428,4.256-3.584c0-2.436-1.764-3.5-4.34-3.528c-1.176,0-2.016,0.112-2.408,0.224V21.655z"/>
			<path d="M32.013,25.352c0.056,3.332,2.184,4.703,4.648,4.703c1.764,0,2.828-0.308,3.752-0.699l0.42,1.764
				c-0.868,0.393-2.352,0.84-4.508,0.84c-4.172,0-6.664-2.744-6.664-6.832s2.408-7.308,6.356-7.308c4.424,0,5.6,3.892,5.6,6.384
				c0,0.504-0.056,0.896-0.084,1.148H32.013z M39.237,23.587c0.028-1.568-0.644-4.004-3.416-4.004c-2.492,0-3.584,2.296-3.78,4.004
				H39.237z"/>
			<path d="M44.92,31.68V20.003h-1.904v-1.876h1.904v-0.644c0-1.904,0.42-3.64,1.568-4.732c0.924-0.896,2.156-1.26,3.305-1.26
				c0.867,0,1.623,0.196,2.1,0.392l-0.336,1.904c-0.364-0.168-0.868-0.308-1.568-0.308c-2.1,0-2.632,1.848-2.632,3.92v0.728h3.276
				v1.876h-3.276V31.68H44.92z"/>
			<path d="M52.844,22.355c0-1.596-0.028-2.968-0.112-4.228h2.156l0.084,2.66h0.112c0.616-1.82,2.1-2.968,3.752-2.968
				c0.28,0,0.476,0.028,0.7,0.084v2.324c-0.252-0.056-0.504-0.084-0.841-0.084c-1.735,0-2.968,1.316-3.304,3.164
				c-0.056,0.336-0.112,0.728-0.112,1.148v7.225h-2.436V22.355z"/>
			<path d="M63.372,25.352c0.056,3.332,2.184,4.703,4.647,4.703c1.765,0,2.828-0.308,3.753-0.699l0.42,1.764
				c-0.868,0.393-2.353,0.84-4.509,0.84c-4.172,0-6.663-2.744-6.663-6.832s2.407-7.308,6.355-7.308c4.424,0,5.6,3.892,5.6,6.384
				c0,0.504-0.056,0.896-0.084,1.148H63.372z M70.596,23.587c0.028-1.568-0.644-4.004-3.416-4.004c-2.491,0-3.584,2.296-3.779,4.004
				H70.596z"/>
			<path d="M75.691,29.159c0.728,0.476,2.016,0.979,3.248,0.979c1.792,0,2.632-0.896,2.632-2.016c0-1.176-0.7-1.82-2.52-2.492
				c-2.437-0.868-3.584-2.211-3.584-3.835c0-2.184,1.764-3.976,4.676-3.976c1.372,0,2.576,0.392,3.332,0.84l-0.616,1.792
				c-0.532-0.336-1.512-0.784-2.772-0.784c-1.455,0-2.268,0.84-2.268,1.848c0,1.12,0.812,1.624,2.576,2.296
				c2.352,0.896,3.556,2.072,3.556,4.088c0,2.38-1.848,4.06-5.067,4.06c-1.484,0-2.856-0.363-3.809-0.924L75.691,29.159z"/>
			<path d="M87.115,11.799h2.464v8.456h0.057c0.392-0.7,1.008-1.316,1.764-1.736c0.728-0.42,1.596-0.7,2.52-0.7
				c1.82,0,4.732,1.12,4.732,5.796v8.064h-2.464v-7.785c0-2.184-0.812-4.032-3.137-4.032c-1.596,0-2.855,1.12-3.304,2.464
				c-0.14,0.336-0.168,0.7-0.168,1.176v8.176h-2.464V11.799z"/>
		</g>
	</g>
</g>
</svg>
