<?xml version="1.0" encoding="utf-8"?>
<!-- Generator: Adobe Illustrator 16.0.0, SVG Export Plug-In . SVG Version: 6.00 Build 0)  -->
<!DOCTYPE svg PUBLIC "-//W3C//DTD SVG 1.1//EN" "http://www.w3.org/Graphics/SVG/1.1/DTD/svg11.dtd">
<svg version="1.1" id="Layer_1" xmlns="http://www.w3.org/2000/svg" xmlns:xlink="http://www.w3.org/1999/xlink" x="0px" y="0px"
	 width="109px" height="49px" viewBox="0 0 109 49" enable-background="new 0 0 109 49" xml:space="preserve">
<g>
	<g>
		<g>
			<rect fill="#FF9400" width="109" height="49"/>
			<path d="M109.5,49.5h-110v-50h110V49.5z M0.5,48.5h108v-48H0.5V48.5z"/>
		</g>
		<g>
			<path fill="#FFFFFF" d="M21.443,14.809c1.372-0.224,3.416-0.392,5.684-0.392c2.8,0,4.76,0.42,6.104,1.484
				c1.12,0.896,1.736,2.212,1.736,3.948c0,2.408-1.708,4.06-3.332,4.648v0.084c1.316,0.532,2.044,1.792,2.52,3.528
				c0.588,2.128,1.176,4.592,1.54,5.32h-4.368c-0.308-0.533-0.756-2.072-1.316-4.396c-0.504-2.352-1.316-2.996-3.052-3.023h-1.288
				v7.42h-4.228V14.809z M25.671,22.929h1.68c2.128,0,3.388-1.064,3.388-2.716c0-1.736-1.176-2.604-3.136-2.632
				c-1.036,0-1.624,0.084-1.932,0.14V22.929z"/>
			<path fill="#FFFFFF" d="M41.182,27.941c0.14,1.764,1.876,2.604,3.864,2.604c1.456,0,2.632-0.195,3.78-0.56l0.56,2.884
				c-1.399,0.561-3.107,0.84-4.955,0.84c-4.648,0-7.309-2.688-7.309-6.972c0-3.472,2.156-7.308,6.916-7.308
				c4.424,0,6.104,3.444,6.104,6.833c0,0.728-0.084,1.371-0.141,1.68H41.182z M46.194,25.029c0-1.036-0.448-2.772-2.408-2.772
				c-1.792,0-2.52,1.624-2.632,2.772H46.194z"/>
			<path fill="#FFFFFF" d="M57.45,15.817v3.92h3.052v3.136H57.45v4.956c0,1.652,0.393,2.408,1.681,2.408
				c0.531,0,0.951-0.056,1.26-0.112l0.027,3.221c-0.56,0.224-1.567,0.363-2.771,0.363c-1.372,0-2.521-0.476-3.192-1.176
				c-0.784-0.812-1.176-2.128-1.176-4.061v-5.6h-1.82v-3.136h1.82v-2.968L57.45,15.817z"/>
			<path fill="#FFFFFF" d="M62.966,24.245c0-2.016-0.056-3.332-0.112-4.508h3.668l0.141,2.52h0.111
				c0.7-1.988,2.38-2.828,3.696-2.828c0.392,0,0.588,0,0.896,0.056v4.004c-0.309-0.056-0.673-0.112-1.148-0.112
				c-1.568,0-2.632,0.84-2.912,2.156c-0.056,0.28-0.084,0.616-0.084,0.952v6.944h-4.256V24.245z"/>
			<path fill="#FFFFFF" d="M76.798,19.737l2.044,6.72c0.224,0.812,0.504,1.82,0.672,2.549h0.084c0.195-0.729,0.42-1.765,0.616-2.549
				l1.68-6.72h4.563l-3.191,9.017c-1.96,5.432-3.276,7.615-4.816,8.987c-1.483,1.288-3.052,1.736-4.116,1.876l-0.896-3.612
				c0.532-0.084,1.204-0.336,1.848-0.728c0.645-0.336,1.345-1.008,1.765-1.708c0.14-0.196,0.224-0.42,0.224-0.616
				c0-0.141-0.028-0.363-0.196-0.699l-5.012-12.517H76.798z"/>
		</g>
	</g>
</g>
</svg>
