<?xml version="1.0" encoding="utf-8"?>
<!-- Generator: Adobe Illustrator 16.0.0, SVG Export Plug-In . SVG Version: 6.00 Build 0)  -->
<!DOCTYPE svg PUBLIC "-//W3C//DTD SVG 1.1//EN" "http://www.w3.org/Graphics/SVG/1.1/DTD/svg11.dtd">
<svg version="1.1" id="Layer_1" xmlns="http://www.w3.org/2000/svg" xmlns:xlink="http://www.w3.org/1999/xlink" x="0px" y="0px"
	 width="160px" height="160px" viewBox="0 0 160 160" enable-background="new 0 0 160 160" xml:space="preserve">
<title>Music</title>
<desc>Created with Sketch.</desc>
<g id="Symbols">
	<g id="Music">
		<path id="Fill-1" fill="#FFFFFF" d="M37.446,113.308c-1.602-3.383-1.478-7.345,0.35-11.164c1.699-3.549,4.706-6.592,8.473-8.554
			c3.149-1.637,6.524-2.39,9.77-2.169l-0.358,5.671c-2.25-0.148-4.736,0.414-6.995,1.592c-2.721,1.412-4.866,3.55-6.04,6.01
			c-1.043,2.182-1.167,4.338-0.344,6.073c1.806,3.807,7.779,4.7,13.046,1.954c3.509-1.831,6.086-4.927,6.756-8.093l0.166-1.437
			V60.728c0-1.817,1.336-3.743,2.905-4.274l48.246-16.307c1.611-0.544,2.908,0.472,2.908,2.276l-0.018,60.696
			c-0.265,5.55-4.162,11.079-9.912,14.083c-3.765,1.97-7.892,2.656-11.614,1.932c-4.012-0.778-7.104-3.063-8.704-6.437
			c-1.599-3.381-1.478-7.343,0.35-11.163c1.694-3.549,4.706-6.59,8.476-8.554c2.764-1.442,5.756-2.208,8.65-2.208
			c0.049,0,0.098,5.691,0.098,5.691c-2.08-0.006-4.282,0.538-6.334,1.612c-2.721,1.412-4.862,3.549-6.039,6.01
			c-1.042,2.182-1.163,4.338-0.344,6.073c0.82,1.736,2.54,2.939,4.833,3.382c2.575,0.497,5.496-0.009,8.212-1.426
			c3.944-2.06,6.722-5.763,6.915-9.228l0.011-1.18V50.234c0-1.801-1.338-2.807-2.967-2.256L70.665,60.575
			c-1.642,0.557-2.972,2.506-2.975,4.309l-0.016,38.813l-0.238,1.976c-0.974,4.953-4.591,9.485-9.673,12.138
			c-2.835,1.479-5.803,2.189-8.6,2.189C44.039,120,39.5,117.625,37.446,113.308z"/>
	</g>
</g>
</svg>
