<?xml version="1.0" encoding="utf-8"?>
<!-- Generator: Adobe Illustrator 16.0.0, SVG Export Plug-In . SVG Version: 6.00 Build 0)  -->
<!DOCTYPE svg PUBLIC "-//W3C//DTD SVG 1.1//EN" "http://www.w3.org/Graphics/SVG/1.1/DTD/svg11.dtd">
<svg version="1.1" id="Layer_1" xmlns="http://www.w3.org/2000/svg" xmlns:xlink="http://www.w3.org/1999/xlink" x="0px" y="0px"
	 width="160px" height="160px" viewBox="0 0 160 160" enable-background="new 0 0 160 160" xml:space="preserve">
<title>Music</title>
<desc>Created with Sketch.</desc>
<g id="Symbols">
	<g id="Music">
		<path id="Fill-1" fill="#FFFFFF" d="M35.016,115.388c-1.702-3.593-1.57-7.802,0.372-11.86c1.805-3.771,5-7.004,9.002-9.088
			c3.346-1.74,6.932-2.539,10.38-2.305l-0.381,6.025c-2.391-0.158-5.032,0.44-7.432,1.692c-2.891,1.5-5.17,3.771-6.417,6.384
			c-1.108,2.318-1.24,4.609-0.365,6.453c1.919,4.045,8.265,4.994,13.861,2.077c3.728-1.946,6.467-5.235,7.179-8.599l0.176-1.527
			V59.523c0-1.93,1.42-3.977,3.086-4.541l51.261-17.326c1.712-0.578,3.09,0.502,3.09,2.418l-0.02,64.491
			c-0.281,5.896-4.422,11.771-10.531,14.963c-4,2.092-8.385,2.821-12.34,2.051c-4.262-0.826-7.549-3.255-9.248-6.839
			c-1.698-3.591-1.57-7.801,0.371-11.86c1.801-3.77,5-7.002,9.006-9.088c2.937-1.533,6.115-2.346,9.191-2.346
			c0.051,0,0.104,6.047,0.104,6.047c-2.211-0.007-4.551,0.571-6.73,1.713c-2.891,1.5-5.166,3.771-6.416,6.385
			c-1.107,2.318-1.236,4.609-0.365,6.453c0.871,1.845,2.698,3.123,5.135,3.592c2.736,0.529,5.839-0.008,8.724-1.514
			c4.192-2.188,7.142-6.123,7.347-9.804l0.012-1.253V48.374c0-1.913-1.422-2.982-3.152-2.397L70.311,59.361
			c-1.744,0.591-3.157,2.662-3.16,4.578l-0.017,41.239l-0.253,2.099c-1.035,5.263-4.878,10.078-10.278,12.897
			c-3.012,1.57-6.166,2.326-9.137,2.326C42.021,122.5,37.198,119.976,35.016,115.388z"/>
	</g>
</g>
</svg>
