<?xml version="1.0" encoding="utf-8"?>
<!-- Generator: Adobe Illustrator 16.0.0, SVG Export Plug-In . SVG Version: 6.00 Build 0)  -->
<!DOCTYPE svg PUBLIC "-//W3C//DTD SVG 1.1//EN" "http://www.w3.org/Graphics/SVG/1.1/DTD/svg11.dtd">
<svg version="1.1" id="Layer_1" xmlns="http://www.w3.org/2000/svg" xmlns:xlink="http://www.w3.org/1999/xlink" x="0px" y="0px"
	 width="160px" height="159.998px" viewBox="0 0 160 159.998" enable-background="new 0 0 160 159.998" xml:space="preserve">
<title>Heart</title>
<desc>Created with Sketch.</desc>
<g id="Symbols">
	<g id="Heart">
		<path id="Shape" fill="#FFFFFF" d="M80.329,114.61c-0.404,0.449-0.79,0.449-1.128,0.068L57.803,91.788
			C42.044,73.906,39.297,63.21,49.362,48.493c5.772-8.467,17.68-6.987,27.924,3.909c1.435,1.627,3.932,1.627,5.432-0.074
			C91.948,41.489,103.842,40,110.36,48.619c10.517,13.825,7.554,24.928-8.642,43.203L80.329,114.61z M44.692,44.545
			c-12.228,17.882-8.626,31.898,8.988,51.883l21.394,22.892c2.575,2.917,6.735,2.917,9.373-0.069l21.355-22.752
			c18.138-20.454,22.035-35.003,9.046-52.088c-8.688-11.485-23.693-10.112-34.944,1.813C67.61,34.273,52.626,32.909,44.692,44.545z"
			/>
	</g>
</g>
</svg>
