<?xml version="1.0" encoding="utf-8"?>
<!-- Generator: Adobe Illustrator 16.0.0, SVG Export Plug-In . SVG Version: 6.00 Build 0)  -->
<!DOCTYPE svg PUBLIC "-//W3C//DTD SVG 1.1//EN" "http://www.w3.org/Graphics/SVG/1.1/DTD/svg11.dtd">
<svg version="1.1" id="Layer_1" xmlns="http://www.w3.org/2000/svg" xmlns:xlink="http://www.w3.org/1999/xlink" x="0px" y="0px"
	 width="350px" height="90px" viewBox="0 0 350 90" enable-background="new 0 0 350 90" xml:space="preserve">
<title>Layer_1</title>
<desc>Created with Sketch.</desc>
<g enable-background="new    ">
	<g>
		<path fill="#FF9400" d="M111.572,39.114c-0.36-0.408-0.84-0.738-1.44-0.99s-1.284-0.378-2.052-0.378
			c-1.128,0-1.95,0.213-2.466,0.639c-0.516,0.427-0.774,1.006-0.774,1.737c0,0.384,0.069,0.699,0.207,0.945
			c0.138,0.246,0.351,0.459,0.639,0.639s0.657,0.336,1.107,0.468c0.45,0.133,0.981,0.265,1.593,0.396
			c0.684,0.144,1.298,0.306,1.845,0.485c0.546,0.181,1.011,0.405,1.395,0.676c0.384,0.27,0.678,0.597,0.882,0.98
			s0.306,0.864,0.306,1.44c0,0.588-0.114,1.098-0.342,1.529c-0.228,0.433-0.546,0.792-0.954,1.08
			c-0.408,0.288-0.894,0.502-1.458,0.64c-0.564,0.138-1.182,0.207-1.854,0.207c-1.98,0-3.69-0.618-5.13-1.854l0.63-1.026
			c0.228,0.24,0.501,0.469,0.819,0.685s0.672,0.405,1.062,0.566c0.39,0.162,0.807,0.288,1.251,0.379
			c0.444,0.09,0.912,0.135,1.404,0.135c1.02,0,1.815-0.183,2.385-0.549s0.855-0.921,0.855-1.665c0-0.396-0.081-0.729-0.243-0.999
			c-0.162-0.271-0.405-0.504-0.729-0.702c-0.324-0.198-0.726-0.369-1.206-0.513c-0.48-0.145-1.038-0.288-1.674-0.433
			c-0.672-0.155-1.26-0.317-1.764-0.485c-0.504-0.168-0.93-0.379-1.278-0.631s-0.609-0.555-0.783-0.908
			c-0.174-0.354-0.261-0.789-0.261-1.306c0-0.588,0.111-1.112,0.333-1.575c0.222-0.461,0.537-0.846,0.945-1.151
			c0.408-0.307,0.888-0.54,1.44-0.702c0.552-0.162,1.164-0.243,1.836-0.243c0.852,0,1.611,0.129,2.277,0.387
			c0.666,0.259,1.269,0.621,1.809,1.09L111.572,39.114z"/>
		<path fill="#FF9400" d="M114.776,38.16v-1.8H116v1.8H114.776z M114.776,49.5v-9.378H116V49.5H114.776z"/>
		<path fill="#FF9400" d="M132.649,49.5h-1.224v-5.238c0-1.092-0.174-1.896-0.522-2.412c-0.348-0.516-0.863-0.773-1.548-0.773
			c-0.359,0-0.699,0.066-1.018,0.198c-0.317,0.132-0.611,0.317-0.881,0.558s-0.507,0.525-0.711,0.854
			c-0.204,0.331-0.36,0.693-0.468,1.09V49.5h-1.224v-5.238c0-1.115-0.168-1.926-0.504-2.43c-0.336-0.504-0.853-0.756-1.548-0.756
			c-0.708,0-1.338,0.246-1.89,0.738c-0.552,0.492-0.948,1.14-1.188,1.943V49.5H118.7v-9.378h1.116v2.124
			c0.384-0.72,0.888-1.281,1.512-1.683c0.624-0.402,1.314-0.604,2.07-0.604c0.792,0,1.425,0.223,1.899,0.666
			c0.474,0.444,0.765,1.026,0.873,1.746c0.876-1.608,2.083-2.412,3.619-2.412c0.527,0,0.975,0.097,1.341,0.288
			c0.365,0.192,0.659,0.465,0.882,0.819c0.222,0.354,0.384,0.78,0.486,1.277c0.102,0.498,0.152,1.054,0.152,1.665V49.5z"/>
		<path fill="#FF9400" d="M140.029,49.68c-0.792,0-1.491-0.2-2.097-0.603c-0.606-0.402-1.095-0.909-1.467-1.521v5.778h-1.225V40.122
			h1.099v1.818c0.384-0.588,0.882-1.065,1.494-1.432c0.611-0.365,1.277-0.549,1.998-0.549c0.647,0,1.241,0.135,1.781,0.405
			c0.54,0.27,1.009,0.63,1.404,1.08c0.396,0.449,0.705,0.969,0.927,1.557c0.223,0.588,0.333,1.194,0.333,1.818
			c0,0.66-0.102,1.284-0.306,1.872s-0.495,1.104-0.873,1.548s-0.828,0.795-1.35,1.053C141.227,49.551,140.653,49.68,140.029,49.68z
			 M139.688,48.6c0.504,0,0.963-0.107,1.377-0.323c0.414-0.217,0.768-0.501,1.062-0.855c0.294-0.354,0.519-0.756,0.675-1.206
			c0.155-0.45,0.233-0.915,0.233-1.395c0-0.504-0.09-0.984-0.27-1.44s-0.426-0.857-0.738-1.206
			c-0.312-0.348-0.681-0.624-1.106-0.828c-0.427-0.203-0.886-0.306-1.377-0.306c-0.312,0-0.64,0.062-0.981,0.188
			c-0.342,0.127-0.66,0.295-0.954,0.505s-0.546,0.456-0.756,0.737c-0.21,0.282-0.339,0.579-0.387,0.892v2.88
			c0.144,0.336,0.326,0.647,0.549,0.936c0.222,0.288,0.474,0.537,0.756,0.747s0.585,0.375,0.909,0.495S139.34,48.6,139.688,48.6z"/>
		<path fill="#FF9400" d="M146.401,36.36h1.224v11.016c0,0.349,0.096,0.621,0.288,0.819c0.191,0.197,0.462,0.297,0.81,0.297
			c0.132,0,0.288-0.019,0.469-0.054c0.18-0.036,0.348-0.084,0.504-0.145l0.216,0.99c-0.229,0.096-0.507,0.174-0.837,0.233
			c-0.33,0.061-0.615,0.091-0.855,0.091c-0.563,0-1.008-0.159-1.332-0.478c-0.323-0.317-0.485-0.765-0.485-1.341V36.36z"/>
		<path fill="#FF9400" d="M155.294,49.68c-0.685,0-1.312-0.129-1.882-0.387c-0.569-0.258-1.064-0.612-1.484-1.062
			c-0.42-0.45-0.747-0.97-0.981-1.558c-0.233-0.588-0.351-1.218-0.351-1.89c0-0.66,0.117-1.281,0.351-1.863
			c0.234-0.582,0.559-1.092,0.973-1.53c0.414-0.438,0.908-0.785,1.484-1.044c0.576-0.258,1.2-0.387,1.872-0.387
			c0.685,0,1.312,0.129,1.881,0.387c0.57,0.259,1.06,0.609,1.468,1.054c0.407,0.443,0.726,0.953,0.953,1.529
			c0.229,0.576,0.343,1.188,0.343,1.836c0,0.097,0,0.192,0,0.288c0,0.097-0.007,0.162-0.019,0.198h-8.027
			c0.035,0.504,0.152,0.969,0.351,1.396c0.198,0.426,0.453,0.795,0.765,1.106c0.312,0.312,0.669,0.556,1.071,0.729
			s0.831,0.261,1.287,0.261c0.3,0,0.6-0.042,0.899-0.126c0.301-0.084,0.576-0.198,0.828-0.342c0.252-0.145,0.48-0.321,0.685-0.531
			s0.359-0.441,0.468-0.693l1.062,0.288c-0.145,0.349-0.349,0.663-0.612,0.945c-0.265,0.282-0.57,0.528-0.918,0.738
			c-0.349,0.21-0.732,0.372-1.152,0.485C156.188,49.623,155.749,49.68,155.294,49.68z M158.75,44.316
			c-0.036-0.505-0.153-0.964-0.352-1.377c-0.198-0.414-0.45-0.771-0.756-1.071s-0.66-0.534-1.062-0.702
			c-0.401-0.168-0.831-0.252-1.286-0.252c-0.457,0-0.889,0.084-1.297,0.252c-0.407,0.168-0.765,0.402-1.07,0.702
			c-0.307,0.3-0.553,0.66-0.738,1.08c-0.187,0.42-0.297,0.876-0.333,1.368H158.75z"/>
		<path fill="#FF9400" d="M166.398,38.16v-1.8h1.225v1.8H166.398z M166.398,49.5v-9.378h1.225V49.5H166.398z"/>
		<path fill="#FF9400" d="M173.437,49.68c-0.732,0-1.446-0.12-2.142-0.359c-0.696-0.24-1.296-0.588-1.8-1.044l0.558-0.828
			c0.527,0.432,1.064,0.756,1.611,0.972c0.546,0.216,1.131,0.324,1.755,0.324c0.756,0,1.358-0.153,1.809-0.459
			c0.45-0.307,0.675-0.741,0.675-1.305c0-0.265-0.06-0.483-0.18-0.657s-0.297-0.327-0.531-0.459
			c-0.233-0.132-0.528-0.249-0.882-0.352c-0.354-0.102-0.765-0.207-1.233-0.314c-0.539-0.132-1.008-0.264-1.403-0.396
			c-0.396-0.132-0.724-0.281-0.981-0.45c-0.258-0.167-0.45-0.374-0.576-0.62s-0.188-0.556-0.188-0.928
			c0-0.468,0.093-0.882,0.279-1.242c0.186-0.359,0.438-0.656,0.756-0.891c0.317-0.234,0.689-0.411,1.116-0.531
			c0.426-0.119,0.879-0.18,1.358-0.18c0.72,0,1.374,0.117,1.962,0.351c0.588,0.234,1.062,0.544,1.422,0.928l-0.594,0.72
			c-0.348-0.36-0.771-0.63-1.269-0.81c-0.498-0.181-1.018-0.271-1.558-0.271c-0.324,0-0.624,0.033-0.899,0.099
			c-0.276,0.066-0.52,0.172-0.729,0.315s-0.375,0.327-0.495,0.549c-0.12,0.223-0.18,0.483-0.18,0.783
			c0,0.252,0.042,0.456,0.126,0.612s0.222,0.291,0.414,0.404c0.191,0.114,0.435,0.217,0.729,0.307s0.651,0.183,1.071,0.278
			c0.6,0.145,1.128,0.288,1.584,0.433c0.456,0.144,0.837,0.312,1.144,0.504c0.306,0.192,0.536,0.426,0.692,0.702
			s0.234,0.611,0.234,1.008c0,0.864-0.33,1.548-0.99,2.052S174.553,49.68,173.437,49.68z"/>
		<path fill="#FF9400" d="M193.542,46.206c0,0.48-0.096,0.921-0.288,1.323c-0.191,0.402-0.45,0.75-0.773,1.044
			c-0.324,0.294-0.702,0.521-1.135,0.684c-0.432,0.162-0.894,0.243-1.386,0.243h-6.03V36.72h6.156c0.444,0,0.846,0.097,1.206,0.288
			c0.36,0.192,0.666,0.441,0.918,0.747s0.447,0.654,0.585,1.044c0.138,0.391,0.207,0.783,0.207,1.179
			c0,0.648-0.162,1.239-0.485,1.773c-0.324,0.534-0.774,0.934-1.351,1.197c0.731,0.216,1.311,0.618,1.737,1.206
			C193.329,44.742,193.542,45.426,193.542,46.206z M185.19,37.818v4.716h4.392c0.312,0,0.604-0.066,0.873-0.198
			c0.271-0.132,0.501-0.306,0.693-0.521c0.191-0.217,0.342-0.466,0.449-0.747c0.108-0.282,0.162-0.579,0.162-0.892
			c0-0.324-0.051-0.63-0.152-0.918c-0.103-0.288-0.246-0.537-0.433-0.747c-0.186-0.21-0.404-0.378-0.656-0.504
			s-0.528-0.188-0.828-0.188H185.19z M192.282,45.99c0-0.312-0.054-0.615-0.162-0.909s-0.261-0.552-0.459-0.774
			c-0.198-0.222-0.432-0.401-0.702-0.54c-0.27-0.138-0.561-0.207-0.873-0.207h-4.896v4.843h4.77c0.324,0,0.627-0.066,0.909-0.198
			s0.528-0.309,0.738-0.531c0.21-0.222,0.375-0.479,0.495-0.773C192.222,46.605,192.282,46.302,192.282,45.99z"/>
		<path fill="#FF9400" d="M199.717,49.68c-0.685,0-1.312-0.129-1.882-0.387c-0.569-0.258-1.064-0.612-1.484-1.062
			c-0.42-0.45-0.747-0.97-0.981-1.558c-0.233-0.588-0.351-1.218-0.351-1.89c0-0.66,0.117-1.281,0.351-1.863
			c0.234-0.582,0.559-1.092,0.973-1.53c0.414-0.438,0.908-0.785,1.484-1.044c0.576-0.258,1.2-0.387,1.872-0.387
			c0.685,0,1.312,0.129,1.881,0.387c0.57,0.259,1.06,0.609,1.468,1.054c0.407,0.443,0.726,0.953,0.953,1.529
			c0.229,0.576,0.343,1.188,0.343,1.836c0,0.097,0,0.192,0,0.288c0,0.097-0.007,0.162-0.019,0.198h-8.027
			c0.035,0.504,0.152,0.969,0.351,1.396c0.198,0.426,0.453,0.795,0.765,1.106c0.312,0.312,0.669,0.556,1.071,0.729
			s0.831,0.261,1.287,0.261c0.3,0,0.6-0.042,0.899-0.126c0.301-0.084,0.576-0.198,0.828-0.342c0.252-0.145,0.48-0.321,0.685-0.531
			s0.359-0.441,0.468-0.693l1.062,0.288c-0.145,0.349-0.349,0.663-0.612,0.945c-0.265,0.282-0.57,0.528-0.918,0.738
			c-0.349,0.21-0.732,0.372-1.152,0.485C200.61,49.623,200.172,49.68,199.717,49.68z M203.173,44.316
			c-0.036-0.505-0.153-0.964-0.352-1.377c-0.198-0.414-0.45-0.771-0.756-1.071s-0.66-0.534-1.062-0.702
			c-0.401-0.168-0.831-0.252-1.286-0.252c-0.457,0-0.889,0.084-1.297,0.252c-0.407,0.168-0.765,0.402-1.07,0.702
			c-0.307,0.3-0.553,0.66-0.738,1.08c-0.187,0.42-0.297,0.876-0.333,1.368H203.173z"/>
		<path fill="#FF9400" d="M208.59,49.68c-0.444,0-0.855-0.075-1.233-0.225c-0.378-0.15-0.708-0.357-0.989-0.621
			c-0.282-0.264-0.502-0.573-0.657-0.927c-0.156-0.354-0.234-0.735-0.234-1.144c0-0.407,0.096-0.785,0.288-1.134
			c0.192-0.348,0.462-0.647,0.811-0.899c0.348-0.253,0.762-0.447,1.241-0.586c0.48-0.138,1.009-0.206,1.584-0.206
			c0.48,0,0.966,0.042,1.458,0.126s0.931,0.204,1.314,0.359v-0.846c0-0.828-0.234-1.485-0.702-1.971
			c-0.468-0.486-1.116-0.729-1.944-0.729c-0.479,0-0.972,0.097-1.476,0.288c-0.504,0.192-1.014,0.468-1.53,0.828l-0.432-0.811
			c1.212-0.815,2.388-1.224,3.528-1.224c1.176,0,2.1,0.33,2.771,0.99s1.008,1.572,1.008,2.735v4.23c0,0.336,0.15,0.504,0.45,0.504
			v1.08c-0.204,0.036-0.36,0.054-0.468,0.054c-0.312,0-0.556-0.077-0.729-0.233s-0.267-0.372-0.278-0.648l-0.036-0.738
			c-0.433,0.564-0.976,0.997-1.629,1.297C210.051,49.53,209.346,49.68,208.59,49.68z M208.878,48.744c0.636,0,1.221-0.12,1.755-0.36
			c0.534-0.239,0.938-0.558,1.215-0.954c0.108-0.107,0.189-0.225,0.243-0.351s0.081-0.243,0.081-0.352v-1.529
			c-0.408-0.156-0.831-0.276-1.269-0.36c-0.438-0.084-0.886-0.126-1.342-0.126c-0.863,0-1.565,0.18-2.105,0.54
			s-0.811,0.834-0.811,1.422c0,0.288,0.058,0.559,0.171,0.811c0.114,0.252,0.271,0.471,0.469,0.656
			c0.197,0.187,0.435,0.333,0.711,0.441C208.271,48.69,208.565,48.744,208.878,48.744z"/>
		<path fill="#FF9400" d="M218.976,49.68c-1.021,0-1.779-0.339-2.277-1.017s-0.747-1.689-0.747-3.033v-5.508h1.225v5.292
			c0,2.124,0.726,3.186,2.178,3.186c0.36,0,0.714-0.06,1.062-0.18c0.349-0.12,0.669-0.294,0.963-0.521
			c0.294-0.229,0.559-0.498,0.792-0.811c0.234-0.312,0.424-0.666,0.567-1.062v-5.904h1.224v7.794c0,0.336,0.145,0.504,0.433,0.504
			v1.08c-0.145,0.023-0.261,0.036-0.352,0.036c-0.09,0-0.152,0-0.188,0c-0.288-0.013-0.522-0.114-0.702-0.306
			c-0.18-0.192-0.27-0.45-0.27-0.774v-1.08c-0.408,0.732-0.964,1.299-1.665,1.701C220.515,49.479,219.768,49.68,218.976,49.68z"/>
		<path fill="#FF9400" d="M231.233,49.05c-0.071,0.036-0.177,0.084-0.314,0.145c-0.139,0.06-0.297,0.12-0.478,0.18
			c-0.18,0.061-0.384,0.114-0.611,0.162c-0.229,0.048-0.469,0.072-0.721,0.072c-0.264,0-0.516-0.036-0.756-0.108
			s-0.45-0.183-0.63-0.333c-0.18-0.149-0.324-0.339-0.432-0.567c-0.108-0.228-0.162-0.491-0.162-0.792v-6.714h-1.296v-0.972h1.296
			v-3.168h1.224v3.168h2.16v0.972h-2.16v6.372c0.024,0.349,0.147,0.604,0.369,0.766c0.222,0.161,0.478,0.242,0.765,0.242
			c0.349,0,0.654-0.057,0.919-0.171c0.264-0.113,0.432-0.194,0.504-0.243L231.233,49.05z"/>
		<path fill="#FF9400" d="M232.764,38.16v-1.8h1.225v1.8H232.764z M232.764,49.5v-9.378h1.225V49.5H232.764z"/>
		<path fill="#FF9400" d="M237.137,49.5v-8.406h-1.296v-0.972h1.296V39.87c0-1.152,0.246-2.055,0.738-2.709s1.164-0.981,2.016-0.981
			c0.372,0,0.732,0.055,1.08,0.162c0.348,0.108,0.648,0.252,0.9,0.433l-0.378,0.882c-0.168-0.132-0.375-0.234-0.621-0.307
			c-0.246-0.071-0.495-0.107-0.747-0.107c-0.576,0-1.015,0.222-1.314,0.666s-0.449,1.086-0.449,1.926v0.288h2.592v0.972h-2.592V49.5
			H237.137z"/>
		<path fill="#FF9400" d="M245.562,49.68c-1.021,0-1.779-0.339-2.277-1.017s-0.747-1.689-0.747-3.033v-5.508h1.225v5.292
			c0,2.124,0.726,3.186,2.178,3.186c0.36,0,0.714-0.06,1.062-0.18c0.349-0.12,0.669-0.294,0.963-0.521
			c0.294-0.229,0.559-0.498,0.792-0.811c0.234-0.312,0.424-0.666,0.567-1.062v-5.904h1.224v7.794c0,0.336,0.145,0.504,0.433,0.504
			v1.08c-0.145,0.023-0.261,0.036-0.352,0.036c-0.09,0-0.152,0-0.188,0c-0.288-0.013-0.522-0.114-0.702-0.306
			c-0.18-0.192-0.27-0.45-0.27-0.774v-1.08c-0.408,0.732-0.964,1.299-1.665,1.701C247.101,49.479,246.354,49.68,245.562,49.68z"/>
		<path fill="#FF9400" d="M253.373,36.36h1.224v11.016c0,0.349,0.096,0.621,0.288,0.819c0.191,0.197,0.462,0.297,0.81,0.297
			c0.132,0,0.288-0.019,0.469-0.054c0.18-0.036,0.348-0.084,0.504-0.145l0.216,0.99c-0.229,0.096-0.507,0.174-0.837,0.233
			c-0.33,0.061-0.615,0.091-0.855,0.091c-0.563,0-1.008-0.159-1.332-0.478c-0.323-0.317-0.485-0.765-0.485-1.341V36.36z"/>
	</g>
</g>
</svg>
