<?xml version="1.0" encoding="utf-8"?>
<!-- Generator: Adobe Illustrator 21.0.0, SVG Export Plug-In . SVG Version: 6.00 Build 0)  -->
<svg version="1.1" id="Layer_1" xmlns="http://www.w3.org/2000/svg" xmlns:xlink="http://www.w3.org/1999/xlink" x="0px" y="0px"
	 width="120px" height="166px" viewBox="0 0 120 166" enable-background="new 0 0 120 166" xml:space="preserve">
<title>Table fan</title>
<desc>Created with Sketch.</desc>
<g id="Page-1">
	<g id="Table-fan_1_">
		<g id="Symbols">
			<g id="Table-fan">
				<path id="Fill-1" fill="#FF9400" stroke="#666164" stroke-miterlimit="10" d="M44.2,64.7c-1.2-0.1-2.4-0.1-3.5-0.2
					c-5.8-0.5-14.2,2.1-14.2,2.1C16.7,70,21,78.1,21,78.1c2.6,6.8,11.3,13,11.3,13c7.9,6.5,15.2,0.6,17.8-3.1
					c2-2.9,5.7-12.7,5.7-12.7l0-0.7C50.5,73.4,46.2,69.6,44.2,64.7"/>
				<path id="Fill-3" fill="#9E9993" stroke="#666164" stroke-miterlimit="10" d="M46.3,48.1l0.3,0.2c3.1-3.8,7.8-6.3,13.1-6.3
					c0.6,0,1.3,0,1.9,0.1c0.5-0.8,0.9-1.6,1.4-2.2c3.1-4.9,4.7-13.4,4.7-13.4c1.4-10.2-7.9-10.1-7.9-10.1
					c-7.3-0.9-16.9,3.9-16.9,3.9c-9.5,4-7.5,13.1-5.4,17C39.2,40.4,46.3,48.1,46.3,48.1"/>
				<path id="Fill-5" fill="#B0ABA3" stroke="#666164" stroke-miterlimit="10" d="M70.4,71.4c0.5,1.1,0.9,2.1,1.3,3
					C73.9,79.8,80,86,80,86c7.5,7.1,13-0.4,13-0.4c5-5.3,6.7-15.8,6.7-15.8c0.6-2.4,0.5-4.5,0-6.2c-1.6-5.4-7.4-7.6-10.8-8.1
					c-2.6-0.4-9.3,0.2-12.5,0.5c0.1,0.8,0.2,1.6,0.2,2.5C76.6,63.8,74.2,68.4,70.4,71.4"/>
				<path id="Fill-7" fill="#999793" stroke="#666164" stroke-miterlimit="10" d="M71.6,58.6c0-6.4-5.3-11.6-11.8-11.6
					C53.3,47,48,52.2,48,58.6c0,6.4,5.3,11.6,11.8,11.6C66.3,70.2,71.6,65,71.6,58.6"/>
				<g id="Fill-9-Clipped">
					<g id="path-1_1_">
					</g>
					<defs>
						<filter id="Adobe_OpacityMaskFilter" filterUnits="userSpaceOnUse" x="-0.5" y="-0.3" width="120.9" height="166.3">
							<feColorMatrix  type="matrix" values="1 0 0 0 0  0 1 0 0 0  0 0 1 0 0  0 0 0 1 0"/>
						</filter>
					</defs>
					<mask maskUnits="userSpaceOnUse" x="-0.5" y="-0.3" width="120.9" height="166.3" id="mask-2">
						<g filter="url(#Adobe_OpacityMaskFilter)">
							<polygon id="path-1" fill="#FFFFFF" points="0,165.5 119.9,165.5 119.9,0.2 0,0.2 							"/>
						</g>
					</mask>
					<path id="Fill-9" mask="url(#mask-2)" fill="#AAA6A0" stroke="#666164" stroke-miterlimit="10" d="M59.9,9.9
						c-13.4,0-25.9,5.1-35.4,14.4C15.1,33.7,9.9,46.1,9.9,59.3c0,13.2,5.2,25.5,14.7,34.9c9.4,9.3,22,14.4,35.4,14.4
						s25.9-5.1,35.4-14.4c9.4-9.3,14.7-21.7,14.7-34.9c0-13.2-5.2-25.6-14.7-34.9C85.9,15.1,73.3,9.9,59.9,9.9 M59.9,113.2
						c-14.6,0-28.4-5.6-38.7-15.8s-16-23.7-16-38.1c0-14.4,5.7-28,16-38.2C31.6,10.9,45.3,5.3,59.9,5.3c14.6,0,28.4,5.6,38.7,15.8
						c10.3,10.2,16,23.7,16,38.2c0,14.4-5.7,28-16,38.1C88.3,107.6,74.6,113.2,59.9,113.2 M59.9,4.8c-14.7,0-28.6,5.7-39,15.9
						C10.5,31.1,4.7,44.7,4.7,59.3c0,27.5,20.9,50.7,48.6,54l2.1,0.2V139l-2.2,0.1c-8.8,0.6-16.7,2.1-22.4,4.4
						c-4.9,1.9-7.8,4.3-7.8,6.3c0,1.9,2.7,4.7,10.2,7.2c7.4,2.4,17.3,3.8,27.8,3.8c10.5,0,20.4-1.3,27.8-3.8
						c7.5-2.5,10.2-5.4,10.2-7.2c0-2.1-3.2-4.6-8.4-6.6c-6.1-2.3-14.6-3.8-23.9-4.3l-2.2-0.1v-25.4l2.1-0.2
						c27.7-3.3,48.6-26.5,48.6-54c0-14.5-5.7-28.2-16.2-38.5C88.6,10.5,74.7,4.8,59.9,4.8 M61,165.5c-11,0-21.4-1.4-29.3-4
						c-11.1-3.7-13.4-8.3-13.4-11.6c0-2.9,1.9-7.1,10.7-10.6c5.6-2.2,13.2-3.8,21.6-4.6v-17.1C21.6,113.1,0,88.4,0,59.3
						c0-15.8,6.2-30.6,17.6-41.8C28.9,6.3,43.9,0.2,59.9,0.2S91,6.3,102.3,17.5c11.3,11.2,17.6,26,17.6,41.8
						c0,29.1-21.6,53.9-50.6,58.3v16.9c8.9,0.6,17,2.2,23.1,4.4c9.5,3.6,11.5,7.9,11.5,10.9c0,3.3-2.3,8-13.4,11.6
						C82.5,164.1,72.1,165.5,61,165.5"/>
				</g>
			</g>
		</g>
	</g>
</g>
</svg>
