<?xml version="1.0" encoding="utf-8"?>
<!-- Generator: Adobe Illustrator 16.0.0, SVG Export Plug-In . SVG Version: 6.00 Build 0)  -->
<!DOCTYPE svg PUBLIC "-//W3C//DTD SVG 1.1//EN" "http://www.w3.org/Graphics/SVG/1.1/DTD/svg11.dtd">
<svg version="1.1" id="Layer_1" xmlns="http://www.w3.org/2000/svg" xmlns:xlink="http://www.w3.org/1999/xlink" x="0px" y="0px"
	 width="160px" height="160px" viewBox="0 0 160 160" enable-background="new 0 0 160 160" xml:space="preserve">
<title>Tubelight</title>
<desc>Created with Sketch.</desc>
<g id="Symbols">
	<g id="Tubelight">
		<path id="Stroke-3" fill="#A8A6A3" d="M125.4,38.4l-1.301,1.3l1,1l1-1L125.4,39l-1,1l1,1l1.3-1.3c0.2-0.2,0.399-0.5,0.399-0.9
			c0-0.3,0-0.5-0.1-0.8c-0.1-0.1-0.2-0.3-0.3-0.4l-0.9-0.9l-1,1l1,1l0.601-0.6l-1-1l-1,1l2.399,2.4l1-1l-1-1l-0.6,0.6l1,1l1-1
			l-0.9-0.9c-0.1-0.1-0.2-0.2-0.399-0.3c-0.2-0.1-0.5-0.2-0.801-0.1C125.9,38,125.6,38.2,125.4,38.4z M128.3,41.3l0.601-0.6
			c0.6-0.6,0.6-1.4,0-2l-2.4-2.4c-0.6-0.6-1.5-0.6-2,0l-0.6,0.6c-0.5,0.5-0.601,1.3-0.101,1.9l-0.399,0.3c-0.601,0.6-0.601,1.4,0,2
			l0.699,0.7c0.601,0.6,1.5,0.6,2,0l0.4-0.3C127,41.8,127.8,41.8,128.3,41.3z M117.6,50.6l-8.3-8.2l5.8-5.8c0.601-0.6,1.7-0.6,2.4,0
			l5.9,5.9c0.6,0.6,0.6,1.7,0,2.3L117.6,50.6z M125.4,40.4L124,39l-4.5-4.5c-1.8-1.8-4.6-1.8-6.4,0l-6.5,6.5
			c-0.699,0.7-0.699,1.9,0,2.6l9.7,9.6c0.7,0.7,1.9,0.7,2.601,0l6.5-6.5C127.2,45,127.2,42.2,125.4,40.4z M46,107.6L107.5,46
			l6.5,6.4L52.5,114L46,107.6z M51.5,117c0.6,0.6,1.5,0.6,2,0L117,53.3c0.6-0.6,0.6-1.4,0-2l-8.5-8.4c-0.6-0.6-1.5-0.6-2,0L43,106.6
			c-0.6,0.601-0.6,1.4,0,2L51.5,117z M51.4,118.3L51.4,118.3L51.4,118.3z M44.9,123.3c-0.6,0.601-1.7,0.601-2.4,0l-5.9-5.899
			c-0.6-0.601-0.6-1.7,0-2.301l5.8-5.8l9,8.9c-0.4-0.4-0.4-1,0-1.4L44.9,123.3z M53.4,116.2l-9.7-9.601c-0.7-0.699-1.9-0.699-2.6,0
			l-6.5,6.5c-1.8,1.801-1.8,4.601,0,6.301l5.9,5.899c1.8,1.8,4.6,1.8,6.4,0l6.5-6.5C54.2,118.1,54.2,117,53.4,116.2z M39.4,128.2
			l1-1l-1-1l-0.6,0.6l1,1l1-1l-2.4-2.399l-1,1l1,1L39,125.8l-1-1l-1,1l0.9,0.9c0.1,0.1,0.2,0.2,0.4,0.3c0.2,0.1,0.5,0.2,0.8,0.1
			c0.3,0,0.6-0.199,0.9-0.399l1.3-1.3l-1-1l-1,1L40,126.1l1-1l-1-1l-1.3,1.301c-0.2,0.199-0.4,0.5-0.4,0.899c0,0.3,0,0.5,0.1,0.8
			c0.1,0.101,0.2,0.301,0.3,0.4L39.4,128.2z M41.8,126c0.6-0.6,0.6-1.4,0-2l-0.7-0.7c-0.6-0.6-1.5-0.6-2,0l-0.4,0.3
			c-0.6-0.399-1.4-0.399-1.9,0.101l-0.6,0.6c-0.6,0.601-0.6,1.4,0,2l2.4,2.4c0.6,0.6,1.5,0.6,2,0l0.6-0.601
			c0.5-0.5,0.6-1.3,0.1-1.899L41.8,126z M34.2,121l-0.6,0.6l1,1l1-1l-2.4-2.399l-1,1l1,1l0.6-0.601l-1-1l-1,1l0.9,0.9
			c0.1,0.1,0.2,0.2,0.4,0.3c0.2,0.101,0.5,0.2,0.8,0.101c0.3,0,0.6-0.2,0.9-0.4l1.3-1.3l-1-1l-1,1l0.7,0.7l1-1l-1-1l-1.3,1.3
			c-0.2,0.2-0.4,0.5-0.4,0.899c0,0.301,0,0.5,0.1,0.801c0.1,0.1,0.2,0.3,0.3,0.399l0.9,0.9l1-1L34.2,121z M36.7,120.8
			c0.6-0.6,0.6-1.399,0-2l-0.7-0.7c-0.6-0.6-1.5-0.6-2,0l-0.3,0.301c-0.6-0.4-1.4-0.4-1.9,0.1l-0.6,0.6c-0.6,0.601-0.6,1.4,0,2
			l2.4,2.4c0.6,0.6,1.5,0.6,2,0l0.6-0.6c0.5-0.5,0.6-1.301,0.1-1.9L36.7,120.8z M119.7,32.7l1,1l0.6-0.6l-1-1l-1,1l2.4,2.4l1-1l-1-1
			l-0.601,0.6l1,1l1-1l-0.899-0.9c-0.101-0.1-0.2-0.2-0.4-0.3s-0.5-0.2-0.8-0.1c-0.3,0-0.6,0.2-0.9,0.4l-1.3,1.3l1,1l1-1l-0.7-0.7
			l-1,1l1,1l1.301-1.3c0.199-0.2,0.399-0.5,0.399-0.9c0-0.3,0-0.5-0.1-0.8c-0.101-0.1-0.2-0.3-0.3-0.4l-0.9-0.9L119.7,32.7z
			 M118.2,33.9c-0.601,0.6-0.601,1.4,0,2l0.7,0.7c0.6,0.6,1.5,0.6,2,0l0.3-0.3c0.6,0.4,1.399,0.4,1.899-0.1l0.601-0.6
			c0.6-0.6,0.6-1.4,0-2l-2.4-2.4c-0.6-0.6-1.5-0.6-2,0l-0.6,0.6c-0.5,0.5-0.601,1.3-0.101,1.9L118.2,33.9z M38.5,122.7l-0.7,0.7l1,1
			l0.7-0.7L38.5,122.7z M125.2,35.6l-2,2c-0.2,0.2-0.4,0.5-0.4,0.8c0,0.5,0.101,0.9,0.4,1.2l1.2-0.8l-1-1l-0.7,0.7l1,1l1-1l-3.2-3.2
			l-1,1l1,1l0.7-0.7l-1-1l-1,1l0.2,0.2c0.3,0.3,0.699,0.4,1.1,0.4s0.7-0.2,0.9-0.4l2-2c0.6-0.6,0.6-1.4,0-2l-2.4-2.4
			c-0.6-0.6-1.5-0.6-2,0l-2,2c-0.3,0.4-0.4,0.6-0.4,0.8c0,0.6,0.2,0.9,0.4,1.2l0.2,0.2l1-1l-1-1l-0.8,0.8l1,1l0.8-1.2
			c-0.3-0.2-0.601-0.3-0.9-0.5c-0.2-0.1-0.3-0.1-0.399-0.2c-1.9-0.6-4-0.1-5.4,1.4l-6.5,6.5c-0.7,0.7-0.9,1.6-0.7,2.5L43,105.2
			c-0.9-0.2-1.8,0.1-2.5,0.7l-6.5,6.5c-1.4,1.399-1.9,3.5-1.4,5.3c0,0.1,0.1,0.3,0.1,0.399c0.2,0.5,0.3,0.801,0.5,1l1.2-0.8l-1-1
			l-0.8,0.8l1,1l1-1l-0.3-0.3c-0.3-0.3-0.6-0.399-0.9-0.399c-0.4,0-0.7,0.1-0.9,0.199c-0.1,0-2.2,2.101-2.2,2.101
			c-0.6,0.6-0.6,1.399,0,2l2.5,2.5c0.6,0.6,1.5,0.6,2,0l2-2c0.2-0.2,0.4-0.5,0.4-0.8c0-0.5-0.1-0.9-0.4-1.2l-0.2-0.2l-1,1l1,1
			l0.7-0.7l-1-1l-1,1l3.2,3.2l1-1l0.3-0.3l-0.3-0.3c-0.6-0.601-1.5-0.601-2,0l-2,2c-0.6,0.6-0.6,1.399,0,2l2.6,2.6
			c0.6,0.6,1.5,0.6,2,0l2-2c0.3-0.5,0.4-0.8,0.4-1c0-0.4-0.2-0.7-0.4-1l-0.3-0.3l-1,1l1,1l0.8-0.8l-1-1l-0.8,1.199
			c0.3,0.2,0.6,0.301,0.9,0.5c0.3,0.101,0.4,0.2,0.6,0.2c1.8,0.5,3.9,0,5.3-1.399l6.5-6.5c0.7-0.7,0.9-1.601,0.7-2.5L117,54.7
			c0.9,0.2,1.8-0.1,2.5-0.7l6.5-6.5c1.4-1.4,1.9-3.5,1.4-5.4c0-0.1-0.101-0.2-0.101-0.3c-0.2-0.5-0.3-0.8-0.5-1l-1.2,0.8l1,1
			l0.801-0.8l-1-1l-1,1L125.6,42c0.301,0.3,0.601,0.4,0.9,0.4c0.5,0,0.7-0.1,0.9-0.3c0.1,0,2.1-2.1,2.1-2.1c0.6-0.6,0.6-1.4,0-2
			l-2.4-2.4C126.6,35,125.7,35,125.2,35.6z M127.2,37.6h-2L127.6,40v-2l-2,2l1,1l1-1l-0.199-0.2c-0.101-0.1-0.2-0.2-0.301-0.2
			c-0.3-0.1-0.6-0.2-0.8-0.2s-0.5,0.1-0.7,0.3c-0.1,0-0.899,0.9-0.899,0.9c-0.5,0.6-0.5,1.2-0.2,1.8c0.6,1,0.5,2.4-0.4,3.2l-6.5,6.4
			c-0.6-0.5-1.399-0.4-1.899,0.1l-63.6,63.7c-0.5,0.5-0.6,1.3-0.1,1.9l-6.5,6.399c-0.9,0.9-2.2,1-3.2,0.4c-0.5-0.3-1.2-0.3-1.7,0.1
			l-0.9,0.801c-0.3,0.399-0.4,0.699-0.4,1c0,0.199,0.1,0.399,0.2,0.6c0.1,0.1,0.1,0.2,0.2,0.3l0.3,0.3l1-1l-1-1l-2,2h2l-2.6-2.6v2
			l2-2l-1-1l-1,1l0.3,0.3c0.1,0.101,0.2,0.2,0.3,0.2c0.2,0.1,0.4,0.2,0.6,0.2c0.3,0,0.6-0.101,0.9-0.3c0.1,0,0.8-0.801,0.8-0.801
			c0.5-0.699,0.5-1.5,0-2l-3.2-3.199c-0.5-0.5-1.3-0.5-1.8-0.2c-0.1,0-0.9,0.8-0.9,0.8c-0.3,0.4-0.4,0.6-0.4,0.8
			c0,0.3,0,0.601,0.2,0.8c0.1,0.101,0.1,0.2,0.2,0.301l0.2,0.199l1-1l-1-1l-2,2h2l-2.5-2.5v2l2-2l-1-1l-1,1l0.3,0.301
			c0.1,0.1,0.2,0.199,0.3,0.199c0.2,0.101,0.5,0.2,0.7,0.2c0.3,0,0.6-0.1,0.8-0.3c0.1,0,0.9-0.9,0.9-0.9c0.5-0.6,0.5-1.199,0.2-1.8
			c-0.6-1-0.5-2.399,0.4-3.2l6.5-6.399c0.6,0.5,1.4,0.399,1.9-0.101l63.6-63.7c0.5-0.5,0.6-1.3,0.1-1.9l6.5-6.4
			c0.9-0.9,2.2-1,3.2-0.4c0.5,0.3,1.2,0.3,1.7-0.1l0.899-0.8c0.301-0.4,0.4-0.6,0.4-0.8c0-0.3,0-0.6-0.2-0.9
			c-0.1-0.1-0.1-0.2-0.2-0.3l-0.199-0.2l-1,1l1,1l2-2h-2l2.399,2.4v-2l-2,2l1,1l1-1l-0.2-0.2c-0.1-0.1-0.199-0.2-0.3-0.2
			c-0.3-0.1-0.6-0.2-0.8-0.2s-0.5,0.1-0.7,0.3c-0.1,0-0.8,0.8-0.8,0.8c-0.5,0.7-0.5,1.5,0,2l3.2,3.2c0.5,0.5,1.3,0.5,1.8,0.2
			c0.1,0,0.9-0.8,0.9-0.8c0.3-0.3,0.399-0.6,0.399-0.8c0-0.3,0-0.6-0.2-0.9c-0.1-0.1-0.1-0.2-0.199-0.3l-1.2,0.8l1,1L127.2,37.6z"/>
	</g>
</g>
</svg>
