<?xml version="1.0" encoding="utf-8"?>
<!-- Generator: Adobe Illustrator 21.0.0, SVG Export Plug-In . SVG Version: 6.00 Build 0)  -->
<svg version="1.1" id="Layer_1" xmlns="http://www.w3.org/2000/svg" xmlns:xlink="http://www.w3.org/1999/xlink" x="0px" y="0px"
	 width="160px" height="160px" viewBox="0 0 160 160" enable-background="new 0 0 160 160" xml:space="preserve">
<title>Tubelight</title>
<desc>Created with Sketch.</desc>
<g id="Symbols">
	<g id="Tubelight">
		<path id="Stroke-3" fill="#FFFFFF" d="M125.4,38.4l-1.3,1.3l1,1l1-1l-0.7-0.7l-1,1l1,1l1.3-1.3c0.2-0.2,0.4-0.5,0.4-0.9
			c0-0.3,0-0.5-0.1-0.8c-0.1-0.1-0.2-0.3-0.3-0.4l-0.9-0.9l-1,1l1,1l0.6-0.6l-1-1l-1,1l2.4,2.4l1-1l-1-1l-0.6,0.6l1,1l1-1l-0.9-0.9
			c-0.1-0.1-0.2-0.2-0.4-0.3c-0.2-0.1-0.5-0.2-0.8-0.1C125.9,38,125.6,38.2,125.4,38.4z M128.3,41.3l0.6-0.6c0.6-0.6,0.6-1.4,0-2
			l-2.4-2.4c-0.6-0.6-1.5-0.6-2,0l-0.6,0.6c-0.5,0.5-0.6,1.3-0.1,1.9l-0.4,0.3c-0.6,0.6-0.6,1.4,0,2l0.7,0.7c0.6,0.6,1.5,0.6,2,0
			l0.4-0.3C127,41.8,127.8,41.8,128.3,41.3z M117.6,50.6l-8.3-8.2l5.8-5.8c0.6-0.6,1.7-0.6,2.4,0l5.9,5.9c0.6,0.6,0.6,1.7,0,2.3
			L117.6,50.6z M125.4,40.4l-1.4-1.4l-4.5-4.5c-1.8-1.8-4.6-1.8-6.4,0l-6.5,6.5c-0.7,0.7-0.7,1.9,0,2.6l9.7,9.6
			c0.7,0.7,1.9,0.7,2.6,0l6.5-6.5C127.2,45,127.2,42.2,125.4,40.4z M46,107.6l61.5-61.6l6.5,6.4L52.5,114L46,107.6z M51.5,117
			c0.6,0.6,1.5,0.6,2,0L117,53.3c0.6-0.6,0.6-1.4,0-2l-8.5-8.4c-0.6-0.6-1.5-0.6-2,0L43,106.6c-0.6,0.6-0.6,1.4,0,2L51.5,117z
			 M51.4,118.3C51.4,118.3,51.4,118.3,51.4,118.3L51.4,118.3z M44.9,123.3c-0.6,0.6-1.7,0.6-2.4,0l-5.9-5.9c-0.6-0.6-0.6-1.7,0-2.3
			l5.8-5.8l9,8.9c-0.4-0.4-0.4-1,0-1.4L44.9,123.3z M53.4,116.2l-9.7-9.6c-0.7-0.7-1.9-0.7-2.6,0l-6.5,6.5c-1.8,1.8-1.8,4.6,0,6.3
			l5.9,5.9c1.8,1.8,4.6,1.8,6.4,0l6.5-6.5C54.2,118.1,54.2,117,53.4,116.2z M39.4,128.2l1-1l-1-1l-0.6,0.6l1,1l1-1l-2.4-2.4l-1,1
			l1,1l0.6-0.6l-1-1l-1,1l0.9,0.9c0.1,0.1,0.2,0.2,0.4,0.3c0.2,0.1,0.5,0.2,0.8,0.1c0.3,0,0.6-0.2,0.9-0.4l1.3-1.3l-1-1l-1,1
			l0.7,0.7l1-1l-1-1l-1.3,1.3c-0.2,0.2-0.4,0.5-0.4,0.9c0,0.3,0,0.5,0.1,0.8c0.1,0.1,0.2,0.3,0.3,0.4L39.4,128.2z M41.8,126
			c0.6-0.6,0.6-1.4,0-2l-0.7-0.7c-0.6-0.6-1.5-0.6-2,0l-0.4,0.3c-0.6-0.4-1.4-0.4-1.9,0.1l-0.6,0.6c-0.6,0.6-0.6,1.4,0,2l2.4,2.4
			c0.6,0.6,1.5,0.6,2,0l0.6-0.6c0.5-0.5,0.6-1.3,0.1-1.9L41.8,126z M34.2,121l-0.6,0.6l1,1l1-1l-2.4-2.4l-1,1l1,1l0.6-0.6l-1-1l-1,1
			l0.9,0.9c0.1,0.1,0.2,0.2,0.4,0.3c0.2,0.1,0.5,0.2,0.8,0.1c0.3,0,0.6-0.2,0.9-0.4l1.3-1.3l-1-1l-1,1l0.7,0.7l1-1l-1-1l-1.3,1.3
			c-0.2,0.2-0.4,0.5-0.4,0.9c0,0.3,0,0.5,0.1,0.8c0.1,0.1,0.2,0.3,0.3,0.4l0.9,0.9l1-1L34.2,121z M36.7,120.8c0.6-0.6,0.6-1.4,0-2
			l-0.7-0.7c-0.6-0.6-1.5-0.6-2,0l-0.3,0.3c-0.6-0.4-1.4-0.4-1.9,0.1l-0.6,0.6c-0.6,0.6-0.6,1.4,0,2l2.4,2.4c0.6,0.6,1.5,0.6,2,0
			l0.6-0.6c0.5-0.5,0.6-1.3,0.1-1.9L36.7,120.8z M119.7,32.7l1,1l0.6-0.6l-1-1l-1,1l2.4,2.4l1-1l-1-1l-0.6,0.6l1,1l1-1l-0.9-0.9
			c-0.1-0.1-0.2-0.2-0.4-0.3c-0.2-0.1-0.5-0.2-0.8-0.1c-0.3,0-0.6,0.2-0.9,0.4l-1.3,1.3l1,1l1-1l-0.7-0.7l-1,1l1,1l1.3-1.3
			c0.2-0.2,0.4-0.5,0.4-0.9c0-0.3,0-0.5-0.1-0.8c-0.1-0.1-0.2-0.3-0.3-0.4l-0.9-0.9L119.7,32.7z M118.2,33.9c-0.6,0.6-0.6,1.4,0,2
			l0.7,0.7c0.6,0.6,1.5,0.6,2,0l0.3-0.3c0.6,0.4,1.4,0.4,1.9-0.1l0.6-0.6c0.6-0.6,0.6-1.4,0-2l-2.4-2.4c-0.6-0.6-1.5-0.6-2,0
			l-0.6,0.6c-0.5,0.5-0.6,1.3-0.1,1.9L118.2,33.9z M38.5,122.7l-0.7,0.7l1,1l0.7-0.7L38.5,122.7z M125.2,35.6l-2,2
			c-0.2,0.2-0.4,0.5-0.4,0.8c0,0.5,0.1,0.9,0.4,1.2l1.2-0.8l-1-1l-0.7,0.7l1,1l1-1l-3.2-3.2l-1,1l1,1l0.7-0.7l-1-1l-1,1l0.2,0.2
			c0.3,0.3,0.7,0.4,1.1,0.4c0.4,0,0.7-0.2,0.9-0.4l2-2c0.6-0.6,0.6-1.4,0-2l-2.4-2.4c-0.6-0.6-1.5-0.6-2,0l-2,2
			c-0.3,0.4-0.4,0.6-0.4,0.8c0,0.6,0.2,0.9,0.4,1.2l0.2,0.2l1-1l-1-1l-0.8,0.8l1,1l0.8-1.2c-0.3-0.2-0.6-0.3-0.9-0.5
			c-0.2-0.1-0.3-0.1-0.4-0.2c-1.9-0.6-4-0.1-5.4,1.4l-6.5,6.5c-0.7,0.7-0.9,1.6-0.7,2.5L43,105.2c-0.9-0.2-1.8,0.1-2.5,0.7l-6.5,6.5
			c-1.4,1.4-1.9,3.5-1.4,5.3c0,0.1,0.1,0.3,0.1,0.4c0.2,0.5,0.3,0.8,0.5,1l1.2-0.8l-1-1l-0.8,0.8l1,1l1-1l-0.3-0.3
			c-0.3-0.3-0.6-0.4-0.9-0.4c-0.4,0-0.7,0.1-0.9,0.2c-0.1,0-2.2,2.1-2.2,2.1c-0.6,0.6-0.6,1.4,0,2l2.5,2.5c0.6,0.6,1.5,0.6,2,0l2-2
			c0.2-0.2,0.4-0.5,0.4-0.8c0-0.5-0.1-0.9-0.4-1.2l-0.2-0.2l-1,1l1,1l0.7-0.7l-1-1l-1,1l3.2,3.2l1-1l0.3-0.3l-0.3-0.3
			c-0.6-0.6-1.5-0.6-2,0l-2,2c-0.6,0.6-0.6,1.4,0,2l2.6,2.6c0.6,0.6,1.5,0.6,2,0l2-2c0.3-0.5,0.4-0.8,0.4-1c0-0.4-0.2-0.7-0.4-1
			l-0.3-0.3l-1,1l1,1l0.8-0.8l-1-1l-0.8,1.2c0.3,0.2,0.6,0.3,0.9,0.5c0.3,0.1,0.4,0.2,0.6,0.2c1.8,0.5,3.9,0,5.3-1.4l6.5-6.5
			c0.7-0.7,0.9-1.6,0.7-2.5L117,54.7c0.9,0.2,1.8-0.1,2.5-0.7l6.5-6.5c1.4-1.4,1.9-3.5,1.4-5.4c0-0.1-0.1-0.2-0.1-0.3
			c-0.2-0.5-0.3-0.8-0.5-1l-1.2,0.8l1,1l0.8-0.8l-1-1l-1,1l0.2,0.2c0.3,0.3,0.6,0.4,0.9,0.4c0.5,0,0.7-0.1,0.9-0.3
			c0.1,0,2.1-2.1,2.1-2.1c0.6-0.6,0.6-1.4,0-2l-2.4-2.4C126.6,35,125.7,35,125.2,35.6z M127.2,37.6l-2,0l2.4,2.4l0-2l-2,2l1,1l1-1
			l-0.2-0.2c-0.1-0.1-0.2-0.2-0.3-0.2c-0.3-0.1-0.6-0.2-0.8-0.2c-0.2,0-0.5,0.1-0.7,0.3c-0.1,0-0.9,0.9-0.9,0.9
			c-0.5,0.6-0.5,1.2-0.2,1.8c0.6,1,0.5,2.4-0.4,3.2l-6.5,6.4c-0.6-0.5-1.4-0.4-1.9,0.1l-63.6,63.7c-0.5,0.5-0.6,1.3-0.1,1.9
			l-6.5,6.4c-0.9,0.9-2.2,1-3.2,0.4c-0.5-0.3-1.2-0.3-1.7,0.1c0,0-0.9,0.8-0.9,0.8c-0.3,0.4-0.4,0.7-0.4,1c0,0.2,0.1,0.4,0.2,0.6
			c0.1,0.1,0.1,0.2,0.2,0.3l0.3,0.3l1-1l-1-1l-2,2h2l-2.6-2.6v2l2-2l-1-1l-1,1l0.3,0.3c0.1,0.1,0.2,0.2,0.3,0.2
			c0.2,0.1,0.4,0.2,0.6,0.2c0.3,0,0.6-0.1,0.9-0.3c0.1,0,0.8-0.8,0.8-0.8c0.5-0.7,0.5-1.5,0-2l-3.2-3.2c-0.5-0.5-1.3-0.5-1.8-0.2
			c-0.1,0-0.9,0.8-0.9,0.8c-0.3,0.4-0.4,0.6-0.4,0.8c0,0.3,0,0.6,0.2,0.8c0.1,0.1,0.1,0.2,0.2,0.3l0.2,0.2l1-1l-1-1l-2,2h2l-2.5-2.5
			v2l2-2l-1-1l-1,1l0.3,0.3c0.1,0.1,0.2,0.2,0.3,0.2c0.2,0.1,0.5,0.2,0.7,0.2c0.3,0,0.6-0.1,0.8-0.3c0.1,0,0.9-0.9,0.9-0.9
			c0.5-0.6,0.5-1.2,0.2-1.8c-0.6-1-0.5-2.4,0.4-3.2l6.5-6.4c0.6,0.5,1.4,0.4,1.9-0.1l63.6-63.7c0.5-0.5,0.6-1.3,0.1-1.9
			c0,0,6.5-6.4,6.5-6.4c0.9-0.9,2.2-1,3.2-0.4c0.5,0.3,1.2,0.3,1.7-0.1c0,0,0.9-0.8,0.9-0.8c0.3-0.4,0.4-0.6,0.4-0.8
			c0-0.3,0-0.6-0.2-0.9c-0.1-0.1-0.1-0.2-0.2-0.3l-0.2-0.2l-1,1l1,1l2-2l-2,0l2.4,2.4l0-2l-2,2l1,1l1-1l-0.2-0.2
			c-0.1-0.1-0.2-0.2-0.3-0.2c-0.3-0.1-0.6-0.2-0.8-0.2c-0.2,0-0.5,0.1-0.7,0.3c-0.1,0-0.8,0.8-0.8,0.8c-0.5,0.7-0.5,1.5,0,2l3.2,3.2
			c0.5,0.5,1.3,0.5,1.8,0.2c0.1,0,0.9-0.8,0.9-0.8c0.3-0.3,0.4-0.6,0.4-0.8c0-0.3,0-0.6-0.2-0.9c-0.1-0.1-0.1-0.2-0.2-0.3l-1.2,0.8
			l1,1L127.2,37.6z"/>
	</g>
</g>
</svg>
