<?xml version="1.0" encoding="utf-8"?>
<!-- Generator: Adobe Illustrator 16.0.0, SVG Export Plug-In . SVG Version: 6.00 Build 0)  -->
<!DOCTYPE svg PUBLIC "-//W3C//DTD SVG 1.1//EN" "http://www.w3.org/Graphics/SVG/1.1/DTD/svg11.dtd">
<svg version="1.1" id="Layer_1" xmlns="http://www.w3.org/2000/svg" xmlns:xlink="http://www.w3.org/1999/xlink" x="0px" y="0px"
	 width="109px" height="49px" viewBox="0 0 109 49" enable-background="new 0 0 109 49" xml:space="preserve">
<g>
	<path fill="#FF9400" d="M54.5,12C47.607,12,42,17.607,42,24.5C42,31.394,47.607,37,54.5,37C61.394,37,67,31.394,67,24.5
		C67,17.607,61.394,12,54.5,12z M54.5,33.819c-5.138,0-9.319-4.18-9.319-9.319c0-5.138,4.181-9.319,9.319-9.319
		s9.319,4.181,9.319,9.319S59.638,33.819,54.5,33.819z"/>
	<path fill="#FF9400" d="M54.5,19.123c-2.967,0-5.377,2.413-5.377,5.377c0,2.964,2.413,5.378,5.377,5.378
		c2.964,0,5.378-2.414,5.378-5.378C59.878,21.533,57.464,19.123,54.5,19.123z"/>
</g>
</svg>
