<?xml version="1.0" encoding="utf-8"?>
<!-- Generator: Adobe Illustrator 16.0.0, SVG Export Plug-In . SVG Version: 6.00 Build 0)  -->
<!DOCTYPE svg PUBLIC "-//W3C//DTD SVG 1.1//EN" "http://www.w3.org/Graphics/SVG/1.1/DTD/svg11.dtd">
<svg version="1.1" id="Layer_1" xmlns="http://www.w3.org/2000/svg" xmlns:xlink="http://www.w3.org/1999/xlink" x="0px" y="0px"
	 width="50px" height="50px" viewBox="0 0 50 50" enable-background="new 0 0 50 50" xml:space="preserve">
<g>
	<g>
		<path fill="#F7F2ED" d="M28.473,25.499l7.434-6.03c0.431-0.352,0.646-0.84,0.585-1.334c-0.06-0.494-0.392-0.94-0.896-1.217
			l-9.453-5.138c-0.631-0.343-1.451-0.377-2.123-0.088s-1.104,0.852-1.104,1.465v7.984l-4.912-4.015
			c-0.799-0.651-2.09-0.654-2.893-0.011c-0.806,0.646-0.813,1.698-0.011,2.349l7.402,6.036l-7.405,6.032
			c-0.799,0.651-0.792,1.702,0.011,2.349c0.806,0.646,2.093,0.645,2.893-0.011l4.912-4.015v7.98c0,0.613,0.431,1.178,1.103,1.466
			c0.669,0.288,1.489,0.257,2.123-0.089l9.448-5.135c0.509-0.277,0.839-0.725,0.897-1.219c0.06-0.493-0.154-0.981-0.586-1.334
			L28.473,25.499z M27.088,16.277l4.178,2.271l-4.178,3.389V16.277z M27.088,34.723v-5.66l4.178,3.39L27.088,34.723z"/>
	</g>
</g>
</svg>
