<?xml version="1.0" encoding="utf-8"?>
<!-- Generator: Adobe Illustrator 16.0.0, SVG Export Plug-In . SVG Version: 6.00 Build 0)  -->
<!DOCTYPE svg PUBLIC "-//W3C//DTD SVG 1.1//EN" "http://www.w3.org/Graphics/SVG/1.1/DTD/svg11.dtd">
<svg version="1.1" id="Layer_1" xmlns="http://www.w3.org/2000/svg" xmlns:xlink="http://www.w3.org/1999/xlink" x="0px" y="0px"
	 width="350px" height="90px" viewBox="-69.449 -5.15 350 90" enable-background="new -69.449 -5.15 350 90" xml:space="preserve">
<title>Group 5</title>
<desc>Created with Sketch.</desc>
<g id="Page-1">
	<g>
		<g id="Mobile-Portrait_24_" transform="translate(-75.000000, -108.000000)">
			<g id="Group-5_27_" transform="translate(67.000000, 106.000000)">
				<g enable-background="new    ">
					<path fill="#FF9400" d="M4.038,71.357c-0.466-0.334-1.088-0.604-1.865-0.811c-0.777-0.207-1.663-0.31-2.658-0.31
						c-1.461,0-2.526,0.175-3.194,0.522c-0.668,0.35-1.002,0.823-1.002,1.423c0,0.314,0.089,0.572,0.268,0.773
						s0.455,0.376,0.828,0.522c0.373,0.147,0.851,0.275,1.434,0.384s1.271,0.216,2.063,0.324c0.886,0.117,1.682,0.25,2.39,0.397
						c0.707,0.147,1.309,0.332,1.807,0.553c0.497,0.221,0.878,0.488,1.143,0.803c0.264,0.314,0.396,0.708,0.396,1.179
						c0,0.481-0.147,0.899-0.443,1.253s-0.708,0.648-1.235,0.884c-0.529,0.236-1.158,0.41-1.889,0.523
						c-0.731,0.113-1.531,0.17-2.401,0.17c-2.564,0-4.779-0.506-6.645-1.519l0.816-0.84c0.295,0.197,0.649,0.384,1.061,0.561
						c0.412,0.177,0.87,0.331,1.375,0.464c0.505,0.133,1.045,0.235,1.62,0.31c0.575,0.073,1.181,0.11,1.819,0.11
						c1.321,0,2.351-0.149,3.089-0.449s1.107-0.754,1.107-1.363c0-0.324-0.105-0.597-0.314-0.817
						c-0.21-0.222-0.525-0.413-0.944-0.575c-0.42-0.162-0.941-0.302-1.562-0.42c-0.622-0.118-1.345-0.235-2.168-0.354
						c-0.871-0.128-1.632-0.26-2.285-0.397s-1.205-0.31-1.655-0.517c-0.451-0.206-0.789-0.454-1.014-0.744
						c-0.226-0.289-0.338-0.646-0.338-1.068c0-0.48,0.144-0.91,0.432-1.289c0.287-0.378,0.695-0.692,1.224-0.943
						c0.528-0.25,1.15-0.441,1.865-0.574s1.507-0.199,2.378-0.199c1.103,0,2.086,0.105,2.949,0.317
						c0.862,0.211,1.644,0.508,2.343,0.892L4.038,71.357z"/>
					<path fill="#FF9400" d="M10.31,70.576v-1.474h1.585v1.474H10.31z M10.31,79.859v-7.677h1.585v7.677H10.31z"/>
					<path fill="#FF9400" d="M35.582,79.859h-1.585v-4.288c0-0.894-0.226-1.552-0.676-1.975c-0.451-0.422-1.119-0.634-2.005-0.634
						c-0.466,0-0.906,0.055-1.317,0.162c-0.412,0.108-0.792,0.261-1.143,0.457c-0.35,0.196-0.657,0.43-0.921,0.7
						s-0.466,0.567-0.606,0.892v4.686h-1.585v-4.288c0-0.913-0.218-1.576-0.653-1.989c-0.435-0.412-1.104-0.619-2.005-0.619
						c-0.917,0-1.733,0.202-2.448,0.604c-0.715,0.403-1.228,0.934-1.539,1.592v4.7h-1.585v-7.677h1.445v1.738
						c0.498-0.589,1.15-1.049,1.958-1.378s1.702-0.493,2.681-0.493c1.026,0,1.846,0.182,2.46,0.545
						c0.614,0.363,0.991,0.84,1.13,1.43c1.135-1.316,2.697-1.975,4.687-1.975c0.684,0,1.263,0.078,1.737,0.235
						s0.854,0.381,1.143,0.671c0.287,0.29,0.497,0.639,0.629,1.046c0.132,0.408,0.198,0.862,0.198,1.363V79.859z"/>
					<path fill="#FF9400" d="M47.262,80.007c-1.026,0-1.932-0.164-2.716-0.494c-0.785-0.329-1.418-0.744-1.9-1.245v4.73h-1.585
						V72.183h1.422v1.488c0.497-0.481,1.142-0.872,1.935-1.172c0.792-0.3,1.655-0.449,2.588-0.449c0.839,0,1.608,0.11,2.308,0.331
						c0.699,0.222,1.306,0.516,1.818,0.885c0.513,0.368,0.913,0.793,1.201,1.274s0.431,0.978,0.431,1.488
						c0,0.54-0.132,1.051-0.396,1.532c-0.265,0.481-0.641,0.904-1.131,1.268s-1.072,0.65-1.749,0.861
						C48.812,79.901,48.07,80.007,47.262,80.007z M46.819,79.123c0.653,0,1.247-0.089,1.783-0.266c0.537-0.177,0.995-0.41,1.376-0.7
						c0.38-0.289,0.672-0.619,0.874-0.987c0.202-0.368,0.303-0.749,0.303-1.142c0-0.413-0.117-0.806-0.35-1.179
						c-0.233-0.373-0.552-0.702-0.956-0.987c-0.404-0.285-0.882-0.511-1.434-0.678c-0.552-0.167-1.146-0.251-1.784-0.251
						c-0.404,0-0.828,0.052-1.271,0.155c-0.443,0.103-0.855,0.24-1.236,0.412s-0.708,0.373-0.979,0.604
						c-0.272,0.23-0.439,0.474-0.501,0.729v2.357c0.187,0.275,0.423,0.53,0.711,0.767c0.288,0.235,0.614,0.439,0.979,0.611
						c0.365,0.172,0.757,0.307,1.177,0.405C45.933,79.073,46.368,79.123,46.819,79.123z"/>
					<path fill="#FF9400" d="M57.637,69.103h1.585v9.018c0,0.285,0.125,0.509,0.373,0.671s0.598,0.243,1.049,0.243
						c0.171,0,0.373-0.015,0.606-0.044c0.233-0.029,0.451-0.069,0.653-0.118l0.28,0.811c-0.295,0.079-0.657,0.143-1.084,0.191
						c-0.428,0.049-0.797,0.074-1.107,0.074c-0.731,0-1.306-0.131-1.725-0.391c-0.42-0.261-0.63-0.627-0.63-1.098V69.103z"/>
					<path fill="#FF9400" d="M71.275,80.007c-0.886,0-1.698-0.105-2.436-0.317c-0.739-0.211-1.38-0.501-1.924-0.869
						s-0.967-0.793-1.271-1.274c-0.303-0.481-0.455-0.997-0.455-1.547c0-0.54,0.152-1.049,0.455-1.525
						c0.303-0.477,0.723-0.894,1.259-1.253c0.536-0.358,1.177-0.643,1.923-0.854c0.746-0.211,1.554-0.316,2.425-0.316
						c0.886,0,1.698,0.105,2.436,0.316c0.738,0.212,1.372,0.499,1.9,0.862c0.528,0.363,0.94,0.781,1.235,1.252
						c0.295,0.472,0.443,0.973,0.443,1.504c0,0.078,0,0.157,0,0.235c0,0.079-0.008,0.133-0.023,0.162H66.846
						c0.047,0.412,0.198,0.793,0.455,1.142c0.257,0.35,0.586,0.651,0.991,0.906c0.404,0.256,0.866,0.455,1.387,0.597
						c0.521,0.143,1.076,0.214,1.667,0.214c0.388,0,0.777-0.034,1.166-0.103c0.388-0.069,0.746-0.162,1.072-0.28
						c0.327-0.118,0.622-0.263,0.886-0.435c0.264-0.172,0.466-0.361,0.606-0.567l1.375,0.235c-0.187,0.285-0.451,0.543-0.792,0.773
						c-0.342,0.231-0.738,0.433-1.189,0.604c-0.451,0.172-0.948,0.305-1.492,0.398C72.433,79.96,71.866,80.007,71.275,80.007z
						 M75.752,75.615c-0.047-0.412-0.198-0.788-0.455-1.127s-0.583-0.631-0.979-0.877c-0.396-0.245-0.855-0.437-1.375-0.574
						c-0.521-0.138-1.076-0.207-1.667-0.207s-1.15,0.069-1.679,0.207s-0.991,0.329-1.387,0.574
						c-0.396,0.246-0.715,0.541-0.956,0.885c-0.241,0.344-0.385,0.717-0.431,1.119H75.752z"/>
					<path fill="#FF9400" d="M89.903,70.576v-1.474h1.585v1.474H89.903z M89.903,79.859v-7.677h1.585v7.677H89.903z"/>
					<path fill="#FF9400" d="M101.14,80.007c-0.948,0-1.873-0.099-2.774-0.295s-1.678-0.481-2.331-0.854l0.723-0.678
						c0.684,0.354,1.379,0.619,2.086,0.796c0.707,0.177,1.465,0.265,2.273,0.265c0.979,0,1.76-0.125,2.343-0.376
						c0.583-0.25,0.875-0.606,0.875-1.067c0-0.217-0.078-0.396-0.233-0.538s-0.384-0.268-0.688-0.376s-0.684-0.204-1.143-0.287
						c-0.458-0.084-0.991-0.17-1.597-0.258c-0.699-0.108-1.305-0.216-1.818-0.324c-0.513-0.108-0.937-0.231-1.271-0.368
						c-0.334-0.138-0.583-0.308-0.746-0.509s-0.245-0.454-0.245-0.759c0-0.383,0.12-0.723,0.361-1.017
						c0.241-0.295,0.567-0.538,0.979-0.729c0.412-0.191,0.894-0.337,1.445-0.435c0.552-0.099,1.139-0.147,1.76-0.147
						c0.933,0,1.78,0.096,2.542,0.287c0.761,0.191,1.375,0.444,1.842,0.759l-0.77,0.59c-0.451-0.295-0.999-0.516-1.644-0.663
						s-1.317-0.222-2.017-0.222c-0.42,0-0.809,0.027-1.166,0.081c-0.358,0.055-0.673,0.141-0.944,0.258
						c-0.272,0.118-0.486,0.269-0.641,0.45c-0.156,0.182-0.233,0.396-0.233,0.641c0,0.206,0.054,0.373,0.163,0.501
						s0.288,0.238,0.537,0.331c0.248,0.094,0.563,0.178,0.944,0.251s0.843,0.149,1.387,0.229c0.777,0.118,1.461,0.235,2.052,0.354
						s1.084,0.256,1.48,0.413c0.396,0.157,0.695,0.349,0.898,0.574c0.202,0.227,0.303,0.501,0.303,0.825
						c0,0.707-0.428,1.268-1.282,1.68C103.736,79.801,102.586,80.007,101.14,80.007z"/>
					<path fill="#FF9400" d="M131.425,77.163c0,0.393-0.124,0.754-0.373,1.083c-0.248,0.329-0.582,0.614-1.002,0.854
						c-0.42,0.241-0.909,0.427-1.469,0.56s-1.158,0.199-1.795,0.199h-7.811V69.397h7.974c0.574,0,1.096,0.078,1.562,0.235
						c0.467,0.157,0.863,0.361,1.189,0.611c0.326,0.251,0.579,0.536,0.758,0.855c0.178,0.319,0.268,0.641,0.268,0.965
						c0,0.53-0.21,1.015-0.629,1.451c-0.42,0.438-1.003,0.764-1.749,0.98c0.948,0.177,1.698,0.506,2.25,0.987
						S131.425,76.524,131.425,77.163z M120.607,70.296v3.861h5.688c0.404,0,0.781-0.055,1.131-0.162
						c0.35-0.108,0.648-0.251,0.897-0.428s0.443-0.381,0.583-0.611s0.21-0.474,0.21-0.729c0-0.266-0.066-0.516-0.198-0.752
						c-0.132-0.235-0.318-0.439-0.56-0.611s-0.524-0.31-0.851-0.412c-0.327-0.104-0.685-0.155-1.073-0.155H120.607z M129.793,76.986
						c0-0.256-0.069-0.504-0.21-0.744c-0.14-0.241-0.338-0.452-0.594-0.634c-0.257-0.182-0.56-0.329-0.909-0.442
						c-0.351-0.112-0.728-0.169-1.131-0.169h-6.342v3.964h6.179c0.419,0,0.812-0.055,1.177-0.162
						c0.365-0.108,0.684-0.253,0.956-0.436c0.271-0.182,0.485-0.393,0.642-0.633C129.715,77.489,129.793,77.241,129.793,76.986z"/>
					<path fill="#FF9400" d="M141.543,80.007c-0.886,0-1.698-0.105-2.437-0.317c-0.738-0.211-1.379-0.501-1.923-0.869
						c-0.545-0.368-0.968-0.793-1.271-1.274c-0.304-0.481-0.455-0.997-0.455-1.547c0-0.54,0.151-1.049,0.455-1.525
						c0.303-0.477,0.723-0.894,1.259-1.253c0.536-0.358,1.177-0.643,1.923-0.854c0.746-0.211,1.555-0.316,2.425-0.316
						c0.887,0,1.698,0.105,2.437,0.316c0.738,0.212,1.372,0.499,1.9,0.862s0.94,0.781,1.235,1.252
						c0.295,0.472,0.443,0.973,0.443,1.504c0,0.078,0,0.157,0,0.235c0,0.079-0.008,0.133-0.023,0.162h-10.398
						c0.047,0.412,0.198,0.793,0.455,1.142c0.256,0.35,0.586,0.651,0.99,0.906c0.404,0.256,0.866,0.455,1.388,0.597
						c0.521,0.143,1.076,0.214,1.667,0.214c0.388,0,0.776-0.034,1.165-0.103c0.389-0.069,0.746-0.162,1.073-0.28
						c0.326-0.118,0.621-0.263,0.886-0.435c0.264-0.172,0.466-0.361,0.606-0.567l1.375,0.235c-0.187,0.285-0.451,0.543-0.793,0.773
						c-0.342,0.231-0.738,0.433-1.188,0.604c-0.451,0.172-0.948,0.305-1.492,0.398C142.701,79.96,142.134,80.007,141.543,80.007z
						 M146.02,75.615c-0.047-0.412-0.198-0.788-0.455-1.127c-0.256-0.339-0.582-0.631-0.979-0.877
						c-0.396-0.245-0.855-0.437-1.376-0.574s-1.076-0.207-1.667-0.207s-1.15,0.069-1.679,0.207s-0.99,0.329-1.387,0.574
						c-0.396,0.246-0.716,0.541-0.956,0.885c-0.241,0.344-0.385,0.717-0.432,1.119H146.02z"/>
					<path fill="#FF9400" d="M155.159,80.007c-0.575,0-1.107-0.062-1.597-0.185c-0.49-0.122-0.918-0.292-1.282-0.508
						c-0.366-0.216-0.649-0.47-0.852-0.759c-0.202-0.29-0.303-0.602-0.303-0.937c0-0.333,0.124-0.643,0.373-0.928
						c0.248-0.285,0.598-0.53,1.049-0.737c0.451-0.206,0.987-0.365,1.608-0.479c0.622-0.113,1.306-0.17,2.052-0.17
						c0.622,0,1.251,0.035,1.889,0.104c0.638,0.069,1.204,0.167,1.702,0.295v-0.692c0-0.678-0.303-1.216-0.909-1.614
						c-0.606-0.397-1.445-0.597-2.519-0.597c-0.621,0-1.259,0.079-1.911,0.236c-0.653,0.157-1.313,0.383-1.981,0.678l-0.56-0.663
						c1.569-0.668,3.093-1.002,4.569-1.002c1.522,0,2.72,0.271,3.59,0.811c0.871,0.54,1.306,1.287,1.306,2.239v3.463
						c0,0.275,0.194,0.413,0.583,0.413v0.884c-0.265,0.029-0.466,0.044-0.606,0.044c-0.404,0-0.719-0.063-0.943-0.191
						c-0.226-0.128-0.347-0.305-0.361-0.53l-0.047-0.604c-0.56,0.462-1.264,0.815-2.11,1.062
						C157.052,79.884,156.139,80.007,155.159,80.007z M155.532,79.24c0.823,0,1.581-0.098,2.273-0.295
						c0.691-0.196,1.216-0.456,1.573-0.78c0.14-0.089,0.245-0.185,0.314-0.287c0.07-0.104,0.105-0.199,0.105-0.288v-1.252
						c-0.528-0.128-1.076-0.227-1.644-0.295s-1.146-0.104-1.737-0.104c-1.119,0-2.028,0.147-2.728,0.442s-1.049,0.683-1.049,1.164
						c0,0.235,0.073,0.457,0.221,0.663c0.148,0.206,0.351,0.386,0.606,0.538c0.257,0.152,0.563,0.272,0.921,0.36
						C154.747,79.196,155.128,79.24,155.532,79.24z"/>
					<path fill="#FF9400" d="M170.732,80.007c-1.321,0-2.305-0.277-2.949-0.833c-0.646-0.555-0.968-1.382-0.968-2.482v-4.509h1.586
						v4.332c0,1.738,0.939,2.608,2.82,2.608c0.467,0,0.925-0.05,1.376-0.147c0.45-0.099,0.866-0.241,1.247-0.428
						s0.723-0.407,1.026-0.663c0.303-0.255,0.548-0.545,0.734-0.869v-4.833h1.585v6.38c0,0.275,0.187,0.413,0.56,0.413v0.884
						c-0.187,0.02-0.338,0.029-0.455,0.029c-0.116,0-0.197,0-0.244,0c-0.373-0.01-0.677-0.093-0.909-0.25
						c-0.233-0.157-0.35-0.369-0.35-0.634V78.12c-0.529,0.6-1.248,1.063-2.157,1.393C172.726,79.843,171.758,80.007,170.732,80.007z
						"/>
					<path fill="#FF9400" d="M188.731,79.491c-0.093,0.029-0.229,0.068-0.408,0.117c-0.179,0.05-0.385,0.099-0.617,0.147
						c-0.233,0.05-0.498,0.094-0.793,0.133c-0.296,0.039-0.606,0.06-0.933,0.06c-0.342,0-0.669-0.03-0.979-0.089
						s-0.583-0.149-0.815-0.272c-0.233-0.123-0.42-0.277-0.56-0.464c-0.141-0.187-0.21-0.403-0.21-0.648v-5.497h-1.679v-0.795h1.679
						v-2.594h1.585v2.594h2.798v0.795h-2.798v5.217c0.031,0.285,0.19,0.493,0.479,0.626c0.287,0.133,0.617,0.199,0.99,0.199
						c0.451,0,0.848-0.047,1.189-0.14c0.342-0.094,0.56-0.16,0.652-0.199L188.731,79.491z"/>
					<path fill="#FF9400" d="M192.835,70.576v-1.474h1.585v1.474H192.835z M192.835,79.859v-7.677h1.585v7.677H192.835z"/>
					<path fill="#FF9400" d="M200.621,79.859v-6.882h-1.679v-0.795h1.679v-0.207c0-0.942,0.318-1.682,0.956-2.218
						c0.638-0.535,1.508-0.803,2.611-0.803c0.481,0,0.948,0.044,1.399,0.133c0.45,0.088,0.839,0.206,1.165,0.354l-0.489,0.722
						c-0.218-0.107-0.486-0.191-0.805-0.25c-0.318-0.06-0.641-0.089-0.968-0.089c-0.746,0-1.313,0.183-1.701,0.546
						c-0.389,0.363-0.583,0.889-0.583,1.576v0.236h3.357v0.795h-3.357v6.882H200.621z"/>
					<path fill="#FF9400" d="M213.653,80.007c-1.321,0-2.305-0.277-2.949-0.833c-0.646-0.555-0.968-1.382-0.968-2.482v-4.509h1.586
						v4.332c0,1.738,0.939,2.608,2.82,2.608c0.467,0,0.925-0.05,1.376-0.147c0.45-0.099,0.866-0.241,1.247-0.428
						s0.723-0.407,1.026-0.663c0.303-0.255,0.548-0.545,0.734-0.869v-4.833h1.585v6.38c0,0.275,0.187,0.413,0.56,0.413v0.884
						c-0.187,0.02-0.338,0.029-0.455,0.029c-0.116,0-0.197,0-0.244,0c-0.373-0.01-0.677-0.093-0.909-0.25
						c-0.233-0.157-0.35-0.369-0.35-0.634V78.12c-0.529,0.6-1.248,1.063-2.157,1.393C215.646,79.843,214.679,80.007,213.653,80.007z
						"/>
					<path fill="#FF9400" d="M225.894,69.103h1.586v9.018c0,0.285,0.124,0.509,0.373,0.671c0.248,0.162,0.598,0.243,1.049,0.243
						c0.171,0,0.373-0.015,0.606-0.044c0.232-0.029,0.45-0.069,0.652-0.118l0.28,0.811c-0.296,0.079-0.657,0.143-1.085,0.191
						s-0.796,0.074-1.107,0.074c-0.73,0-1.306-0.131-1.725-0.391c-0.42-0.261-0.63-0.627-0.63-1.098V69.103z"/>
				</g>
				<g id="logo_30_" transform="translate(8.000000, 0.000000)">
					<g id="Layer_1_34_" transform="translate(0.000000, 10.000000)" opacity="0.8675">
						<g id="Group_36_">
							<path id="Shape_199_" fill="#FFFFFF" d="M-27.038,43.685h38.472v8.271h-58.434v-0.613v-5.105c0-0.612,0.322-1.021,0.805-1.43
								c11.913-9.7,23.663-19.298,35.576-28.998c0.161-0.204,0.483-0.306,0.644-0.613h-35.092V6.823H9.986
								c0,1.532-0.161,3.063,0,4.595c0.161,1.328-0.483,2.349-1.932,3.472c-11.429,9.292-22.859,18.686-34.287,28.08
								C-26.555,43.174-26.716,43.378-27.038,43.685z"/>
							<path id="Shape_198_" fill="#FFFFFF" d="M43.146,18.974c8.049,0.102,15.614,1.736,21.249,5.82
								c4.507,3.165,6.6,7.045,6.438,11.231c-0.161,8.169-8.531,14.602-21.409,16.337c-8.854,1.125-17.063,0.307-24.468-3.062
								c-5.794-2.654-9.015-6.33-10.141-10.823c-0.805-3.574-0.161-6.943,2.415-10.21c3.059-3.982,8.048-6.637,14.488-8.169
								C35.258,19.281,38.961,18.974,43.146,18.974z M56.829,35.924c0.161-5.105-5.956-8.986-13.844-9.087
								c-8.048-0.103-14.165,3.778-14.165,8.883c-0.162,5.207,5.794,9.087,13.844,9.189C50.712,45.012,56.668,41.234,56.829,35.924z
								"/>
							<path id="Shape_197_" fill="#FFFFFF" d="M111.076,19.995v7.76c-2.414,0-4.99-0.204-7.404,0
								c-4.991,0.511-8.693,1.43-11.27,4.186c-0.321,0.307-0.644,1.43-0.644,1.736v17.358v0.817H77.434V19.688h14.326v3.166
								C97.716,20.71,103.028,19.893,111.076,19.995z"/>
							<path id="Shape_196_" fill="#FFFFFF" d="M167.417,24.386c-5.795-4.084-13.2-5.82-21.249-5.82
								c-4.184,0-7.887,0.408-11.268,1.225c-1.127,0.306-2.092,0.51-3.06,0.817V6.415h-14.164v28.59l0,0
								c0,1.021,0,2.042,0.321,3.063c1.127,4.493,4.346,8.168,10.142,10.823c7.403,3.471,15.776,4.288,24.469,3.063
								c12.878-1.736,21.248-8.168,21.409-16.338C174.018,31.329,171.923,27.551,167.417,24.386z M159.69,35.516
								c-0.16,5.311-6.118,9.087-14.166,8.984c-8.049-0.101-14.005-3.981-13.842-9.188v-0.307l0,0v-0.103
								c0.32-4.901,6.437-8.475,14.164-8.475C153.895,26.53,159.852,30.41,159.69,35.516z"/>
							<path id="Shape_195_" fill="#FFFFFF" d="M201.865,51.648c8.531,0.92,16.099-0.613,22.536-3.777
								c3.219-1.635,5.795-3.371,7.727-5.411c0.644-0.614,1.127-1.226,1.61-1.839l13.843,11.13l11.108-5.515l-27.849-22.463l0,0
								c-0.967-0.817-2.094-1.531-3.221-2.349c-5.151-3.063-11.429-4.697-18.51-4.492c-9.176,0.204-16.421,2.859-22.217,7.147
								c-8.53,6.433-8.69,14.704-0.965,21.238C189.794,48.789,195.266,50.934,201.865,51.648z M197.037,39.906
								c-4.992-4.187-4.023-9.496,2.413-12.661c6.439-3.166,14.81-2.451,19.8,1.736c0.162,0.102,0.162,0.205,0.321,0.306l0,0v0.102
								c4.509,3.982,3.221,9.19-2.897,12.253C210.396,44.706,201.865,43.99,197.037,39.906z"/>
						</g>
					</g>
					<g enable-background="new    ">
						<path fill="#FFFFFF" d="M249.137,9.187v0.629h-2.817v4.655h-1.145V9.816h-2.817V9.187H249.137z"/>
						<path fill="#FFFFFF" d="M250.15,9.187h1.623l2.404,4.468l2.387-4.468h1.611v5.285h-1.081v-3.119
							c0-0.108,0.004-0.287,0.012-0.536c0.007-0.249,0.011-0.517,0.011-0.802l-2.387,4.458h-1.123l-2.409-4.458v0.162
							c0,0.129,0.005,0.327,0.017,0.592s0.018,0.46,0.018,0.584v3.119h-1.082V9.187z"/>
					</g>
				</g>
			</g>
		</g>
	</g>
</g>
</svg>
