<?xml version="1.0" encoding="utf-8"?>
<!-- Generator: Adobe Illustrator 16.0.0, SVG Export Plug-In . SVG Version: 6.00 Build 0)  -->
<!DOCTYPE svg PUBLIC "-//W3C//DTD SVG 1.1//EN" "http://www.w3.org/Graphics/SVG/1.1/DTD/svg11.dtd">
<svg version="1.1" id="Layer_1" xmlns="http://www.w3.org/2000/svg" xmlns:xlink="http://www.w3.org/1999/xlink" x="0px" y="0px"
	 width="350px" height="90px" viewBox="0 0 350 90" enable-background="new 0 0 350 90" xml:space="preserve">
<title>Layer_1</title>
<desc>Created with Sketch.</desc>
<g id="Page-1" opacity="0.8675">
	<g id="Mobile-Portrait" transform="translate(-75.000000, -116.000000)">
		<g id="Group-5" transform="translate(67.000000, 106.000000)">
			<g id="logo" transform="translate(8.000000, 0.000000)">
				<g id="Layer_1_1_" transform="translate(0.000000, 10.000000)">
					<g id="Group">
						<path id="Shape" fill="#FFFFFF" d="M44.799,47.16H80.85v8.345H22.32v-0.683v-5.207c0-0.625,1.645-1.04,2.124-1.459
							c11.834-9.893,24.171-19.846,36.001-29.74c0.161-0.207,1.144-0.788,1.306-0.788H24.709V8.642h56.87
							c0,1.284-0.16,3.512,0,5.074c0.16,1.354-0.48,2.588-1.92,3.734C68.307,26.927,56.953,36.679,45.6,46.263
							C45.279,46.469,45.12,46.518,44.799,47.16z"/>
						<path id="Shape_1_" fill="#FFFFFF" d="M114.52,21.81c7.997,0.104,15.511,1.77,21.111,5.936
							c4.475,3.229,6.554,7.186,6.395,11.456c-0.161,8.333-8.475,14.893-21.269,16.663c-8.796,1.148-16.95,0.312-24.306-3.125
							c-5.757-2.707-8.956-6.456-10.076-11.039c-0.799-3.645-0.158-7.082,2.399-10.415c3.038-4.062,7.996-6.77,14.392-8.332
							C106.685,22.121,110.362,21.81,114.52,21.81z M128.111,39.098c0.163-5.208-5.915-9.166-13.751-9.271
							c-7.996-0.103-14.071,3.853-14.071,9.062c-0.161,5.311,5.755,9.268,13.751,9.372
							C122.035,48.365,127.954,44.513,128.111,39.098z"/>
						<path id="Shape_2_" fill="#FFFFFF" d="M181.188,22.851v7.914c-2.39,0-4.553-0.208-6.95,0c-4.958,0.521-8.801,1.458-11.36,4.27
							c-0.318,0.312-0.803,1.458-0.803,1.77v17.706v0.994h-14.334V22.123h14.334v3.643
							C168.048,23.579,172.827,22.747,181.188,22.851z"/>
						<path id="Shape_3_" fill="#FFFFFF" d="M237.969,27.329c-5.755-4.167-13.109-5.937-21.104-5.937
							c-4.158,0-8.405,0.417-11.766,1.249c-1.117,0.312-2.41,0.521-3.604,0.833V8h-14.336v30.159l0,0
							c0,1.042,0.702,2.084,1.021,3.125c1.12,4.583,4.67,8.332,10.424,11.04c7.357,3.541,15.846,4.374,24.479,3.124
							c12.794-1.771,21.196-8.331,21.356-16.663C244.439,34.411,242.45,30.557,237.969,27.329z M230.296,38.68
							c-0.163,5.417-6.563,9.269-14.562,9.164c-7.994-0.104-14.239-4.061-14.239-9.373V38.16l0,0v-0.104
							c0-4.999,6.882-8.644,14.562-8.644C224.05,29.515,230.455,33.474,230.296,38.68z"/>
						<path id="Shape_4_" fill="#FFFFFF" d="M272.193,55.136c8.474,0.938,15.99-0.625,22.386-3.854
							c3.196-1.667,5.759-3.438,7.678-5.52c0.638-0.626,1.117-1.25,1.601-1.875l13.753,11.352l11.031-5.624l-27.665-22.912l0,0
							c-0.961-0.833-2.08-1.562-3.199-2.396c-5.115-3.124-11.353-4.79-18.387-4.582c-9.117,0.208-16.314,2.916-22.07,7.291
							c-8.475,6.56-8.637,14.996-0.959,21.663C260.2,52.219,265.636,54.406,272.193,55.136z M267.395,43.159
							c-4.957-4.27-3.994-9.685,2.398-12.914c6.396-3.228,14.766-2.5,19.723,1.771c0.158,0.104,0.37,0.208,0.37,0.312l0,0v0.104
							c3.585,4.062,3.147,9.374-2.93,12.499C280.723,48.054,272.193,47.323,267.395,43.159z"/>
					</g>
				</g>
			</g>
		</g>
	</g>
</g>
<text transform="matrix(1 0 0 1 94.5 81.5)" fill="#FF9400" font-family="'Raleway-Regular'" font-size="18">Simple is Beautiful</text>
</svg>
