<?xml version="1.0" encoding="utf-8"?>
<!-- Generator: Adobe Illustrator 16.0.0, SVG Export Plug-In . SVG Version: 6.00 Build 0)  -->
<!DOCTYPE svg PUBLIC "-//W3C//DTD SVG 1.1//EN" "http://www.w3.org/Graphics/SVG/1.1/DTD/svg11.dtd">
<svg version="1.1" id="Layer_1" xmlns="http://www.w3.org/2000/svg" xmlns:xlink="http://www.w3.org/1999/xlink" x="0px" y="0px"
	 width="300px" height="75px" viewBox="0 0 300 75" enable-background="new 0 0 300 75" xml:space="preserve">
<title>Layer_1</title>
<desc>Created with Sketch.</desc>
<g id="Page-1" opacity="0.8675">
	<g id="Mobile-Portrait" transform="translate(-75.000000, -116.000000)">
		<g id="Group-5" transform="translate(67.000000, 106.000000)">
			<g id="logo" transform="translate(8.000000, 0.000000)">
				<g id="Layer_1_1_" transform="translate(0.000000, 10.000000)">
					<g id="Group">
						<path id="Shape" fill="#FFFFFF" d="M41.786,55.815h30.129v10.527H23V65.48v-6.568c0-0.788,1.375-1.312,1.775-1.84
							c9.89-12.479,20.2-25.033,30.087-37.515c0.135-0.26,0.956-0.993,1.091-0.993H24.997V7.227h47.527c0,1.62-0.134,4.431,0,6.4
							c0.134,1.708-0.402,3.265-1.605,4.71c-9.487,11.956-18.976,24.256-28.464,36.345C42.187,54.943,42.054,55.005,41.786,55.815z"
							/>
						<path id="Shape_1_" fill="#FFFFFF" d="M100.053,23.838c6.683,0.13,12.962,2.232,17.642,7.487
							c3.741,4.072,5.478,9.064,5.345,14.452c-0.134,10.511-7.082,18.785-17.774,21.019c-7.351,1.448-14.166,0.395-20.313-3.941
							c-4.812-3.415-7.484-8.144-8.42-13.925c-0.668-4.599-0.132-8.934,2.005-13.138c2.54-5.124,6.682-8.54,12.028-10.509
							C93.505,24.23,96.579,23.838,100.053,23.838z M111.413,45.646c0.135-6.569-4.944-11.562-11.493-11.694
							c-6.682-0.13-11.76,4.861-11.76,11.43c-0.134,6.699,4.811,11.69,11.492,11.821C106.334,57.335,111.28,52.477,111.413,45.646z"
							/>
						<path id="Shape_2_" fill="#FFFFFF" d="M155.77,25.15v9.984c-1.997,0-3.805-0.262-5.808,0
							c-4.144,0.657-7.355,1.839-9.494,5.386c-0.266,0.394-0.671,1.839-0.671,2.232v22.335v1.255h-11.979v-42.11h11.979v4.595
							C144.788,26.07,148.781,25.019,155.77,25.15z"/>
						<path id="Shape_3_" fill="#FFFFFF" d="M203.223,30.8c-4.809-5.256-10.957-7.489-17.639-7.489
							c-3.474,0-7.023,0.527-9.831,1.577c-0.935,0.395-2.015,0.657-3.013,1.051V6.417h-11.98v38.043l0,0
							c0,1.315,0.586,2.628,0.853,3.942c0.937,5.781,3.902,10.509,8.712,13.925c6.148,4.467,13.241,5.519,20.459,3.941
							c10.691-2.233,17.715-10.51,17.848-21.02C208.631,39.732,206.968,34.872,203.223,30.8z M196.811,45.119
							c-0.137,6.832-5.487,11.692-12.171,11.559c-6.681-0.131-11.899-5.122-11.899-11.823v-0.394l0,0V44.33
							c0-6.306,5.751-10.903,12.168-10.903C191.59,33.557,196.942,38.55,196.811,45.119z"/>
						<path id="Shape_4_" fill="#FFFFFF" d="M231.824,65.876c7.082,1.182,13.365-0.788,18.709-4.86
							c2.672-2.104,4.812-4.338,6.416-6.963c0.533-0.789,0.935-1.576,1.337-2.365l11.493,14.319L279,58.912l-23.121-28.901l0,0
							c-0.802-1.051-1.738-1.971-2.674-3.022c-4.275-3.941-9.486-6.043-15.366-5.78c-7.618,0.262-13.634,3.678-18.444,9.197
							c-7.083,8.275-7.217,18.917-0.801,27.326C221.801,62.196,226.345,64.955,231.824,65.876z M227.814,50.768
							c-4.144-5.386-3.34-12.218,2.004-16.289c5.346-4.073,12.34-3.154,16.483,2.233c0.132,0.131,0.31,0.262,0.31,0.394l0,0v0.132
							c2.994,5.123,2.63,11.824-2.449,15.765C238.951,56.942,231.824,56.021,227.814,50.768z"/>
					</g>
				</g>
			</g>
		</g>
	</g>
</g>
</svg>
