<?xml version="1.0" encoding="utf-8"?>
<!-- Generator: Adobe Illustrator 16.0.0, SVG Export Plug-In . SVG Version: 6.00 Build 0)  -->
<!DOCTYPE svg PUBLIC "-//W3C//DTD SVG 1.1//EN" "http://www.w3.org/Graphics/SVG/1.1/DTD/svg11.dtd">
<svg version="1.1" id="Layer_1" xmlns="http://www.w3.org/2000/svg" xmlns:xlink="http://www.w3.org/1999/xlink" x="0px" y="0px"
	 width="350px" height="90px" viewBox="0 0 350 90" enable-background="new 0 0 350 90" xml:space="preserve">
<g>
	<g>
		<g id="Page-1_18_" opacity="0.8675">
			<g id="Mobile-Portrait_21_" transform="translate(-75.000000, -116.000000)">
				<g id="Group-5_24_" transform="translate(67.000000, 106.000000)">
					<g id="logo_27_" transform="translate(8.000000, 0.000000)">
						<g id="Layer_1_31_" transform="translate(0.000000, 10.000000)">
							<g id="Group_33_">
								<path id="Shape_184_" fill="#FFFFFF" d="M44.799,47.16H80.85v8.345H22.32v-0.683v-5.207c0-0.625,1.645-1.04,2.124-1.459
									c11.834-9.893,24.171-19.846,36.001-29.74c0.161-0.207,1.144-0.788,1.306-0.788H24.709V8.642h56.87
									c0,1.284-0.16,3.512,0,5.074c0.16,1.354-0.48,2.588-1.92,3.734C68.307,26.927,56.953,36.679,45.6,46.263
									C45.279,46.469,45.12,46.518,44.799,47.16z"/>
								<path id="Shape_183_" fill="#FFFFFF" d="M114.52,21.81c7.997,0.104,15.511,1.77,21.111,5.936
									c4.475,3.229,6.554,7.186,6.395,11.456c-0.161,8.333-8.475,14.893-21.269,16.663c-8.796,1.148-16.95,0.312-24.306-3.125
									c-5.757-2.707-8.956-6.456-10.076-11.039c-0.799-3.645-0.158-7.082,2.399-10.415c3.038-4.062,7.996-6.77,14.392-8.332
									C106.685,22.121,110.362,21.81,114.52,21.81z M128.111,39.098c0.163-5.208-5.915-9.166-13.751-9.271
									c-7.996-0.103-14.071,3.853-14.071,9.062c-0.161,5.311,5.755,9.268,13.751,9.372
									C122.035,48.365,127.954,44.513,128.111,39.098z"/>
								<path id="Shape_182_" fill="#FFFFFF" d="M181.188,22.851v7.914c-2.39,0-4.553-0.208-6.95,0
									c-4.958,0.521-8.801,1.458-11.36,4.27c-0.318,0.312-0.803,1.458-0.803,1.77v17.706v0.994h-14.334V22.123h14.334v3.643
									C168.048,23.579,172.827,22.747,181.188,22.851z"/>
								<path id="Shape_181_" fill="#FFFFFF" d="M237.969,27.329c-5.755-4.167-13.109-5.937-21.104-5.937
									c-4.158,0-8.405,0.417-11.766,1.249c-1.117,0.312-2.41,0.521-3.604,0.833V8h-14.336v30.159l0,0
									c0,1.042,0.702,2.084,1.021,3.125c1.12,4.583,4.67,8.332,10.424,11.04c7.357,3.541,15.846,4.374,24.479,3.124
									c12.794-1.771,21.196-8.331,21.356-16.663C244.439,34.411,242.45,30.557,237.969,27.329z M230.296,38.68
									c-0.163,5.417-6.563,9.269-14.562,9.164c-7.994-0.104-14.239-4.061-14.239-9.373V38.16l0,0v-0.104
									c0-4.999,6.882-8.644,14.562-8.644C224.05,29.515,230.455,33.474,230.296,38.68z"/>
								<path id="Shape_180_" fill="#FFFFFF" d="M272.193,55.136c8.474,0.938,15.99-0.625,22.386-3.854
									c3.196-1.667,5.759-3.438,7.678-5.52c0.638-0.626,1.117-1.25,1.601-1.875l13.753,11.352l11.031-5.624l-27.665-22.912l0,0
									c-0.961-0.833-2.08-1.562-3.199-2.396c-5.115-3.124-11.353-4.79-18.387-4.582c-9.117,0.208-16.314,2.916-22.07,7.291
									c-8.475,6.56-8.637,14.996-0.959,21.663C260.2,52.219,265.636,54.406,272.193,55.136z M267.395,43.159
									c-4.957-4.27-3.994-9.685,2.398-12.914c6.396-3.228,14.766-2.5,19.723,1.771c0.158,0.104,0.37,0.208,0.37,0.312l0,0v0.104
									c3.585,4.062,3.147,9.374-2.93,12.499C280.723,48.054,272.193,47.323,267.395,43.159z"/>
							</g>
						</g>
					</g>
				</g>
			</g>
		</g>
		<g>
			<path fill="#FF9400" d="M103.572,71.113c-0.36-0.407-0.84-0.737-1.44-0.989s-1.284-0.378-2.052-0.378
				c-1.128,0-1.95,0.213-2.466,0.639c-0.516,0.426-0.774,1.006-0.774,1.737c0,0.384,0.069,0.699,0.207,0.944
				c0.138,0.246,0.351,0.459,0.639,0.64s0.657,0.336,1.107,0.468c0.45,0.133,0.981,0.264,1.593,0.396
				c0.684,0.144,1.298,0.306,1.845,0.486c0.546,0.18,1.011,0.404,1.395,0.674c0.384,0.271,0.678,0.598,0.882,0.981
				s0.306,0.864,0.306,1.44c0,0.588-0.114,1.098-0.342,1.529c-0.228,0.432-0.546,0.793-0.954,1.08
				c-0.408,0.288-0.894,0.502-1.458,0.639c-0.564,0.139-1.182,0.207-1.854,0.207c-1.98,0-3.69-0.617-5.13-1.854l0.63-1.025
				c0.228,0.24,0.501,0.467,0.819,0.684c0.318,0.216,0.672,0.404,1.062,0.566s0.807,0.289,1.251,0.379s0.912,0.135,1.404,0.135
				c1.02,0,1.815-0.184,2.385-0.549c0.57-0.366,0.855-0.922,0.855-1.666c0-0.396-0.081-0.729-0.243-0.998
				c-0.162-0.271-0.405-0.504-0.729-0.702c-0.324-0.198-0.726-0.369-1.206-0.513c-0.48-0.145-1.038-0.289-1.674-0.433
				c-0.672-0.155-1.26-0.317-1.764-0.485c-0.504-0.168-0.93-0.379-1.278-0.631s-0.609-0.555-0.783-0.908
				c-0.174-0.354-0.261-0.789-0.261-1.306c0-0.587,0.111-1.112,0.333-1.575c0.222-0.461,0.537-0.846,0.945-1.151
				c0.408-0.306,0.888-0.54,1.44-0.702c0.552-0.162,1.164-0.243,1.836-0.243c0.852,0,1.611,0.13,2.277,0.388
				s1.269,0.621,1.809,1.088L103.572,71.113z"/>
			<path fill="#FF9400" d="M106.776,70.16v-1.801H108v1.801H106.776z M106.776,81.5v-9.378H108V81.5H106.776z"/>
			<path fill="#FF9400" d="M124.649,81.5h-1.224v-5.238c0-1.092-0.174-1.896-0.522-2.412c-0.348-0.516-0.864-0.773-1.548-0.773
				c-0.36,0-0.699,0.066-1.017,0.197c-0.318,0.133-0.612,0.318-0.882,0.559s-0.507,0.525-0.711,0.855s-0.36,0.692-0.468,1.088V81.5
				h-1.224v-5.238c0-1.115-0.168-1.926-0.504-2.43c-0.336-0.504-0.853-0.756-1.548-0.756c-0.708,0-1.338,0.246-1.89,0.738
				c-0.552,0.492-0.948,1.14-1.188,1.943V81.5H110.7v-9.378h1.116v2.124c0.384-0.721,0.888-1.281,1.512-1.684
				c0.624-0.401,1.314-0.603,2.07-0.603c0.792,0,1.425,0.222,1.899,0.666s0.765,1.026,0.873,1.746
				c0.876-1.608,2.082-2.412,3.618-2.412c0.528,0,0.975,0.097,1.341,0.288s0.66,0.465,0.882,0.818
				c0.222,0.354,0.384,0.781,0.486,1.279s0.153,1.053,0.153,1.664V81.5z"/>
			<path fill="#FF9400" d="M132.03,81.68c-0.792,0-1.491-0.201-2.097-0.603s-1.095-0.909-1.467-1.521v5.777h-1.224V72.122h1.098
				v1.817c0.384-0.588,0.882-1.064,1.494-1.431c0.612-0.366,1.278-0.549,1.998-0.549c0.648,0,1.242,0.136,1.782,0.405
				s1.008,0.63,1.404,1.08c0.396,0.449,0.705,0.969,0.927,1.557c0.222,0.588,0.333,1.194,0.333,1.818
				c0,0.66-0.103,1.283-0.306,1.871c-0.204,0.589-0.495,1.105-0.873,1.549s-0.828,0.795-1.35,1.053S132.653,81.68,132.03,81.68z
				 M131.688,80.6c0.504,0,0.963-0.107,1.377-0.324c0.414-0.215,0.768-0.5,1.062-0.854c0.294-0.354,0.519-0.756,0.675-1.206
				c0.156-0.449,0.234-0.914,0.234-1.395c0-0.504-0.09-0.984-0.27-1.44s-0.426-0.858-0.738-1.206
				c-0.312-0.348-0.682-0.623-1.107-0.828c-0.426-0.203-0.885-0.306-1.377-0.306c-0.312,0-0.639,0.063-0.981,0.188
				c-0.342,0.127-0.66,0.295-0.954,0.504c-0.294,0.211-0.546,0.457-0.756,0.738c-0.21,0.282-0.339,0.58-0.387,0.891v2.881
				c0.144,0.336,0.327,0.648,0.549,0.936c0.222,0.288,0.474,0.537,0.756,0.747c0.282,0.21,0.585,0.376,0.909,0.495
				C131.003,80.54,131.339,80.6,131.688,80.6z"/>
			<path fill="#FF9400" d="M138.401,68.359h1.224v11.017c0,0.349,0.096,0.621,0.288,0.819c0.192,0.197,0.462,0.297,0.81,0.297
				c0.132,0,0.288-0.018,0.468-0.055c0.18-0.035,0.348-0.084,0.504-0.144l0.216,0.99c-0.228,0.097-0.507,0.174-0.837,0.233
				c-0.331,0.061-0.615,0.09-0.855,0.09c-0.564,0-1.008-0.158-1.332-0.477c-0.324-0.318-0.486-0.765-0.486-1.341V68.359z"/>
			<path fill="#FF9400" d="M147.293,81.68c-0.684,0-1.311-0.129-1.881-0.387c-0.57-0.258-1.065-0.611-1.485-1.062
				c-0.42-0.449-0.747-0.969-0.981-1.557c-0.234-0.588-0.351-1.218-0.351-1.89c0-0.66,0.117-1.28,0.351-1.863
				c0.234-0.582,0.558-1.092,0.972-1.53c0.414-0.438,0.909-0.785,1.485-1.043c0.576-0.259,1.2-0.388,1.872-0.388
				c0.684,0,1.311,0.129,1.881,0.388c0.57,0.258,1.059,0.608,1.467,1.053c0.408,0.443,0.726,0.953,0.954,1.529
				c0.228,0.576,0.342,1.188,0.342,1.836c0,0.097,0,0.192,0,0.289c0,0.096-0.006,0.161-0.018,0.197h-8.028
				c0.036,0.504,0.153,0.969,0.351,1.395c0.198,0.427,0.453,0.795,0.765,1.107c0.312,0.312,0.668,0.555,1.071,0.729
				c0.402,0.175,0.831,0.262,1.287,0.262c0.3,0,0.6-0.042,0.9-0.126c0.3-0.084,0.576-0.198,0.828-0.343
				c0.252-0.144,0.479-0.32,0.684-0.53c0.204-0.21,0.36-0.44,0.468-0.693l1.062,0.288c-0.144,0.348-0.348,0.664-0.612,0.945
				c-0.264,0.281-0.57,0.527-0.918,0.738c-0.349,0.209-0.732,0.371-1.152,0.485S147.749,81.68,147.293,81.68z M150.749,76.316
				c-0.036-0.504-0.153-0.963-0.351-1.377c-0.198-0.414-0.45-0.771-0.756-1.071s-0.66-0.534-1.062-0.702
				c-0.402-0.168-0.831-0.252-1.287-0.252s-0.888,0.084-1.296,0.252c-0.408,0.168-0.765,0.402-1.071,0.702
				c-0.306,0.3-0.552,0.66-0.738,1.08s-0.297,0.876-0.333,1.368H150.749z"/>
			<path fill="#FF9400" d="M158.399,70.16v-1.801h1.224v1.801H158.399z M158.399,81.5v-9.378h1.224V81.5H158.399z"/>
			<path fill="#FF9400" d="M165.437,81.68c-0.732,0-1.446-0.119-2.142-0.359s-1.296-0.588-1.8-1.045l0.558-0.827
				c0.528,0.432,1.065,0.756,1.611,0.972c0.546,0.217,1.131,0.324,1.755,0.324c0.756,0,1.359-0.153,1.809-0.459
				c0.45-0.307,0.675-0.741,0.675-1.305c0-0.264-0.061-0.483-0.18-0.657c-0.12-0.174-0.297-0.327-0.531-0.46
				c-0.234-0.131-0.528-0.248-0.882-0.35c-0.354-0.103-0.765-0.207-1.233-0.315c-0.54-0.132-1.008-0.265-1.404-0.396
				s-0.723-0.282-0.981-0.45c-0.258-0.168-0.45-0.375-0.576-0.621c-0.126-0.245-0.189-0.555-0.189-0.926
				c0-0.469,0.093-0.883,0.279-1.242c0.186-0.36,0.438-0.658,0.756-0.892s0.69-0.411,1.116-0.53
				c0.426-0.121,0.879-0.181,1.359-0.181c0.72,0,1.374,0.117,1.962,0.351c0.588,0.234,1.062,0.543,1.422,0.928l-0.594,0.72
				c-0.348-0.36-0.771-0.63-1.269-0.81c-0.498-0.181-1.017-0.271-1.557-0.271c-0.324,0-0.625,0.033-0.9,0.099
				c-0.276,0.066-0.519,0.172-0.729,0.315s-0.375,0.327-0.495,0.549c-0.12,0.222-0.18,0.483-0.18,0.783
				c0,0.252,0.042,0.456,0.126,0.612s0.222,0.291,0.414,0.404c0.192,0.115,0.435,0.217,0.729,0.307
				c0.294,0.09,0.651,0.183,1.071,0.279c0.6,0.144,1.128,0.287,1.584,0.432c0.456,0.144,0.837,0.312,1.143,0.504
				s0.537,0.426,0.693,0.701c0.156,0.277,0.234,0.613,0.234,1.009c0,0.864-0.331,1.548-0.99,2.052
				C167.44,81.428,166.553,81.68,165.437,81.68z"/>
			<path fill="#FF9400" d="M185.542,78.206c0,0.479-0.097,0.921-0.288,1.323s-0.449,0.75-0.773,1.044s-0.702,0.522-1.135,0.684
				c-0.432,0.162-0.894,0.243-1.386,0.243h-6.03V68.721h6.156c0.443,0,0.846,0.096,1.206,0.287c0.36,0.192,0.666,0.441,0.918,0.747
				s0.447,0.654,0.585,1.044c0.139,0.391,0.207,0.783,0.207,1.18c0,0.647-0.162,1.238-0.486,1.772s-0.773,0.933-1.35,1.197
				c0.732,0.216,1.311,0.618,1.737,1.206C185.329,76.742,185.542,77.426,185.542,78.206z M177.189,69.818v4.716h4.393
				c0.312,0,0.604-0.065,0.873-0.198c0.27-0.132,0.501-0.307,0.693-0.521c0.191-0.217,0.342-0.465,0.449-0.748
				c0.108-0.281,0.162-0.578,0.162-0.891c0-0.324-0.051-0.63-0.152-0.918c-0.103-0.287-0.246-0.537-0.432-0.746
				c-0.188-0.211-0.406-0.379-0.658-0.505s-0.527-0.188-0.828-0.188H177.189z M184.282,77.99c0-0.312-0.054-0.615-0.162-0.909
				s-0.261-0.552-0.459-0.774c-0.198-0.222-0.433-0.401-0.702-0.539c-0.27-0.139-0.561-0.207-0.873-0.207h-4.896v4.842h4.771
				c0.324,0,0.627-0.066,0.909-0.198c0.281-0.132,0.527-0.31,0.738-0.531c0.209-0.222,0.375-0.479,0.494-0.774
				C184.223,78.605,184.282,78.303,184.282,77.99z"/>
			<path fill="#FF9400" d="M191.716,81.68c-0.685,0-1.312-0.129-1.881-0.387c-0.57-0.258-1.065-0.611-1.485-1.062
				c-0.42-0.449-0.746-0.969-0.98-1.557s-0.352-1.218-0.352-1.89c0-0.66,0.117-1.28,0.352-1.863c0.234-0.582,0.558-1.092,0.972-1.53
				c0.414-0.438,0.909-0.785,1.485-1.043c0.576-0.259,1.199-0.388,1.871-0.388c0.685,0,1.312,0.129,1.882,0.388
				c0.569,0.258,1.059,0.608,1.467,1.053c0.407,0.443,0.726,0.953,0.954,1.529c0.228,0.576,0.342,1.188,0.342,1.836
				c0,0.097,0,0.192,0,0.289c0,0.096-0.006,0.161-0.018,0.197h-8.028c0.036,0.504,0.153,0.969,0.351,1.395
				c0.198,0.427,0.453,0.795,0.766,1.107c0.312,0.312,0.668,0.555,1.07,0.729c0.402,0.175,0.832,0.262,1.287,0.262
				c0.301,0,0.6-0.042,0.9-0.126c0.3-0.084,0.576-0.198,0.828-0.343c0.252-0.144,0.479-0.32,0.684-0.53s0.36-0.44,0.469-0.693
				l1.062,0.288c-0.144,0.348-0.349,0.664-0.612,0.945s-0.57,0.527-0.918,0.738c-0.348,0.209-0.732,0.371-1.152,0.485
				S192.172,81.68,191.716,81.68z M195.172,76.316c-0.036-0.504-0.152-0.963-0.352-1.377c-0.197-0.414-0.449-0.771-0.756-1.071
				c-0.306-0.3-0.66-0.534-1.062-0.702c-0.402-0.168-0.831-0.252-1.287-0.252s-0.888,0.084-1.296,0.252s-0.766,0.402-1.07,0.702
				c-0.307,0.3-0.553,0.66-0.738,1.08c-0.187,0.42-0.297,0.876-0.334,1.368H195.172z"/>
			<path fill="#FF9400" d="M200.59,81.68c-0.444,0-0.855-0.074-1.232-0.225c-0.379-0.15-0.709-0.357-0.99-0.621
				c-0.282-0.264-0.502-0.572-0.657-0.927c-0.156-0.354-0.233-0.735-0.233-1.144s0.096-0.785,0.287-1.134
				c0.191-0.348,0.462-0.647,0.811-0.899c0.348-0.252,0.762-0.447,1.242-0.586c0.479-0.137,1.008-0.207,1.584-0.207
				c0.479,0,0.965,0.043,1.457,0.127s0.93,0.203,1.314,0.359v-0.846c0-0.828-0.234-1.485-0.702-1.971
				c-0.468-0.486-1.116-0.729-1.944-0.729c-0.479,0-0.972,0.097-1.476,0.288s-1.015,0.468-1.53,0.828l-0.432-0.811
				c1.212-0.815,2.388-1.224,3.527-1.224c1.176,0,2.101,0.33,2.772,0.99c0.672,0.659,1.009,1.571,1.009,2.735v4.23
				c0,0.336,0.149,0.504,0.449,0.504v1.08c-0.204,0.036-0.359,0.055-0.468,0.055c-0.312,0-0.556-0.078-0.729-0.234
				s-0.267-0.372-0.279-0.648l-0.035-0.738c-0.432,0.564-0.975,0.996-1.629,1.297C202.051,81.529,201.346,81.68,200.59,81.68z
				 M200.878,80.744c0.636,0,1.221-0.12,1.755-0.36c0.533-0.239,0.939-0.558,1.215-0.954c0.108-0.107,0.189-0.225,0.243-0.351
				s0.081-0.243,0.081-0.351v-1.53c-0.408-0.156-0.831-0.276-1.27-0.36c-0.438-0.084-0.885-0.126-1.34-0.126
				c-0.865,0-1.566,0.181-2.106,0.54s-0.81,0.834-0.81,1.422c0,0.288,0.057,0.559,0.17,0.811c0.114,0.252,0.271,0.471,0.469,0.656
				c0.197,0.187,0.435,0.334,0.711,0.441C200.271,80.689,200.565,80.744,200.878,80.744z"/>
			<path fill="#FF9400" d="M210.977,81.68c-1.021,0-1.779-0.338-2.277-1.017c-0.498-0.678-0.748-1.688-0.748-3.033v-5.508h1.225
				v5.292c0,2.124,0.727,3.186,2.178,3.186c0.36,0,0.715-0.06,1.062-0.18c0.348-0.119,0.668-0.294,0.963-0.521
				c0.294-0.229,0.559-0.498,0.792-0.811s0.423-0.666,0.567-1.062v-5.903h1.224v7.794c0,0.336,0.144,0.504,0.433,0.504v1.08
				c-0.145,0.023-0.262,0.036-0.352,0.036s-0.152,0-0.189,0c-0.287-0.013-0.521-0.114-0.701-0.306
				c-0.181-0.192-0.271-0.451-0.271-0.774v-1.08c-0.408,0.731-0.963,1.3-1.665,1.701C212.516,81.479,211.768,81.68,210.977,81.68z"
				/>
			<path fill="#FF9400" d="M223.234,81.05c-0.072,0.036-0.178,0.085-0.315,0.144c-0.138,0.061-0.298,0.121-0.478,0.181
				s-0.384,0.114-0.611,0.162c-0.229,0.048-0.469,0.071-0.721,0.071c-0.264,0-0.516-0.035-0.756-0.107s-0.449-0.183-0.63-0.333
				c-0.18-0.149-0.323-0.339-0.432-0.567c-0.108-0.228-0.162-0.492-0.162-0.791v-6.715h-1.296v-0.972h1.296v-3.168h1.224v3.168h2.16
				v0.972h-2.16v6.372c0.024,0.349,0.146,0.603,0.369,0.765s0.477,0.244,0.766,0.244c0.348,0,0.653-0.058,0.918-0.172
				c0.264-0.113,0.432-0.195,0.504-0.242L223.234,81.05z"/>
			<path fill="#FF9400" d="M224.764,70.16v-1.801h1.225v1.801H224.764z M224.764,81.5v-9.378h1.225V81.5H224.764z"/>
			<path fill="#FF9400" d="M229.137,81.5v-8.406h-1.295v-0.972h1.295V71.87c0-1.152,0.246-2.055,0.738-2.709
				c0.492-0.653,1.164-0.981,2.017-0.981c0.372,0,0.731,0.055,1.079,0.162c0.349,0.108,0.648,0.252,0.9,0.432l-0.378,0.883
				c-0.168-0.133-0.375-0.234-0.62-0.307c-0.246-0.072-0.496-0.107-0.748-0.107c-0.576,0-1.014,0.223-1.313,0.666
				s-0.45,1.086-0.45,1.926v0.288h2.592v0.972h-2.592V81.5H229.137z"/>
			<path fill="#FF9400" d="M237.562,81.68c-1.021,0-1.779-0.338-2.277-1.017c-0.498-0.678-0.747-1.688-0.747-3.033v-5.508h1.225
				v5.292c0,2.124,0.726,3.186,2.178,3.186c0.359,0,0.714-0.06,1.062-0.18c0.348-0.119,0.668-0.294,0.963-0.521
				c0.293-0.229,0.558-0.498,0.791-0.811c0.234-0.312,0.424-0.666,0.567-1.062v-5.903h1.224v7.794c0,0.336,0.145,0.504,0.433,0.504
				v1.08c-0.144,0.023-0.261,0.036-0.351,0.036s-0.153,0-0.189,0c-0.288-0.013-0.521-0.114-0.702-0.306
				c-0.181-0.192-0.271-0.451-0.271-0.774v-1.08c-0.408,0.731-0.963,1.3-1.664,1.701C239.101,81.479,238.354,81.68,237.562,81.68z"
				/>
			<path fill="#FF9400" d="M245.373,68.359h1.224v11.017c0,0.349,0.097,0.621,0.288,0.819c0.191,0.197,0.462,0.297,0.811,0.297
				c0.131,0,0.287-0.018,0.467-0.055c0.181-0.035,0.349-0.084,0.505-0.144l0.216,0.99c-0.229,0.097-0.508,0.174-0.837,0.233
				c-0.331,0.061-0.615,0.09-0.854,0.09c-0.564,0-1.009-0.158-1.332-0.477c-0.324-0.318-0.486-0.765-0.486-1.341V68.359z"/>
		</g>
	</g>
</g>
</svg>
