<?xml version="1.0" encoding="utf-8"?>
<!-- Generator: Adobe Illustrator 16.0.0, SVG Export Plug-In . SVG Version: 6.00 Build 0)  -->
<!DOCTYPE svg PUBLIC "-//W3C//DTD SVG 1.1//EN" "http://www.w3.org/Graphics/SVG/1.1/DTD/svg11.dtd">
<svg version="1.1" id="Layer_1" xmlns="http://www.w3.org/2000/svg" xmlns:xlink="http://www.w3.org/1999/xlink" x="0px" y="0px"
	 width="129.999px" height="90px" viewBox="40.576 -5.151 129.999 90" enable-background="new 40.576 -5.151 129.999 90"
	 xml:space="preserve">
<title>Group 5</title>
<desc>Created with Sketch.</desc>
<g id="Page-1">
	<g id="Mobile-Portrait" transform="translate(-75.000000, -108.000000)">
		<g id="Group-5" transform="translate(67.000000, 106.000000)">
			<text transform="matrix(0.5605 0 0 1 61.8096 82.9062)" fill="#FF9400" font-family="'Raleway-Regular'" font-size="17.6825">Simple is Beautiful</text>
			<g id="logo" transform="translate(8.000000, 0.000000)">
				<g id="Layer_1_1_" transform="translate(0.000000, 10.000000)" opacity="0.8675">
					<g id="Group">
						<path id="Shape" fill="#FFFFFF" d="M49.03,41.47h16.388v9.899H40.576v-0.787v-6.076c0-0.786,0.131-1.237,0.391-1.688
							C46.039,31.231,50.98,19.644,56.054,8.056c0.13-0.225,0.261-0.338,0.261-0.788H41.357V-2.744h23.411
							c0,1.8-0.131,3.712,0,5.513c0.13,1.575-0.26,2.812-0.78,4.163c-4.812,11.138-9.755,22.388-14.566,33.75
							C49.161,40.907,49.161,41.131,49.03,41.47z"/>
						<path id="Shape_1_" fill="#FFFFFF" d="M78.814,11.881c3.381,0.112,6.633,2.137,8.975,6.975c1.951,3.826,2.86,8.438,2.731,13.5
							c-0.13,9.788-3.642,17.551-9.104,19.576c-3.772,1.351-7.283,0.338-10.405-3.712c-2.472-3.151-3.772-7.651-4.292-12.938
							c-0.39-4.276-0.131-8.326,1.04-12.264c1.301-4.725,3.382-7.987,6.113-9.788C75.434,12.219,76.993,11.881,78.814,11.881z
							 M84.667,32.131c0.13-6.075-2.472-10.8-5.853-10.913c-3.381-0.113-5.982,4.5-5.982,10.688
							c-0.131,6.3,2.471,10.912,5.853,11.025C82.066,43.044,84.538,38.544,84.667,32.131z"/>
						<path id="Shape_2_" fill="#FFFFFF" d="M107.688,13.119v9.337c-1.04,0-2.082-0.225-3.122,0
							c-2.08,0.562-3.642,1.688-4.812,5.063c-0.13,0.337-0.259,1.688-0.259,2.137V50.47v1.012h-6.113V12.668h6.113v3.825
							C101.965,13.906,104.307,12.894,107.688,13.119z"/>
						<path id="Shape_3_" fill="#FFFFFF" d="M131.619,18.293c-2.471-4.95-5.593-6.975-8.974-6.975c-1.821,0-3.382,0.45-4.812,1.462
							c-0.521,0.337-0.91,0.562-1.301,1.012V-3.194h-5.982v34.313l0,0c0,1.237,0,2.476,0.13,3.712
							c0.521,5.4,1.821,9.788,4.292,12.938c3.122,4.162,6.764,5.174,10.405,3.712c5.463-2.137,8.975-9.788,9.104-19.575
							C134.48,26.619,133.57,22.119,131.619,18.293z M128.368,31.682c-0.13,6.413-2.602,10.913-5.982,10.8
							c-3.382-0.112-5.982-4.726-5.854-11.025v-0.337l0,0v-0.113c0.13-5.85,2.731-10.125,5.982-10.125
							C125.897,20.881,128.368,25.606,128.368,31.682z"/>
						<path id="Shape_4_" fill="#FFFFFF" d="M146.317,51.032c3.642,1.125,6.893-0.788,9.624-4.5
							c1.432-1.913,2.472-4.051,3.251-6.526c0.261-0.786,0.521-1.462,0.65-2.25l5.854,13.389l4.683-6.639l-11.837-27l0,0
							c-0.39-1.013-0.91-1.8-1.43-2.812c-2.211-3.713-4.812-5.625-7.804-5.4c-3.902,0.225-7.024,3.375-9.494,8.55
							c-3.643,7.762-3.643,17.662-0.392,25.537C141.115,47.657,143.456,50.244,146.317,51.032z M144.235,36.97
							c-2.08-5.063-1.69-11.364,1.04-15.188c2.732-3.825,6.244-2.925,8.454,2.137c0.131,0.113,0.131,0.225,0.131,0.338l0,0v0.113
							c1.951,4.725,1.431,11.024-1.171,14.737C149.959,42.706,146.317,41.919,144.235,36.97z"/>
					</g>
				</g>
				<text transform="matrix(0.5605 0 0 1 163.4199 4.4404)" fill="#FFFFFF" font-family="'Helvetica'" font-size="8.8413">TM</text>
			</g>
		</g>
	</g>
</g>
</svg>
