<?xml version="1.0" encoding="utf-8"?>
<!-- Generator: Adobe Illustrator 16.0.0, SVG Export Plug-In . SVG Version: 6.00 Build 0)  -->
<!DOCTYPE svg PUBLIC "-//W3C//DTD SVG 1.1//EN" "http://www.w3.org/Graphics/SVG/1.1/DTD/svg11.dtd">
<svg version="1.1" id="Layer_1" xmlns="http://www.w3.org/2000/svg" xmlns:xlink="http://www.w3.org/1999/xlink" x="0px" y="0px"
	 width="327px" height="119px" viewBox="0 0 327 119" enable-background="new 0 0 327 119" xml:space="preserve">
<g>
	<g>
		<g enable-background="new    ">
			<g>
				<path fill="#FF9400" d="M63.789,102.59c-0.164-0.205-0.383-0.402-0.657-0.594c-0.273-0.191-0.581-0.363-0.923-0.518
					c-0.342-0.154-0.715-0.278-1.118-0.375c-0.404-0.095-0.824-0.143-1.262-0.143c-1.135,0-1.966,0.229-2.493,0.682
					c-0.526,0.455-0.79,1.078-0.79,1.871c0,0.426,0.076,0.776,0.226,1.055c0.15,0.279,0.386,0.519,0.708,0.716
					c0.321,0.198,0.721,0.37,1.2,0.518c0.478,0.146,1.046,0.302,1.702,0.462c0.752,0.176,1.433,0.379,2.042,0.604
					c0.609,0.229,1.129,0.511,1.56,0.848c0.431,0.337,0.76,0.748,0.984,1.231c0.226,0.484,0.339,1.078,0.339,1.781
					c0,0.748-0.136,1.397-0.411,1.947c-0.274,0.551-0.646,1.006-1.118,1.364s-1.029,0.623-1.672,0.792
					c-0.644,0.168-1.341,0.253-2.093,0.253c-1.121,0-2.184-0.188-3.19-0.562c-1.005-0.375-1.918-0.92-2.739-1.64l0.882-1.672
					c0.218,0.249,0.503,0.499,0.852,0.748s0.746,0.474,1.19,0.671c0.444,0.198,0.922,0.359,1.436,0.482
					c0.513,0.125,1.048,0.188,1.61,0.188c1.039,0,1.847-0.198,2.421-0.594s0.861-0.99,0.861-1.782c0-0.439-0.092-0.811-0.277-1.111
					c-0.184-0.299-0.454-0.561-0.81-0.78c-0.356-0.22-0.796-0.414-1.323-0.582c-0.527-0.169-1.125-0.343-1.795-0.519
					c-0.739-0.189-1.39-0.396-1.949-0.615c-0.562-0.221-1.03-0.483-1.407-0.793c-0.375-0.308-0.66-0.682-0.851-1.121
					c-0.192-0.439-0.287-0.969-0.287-1.584c0-0.748,0.129-1.407,0.39-1.979c0.259-0.571,0.622-1.057,1.087-1.452
					s1.018-0.693,1.662-0.891C58.42,99.3,59.117,99.2,59.87,99.2c0.985,0,1.874,0.161,2.667,0.483
					c0.793,0.323,1.499,0.756,2.114,1.299L63.789,102.59z"/>
				<path fill="#FF9400" d="M69.308,101.292v-2.42h1.806v2.42H69.308z M69.308,114.932v-11.483h1.806v11.483H69.308z"/>
				<path fill="#FF9400" d="M92.041,114.932h-1.806v-6.424c0-1.201-0.182-2.09-0.544-2.662c-0.363-0.572-0.9-0.857-1.611-0.857
					c-0.738,0-1.398,0.283-1.979,0.848s-0.995,1.294-1.241,2.188v6.908h-1.806v-6.424c0-1.232-0.179-2.127-0.533-2.685
					c-0.357-0.558-0.89-0.837-1.601-0.837c-0.724,0-1.381,0.275-1.969,0.826c-0.589,0.549-1.006,1.279-1.252,2.188v6.931h-1.806
					v-11.484h1.642v2.465c0.437-0.852,1.005-1.508,1.703-1.971c0.698-0.461,1.483-0.691,2.358-0.691c0.904,0,1.617,0.26,2.144,0.779
					c0.527,0.521,0.852,1.193,0.976,2.015c0.957-1.862,2.318-2.794,4.083-2.794c0.613,0,1.131,0.121,1.547,0.361
					c0.417,0.242,0.75,0.58,0.996,1.014c0.245,0.434,0.423,0.941,0.533,1.527c0.109,0.588,0.164,1.227,0.164,1.914v6.865H92.041z"/>
				<path fill="#FF9400" d="M102.484,115.15c-0.89,0-1.672-0.233-2.351-0.703c-0.676-0.469-1.213-1.062-1.61-1.781v6.951h-1.807
					v-16.17h1.602v2.156c0.423-0.705,0.975-1.272,1.651-1.705c0.679-0.434,1.426-0.648,2.246-0.648c0.739,0,1.416,0.161,2.032,0.482
					c0.616,0.324,1.149,0.76,1.601,1.311c0.451,0.55,0.803,1.186,1.058,1.902c0.252,0.719,0.378,1.467,0.378,2.244
					c0,0.82-0.115,1.595-0.349,2.32c-0.232,0.727-0.562,1.356-0.984,1.893c-0.424,0.535-0.93,0.961-1.518,1.275
					C103.844,114.993,103.195,115.15,102.484,115.15z M101.931,113.479c0.532,0,1.015-0.121,1.446-0.362
					c0.43-0.241,0.799-0.564,1.108-0.968c0.308-0.404,0.544-0.861,0.709-1.375c0.164-0.514,0.246-1.041,0.246-1.584
					c0-0.572-0.096-1.119-0.288-1.64c-0.191-0.521-0.451-0.976-0.78-1.364c-0.327-0.389-0.714-0.695-1.158-0.924
					c-0.446-0.228-0.927-0.341-1.447-0.341c-0.328,0-0.667,0.069-1.015,0.209c-0.349,0.14-0.677,0.322-0.985,0.55
					c-0.307,0.229-0.574,0.5-0.8,0.814s-0.372,0.648-0.441,1.001v3.276c0.15,0.383,0.342,0.737,0.575,1.067
					c0.232,0.33,0.499,0.616,0.799,0.856c0.302,0.242,0.623,0.435,0.964,0.572C101.204,113.41,101.56,113.479,101.931,113.479z"/>
				<path fill="#FF9400" d="M111.408,98.872h1.805v13.09c0,0.425,0.105,0.759,0.318,1.001c0.213,0.242,0.51,0.362,0.893,0.362
					c0.15,0,0.329-0.025,0.533-0.076c0.206-0.052,0.397-0.114,0.575-0.188l0.288,1.562c-0.301,0.132-0.657,0.241-1.067,0.33
					c-0.41,0.088-0.773,0.132-1.087,0.132c-0.698,0-1.249-0.213-1.651-0.64c-0.405-0.424-0.605-1.019-0.605-1.78L111.408,98.872
					L111.408,98.872z"/>
				<path fill="#FF9400" d="M123.84,115.15c-0.807,0-1.545-0.156-2.216-0.473c-0.67-0.316-1.244-0.744-1.723-1.287
					c-0.479-0.541-0.851-1.177-1.119-1.902c-0.266-0.727-0.399-1.492-0.399-2.299c0-0.808,0.133-1.569,0.399-2.289
					c0.268-0.717,0.643-1.349,1.129-1.892c0.485-0.543,1.064-0.972,1.733-1.286c0.67-0.315,1.409-0.474,2.216-0.474
					c0.806,0,1.542,0.161,2.205,0.483c0.663,0.322,1.228,0.752,1.692,1.287c0.465,0.535,0.825,1.158,1.078,1.869
					c0.252,0.713,0.379,1.448,0.379,2.211c0,0.162-0.004,0.309-0.01,0.44c-0.007,0.132-0.018,0.233-0.031,0.308h-8.884
					c0.041,0.572,0.164,1.094,0.369,1.562c0.205,0.469,0.472,0.872,0.799,1.21c0.329,0.337,0.701,0.603,1.118,0.792
					c0.417,0.189,0.859,0.285,1.324,0.285c0.328,0,0.649-0.047,0.964-0.143c0.314-0.097,0.607-0.225,0.882-0.386
					c0.274-0.161,0.516-0.358,0.728-0.594c0.213-0.235,0.372-0.499,0.483-0.793l1.559,0.463c-0.177,0.425-0.42,0.813-0.728,1.166
					s-0.664,0.655-1.066,0.912c-0.405,0.257-0.852,0.459-1.344,0.604C124.885,115.074,124.374,115.15,123.84,115.15z
					 M127.513,108.42c-0.041-0.543-0.167-1.045-0.379-1.507c-0.213-0.463-0.479-0.854-0.799-1.179
					c-0.322-0.321-0.695-0.574-1.119-0.758c-0.424-0.185-0.875-0.275-1.354-0.275s-0.931,0.092-1.354,0.275
					c-0.424,0.184-0.796,0.439-1.119,0.771c-0.322,0.329-0.581,0.722-0.779,1.177s-0.318,0.953-0.359,1.496H127.513z"/>
				<path fill="#FF9400" d="M140.152,101.292v-2.42h1.807v2.42H140.152z M140.152,114.932v-11.483h1.807v11.483H140.152z"/>
				<path fill="#FF9400" d="M150.492,115.15c-0.861,0-1.709-0.143-2.544-0.428c-0.835-0.287-1.552-0.701-2.155-1.244l0.779-1.297
					c0.63,0.514,1.259,0.897,1.889,1.154c0.628,0.257,1.292,0.385,1.989,0.385c0.779,0,1.398-0.164,1.857-0.494
					c0.458-0.33,0.687-0.795,0.687-1.396c0-0.279-0.061-0.518-0.185-0.716c-0.123-0.197-0.307-0.37-0.554-0.517
					s-0.562-0.279-0.945-0.396c-0.382-0.117-0.828-0.241-1.333-0.373c-0.643-0.178-1.197-0.346-1.663-0.508
					c-0.465-0.16-0.847-0.352-1.148-0.57c-0.301-0.221-0.521-0.484-0.656-0.792c-0.138-0.31-0.206-0.688-0.206-1.146
					c0-0.571,0.106-1.08,0.318-1.528c0.212-0.446,0.503-0.82,0.873-1.121c0.37-0.302,0.803-0.528,1.303-0.683
					c0.499-0.154,1.036-0.23,1.611-0.23c0.807,0,1.56,0.141,2.256,0.418c0.698,0.277,1.286,0.646,1.765,1.1l-0.821,1.166
					c-0.45-0.425-0.957-0.744-1.518-0.957c-0.562-0.211-1.136-0.318-1.724-0.318c-0.657,0-1.215,0.15-1.672,0.451
					c-0.458,0.301-0.688,0.781-0.688,1.44c0,0.265,0.045,0.483,0.135,0.66c0.088,0.176,0.235,0.33,0.441,0.462
					c0.206,0.133,0.468,0.249,0.79,0.352c0.322,0.104,0.709,0.213,1.159,0.33c0.712,0.176,1.331,0.355,1.857,0.539
					c0.526,0.185,0.965,0.399,1.313,0.649c0.349,0.249,0.609,0.542,0.78,0.88c0.17,0.337,0.256,0.748,0.256,1.23
					c0,1.072-0.383,1.923-1.149,2.554C152.825,114.836,151.791,115.15,150.492,115.15z"/>
				<path fill="#FF9400" d="M177.266,110.904c0,0.603-0.113,1.152-0.338,1.65c-0.226,0.5-0.533,0.924-0.924,1.276
					c-0.39,0.353-0.84,0.623-1.353,0.813c-0.514,0.189-1.065,0.285-1.653,0.285h-6.913V99.311h7.242
					c0.507,0,0.964,0.117,1.375,0.353c0.409,0.233,0.759,0.539,1.047,0.912c0.287,0.374,0.51,0.8,0.666,1.276
					c0.157,0.477,0.237,0.957,0.237,1.44c0,0.776-0.182,1.496-0.544,2.155c-0.363,0.66-0.879,1.152-1.549,1.475
					c0.835,0.264,1.495,0.752,1.98,1.463C177.023,109.1,177.266,109.938,177.266,110.904z M167.931,101.027v5.214h4.638
					c0.328,0,0.629-0.069,0.903-0.209c0.271-0.14,0.509-0.326,0.706-0.562c0.199-0.234,0.357-0.51,0.474-0.824
					c0.116-0.315,0.174-0.648,0.174-1.002c0-0.365-0.054-0.711-0.163-1.033c-0.11-0.322-0.258-0.602-0.443-0.836
					c-0.185-0.234-0.409-0.418-0.675-0.551c-0.268-0.132-0.554-0.197-0.853-0.197H167.931z M175.4,110.555
					c0-0.354-0.06-0.693-0.177-1.023c-0.116-0.33-0.273-0.619-0.471-0.868c-0.199-0.25-0.435-0.447-0.709-0.595
					c-0.273-0.146-0.572-0.221-0.903-0.221h-5.21v5.368h5.067c0.341,0,0.657-0.073,0.944-0.22c0.286-0.146,0.538-0.342,0.758-0.583
					c0.219-0.242,0.391-0.524,0.514-0.849C175.337,111.243,175.4,110.904,175.4,110.555z"/>
				<path fill="#FF9400" d="M186.17,115.15c-0.808,0-1.546-0.156-2.217-0.473c-0.67-0.316-1.243-0.744-1.722-1.287
					c-0.48-0.541-0.852-1.177-1.119-1.902c-0.267-0.727-0.399-1.492-0.399-2.299c0-0.808,0.133-1.569,0.399-2.289
					c0.268-0.717,0.643-1.349,1.128-1.892c0.486-0.543,1.064-0.972,1.735-1.286c0.669-0.315,1.408-0.474,2.215-0.474
					c0.806,0,1.543,0.161,2.205,0.483c0.663,0.322,1.229,0.752,1.691,1.287c0.467,0.535,0.826,1.158,1.077,1.869
					c0.252,0.713,0.381,1.448,0.381,2.211c0,0.162-0.004,0.309-0.012,0.44c-0.006,0.132-0.017,0.233-0.03,0.308h-8.884
					c0.041,0.572,0.165,1.094,0.37,1.562c0.204,0.469,0.473,0.872,0.799,1.21c0.329,0.337,0.701,0.603,1.118,0.792
					s0.858,0.285,1.323,0.285c0.327,0,0.649-0.047,0.964-0.143c0.315-0.097,0.608-0.225,0.883-0.386
					c0.273-0.161,0.517-0.358,0.728-0.594c0.213-0.235,0.372-0.499,0.482-0.793l1.56,0.463c-0.178,0.425-0.422,0.813-0.729,1.166
					s-0.664,0.655-1.066,0.912c-0.405,0.257-0.853,0.459-1.345,0.604C187.215,115.074,186.703,115.15,186.17,115.15z
					 M189.843,108.42c-0.041-0.543-0.169-1.045-0.38-1.507c-0.213-0.463-0.479-0.854-0.799-1.179
					c-0.323-0.321-0.695-0.574-1.118-0.758c-0.426-0.185-0.876-0.275-1.354-0.275s-0.931,0.092-1.354,0.275
					c-0.425,0.184-0.798,0.439-1.118,0.771c-0.323,0.329-0.582,0.722-0.78,1.177s-0.318,0.953-0.359,1.496H189.843z"/>
				<path fill="#FF9400" d="M198.173,115.15c-0.508,0-0.979-0.092-1.416-0.273c-0.438-0.184-0.818-0.438-1.14-0.76
					c-0.322-0.322-0.573-0.7-0.758-1.133c-0.185-0.434-0.278-0.905-0.278-1.42c0-0.526,0.108-1.008,0.328-1.439
					c0.221-0.432,0.53-0.805,0.934-1.111c0.404-0.307,0.884-0.55,1.438-0.726c0.555-0.177,1.158-0.265,1.815-0.265
					c0.521,0,1.047,0.052,1.579,0.153c0.533,0.103,1.006,0.242,1.416,0.419v-0.925c0-0.938-0.245-1.676-0.738-2.211
					s-1.19-0.804-2.094-0.804c-1.079,0-2.215,0.447-3.404,1.343l-0.596-1.254c1.381-0.998,2.771-1.496,4.166-1.496
					c1.407,0,2.505,0.403,3.291,1.21s1.183,1.943,1.183,3.41v4.686c0,0.455,0.19,0.689,0.573,0.704v1.673
					c-0.191,0.028-0.351,0.051-0.473,0.065c-0.123,0.014-0.252,0.021-0.391,0.021c-0.355,0-0.639-0.113-0.852-0.341
					c-0.21-0.228-0.337-0.502-0.379-0.825l-0.04-0.812c-0.479,0.689-1.084,1.214-1.815,1.572
					C199.789,114.973,199.005,115.15,198.173,115.15z M198.645,113.699c0.643,0,1.241-0.129,1.797-0.385
					c0.554-0.256,0.974-0.599,1.262-1.022c0.259-0.278,0.389-0.563,0.389-0.858v-1.693c-0.875-0.366-1.785-0.551-2.728-0.551
					c-0.903,0-1.639,0.207-2.207,0.617c-0.567,0.41-0.851,0.945-0.851,1.605c0,0.322,0.057,0.623,0.174,0.9
					c0.117,0.279,0.281,0.521,0.492,0.728c0.213,0.205,0.462,0.366,0.751,0.483C198.008,113.643,198.316,113.699,198.645,113.699z"
					/>
				<path fill="#FF9400" d="M211.96,115.15c-1.122,0-1.97-0.402-2.545-1.209c-0.575-0.808-0.862-2.01-0.862-3.607v-6.887h1.807
					v6.513c0,2.347,0.759,3.521,2.275,3.521c0.739,0,1.434-0.254,2.083-0.76c0.65-0.506,1.132-1.199,1.446-2.078v-7.194h1.807v9.108
					c0,0.454,0.191,0.688,0.573,0.703v1.672c-0.204,0.029-0.366,0.049-0.482,0.055c-0.116,0.009-0.229,0.013-0.338,0.013
					c-0.356,0-0.653-0.114-0.893-0.342s-0.366-0.509-0.379-0.847l-0.04-1.343c-0.48,0.865-1.109,1.529-1.889,1.991
					S212.889,115.15,211.96,115.15z"/>
				<path fill="#FF9400" d="M228.393,114.359c-0.109,0.059-0.253,0.129-0.43,0.209c-0.178,0.08-0.381,0.162-0.606,0.242
					c-0.225,0.08-0.472,0.146-0.738,0.197c-0.266,0.051-0.543,0.077-0.832,0.077c-0.655,0-1.223-0.194-1.702-0.583
					s-0.72-0.994-0.72-1.814v-7.723h-1.454v-1.52h1.454v-3.826h1.808v3.826h2.398v1.52h-2.398v7.128
					c0.025,0.427,0.158,0.733,0.389,0.925c0.232,0.19,0.508,0.285,0.82,0.285c0.358,0,0.681-0.062,0.976-0.188
					c0.293-0.124,0.497-0.223,0.606-0.297L228.393,114.359z"/>
				<path fill="#FF9400" d="M231.942,101.292v-2.42h1.806v2.42H231.942z M231.942,114.932v-11.483h1.806v11.483H231.942z"/>
				<path fill="#FF9400" d="M239.104,114.932v-9.966h-1.457v-1.519h1.457v-0.241c0-1.423,0.294-2.538,0.882-3.345
					c0.589-0.807,1.389-1.211,2.4-1.211c0.424,0,0.841,0.062,1.252,0.188c0.412,0.126,0.779,0.298,1.108,0.517l-0.451,1.431
					c-0.192-0.146-0.428-0.265-0.708-0.353c-0.279-0.088-0.558-0.132-0.831-0.132c-0.603,0-1.062,0.242-1.374,0.726
					c-0.316,0.484-0.474,1.188-0.474,2.113v0.308h2.853v1.519h-2.853v9.967h-1.805V114.932z"/>
				<path fill="#FF9400" d="M250.735,115.15c-1.122,0-1.969-0.402-2.546-1.209c-0.574-0.808-0.861-2.01-0.861-3.607v-6.887h1.806
					v6.513c0,2.347,0.759,3.521,2.278,3.521c0.738,0,1.432-0.254,2.081-0.76s1.132-1.199,1.448-2.078v-7.194h1.804v9.108
					c0,0.454,0.192,0.688,0.575,0.703v1.672c-0.205,0.029-0.367,0.049-0.482,0.055c-0.115,0.009-0.229,0.013-0.338,0.013
					c-0.356,0-0.654-0.114-0.893-0.342c-0.24-0.228-0.367-0.509-0.379-0.847l-0.042-1.343c-0.479,0.865-1.107,1.529-1.887,1.991
					S251.666,115.15,250.735,115.15z"/>
				<path fill="#FF9400" d="M261.672,98.872h1.807v13.09c0,0.425,0.104,0.759,0.316,1.001s0.51,0.362,0.893,0.362
					c0.15,0,0.328-0.025,0.533-0.076c0.205-0.052,0.396-0.114,0.575-0.188l0.288,1.562c-0.301,0.132-0.658,0.241-1.068,0.33
					c-0.41,0.088-0.773,0.132-1.086,0.132c-0.698,0-1.25-0.213-1.652-0.64c-0.404-0.424-0.605-1.019-0.605-1.78V98.872
					L261.672,98.872z"/>
			</g>
		</g>
		<g id="Layer_1_10_" transform="translate(12.444444, 18.086681)" opacity="0.8675">
			<g>
				<g id="Group_9_">
					<path id="Shape_45_" fill="#FFFFFF" d="M26.688,59.482h37.635v13.385H7.163v-0.99v-8.264c0-0.99,0.315-1.651,0.787-2.312
						c11.651-15.698,23.147-31.232,34.8-46.931c0.158-0.331,0.471-0.496,0.63-0.992H9.051V-0.174h53.854
						c0,2.479-0.158,4.958,0,7.436c0.157,2.148-0.472,3.801-1.89,5.619c-11.18,15.038-22.36,30.241-33.54,45.442
						C27.16,58.656,27.005,58.986,26.688,59.482z"/>
					<path id="Shape_44_" fill="#FFFFFF" d="M95.344,19.491c7.873,0.165,15.275,2.809,20.786,9.419
						c4.409,5.123,6.457,11.402,6.298,18.177c-0.157,13.221-8.345,23.631-20.942,26.439c-8.66,1.817-16.691,0.496-23.934-4.957
						c-5.67-4.297-8.818-10.246-9.921-17.517c-0.787-5.784-0.157-11.237,2.362-16.525c2.993-6.445,7.874-10.741,14.173-13.22
						C87.628,19.987,91.25,19.491,95.344,19.491z M108.729,46.922c0.158-8.262-5.826-14.542-13.542-14.707
						c-7.874-0.165-13.858,6.114-13.858,14.377c-0.157,8.428,5.67,14.707,13.542,14.872
						C102.745,61.63,108.572,55.515,108.729,46.922z"/>
					<path id="Shape_43_" fill="#FFFFFF" d="M161.795,21.143v12.559c-2.361,0-4.881-0.331-7.244,0
						c-4.881,0.826-8.503,2.313-11.023,6.775c-0.314,0.496-0.629,2.313-0.629,2.81v28.093V72.7h-14.014V20.648h14.014v5.123
						C148.725,22.3,153.922,20.978,161.795,21.143z"/>
					<path id="Shape_42_" fill="#FFFFFF" d="M216.909,28.249c-5.67-6.61-12.912-9.419-20.787-9.419
						c-4.092,0-7.715,0.661-11.023,1.983c-1.1,0.496-2.047,0.827-2.991,1.322v-22.97H168.25v46.27l0,0c0,1.652,0,3.305,0.314,4.958
						c1.104,7.271,4.254,13.22,9.923,17.517c7.241,5.619,15.432,6.939,23.935,4.957c12.596-2.809,20.784-13.219,20.942-26.438
						C223.364,39.486,221.316,33.372,216.909,28.249z M209.35,46.261c-0.158,8.594-5.982,14.707-13.856,14.543
						c-7.876-0.166-13.7-6.445-13.542-14.873v-0.496l0,0V45.27c0.315-7.932,6.297-13.716,13.857-13.716
						C203.681,31.719,209.508,37.999,209.35,46.261z"/>
					<path id="Shape_41_" fill="#FFFFFF" d="M250.606,72.37c8.345,1.488,15.746-0.991,22.045-6.113
						c3.15-2.645,5.669-5.453,7.559-8.76c0.63-0.99,1.103-1.982,1.574-2.975l13.542,18.014l10.865-8.924l-27.243-36.355l0,0
						c-0.944-1.322-2.046-2.479-3.148-3.801c-5.037-4.958-11.18-7.601-18.109-7.271c-8.974,0.331-16.061,4.627-21.73,11.567
						c-8.345,10.411-8.502,23.797-0.944,34.372C238.795,67.743,244.151,71.214,250.606,72.37z M245.882,53.366
						c-4.882-6.774-3.937-15.369,2.362-20.49c6.298-5.123,14.487-3.966,19.368,2.809c0.157,0.166,0.157,0.331,0.313,0.496l0,0v0.166
						c4.41,6.445,3.151,14.873-2.832,19.831C258.951,61.134,250.606,59.978,245.882,53.366z"/>
				</g>
			</g>
		</g>
		<g enable-background="new    ">
			<g>
				<path fill="#FFFFFF" d="M298.635,6.363v1.529h-2.41V15h-1.692V7.893h-2.421v-1.53H298.635z"/>
				<path fill="#FFFFFF" d="M304.962,6.363h2.423V15h-1.569V9.158c0-0.168,0.002-0.403,0.006-0.706
					c0.005-0.303,0.007-0.536,0.007-0.7L304.3,15h-1.636l-1.515-7.248c0,0.164,0.002,0.397,0.006,0.7
					c0.002,0.303,0.005,0.538,0.005,0.706V15h-1.568V6.363h2.449l1.465,6.791L304.962,6.363z"/>
			</g>
		</g>
	</g>
</g>
</svg>
