<?xml version="1.0" encoding="utf-8"?>
<!-- Generator: Adobe Illustrator 16.0.0, SVG Export Plug-In . SVG Version: 6.00 Build 0)  -->
<!DOCTYPE svg PUBLIC "-//W3C//DTD SVG 1.1//EN" "http://www.w3.org/Graphics/SVG/1.1/DTD/svg11.dtd">
<svg version="1.1" id="Layer_1" xmlns="http://www.w3.org/2000/svg" xmlns:xlink="http://www.w3.org/1999/xlink" x="0px" y="0px"
	 width="327px" height="119px" viewBox="0 0 327 119" enable-background="new 0 0 327 119" xml:space="preserve">
<g>
	<g>
		<g enable-background="new    ">
			<g>
				<path fill="#FF9400" d="M60.495,102.59c-0.166-0.205-0.388-0.402-0.666-0.594c-0.276-0.191-0.588-0.363-0.935-0.518
					c-0.347-0.154-0.725-0.278-1.133-0.375c-0.409-0.095-0.834-0.143-1.278-0.143c-1.15,0-1.991,0.229-2.525,0.682
					c-0.533,0.455-0.8,1.078-0.8,1.871c0,0.426,0.077,0.776,0.229,1.055c0.152,0.279,0.391,0.519,0.718,0.716
					c0.325,0.198,0.73,0.37,1.215,0.518c0.484,0.146,1.06,0.302,1.724,0.462c0.762,0.176,1.452,0.379,2.068,0.604
					c0.617,0.229,1.144,0.511,1.58,0.848c0.437,0.337,0.77,0.748,0.997,1.231c0.229,0.484,0.344,1.078,0.344,1.781
					c0,0.748-0.138,1.397-0.416,1.947c-0.278,0.551-0.655,1.006-1.132,1.364c-0.478,0.358-1.043,0.623-1.694,0.792
					c-0.652,0.168-1.358,0.253-2.12,0.253c-1.135,0-2.212-0.188-3.231-0.562c-1.018-0.375-1.943-0.92-2.774-1.64l0.894-1.672
					c0.221,0.249,0.51,0.499,0.863,0.748s0.755,0.474,1.206,0.671c0.45,0.198,0.935,0.359,1.455,0.482
					c0.52,0.125,1.062,0.188,1.631,0.188c1.053,0,1.871-0.198,2.453-0.594s0.872-0.99,0.872-1.782c0-0.439-0.093-0.811-0.28-1.111
					c-0.187-0.299-0.46-0.561-0.821-0.78s-0.807-0.414-1.34-0.582c-0.534-0.169-1.14-0.343-1.818-0.519
					c-0.749-0.189-1.408-0.396-1.974-0.615c-0.569-0.221-1.043-0.483-1.425-0.793c-0.38-0.308-0.668-0.682-0.862-1.121
					c-0.195-0.439-0.29-0.969-0.29-1.584c0-0.748,0.131-1.407,0.395-1.979c0.262-0.571,0.629-1.057,1.101-1.452
					c0.471-0.396,1.031-0.693,1.684-0.891c0.65-0.198,1.356-0.298,2.119-0.298c0.998,0,1.898,0.161,2.701,0.483
					c0.804,0.323,1.518,0.756,2.142,1.299L60.495,102.59z"/>
				<path fill="#FF9400" d="M66.085,101.292v-2.42h1.829v2.42H66.085z M66.085,114.932v-11.483h1.829v11.483H66.085z"/>
				<path fill="#FF9400" d="M89.111,114.932h-1.829v-6.424c0-1.201-0.185-2.09-0.551-2.662c-0.368-0.572-0.912-0.857-1.632-0.857
					c-0.748,0-1.417,0.283-2.005,0.848c-0.589,0.564-1.008,1.294-1.257,2.188v6.908h-1.829v-6.424c0-1.232-0.181-2.127-0.54-2.685
					c-0.362-0.558-0.901-0.837-1.622-0.837c-0.733,0-1.399,0.275-1.995,0.826c-0.596,0.549-1.019,1.279-1.268,2.188v6.931h-1.829
					v-11.484h1.663v2.465c0.442-0.852,1.018-1.508,1.725-1.971c0.707-0.461,1.502-0.691,2.389-0.691c0.916,0,1.638,0.26,2.172,0.779
					c0.534,0.521,0.863,1.193,0.988,2.015c0.969-1.862,2.348-2.794,4.136-2.794c0.621,0,1.146,0.121,1.567,0.361
					c0.423,0.242,0.76,0.58,1.008,1.014c0.248,0.434,0.429,0.941,0.54,1.527c0.111,0.588,0.167,1.227,0.167,1.914v6.865H89.111z"/>
				<path fill="#FF9400" d="M99.689,115.15c-0.901,0-1.694-0.233-2.381-0.703c-0.685-0.469-1.229-1.062-1.631-1.781v6.951h-1.83
					v-16.17h1.623v2.156c0.429-0.705,0.987-1.272,1.673-1.705c0.688-0.434,1.444-0.648,2.275-0.648c0.749,0,1.435,0.161,2.058,0.482
					c0.624,0.324,1.164,0.76,1.621,1.311c0.457,0.55,0.814,1.186,1.071,1.902c0.256,0.719,0.383,1.467,0.383,2.244
					c0,0.82-0.117,1.595-0.353,2.32c-0.235,0.727-0.569,1.356-0.997,1.893c-0.43,0.535-0.942,0.961-1.538,1.275
					C101.067,114.993,100.41,115.15,99.689,115.15z M99.13,113.479c0.539,0,1.028-0.121,1.464-0.362
					c0.436-0.241,0.81-0.564,1.122-0.968c0.312-0.404,0.551-0.861,0.718-1.375c0.166-0.514,0.25-1.041,0.25-1.584
					c0-0.572-0.098-1.119-0.292-1.64c-0.194-0.521-0.457-0.976-0.791-1.364c-0.331-0.389-0.724-0.695-1.173-0.924
					c-0.452-0.228-0.939-0.341-1.466-0.341c-0.332,0-0.675,0.069-1.028,0.209s-0.686,0.322-0.998,0.55
					c-0.311,0.229-0.582,0.5-0.81,0.814s-0.377,0.648-0.447,1.001v3.276c0.152,0.383,0.347,0.737,0.583,1.067
					c0.235,0.33,0.505,0.616,0.81,0.856c0.306,0.242,0.63,0.435,0.977,0.572C98.393,113.41,98.754,113.479,99.13,113.479z"/>
				<path fill="#FF9400" d="M108.729,98.872h1.828v13.09c0,0.425,0.107,0.759,0.323,1.001s0.517,0.362,0.904,0.362
					c0.152,0,0.333-0.025,0.541-0.076c0.208-0.052,0.402-0.114,0.582-0.188l0.291,1.562c-0.305,0.132-0.665,0.241-1.081,0.33
					c-0.416,0.088-0.783,0.132-1.101,0.132c-0.707,0-1.265-0.213-1.672-0.64c-0.41-0.424-0.613-1.019-0.613-1.78L108.729,98.872
					L108.729,98.872z"/>
				<path fill="#FF9400" d="M121.322,115.15c-0.817,0-1.565-0.156-2.245-0.473c-0.679-0.316-1.26-0.744-1.746-1.287
					c-0.485-0.541-0.862-1.177-1.133-1.902c-0.27-0.727-0.404-1.492-0.404-2.299c0-0.808,0.135-1.569,0.404-2.289
					c0.271-0.717,0.651-1.349,1.144-1.892c0.492-0.543,1.078-0.972,1.756-1.286c0.678-0.315,1.427-0.474,2.245-0.474
					c0.817,0,1.562,0.161,2.234,0.483c0.671,0.322,1.243,0.752,1.713,1.287c0.472,0.535,0.836,1.158,1.092,1.869
					c0.255,0.713,0.384,1.448,0.384,2.211c0,0.162-0.004,0.309-0.01,0.44c-0.007,0.132-0.019,0.233-0.031,0.308h-8.999
					c0.042,0.572,0.166,1.094,0.374,1.562c0.207,0.469,0.478,0.872,0.809,1.21c0.333,0.337,0.71,0.603,1.132,0.792
					c0.423,0.189,0.87,0.285,1.341,0.285c0.332,0,0.658-0.047,0.977-0.143c0.318-0.097,0.615-0.225,0.893-0.386
					c0.277-0.161,0.523-0.358,0.737-0.594c0.216-0.235,0.377-0.499,0.489-0.793l1.58,0.463c-0.18,0.425-0.426,0.813-0.738,1.166
					s-0.672,0.655-1.08,0.912c-0.41,0.257-0.863,0.459-1.362,0.604C122.38,115.074,121.863,115.15,121.322,115.15z M125.042,108.42
					c-0.041-0.543-0.169-1.045-0.384-1.507c-0.216-0.463-0.486-0.854-0.809-1.179c-0.327-0.321-0.705-0.574-1.133-0.758
					c-0.43-0.185-0.886-0.275-1.372-0.275c-0.485,0-0.942,0.092-1.372,0.275c-0.43,0.184-0.807,0.439-1.133,0.771
					c-0.326,0.329-0.589,0.722-0.79,1.177s-0.322,0.953-0.364,1.496H125.042z"/>
				<path fill="#FF9400" d="M137.845,101.292v-2.42h1.83v2.42H137.845z M137.845,114.932v-11.483h1.83v11.483H137.845z"/>
				<path fill="#FF9400" d="M148.318,115.15c-0.872,0-1.731-0.143-2.577-0.428c-0.846-0.287-1.572-0.701-2.183-1.244l0.79-1.297
					c0.638,0.514,1.275,0.897,1.913,1.154c0.636,0.257,1.309,0.385,2.015,0.385c0.79,0,1.416-0.164,1.881-0.494
					c0.464-0.33,0.696-0.795,0.696-1.396c0-0.279-0.062-0.518-0.187-0.716c-0.125-0.197-0.311-0.37-0.561-0.517
					c-0.25-0.146-0.569-0.279-0.957-0.396c-0.387-0.117-0.838-0.241-1.35-0.373c-0.651-0.178-1.213-0.346-1.684-0.508
					c-0.472-0.16-0.858-0.352-1.163-0.57c-0.305-0.221-0.527-0.484-0.664-0.792c-0.14-0.31-0.208-0.688-0.208-1.146
					c0-0.571,0.107-1.08,0.322-1.528c0.215-0.446,0.509-0.82,0.884-1.121c0.375-0.302,0.813-0.528,1.32-0.683
					c0.505-0.154,1.049-0.23,1.631-0.23c0.817,0,1.58,0.141,2.286,0.418c0.707,0.277,1.303,0.646,1.788,1.1l-0.832,1.166
					c-0.456-0.425-0.969-0.744-1.537-0.957c-0.569-0.211-1.15-0.318-1.746-0.318c-0.665,0-1.23,0.15-1.693,0.451
					c-0.464,0.301-0.697,0.781-0.697,1.44c0,0.265,0.045,0.483,0.136,0.66c0.089,0.176,0.238,0.33,0.447,0.462
					c0.208,0.133,0.474,0.249,0.8,0.352c0.326,0.104,0.718,0.213,1.174,0.33c0.722,0.176,1.349,0.355,1.881,0.539
					c0.533,0.185,0.977,0.399,1.33,0.649c0.354,0.249,0.617,0.542,0.79,0.88c0.173,0.337,0.26,0.748,0.26,1.23
					c0,1.072-0.388,1.923-1.164,2.554C150.681,114.836,149.634,115.15,148.318,115.15z"/>
				<path fill="#FF9400" d="M175.438,110.904c0,0.603-0.115,1.152-0.343,1.65c-0.229,0.5-0.54,0.924-0.936,1.276
					c-0.395,0.353-0.851,0.623-1.37,0.813c-0.521,0.189-1.079,0.285-1.675,0.285h-7.002V99.311h7.335
					c0.514,0,0.977,0.117,1.394,0.353c0.414,0.233,0.769,0.539,1.061,0.912c0.29,0.374,0.516,0.8,0.674,1.276
					c0.159,0.477,0.24,0.957,0.24,1.44c0,0.776-0.184,1.496-0.551,2.155c-0.368,0.66-0.89,1.152-1.568,1.475
					c0.846,0.264,1.515,0.752,2.006,1.463C175.192,109.1,175.438,109.938,175.438,110.904z M165.982,101.027v5.214h4.697
					c0.333,0,0.638-0.069,0.915-0.209c0.275-0.14,0.516-0.326,0.716-0.562c0.201-0.234,0.361-0.51,0.479-0.824
					c0.118-0.315,0.176-0.648,0.176-1.002c0-0.365-0.054-0.711-0.165-1.033s-0.261-0.602-0.449-0.836
					c-0.187-0.234-0.414-0.418-0.684-0.551c-0.271-0.132-0.561-0.197-0.863-0.197H165.982z M173.549,110.555
					c0-0.354-0.061-0.693-0.179-1.023s-0.277-0.619-0.478-0.868c-0.201-0.25-0.439-0.447-0.718-0.595
					c-0.277-0.146-0.58-0.221-0.915-0.221h-5.277v5.368h5.133c0.346,0,0.666-0.073,0.957-0.22c0.289-0.146,0.545-0.342,0.768-0.583
					c0.222-0.242,0.396-0.524,0.52-0.849C173.484,111.243,173.549,110.904,173.549,110.555z"/>
				<path fill="#FF9400" d="M184.457,115.15c-0.817,0-1.565-0.156-2.245-0.473c-0.679-0.316-1.259-0.744-1.744-1.287
					c-0.486-0.541-0.862-1.177-1.133-1.902c-0.271-0.727-0.405-1.492-0.405-2.299c0-0.808,0.135-1.569,0.405-2.289
					c0.271-0.717,0.65-1.349,1.142-1.892c0.493-0.543,1.079-0.972,1.758-1.286c0.678-0.315,1.427-0.474,2.244-0.474
					c0.815,0,1.562,0.161,2.233,0.483c0.672,0.322,1.244,0.752,1.713,1.287c0.473,0.535,0.837,1.158,1.092,1.869
					c0.255,0.713,0.386,1.448,0.386,2.211c0,0.162-0.004,0.309-0.013,0.44c-0.006,0.132-0.017,0.233-0.03,0.308h-8.999
					c0.042,0.572,0.168,1.094,0.375,1.562s0.479,0.872,0.81,1.21c0.333,0.337,0.71,0.603,1.133,0.792
					c0.422,0.189,0.869,0.285,1.34,0.285c0.332,0,0.658-0.047,0.977-0.143c0.319-0.097,0.616-0.225,0.895-0.386
					c0.276-0.161,0.523-0.358,0.736-0.594c0.216-0.235,0.377-0.499,0.489-0.793l1.579,0.463c-0.18,0.425-0.427,0.813-0.737,1.166
					s-0.673,0.655-1.08,0.912c-0.411,0.257-0.864,0.459-1.362,0.604C185.516,115.074,184.998,115.15,184.457,115.15z
					 M188.178,108.42c-0.041-0.543-0.171-1.045-0.385-1.507c-0.216-0.463-0.485-0.854-0.81-1.179
					c-0.327-0.321-0.704-0.574-1.132-0.758c-0.432-0.185-0.888-0.275-1.372-0.275c-0.485,0-0.943,0.092-1.371,0.275
					c-0.431,0.184-0.809,0.439-1.133,0.771c-0.327,0.329-0.59,0.722-0.79,1.177c-0.201,0.455-0.323,0.953-0.364,1.496H188.178z"/>
				<path fill="#FF9400" d="M196.615,115.15c-0.514,0-0.991-0.092-1.434-0.273c-0.443-0.184-0.829-0.438-1.154-0.76
					c-0.327-0.322-0.581-0.7-0.769-1.133c-0.187-0.434-0.281-0.905-0.281-1.42c0-0.526,0.109-1.008,0.332-1.439
					c0.224-0.432,0.537-0.805,0.946-1.111s0.895-0.55,1.456-0.726c0.562-0.177,1.173-0.265,1.839-0.265
					c0.526,0,1.06,0.052,1.599,0.153c0.541,0.103,1.02,0.242,1.435,0.419v-0.925c0-0.938-0.248-1.676-0.748-2.211
					c-0.499-0.535-1.205-0.804-2.12-0.804c-1.094,0-2.244,0.447-3.448,1.343l-0.604-1.254c1.398-0.998,2.806-1.496,4.22-1.496
					c1.426,0,2.537,0.403,3.333,1.21c0.797,0.807,1.198,1.943,1.198,3.41v4.686c0,0.455,0.193,0.689,0.581,0.704v1.673
					c-0.194,0.028-0.355,0.051-0.479,0.065c-0.124,0.014-0.255,0.021-0.396,0.021c-0.359,0-0.646-0.113-0.862-0.341
					c-0.213-0.228-0.341-0.502-0.384-0.825l-0.041-0.812c-0.485,0.689-1.098,1.214-1.839,1.572
					C198.253,114.973,197.458,115.15,196.615,115.15z M197.094,113.699c0.65,0,1.257-0.129,1.819-0.385
					c0.562-0.256,0.986-0.599,1.278-1.022c0.263-0.278,0.394-0.563,0.394-0.858v-1.693c-0.886-0.366-1.808-0.551-2.763-0.551
					c-0.915,0-1.66,0.207-2.235,0.617s-0.861,0.945-0.861,1.605c0,0.322,0.057,0.623,0.176,0.9c0.119,0.279,0.285,0.521,0.498,0.728
					c0.216,0.205,0.469,0.366,0.761,0.483C196.448,113.643,196.761,113.699,197.094,113.699z"/>
				<path fill="#FF9400" d="M210.581,115.15c-1.137,0-1.995-0.402-2.578-1.209c-0.582-0.808-0.873-2.01-0.873-3.607v-6.887h1.83
					v6.513c0,2.347,0.769,3.521,2.305,3.521c0.749,0,1.452-0.254,2.109-0.76c0.659-0.506,1.146-1.199,1.466-2.078v-7.194h1.829
					v9.108c0,0.454,0.194,0.688,0.581,0.703v1.672c-0.207,0.029-0.371,0.049-0.488,0.055c-0.118,0.009-0.232,0.013-0.343,0.013
					c-0.361,0-0.661-0.114-0.904-0.342c-0.242-0.228-0.37-0.509-0.384-0.847l-0.04-1.343c-0.487,0.865-1.124,1.529-1.913,1.991
					C212.388,114.921,211.521,115.15,210.581,115.15z"/>
				<path fill="#FF9400" d="M227.226,114.359c-0.11,0.059-0.256,0.129-0.435,0.209c-0.181,0.08-0.386,0.162-0.614,0.242
					c-0.228,0.08-0.479,0.146-0.748,0.197c-0.27,0.051-0.55,0.077-0.843,0.077c-0.664,0-1.238-0.194-1.725-0.583
					c-0.485-0.389-0.729-0.994-0.729-1.814v-7.723h-1.473v-1.52h1.473v-3.826h1.831v3.826h2.43v1.52h-2.43v7.128
					c0.025,0.427,0.16,0.733,0.394,0.925c0.235,0.19,0.515,0.285,0.831,0.285c0.363,0,0.689-0.062,0.988-0.188
					c0.297-0.124,0.503-0.223,0.614-0.297L227.226,114.359z"/>
				<path fill="#FF9400" d="M230.821,101.292v-2.42h1.829v2.42H230.821z M230.821,114.932v-11.483h1.829v11.483H230.821z"/>
				<path fill="#FF9400" d="M238.075,114.932v-9.966H236.6v-1.519h1.476v-0.241c0-1.423,0.298-2.538,0.894-3.345
					c0.597-0.807,1.406-1.211,2.432-1.211c0.429,0,0.852,0.062,1.268,0.188c0.418,0.126,0.79,0.298,1.123,0.517l-0.457,1.431
					c-0.195-0.146-0.434-0.265-0.717-0.353s-0.565-0.132-0.842-0.132c-0.61,0-1.076,0.242-1.393,0.726
					c-0.32,0.484-0.479,1.188-0.479,2.113v0.308h2.89v1.519h-2.89v9.967h-1.828V114.932z"/>
				<path fill="#FF9400" d="M249.857,115.15c-1.137,0-1.994-0.402-2.579-1.209c-0.581-0.808-0.872-2.01-0.872-3.607v-6.887h1.829
					v6.513c0,2.347,0.769,3.521,2.308,3.521c0.748,0,1.45-0.254,2.108-0.76c0.657-0.506,1.146-1.199,1.467-2.078v-7.194h1.827v9.108
					c0,0.454,0.194,0.688,0.582,0.703v1.672c-0.207,0.029-0.372,0.049-0.488,0.055c-0.117,0.009-0.231,0.013-0.343,0.013
					c-0.36,0-0.662-0.114-0.903-0.342c-0.244-0.228-0.372-0.509-0.384-0.847l-0.043-1.343c-0.484,0.865-1.122,1.529-1.911,1.991
					S250.8,115.15,249.857,115.15z"/>
				<path fill="#FF9400" d="M260.936,98.872h1.83v13.09c0,0.425,0.105,0.759,0.32,1.001s0.517,0.362,0.904,0.362
					c0.152,0,0.332-0.025,0.54-0.076c0.208-0.052,0.401-0.114,0.583-0.188l0.291,1.562c-0.305,0.132-0.666,0.241-1.082,0.33
					c-0.415,0.088-0.783,0.132-1.1,0.132c-0.707,0-1.267-0.213-1.674-0.64c-0.409-0.424-0.613-1.019-0.613-1.78V98.872
					L260.936,98.872z"/>
			</g>
		</g>
		<g id="Layer_1_13_" transform="translate(12.444444, 18.086681)" opacity="0.8675">
			<g>
				<g id="Group_12_">
					<path id="Shape_60_" fill="#FFFFFF" d="M13.235,59.482h39.447v13.385H-7.23v-0.99v-8.264c0-0.99,0.331-1.651,0.825-2.312
						C5.808,45.602,17.857,30.068,30.071,14.369c0.166-0.331,0.494-0.496,0.66-0.992H-5.25V-0.174h56.446
						c0,2.479-0.166,4.958,0,7.436c0.164,2.148-0.495,3.801-1.981,5.619C37.498,27.919,25.78,43.122,14.061,58.323
						C13.73,58.656,13.567,58.986,13.235,59.482z"/>
					<path id="Shape_59_" fill="#FFFFFF" d="M85.196,19.491c8.251,0.165,16.009,2.809,21.786,9.419
						c4.622,5.123,6.767,11.402,6.602,18.177c-0.166,13.221-8.748,23.631-21.951,26.439c-9.077,1.817-17.494,0.496-25.086-4.957
						c-5.942-4.297-9.242-10.246-10.397-17.517c-0.825-5.784-0.166-11.237,2.475-16.525c3.137-6.445,8.253-10.741,14.855-13.22
						C77.108,19.987,80.905,19.491,85.196,19.491z M99.225,46.922c0.166-8.262-6.106-14.542-14.193-14.707
						c-8.252-0.165-14.524,6.114-14.524,14.377c-0.165,8.428,5.943,14.707,14.194,14.872C92.954,61.63,99.06,55.515,99.225,46.922z"
						/>
					<path id="Shape_58_" fill="#FFFFFF" d="M154.845,21.143v12.559c-2.474,0-5.116-0.331-7.592,0
						c-5.116,0.826-8.913,2.313-11.553,6.775c-0.33,0.496-0.66,2.313-0.66,2.81v28.093V72.7H120.35V20.648h14.689v5.123
						C141.146,22.3,146.594,20.978,154.845,21.143z"/>
					<path id="Shape_57_" fill="#FFFFFF" d="M212.612,28.249c-5.944-6.61-13.534-9.419-21.789-9.419
						c-4.288,0-8.084,0.661-11.554,1.983c-1.152,0.496-2.146,0.827-3.135,1.322v-22.97h-14.522v46.27l0,0
						c0,1.652,0,3.305,0.328,4.958c1.156,7.271,4.459,13.22,10.4,17.517c7.59,5.619,16.174,6.939,25.087,4.957
						c13.201-2.809,21.783-13.219,21.949-26.438C219.377,39.486,217.23,33.372,212.612,28.249z M204.687,46.261
						c-0.165,8.594-6.269,14.707-14.521,14.543c-8.255-0.166-14.36-6.445-14.195-14.873v-0.496l0,0V45.27
						c0.332-7.932,6.6-13.716,14.525-13.716C198.747,31.719,204.854,37.999,204.687,46.261z"/>
					<path id="Shape_56_" fill="#FFFFFF" d="M247.932,72.37c8.745,1.488,16.502-0.991,23.106-6.113
						c3.302-2.645,5.94-5.453,7.921-8.76c0.661-0.99,1.156-1.982,1.651-2.975l14.192,18.014l11.389-8.924l-28.555-36.355l0,0
						c-0.989-1.322-2.144-2.479-3.299-3.801c-5.28-4.958-11.718-7.601-18.981-7.271c-9.405,0.331-16.834,4.627-22.776,11.567
						c-8.746,10.411-8.911,23.797-0.99,34.372C235.551,67.743,241.165,71.214,247.932,72.37z M242.979,53.366
						c-5.117-6.774-4.126-15.369,2.475-20.49c6.604-5.123,15.187-3.966,20.302,2.809c0.165,0.166,0.165,0.331,0.329,0.496l0,0v0.166
						c4.62,6.445,3.303,14.873-2.969,19.831C256.677,61.134,247.932,59.978,242.979,53.366z"/>
				</g>
			</g>
		</g>
	</g>
</g>
</svg>
