<?xml version="1.0" encoding="utf-8"?>
<!-- Generator: Adobe Illustrator 16.0.0, SVG Export Plug-In . SVG Version: 6.00 Build 0)  -->
<!DOCTYPE svg PUBLIC "-//W3C//DTD SVG 1.1//EN" "http://www.w3.org/Graphics/SVG/1.1/DTD/svg11.dtd">
<svg version="1.1" id="Layer_1" xmlns="http://www.w3.org/2000/svg" xmlns:xlink="http://www.w3.org/1999/xlink" x="0px" y="0px"
	 width="350px" height="90px" viewBox="0 0 350 90" enable-background="new 0 0 350 90" xml:space="preserve">
<title>Layer_1</title>
<desc>Created with Sketch.</desc>
<g id="Page-1" opacity="0.8675">
	<g id="Mobile-Portrait" transform="translate(-75.000000, -116.000000)">
		<g id="Group-5" transform="translate(67.000000, 106.000000)">
			<g id="logo" transform="translate(8.000000, 0.000000)">
				<g id="Layer_1_1_" transform="translate(0.000000, 10.000000)">
					<g id="Group">
						<path id="Shape" fill="#FFFFFF" d="M44.799,68.746H80.85v12.945H22.32v-1.059v-8.078c0-0.969,1.645-1.613,2.124-2.262
							c11.834-15.346,24.171-30.786,36.001-46.134c0.161-0.321,1.144-1.221,1.306-1.221H24.709V8.996h56.87
							c0,1.992-0.16,5.448,0,7.871c0.16,2.1-0.48,4.015-1.92,5.792C68.307,37.361,56.953,52.488,45.6,67.354
							C45.279,67.674,45.12,67.75,44.799,68.746z"/>
						<path id="Shape_1_" fill="#FFFFFF" d="M114.52,29.422c7.997,0.16,15.511,2.745,21.111,9.207
							c4.475,5.008,6.554,11.146,6.395,17.771c-0.161,12.926-8.475,23.102-21.269,25.848c-8.796,1.781-16.95,0.485-24.306-4.847
							c-5.757-4.2-8.956-10.015-10.076-17.124c-0.799-5.654-0.158-10.985,2.399-16.156c3.038-6.3,7.996-10.501,14.392-12.924
							C106.685,29.905,110.362,29.422,114.52,29.422z M128.111,56.24c0.163-8.078-5.915-14.218-13.751-14.38
							c-7.996-0.16-14.071,5.977-14.071,14.056c-0.161,8.238,5.755,14.377,13.751,14.537
							C122.035,70.615,127.954,64.64,128.111,56.24z"/>
						<path id="Shape_2_" fill="#FFFFFF" d="M181.188,31.037v12.277c-2.39,0-4.553-0.323-6.95,0
							c-4.958,0.808-8.801,2.262-11.36,6.624c-0.318,0.484-0.803,2.262-0.803,2.746v27.465v1.543h-14.334V29.908h14.334v5.651
							C168.048,32.167,172.827,30.875,181.188,31.037z"/>
						<path id="Shape_3_" fill="#FFFFFF" d="M237.969,37.983c-5.755-6.463-13.11-9.209-21.104-9.209
							c-4.158,0-8.405,0.648-11.765,1.938c-1.118,0.485-2.411,0.808-3.605,1.292V8h-14.336v46.783l0,0
							c0,1.617,0.703,3.232,1.021,4.848c1.12,7.109,4.669,12.924,10.424,17.125c7.357,5.492,15.845,6.785,24.479,4.846
							c12.794-2.746,21.197-12.924,21.356-25.848C244.439,48.969,242.45,42.991,237.969,37.983z M230.296,55.592
							c-0.163,8.402-6.564,14.379-14.562,14.215c-7.994-0.16-14.239-6.299-14.239-14.539v-0.484l0,0v-0.16
							c0-7.755,6.882-13.409,14.561-13.409C224.05,41.375,230.455,47.515,230.296,55.592z"/>
						<path id="Shape_4_" fill="#FFFFFF" d="M272.193,81.118c8.474,1.454,15.991-0.97,22.386-5.978
							c3.197-2.586,5.759-5.334,7.678-8.562c0.638-0.97,1.117-1.938,1.6-2.908l13.753,17.609l11.032-8.725l-27.665-35.541l0,0
							c-0.961-1.292-2.081-2.423-3.2-3.716c-5.115-4.846-11.352-7.431-18.387-7.108c-9.116,0.322-16.314,4.523-22.069,11.309
							c-8.476,10.176-8.637,23.263-0.959,33.603C260.2,76.594,265.636,79.986,272.193,81.118z M267.395,62.539
							c-4.958-6.623-3.995-15.024,2.398-20.032c6.396-5.008,14.765-3.878,19.723,2.746c0.158,0.162,0.37,0.323,0.37,0.484l0,0v0.162
							c3.585,6.3,3.147,14.54-2.93,19.388C280.722,70.133,272.193,69,267.395,62.539z"/>
					</g>
				</g>
			</g>
		</g>
	</g>
</g>
</svg>
